*
*
G04 PADS 9.5 Build Number: 522968 generated Gerber (RS-274-X) file*
G04 PC Version=2.1*
*
%IN "SCAN_V2.01.pcb"*%
*
%MOIN*%
*
%FSLAX35Y35*%
*
*
*
*
G04 PC Standard Apertures*
*
*
G04 Thermal Relief Aperture macro.*
%AMTER*
1,1,$1,0,0*
1,0,$1-$2,0,0*
21,0,$3,$4,0,0,45*
21,0,$3,$4,0,0,135*
%
*
*
G04 Annular Aperture macro.*
%AMANN*
1,1,$1,0,0*
1,0,$2,0,0*
%
*
*
G04 Odd Aperture macro.*
%AMODD*
1,1,$1,0,0*
1,0,$1-0.005,0,0*
%
*
*
G04 PC Custom Aperture Macros*
*
*
*
*
*
*
G04 PC Aperture Table*
*
%ADD013C,0.001*%
%ADD023C,0.01*%
%ADD024C,0.012*%
%ADD041C,0.02*%
%ADD079C,0.03*%
%ADD080C,0.015*%
%ADD128C,0.06*%
%ADD135R,0.06X0.06*%
%ADD138C,0.04*%
%ADD216C,0.04331*%
%ADD293C,0.02756*%
*
*
*
*
G04 PC Circuitry*
G04 Layer Name SCAN_V2.01.pcb - circuitry*
%LPD*%
*
*
G04 PC Custom Flashes*
G04 Layer Name SCAN_V2.01.pcb - flashes*
%LPD*%
*
*
G04 PC Circuitry*
G04 Layer Name SCAN_V2.01.pcb - circuitry*
%LPD*%
*
G54D13*
G54D23*
G01X2042953Y1505138D02*
X2121732D01*
X2121929Y1505335*
X2042953Y1505138D02*
X2040276Y1507815D01*
X2040276*
X2044803Y1508760D02*
X2084803D01*
X1924803Y1541260D02*
X1929657D01*
X1937157Y1548760*
X2037303*
X2034803Y1543760D02*
X2069803D01*
X1872303Y1568760D02*
Y1602205D01*
X1921457Y1651358*
X1926693*
X1894803Y1566260D02*
X2002303D01*
X1877913Y1571083D02*
Y1603563D01*
X1920157Y1645807*
X1926654*
X1930118Y1649272*
X1899803Y1576260D02*
X2002303D01*
X1934803Y1596260D02*
X1954803D01*
X1922303Y1588406D02*
X2066102D01*
X1904921Y1600610D02*
Y1623760D01*
X1934882Y1600689D02*
X1967362Y1600768D01*
X1932303Y1628760D02*
X1943976D01*
X1949252Y1634035*
X2008780Y1636909D02*
X1946654D01*
X1934803Y1648760*
X2008780Y1636909D02*
X2032953D01*
X2039173Y1643130*
Y1646319*
X2039449Y1646594*
X2072303Y1628760D02*
X2071847D01*
X2066571Y1634035*
X1949252*
X1888898Y1647067D02*
Y1663878D01*
X1905354Y1678996*
X1928740*
X1934291Y1684547*
Y1704902*
X1925433Y1713760*
X1897480Y1646437D02*
X1897283Y1646713D01*
X1962795Y1643760D02*
Y1649783D01*
X1962756Y1651831*
X2008780Y1638720D02*
X2013819D01*
X2021693Y1646594*
X2029449*
X2008780Y1638720D02*
X1947835D01*
X1938307Y1648248*
Y1651280*
X2008780Y1640531D02*
X1958031D01*
X1954803Y1643760*
X2008780Y1640531D02*
X2019724Y1651476D01*
X1922303Y1666260D02*
X1923524Y1667480D01*
X1971476*
X1974803Y1670807*
Y1671260*
X1977717Y1667224D02*
X1979567Y1669075D01*
Y1713799*
X1982283Y1665846D02*
X1989567Y1673130D01*
Y1713799*
X1976732Y1662657D02*
X2038031D01*
X2061693Y1686319*
X2071654*
X2072087Y1686752*
X1976732Y1662657D02*
X1975551D01*
X1973858Y1664350*
X1927992*
X2039528Y1660531D02*
X1973386D01*
X1972441Y1661476*
X1923071*
X2039528Y1660531D02*
X2055354Y1676358D01*
X2071693*
X2072087Y1676752*
X1928622Y1689390D02*
X1916890D01*
X1892520Y1713760*
X1892520*
X1924134Y1683839D02*
X1912520D01*
X1882520Y1713760*
X1946614Y1684035D02*
Y1711890D01*
X1945433Y1713760*
X1940827Y1682933D02*
Y1708366D01*
X1935433Y1713760*
X2037874Y1683209D02*
X2037323Y1683760D01*
X2037303*
X2145157Y1499429D02*
G75*
G03X2145157I-3700J0D01*
G01X2141188Y1540728D02*
G03X2141188I-3865J0D01*
G01X2141003Y1603760D02*
G03X2141003I-3700J0D01*
G01X2125440Y1540728D02*
G03X2125440I-3865J0D01*
G01X2097637Y1538957D02*
G03X2097637I-3700J0D01*
G01X2088503Y1708169D02*
G03X2088503I-3700J0D01*
G01X2063503Y1571260D02*
G03X2063503I-3700J0D01*
G01X2068031Y1616476D02*
G03X2068031I-3700J0D01*
G01X2068936Y1641161D02*
G03X2068936I-3700J0D01*
G01X2054802Y1647736D02*
G03X2054802I-3700J0D01*
G01X2041003Y1683760D02*
G03X2041003I-3700J0D01*
G01X1876298Y1661909D02*
G03X1876298I-3700J0D01*
G01X1886003Y1558760D02*
G03X1886003I-3700J0D01*
G01X1868109Y1524154D02*
G03X1868109I-3700J0D01*
G01X1874133Y1553642D02*
G03X1874133I-3700J0D01*
G01X1877952Y1642106D02*
G03X1877952I-3700J0D01*
G01X1956338Y1626988D02*
G03X1956338I-3700J0D01*
G01X1937795Y1619272D02*
G03X1937795I-3701J0D01*
G01X2025354Y1508130D02*
G03X2025354I-3700J0D01*
G01X2026220Y1541398D02*
G03X2026220I-3700J0D01*
G01X1978503Y1513760D02*
G03X1978503I-3700J0D01*
G01X1961003Y1508760D02*
G03X1961003I-3700J0D01*
G01X1938503Y1536260D02*
G03X1938503I-3700J0D01*
G01X2149343Y1480127D02*
Y1719873D01*
G03X2148843Y1720373I-500J0*
G01X1851013*
G03X1850513Y1719873I-0J-500*
G01Y1480127*
G03X1851013Y1479627I500J-0*
G01X1879584*
G03X1879790Y1480582I-0J500*
G01X1886252Y1486153D02*
G03X1879790Y1480582I-4520J-1291D01*
G01X1886252Y1486153D02*
G03X1887213I480J138D01*
G01X1895437Y1487755D02*
G03X1887213Y1486153I-3705J-2893D01*
G01X1895437Y1487755D02*
G03X1895831Y1487562I394J307D01*
G01X1976417*
X1978327Y1486771D02*
G03X1976417Y1487562I-1910J-1909D01*
G01X1978327Y1486771D02*
X1979791Y1485307D01*
G03X1980144Y1485161I353J354*
G01X1983652*
G03X1984145Y1485742I-0J500*
G01X1990071Y1484653D02*
G03X1984145Y1485742I-2768J1607D01*
G01X1990071Y1484653D02*
G03X1990003Y1484402I432J-251D01*
G01Y1484331*
X1989212Y1482422D02*
G03X1990003Y1484331I-1909J1909D01*
G01X1989212Y1482422D02*
X1987342Y1480551D01*
X1987280Y1480491D02*
G03X1987342Y1480551I-1847J1970D01*
G01X1987280Y1480491D02*
G03X1987622Y1479627I342J-364D01*
G01X2148843*
G03X2149343Y1480127I-0J500*
G01X1971737Y1672177D02*
G03X1971085Y1672789I-479J143D01*
G01X1966895Y1673972D02*
G03X1971085Y1672789I2908J2288D01*
G01X1966895Y1673972D02*
G03X1966002Y1673675I-393J-309D01*
G01X1964239Y1670606D02*
G03X1966002Y1673675I-1936J3154D01*
G01X1964239Y1670606D02*
G03X1964500Y1669680I261J-426D01*
G01X1970358*
G03X1970712Y1669827I-0J500*
G01X1971471Y1670586*
G03X1971615Y1670983I-354J353*
G01X1971737Y1672177D02*
G03X1971615Y1670983I3066J-917D01*
G01X1889584Y1479627D02*
G03X1889790Y1480582I-0J500D01*
G01X1887213Y1483571D02*
G03X1889790Y1480582I4519J1291D01*
G01X1887213Y1483571D02*
G03X1886252I-481J-137D01*
G01X1883674Y1480582D02*
G03X1886252Y1483571I-1942J4280D01*
G01X1883674Y1480582D02*
G03X1883881Y1479627I207J-455D01*
G01X1889584*
X2145157Y1499429D02*
G03X2145157I-3700J0D01*
G01X2141188Y1540728D02*
G03X2141188I-3865J0D01*
G01X2141003Y1603760D02*
G03X2141003I-3700J0D01*
G01X2119938Y1502829D02*
G03X2119573Y1507500I1991J2506D01*
G01X2119938Y1502829D02*
G03X2119627Y1502938I-311J-391D01*
G01X2107493*
G03X2107154Y1502070I0J-500*
G01X2102137D02*
G03X2107154I2509J-2720D01*
G01X2102137D02*
G03X2101798Y1502938I-339J368D01*
G01X2069823*
G03X2069582Y1502000I0J-500*
G01X2066009D02*
G03X2069582I1786J-3240D01*
G01X2066009D02*
G03X2065767Y1502938I-242J438D01*
G01X2042953*
X2041397Y1503582D02*
G03X2042953Y1502938I1556J1556D01*
G01X2041397Y1503582D02*
X2040509Y1504470D01*
G03X2040172Y1504617I-354J-353*
G01X2041723Y1510669D02*
G03X2040172Y1504617I-1447J-2854D01*
G01X2041723Y1510669D02*
G03X2042335Y1510797I226J446D01*
G01X2046991Y1511095D02*
G03X2042335Y1510797I-2188J-2335D01*
G01X2046991Y1511095D02*
G03X2047333Y1510960I342J365D01*
G01X2082273*
G03X2082615Y1511095I0J500*
G01X2087902Y1507962D02*
G03X2082615Y1511095I-3099J798D01*
G01X2087902Y1507962D02*
G03X2088386Y1507338I484J-124D01*
G01X2119204*
G03X2119573Y1507500I0J500*
G01X2125440Y1540728D02*
G03X2125440I-3865J0D01*
G01X2097637Y1538957D02*
G03X2097637I-3700J0D01*
G01X2088503Y1708169D02*
G03X2088503I-3700J0D01*
G01X2067615Y1541425D02*
G03Y1546095I2188J2335D01*
G01Y1541425D02*
G03X2067273Y1541560I-342J-365D01*
G01X2037333*
G03X2036991Y1541425I-0J-500*
G01X2032296Y1545749D02*
G03X2036991Y1541425I2507J-1989D01*
G01X2032296Y1545749D02*
G03X2031905Y1546560I-391J311D01*
G01X1938276*
G03X1937922Y1546413I-0J-500*
G01X1931213Y1539704*
X1929657Y1539060D02*
G03X1931213Y1539704I0J2200D01*
G01X1929657Y1539060D02*
X1927333D01*
G03X1926991Y1538925I-0J-500*
G01X1921880Y1542561D02*
G03X1926991Y1538925I2923J-1301D01*
G01X1921880Y1542561D02*
G03X1921423Y1543265I-457J204D01*
G01X1897822*
G03X1897468Y1543118I-0J-500*
G01X1896416Y1542066*
G03Y1541359I354J-353*
G01X1906482Y1531293*
G03X1906795Y1531149I353J354*
G01X1902808Y1527162D02*
G03X1906795Y1531149I3688J299D01*
G01X1902808Y1527162D02*
G03X1902663Y1527475I-498J-41D01*
G01X1893257Y1536881*
G03X1892619Y1536939I-354J-353*
G01X1890213Y1543668D02*
G03X1892619Y1536939I299J-3688D01*
G01X1890213Y1543668D02*
G03X1890526Y1543813I-40J499D01*
G01X1894587Y1547874*
X1896496Y1548665D02*
G03X1894587Y1547874I0J-2700D01*
G01X1896496Y1548665D02*
X1922511D01*
G03X1922821Y1548772I0J500*
G01X1927310Y1544271D02*
G03X1922821Y1548772I-2507J1989D01*
G01X1927310Y1544271D02*
G03X1927701Y1543460I391J-311D01*
G01X1928539*
G03X1928892Y1543606I-0J500*
G01X1935602Y1550315*
X1937157Y1550960D02*
G03X1935602Y1550315I0J-2200D01*
G01X1937157Y1550960D02*
X2034773D01*
G03X2035115Y1551095I0J500*
G01X2039810Y1546771D02*
G03X2035115Y1551095I-2507J1989D01*
G01X2039810Y1546771D02*
G03X2040201Y1545960I391J-311D01*
G01X2067273*
G03X2067615Y1546095I0J500*
G01X2048827Y1556681D02*
G03Y1559263I4519J1291D01*
G01Y1556681D02*
G03X2047866I-481J-137D01*
G01X2039164Y1555827D02*
G03X2047866Y1556681I4182J2145D01*
G01X2039164Y1555827D02*
G03X2038720Y1556099I-444J-228D01*
G01X1950594*
G03X1950270Y1555980I0J-500*
G01X1944324Y1557756D02*
G03X1950270Y1555980I3550J1043D01*
G01X1944324Y1557756D02*
G03X1943363Y1557752I-480J-141D01*
G01X1943353Y1559803D02*
G03X1943363Y1557752I-3550J-1043D01*
G01X1943353Y1559803D02*
G03X1944314Y1559807I480J141D01*
G01X1950270Y1561618D02*
G03X1944314Y1559807I-2396J-2819D01*
G01X1950270Y1561618D02*
G03X1950594Y1561499I324J381D01*
G01X2040056*
G03X2040373Y1561612I0J500*
G01X2047866Y1559263D02*
G03X2040373Y1561612I-4520J-1291D01*
G01X2047866Y1559263D02*
G03X2048827I480J138D01*
G01X2063503Y1571260D02*
G03X2063503I-3700J0D01*
G01X2063914Y1586070D02*
G03Y1590741I2188J2336D01*
G01Y1586070D02*
G03X2063573Y1586205I-341J-365D01*
G01X2018925*
G03X2018702Y1585258I0J-500*
G01X2015393D02*
G03X2018702I1654J-3309D01*
G01X2015393D02*
G03X2015169Y1586205I-224J447D01*
G01X1950418*
G03X1950153Y1585282I-0J-500*
G01X1950600Y1579339D02*
G03X1950152Y1585282I-2411J2807D01*
G01X1950600Y1579339D02*
G03X1950926Y1578460I326J-379D01*
G01X1999773*
G03X2000115Y1578595I0J500*
G01Y1573925D02*
G03Y1578595I2188J2335D01*
G01Y1573925D02*
G03X1999773Y1574060I-342J-365D01*
G01X1965817*
G03X1965399Y1573286I0J-500*
G01Y1569234D02*
G03Y1573286I-3096J2026D01*
G01Y1569234D02*
G03X1965817Y1568460I418J-274D01*
G01X1999773*
G03X2000115Y1568595I0J500*
G01Y1563925D02*
G03Y1568595I2188J2335D01*
G01Y1563925D02*
G03X1999773Y1564060I-342J-365D01*
G01X1897333*
G03X1896991Y1563925I-0J-500*
G01Y1568595D02*
G03Y1563925I-2188J-2335D01*
G01Y1568595D02*
G03X1897333Y1568460I342J365D01*
G01X1958789*
G03X1959207Y1569234I-0J500*
G01Y1573286D02*
G03Y1569234I3096J-2026D01*
G01Y1573286D02*
G03X1958789Y1574060I-418J274D01*
G01X1902333*
G03X1901991Y1573925I-0J-500*
G01X1897676Y1578651D02*
G03X1901991Y1573925I2127J-2391D01*
G01X1897676Y1578651D02*
G03X1897344Y1579524I-332J373D01*
G01X1891382*
G03X1891058Y1579405I-0J-500*
G01Y1585043D02*
G03Y1579405I-2397J-2819D01*
G01Y1585043D02*
G03X1891382Y1584924I324J381D01*
G01X1905938*
G03X1906398Y1585620I-0J500*
G01X1913209D02*
G03X1906398I-3406J1447D01*
G01X1913209D02*
G03X1913669Y1584924I460J-196D01*
G01X1920112*
G03X1920408Y1585827I-0J500*
G01X1924491Y1590741D02*
G03X1920408Y1585827I-2188J-2335D01*
G01X1924491Y1590741D02*
G03X1924833Y1590606I342J365D01*
G01X2063573*
G03X2063914Y1590741I-0J500*
G01X2068031Y1616476D02*
G03X2068031I-3700J0D01*
G01X2068936Y1641161D02*
G03X2068936I-3700J0D01*
G01X2054802Y1647736D02*
G03X2054802I-3700J0D01*
G01X2076787Y1689752D02*
Y1683752D01*
X2075087Y1682052D02*
G03X2076787Y1683752I-0J1700D01*
G01X2075087Y1682052D02*
X2074087D01*
G03X2073894Y1681090I-0J-500*
G01X2068309Y1673956D02*
G03X2073894Y1681090I3778J2796D01*
G01X2068309Y1673956D02*
G03X2067907Y1674158I-402J-298D01*
G01X2056473*
G03X2056119Y1674012I-0J-500*
G01X2041083Y1658976*
X2039528Y1658331D02*
G03X2041083Y1658976I-0J2200D01*
G01X2039528Y1658331D02*
X1973386D01*
X1971830Y1658976D02*
G03X1973386Y1658331I1556J1555D01*
G01X1971830Y1658976D02*
X1971676Y1659130D01*
G03X1971323Y1659276I-353J-354*
G01X1941871*
G03X1941518Y1658423I0J-500*
G01X1949586Y1650354*
X1950377Y1648445D02*
G03X1949586Y1650354I-2700J-0D01*
G01X1950377Y1648445D02*
Y1646992D01*
G03X1950496Y1646668I500J-0*
G01X1951165Y1645507D02*
G03X1950496Y1646668I-3488J-1235D01*
G01X1951165Y1645507D02*
G03X1952064Y1645415I471J166D01*
G01X1958001Y1643864D02*
G03X1952064Y1645415I-3198J-104D01*
G01X1958001Y1643864D02*
G03X1958148Y1643527I500J16D01*
G01X1958777Y1642897*
G03X1959626Y1643320I353J354*
G01X1960460Y1645948D02*
G03X1959626Y1643320I2335J-2188D01*
G01X1960460Y1645948D02*
G03X1960595Y1646290I-365J342D01*
G01Y1649260*
G03X1960455Y1649607I-500J-0*
G01X1965125Y1649680D02*
G03X1960455Y1649607I-2369J2151D01*
G01X1965125Y1649680D02*
G03X1964995Y1649344I370J-336D01*
G01Y1646290*
G03X1965130Y1645948I500J-0*
G01X1965963Y1643303D02*
G03X1965130Y1645948I-3168J457D01*
G01X1965963Y1643303D02*
G03X1966457Y1642732I494J-71D01*
G01X2007661*
G03X2008015Y1642878I0J500*
G01X2016380Y1651243*
G03X2016526Y1651580I-354J354*
G01X2022309Y1649589D02*
G03X2016526Y1651580I-2585J1887D01*
G01X2022309Y1649589D02*
G03X2022713Y1648795I404J-294D01*
G01X2024249*
G03X2024749Y1649295I-0J500*
G01Y1649594*
X2026449Y1651295D02*
G03X2024749Y1649594I-0J-1701D01*
G01X2026449Y1651295D02*
X2032449D01*
X2034149Y1649594D02*
G03X2032449Y1651295I-1700J0D01*
G01X2034149Y1649594D02*
Y1648595D01*
G03X2035110Y1648402I500J-0*
G01X2041341Y1642292D02*
G03X2035110Y1648402I-1892J4302D01*
G01X2041341Y1642292D02*
G03X2041103Y1642074I201J-458D01*
G01X2040729Y1641574D02*
G03X2041103Y1642074I-1556J1556D01*
G01X2040729Y1641574D02*
X2036244Y1637089D01*
G03X2036597Y1636235I353J-354*
G01X2066571*
X2068127Y1635591D02*
G03X2066571Y1636235I-1556J-1556D01*
G01X2068127Y1635591D02*
X2071626Y1632092D01*
G03X2072023Y1631948I353J354*
G01X2069150Y1628216D02*
G03X2072023Y1631948I3153J544D01*
G01X2069150Y1628216D02*
G03X2069010Y1628485I-493J-85D01*
G01X2065806Y1631689*
G03X2065453Y1631835I-353J-354*
G01X1985621*
G03X1985226Y1631029I-0J-500*
G01X1979380D02*
G03X1985226I2923J-2269D01*
G01X1979380D02*
G03X1978986Y1631835I-394J306D01*
G01X1950370*
G03X1950017Y1631689I0J-500*
G01X1945532Y1627204*
X1943976Y1626560D02*
G03X1945532Y1627204I0J2200D01*
G01X1943976Y1626560D02*
X1934833D01*
G03X1934491Y1626425I-0J-500*
G01X1931097Y1631724D02*
G03X1934491Y1626425I1206J-2964D01*
G01X1931097Y1631724D02*
G03X1931372Y1632374I-188J463D01*
G01X1937899Y1631734D02*
G03X1931372Y1632374I-3096J2026D01*
G01X1937899Y1631734D02*
G03X1938317Y1630960I418J-274D01*
G01X1942858*
G03X1943212Y1631106I-0J500*
G01X1946113Y1634008*
G03X1945925Y1634833I-353J354*
G01X1945098Y1635354D02*
G03X1945925Y1634833I1556J1555D01*
G01X1945098Y1635354D02*
X1935036Y1645415D01*
G03X1934699Y1645562I-353J-353*
G01X1932509Y1646529D02*
G03X1934699Y1645562I2294J2231D01*
G01X1932509Y1646529D02*
G03X1931876Y1646598I-358J-349D01*
G01X1930222Y1646073D02*
G03X1931876Y1646598I-104J3199D01*
G01X1930222Y1646073D02*
G03X1929885Y1645927I16J-499D01*
G01X1928209Y1644251*
X1926654Y1643607D02*
G03X1928209Y1644251I-0J2200D01*
G01X1926654Y1643607D02*
X1921276D01*
G03X1920922Y1643461I-0J-500*
G01X1905218Y1627756*
G03X1905483Y1626910I353J-354*
G01X1907256Y1621572D02*
G03X1905483Y1626910I-2335J2188D01*
G01X1907256Y1621572D02*
G03X1907121Y1621230I365J-342D01*
G01Y1603140*
G03X1907256Y1602798I500J0*
G01X1902586D02*
G03X1907256I2335J-2188D01*
G01X1902586D02*
G03X1902721Y1603140I-365J342D01*
G01Y1621230*
G03X1902586Y1621572I-500J0*
G01X1901771Y1623198D02*
G03X1902586Y1621572I3150J562D01*
G01X1901771Y1623198D02*
G03X1900925Y1623464I-492J-88D01*
G01X1880260Y1602798*
G03X1880113Y1602445I353J-353*
G01Y1574300*
G03X1880292Y1573917I500J-0*
G01X1876420Y1567697D02*
G03X1880292Y1573917I1493J3386D01*
G01X1876420Y1567697D02*
G03X1875752Y1567421I-202J-457D01*
G01X1869925Y1571594D02*
G03X1875752Y1567421I2378J-2834D01*
G01X1869925Y1571594D02*
G03X1870103Y1571977I-322J383D01*
G01Y1602205*
X1870748Y1603760D02*
G03X1870103Y1602205I1555J-1555D01*
G01X1870748Y1603760D02*
X1893874Y1626886D01*
G03X1893375Y1627719I-354J354*
G01X1895844Y1630188D02*
G03X1893375Y1627719I-3541J1072D01*
G01X1895844Y1630188D02*
G03X1896677Y1629689I479J-145D01*
G01X1919901Y1652914*
X1920012Y1653017D02*
G03X1919901Y1652914I1445J-1659D01*
G01X1920012Y1653017D02*
G03X1919684Y1653894I-328J377D01*
G01X1916693*
X1914869*
G03X1914515Y1653748I-0J-500*
G01X1910669Y1649902*
X1901274Y1640506*
G03X1901129Y1640193I353J-353*
G01X1894887Y1643169D02*
G03X1901129Y1640193I2554J-2677D01*
G01X1894887Y1643169D02*
G03X1894868Y1643910I-345J362D01*
G01X1893583Y1646713D02*
G03X1894868Y1643910I3700J-0D01*
G01X1893583Y1646713D02*
Y1646721D01*
Y1646722*
G03X1893561Y1646870I-500J-0*
X1893596Y1647017I-463J188*
G01X1900585Y1648382D02*
G03X1893596Y1647017I-3302J-1669D01*
G01X1900585Y1648382D02*
G03X1901385Y1648255I446J226D01*
G01X1906851Y1653720*
X1911634Y1658504*
X1911957Y1658826*
G03X1912103Y1659180I-354J354*
G01Y1671040*
G03X1911984Y1671363I-500J-0*
G01X1911854Y1675994D02*
G03X1911984Y1671363I2949J-2234D01*
G01X1911854Y1675994D02*
G03X1911455Y1676796I-399J302D01*
G01X1906406*
G03X1906068Y1676664I0J-500*
G01X1891259Y1663060*
G03X1891098Y1662692I339J-368*
G01Y1650284*
G03X1891276Y1649901I500J0*
G01X1892598Y1647067D02*
G03X1891276Y1649901I-3700J-0D01*
G01X1892598Y1647067D02*
Y1647058D01*
X1892598*
G03X1892620Y1646910I500J-0*
X1892585Y1646763I463J-188*
G01X1886519Y1649901D02*
G03X1892585Y1646763I2379J-2834D01*
G01X1886519Y1649901D02*
G03X1886698Y1650284I-321J383D01*
G01Y1663878*
X1887409Y1665498D02*
G03X1886698Y1663878I1489J-1620D01*
G01X1887409Y1665498D02*
X1903866Y1680616D01*
X1905354Y1681196D02*
G03X1903866Y1680616I0J-2200D01*
G01X1905354Y1681196D02*
X1910877D01*
G03X1911181Y1682093I-0J500*
G01X1910966Y1682281D02*
G03X1911181Y1682093I1554J1558D01*
G01X1910966Y1682281D02*
X1884113Y1709064D01*
G03X1883640Y1709195I-353J-354*
G01X1886858Y1715568D02*
G03X1883640Y1709195I-4338J-1808D01*
G01X1886858Y1715568D02*
G03X1887820Y1715760I462J192D01*
G01Y1716760*
X1889520Y1718460D02*
G03X1887820Y1716760I-0J-1700D01*
G01X1889520Y1718460D02*
X1895520D01*
X1897220Y1716760D02*
G03X1895520Y1718460I-1700J-0D01*
G01X1897220Y1716760D02*
Y1712378D01*
G03X1897366Y1712025I500J0*
G01X1917655Y1691736*
G03X1918008Y1691590I353J354*
G01X1926092*
G03X1926434Y1691725I0J500*
G01X1931190Y1691299D02*
G03X1926434Y1691725I-2568J-1909D01*
G01X1931190Y1691299D02*
G03X1932091Y1691597I401J298D01*
G01Y1703783*
G03X1931945Y1704137I-500J0*
G01X1927020Y1709062*
G03X1926548Y1709194I-354J-354*
G01X1920914Y1712469D02*
G03X1926548Y1709194I4519J1291D01*
G01X1920914Y1712469D02*
G03X1919952I-481J-138D01*
G01Y1715051D02*
G03Y1712469I-4519J-1291D01*
G01Y1715051D02*
G03X1920914I481J137D01*
G01X1929952D02*
G03X1920914I-4519J-1291D01*
G01X1929952D02*
G03X1930914I481J137D01*
G01X1939952D02*
G03X1930914I-4519J-1291D01*
G01X1939952D02*
G03X1940914I481J137D01*
G01X1949772Y1715568D02*
G03X1940914Y1715051I-4339J-1808D01*
G01X1949772Y1715568D02*
G03X1950733Y1715760I461J192D01*
G01Y1716760*
X1952433Y1718460D02*
G03X1950733Y1716760I0J-1700D01*
G01X1952433Y1718460D02*
X1958433D01*
X1960133Y1716760D02*
G03X1958433Y1718460I-1700J-0D01*
G01X1960133Y1716760D02*
Y1713085D01*
G03X1960280Y1712732I500J0*
G01X1964212Y1708799*
X1965003Y1706890D02*
G03X1964212Y1708799I-2700J-0D01*
G01X1965003Y1706890D02*
Y1676480D01*
G03X1965122Y1676156I500J0*
G01X1965211Y1676047D02*
G03X1965122Y1676156I-2908J-2287D01*
G01X1965211Y1676047D02*
G03X1966104Y1676345I393J310D01*
G01X1973274Y1674978D02*
G03X1966104Y1676345I-3471J1282D01*
G01X1973274Y1674978D02*
G03X1973886Y1674326I469J-173D01*
G01X1976588Y1673916D02*
G03X1973886Y1674326I-1785J-2656D01*
G01X1976588Y1673916D02*
G03X1977367Y1674331I279J415D01*
G01Y1708599*
G03X1976867Y1709099I-500J0*
G01X1976567*
X1974867Y1710799D02*
G03X1976567Y1709099I1700J0D01*
G01X1974867Y1710799D02*
Y1716799D01*
X1976567Y1718499D02*
G03X1974867Y1716799I-0J-1700D01*
G01X1976567Y1718499D02*
X1982567D01*
X1984267Y1716799D02*
G03X1982567Y1718499I-1700J0D01*
G01X1984267Y1716799D02*
Y1715799D01*
G03X1985228Y1715607I500J0*
G01X1992007Y1709782D02*
G03X1985228Y1715607I-2440J4017D01*
G01X1992007Y1709782D02*
G03X1991767Y1709355I260J-427D01*
G01Y1673130*
X1991123Y1671574D02*
G03X1991767Y1673130I-1556J1556D01*
G01X1991123Y1671574D02*
X1985628Y1666080D01*
G03X1985482Y1665742I354J-354*
G01X1985455Y1665424D02*
G03X1985482Y1665742I-3172J422D01*
G01X1985455Y1665424D02*
G03X1985951Y1664858I496J-66D01*
G01X1985951D02*
X2036913D01*
X2036913D02*
G03X2037267Y1665004I0J500D01*
G01X2060137Y1687875*
X2061693Y1688519D02*
G03X2060137Y1687875I-0J-2200D01*
G01X2061693Y1688519D02*
X2066887D01*
G03X2067387Y1689019I-0J500*
G01Y1689752*
X2069087Y1691452D02*
G03X2067387Y1689752I-0J-1700D01*
G01X2069087Y1691452D02*
X2075087D01*
X2076787Y1689752D02*
G03X2075087Y1691452I-1700J-0D01*
G01X2041003Y1683760D02*
G03X2041003I-3700J0D01*
G01X1876298Y1661909D02*
G03X1876298I-3700J0D01*
G01X1886003Y1558760D02*
G03X1886003I-3700J0D01*
G01X1868109Y1524154D02*
G03X1868109I-3700J0D01*
G01X1874133Y1553642D02*
G03X1874133I-3700J0D01*
G01X1877952Y1642106D02*
G03X1877952I-3700J0D01*
G01X1965180Y1598427D02*
G03X1965169Y1603098I2182J2341D01*
G01X1965180Y1598427D02*
G03X1964838Y1598562I-341J-365D01*
G01X1958043Y1598545*
G03X1957606Y1597804I1J-500*
G01X1952615Y1593925D02*
G03X1957606Y1597804I2188J2335D01*
G01X1952615Y1593925D02*
G03X1952273Y1594060I-342J-365D01*
G01X1937333*
G03X1936991Y1593925I-0J-500*
G01X1932274Y1598221D02*
G03X1936991Y1593925I2529J-1961D01*
G01X1932274Y1598221D02*
G03X1932285Y1598819I-395J306D01*
G01X1937064Y1603029D02*
G03X1932285Y1598819I-2182J-2340D01*
G01X1937064Y1603029D02*
G03X1937406Y1602895I341J366D01*
G01X1964827Y1602962*
G03X1965169Y1603098I-1J500*
G01X1956338Y1626988D02*
G03X1956338I-3700J0D01*
G01X1937795Y1619272D02*
G03X1937795I-3701J0D01*
G01X2025354Y1508130D02*
G03X2025354I-3700J0D01*
G01X2026220Y1541398D02*
G03X2026220I-3700J0D01*
G01X1978503Y1513760D02*
G03X1978503I-3700J0D01*
G01X1994213Y1510427D02*
G03X1998112Y1514356I3090J833D01*
G01X1994213Y1510427D02*
G03X1994084Y1510650I-482J-130D01*
G01X1981616Y1523118*
G03X1981263Y1523265I-353J-353*
G01X1968153*
G03X1967830Y1523145I0J-500*
G01Y1528784D02*
G03Y1523146I-2397J-2819D01*
G01Y1528784D02*
G03X1968153Y1528665I323J381D01*
G01X1982588*
X1984498Y1527874D02*
G03X1982588Y1528665I-1910J-1909D01*
G01X1984498Y1527874D02*
X1997885Y1514486D01*
G03X1998112Y1514356I354J354*
G01X1961003Y1508760D02*
G03X1961003I-3700J0D01*
G01X1938503Y1536260D02*
G03X1938503I-3700J0D01*
G01X1883583Y1479725D02*
X1889882D01*
X1883767Y1480625D02*
X1889698D01*
X1885042Y1481525D02*
X1888422D01*
X1885751Y1482425D02*
X1887713D01*
X1886174Y1483325D02*
X1887291D01*
X1965714Y1672325D02*
X1971758D01*
X1965174Y1671425D02*
X1971607D01*
X1964138Y1670525D02*
X1971410D01*
X1965964Y1673225D02*
X1967686D01*
X1966312Y1674125D02*
X1966692D01*
X1850513Y1719125D02*
X2149343D01*
X1991148Y1718225D02*
X2149343D01*
X1992674Y1717325D02*
X2149343D01*
X1993465Y1716425D02*
X2149343D01*
X1993938Y1715525D02*
X2149343D01*
X1994194Y1714625D02*
X2149343D01*
X1994266Y1713725D02*
X2149343D01*
X1994165Y1712825D02*
X2149343D01*
X1993877Y1711925D02*
X2149343D01*
X2087155Y1711025D02*
X2149343D01*
X2087944Y1710125D02*
X2149343D01*
X2088349Y1709225D02*
X2149343D01*
X2088500Y1708325D02*
X2149343D01*
X2088428Y1707425D02*
X2149343D01*
X2088118Y1706525D02*
X2149343D01*
X2087490Y1705625D02*
X2149343D01*
X2086156Y1704725D02*
X2149343D01*
X1991767Y1703825D02*
X2149343D01*
X1991767Y1702925D02*
X2149343D01*
X1991767Y1702025D02*
X2149343D01*
X1991767Y1701125D02*
X2149343D01*
X1991767Y1700225D02*
X2149343D01*
X1991767Y1699325D02*
X2149343D01*
X1991767Y1698425D02*
X2149343D01*
X1991767Y1697525D02*
X2149343D01*
X1991767Y1696625D02*
X2149343D01*
X1991767Y1695725D02*
X2149343D01*
X1991767Y1694825D02*
X2149343D01*
X1991767Y1693925D02*
X2149343D01*
X1991767Y1693025D02*
X2149343D01*
X1991767Y1692125D02*
X2149343D01*
X2075934Y1691225D02*
X2149343D01*
X2076687Y1690325D02*
X2149343D01*
X2076787Y1689425D02*
X2149343D01*
X2076787Y1688525D02*
X2149343D01*
X2076787Y1687625D02*
X2149343D01*
X2076787Y1686725D02*
X2149343D01*
X2076787Y1685825D02*
X2149343D01*
X2076787Y1684925D02*
X2149343D01*
X2076787Y1684025D02*
X2149343D01*
X2076667Y1683125D02*
X2149343D01*
X2075835Y1682225D02*
X2149343D01*
X2073641Y1681325D02*
X2149343D01*
X2075018Y1680425D02*
X2149343D01*
X2075881Y1679525D02*
X2149343D01*
X2076397Y1678625D02*
X2149343D01*
X2076685Y1677725D02*
X2149343D01*
X2076786Y1676825D02*
X2149343D01*
X2076713Y1675925D02*
X2149343D01*
X2076458Y1675025D02*
X2149343D01*
X2075984Y1674125D02*
X2149343D01*
X2075194Y1673225D02*
X2149343D01*
X2073667Y1672325D02*
X2149343D01*
X2053533Y1671425D02*
X2149343D01*
X2052633Y1670525D02*
X2149343D01*
X2051733Y1669625D02*
X2149343D01*
X2050833Y1668725D02*
X2149343D01*
X2049933Y1667825D02*
X2149343D01*
X2049033Y1666925D02*
X2149343D01*
X2048133Y1666025D02*
X2149343D01*
X2047233Y1665125D02*
X2149343D01*
X2046333Y1664225D02*
X2149343D01*
X2045433Y1663325D02*
X2149343D01*
X2044533Y1662425D02*
X2149343D01*
X2043633Y1661525D02*
X2149343D01*
X2042733Y1660625D02*
X2149343D01*
X2041833Y1659725D02*
X2149343D01*
X2040917Y1658825D02*
X2149343D01*
X1942015Y1657925D02*
X2149343D01*
X1942915Y1657025D02*
X2149343D01*
X1943815Y1656125D02*
X2149343D01*
X1944715Y1655225D02*
X2149343D01*
X2021181Y1654325D02*
X2149343D01*
X2022262Y1653425D02*
X2149343D01*
X2022748Y1652525D02*
X2149343D01*
X2022921Y1651625D02*
X2149343D01*
X2053283Y1650725D02*
X2149343D01*
X2054156Y1649825D02*
X2149343D01*
X2054606Y1648925D02*
X2149343D01*
X2054791Y1648025D02*
X2149343D01*
X2054752Y1647125D02*
X2149343D01*
X2054480Y1646225D02*
X2149343D01*
X2053909Y1645325D02*
X2149343D01*
X2066979Y1644425D02*
X2149343D01*
X2068083Y1643525D02*
X2149343D01*
X2068634Y1642625D02*
X2149343D01*
X2068893Y1641725D02*
X2149343D01*
X2068921Y1640825D02*
X2149343D01*
X2068724Y1639925D02*
X2149343D01*
X2068257Y1639025D02*
X2149343D01*
X2067351Y1638125D02*
X2149343D01*
X2036380Y1637225D02*
X2149343D01*
X2036311Y1636325D02*
X2149343D01*
X2068292Y1635425D02*
X2149343D01*
X2069192Y1634525D02*
X2149343D01*
X2070092Y1633625D02*
X2149343D01*
X2070992Y1632725D02*
X2149343D01*
X2073221Y1631825D02*
X2149343D01*
X2074659Y1630925D02*
X2149343D01*
X2075242Y1630025D02*
X2149343D01*
X2075482Y1629125D02*
X2149343D01*
X2075458Y1628225D02*
X2149343D01*
X2075164Y1627325D02*
X2149343D01*
X2074492Y1626425D02*
X2149343D01*
X1984100Y1625525D02*
X2149343D01*
X1955485Y1624625D02*
X2149343D01*
X1954383Y1623725D02*
X2149343D01*
X1935124Y1622825D02*
X2149343D01*
X1936673Y1621925D02*
X2149343D01*
X1937352Y1621025D02*
X2149343D01*
X2064943Y1620125D02*
X2149343D01*
X2066807Y1619225D02*
X2149343D01*
X2067536Y1618325D02*
X2149343D01*
X2067907Y1617425D02*
X2149343D01*
X2068030Y1616525D02*
X2149343D01*
X2067932Y1615625D02*
X2149343D01*
X2067590Y1614725D02*
X2149343D01*
X2066912Y1613825D02*
X2149343D01*
X2065370Y1612925D02*
X2149343D01*
X1907121Y1612025D02*
X2149343D01*
X1907121Y1611125D02*
X2149343D01*
X1907121Y1610225D02*
X2149343D01*
X1907121Y1609325D02*
X2149343D01*
X1907121Y1608425D02*
X2149343D01*
X1907121Y1607525D02*
X2149343D01*
X2139644Y1606625D02*
X2149343D01*
X2140438Y1605725D02*
X2149343D01*
X2140846Y1604825D02*
X2149343D01*
X2140999Y1603925D02*
X2149343D01*
X2140930Y1603025D02*
X2149343D01*
X2140623Y1602125D02*
X2149343D01*
X2139999Y1601225D02*
X2149343D01*
X2138680Y1600325D02*
X2149343D01*
X1970267Y1599425D02*
X2149343D01*
X1969645Y1598525D02*
X2149343D01*
X1967967Y1597625D02*
X2149343D01*
X1957969Y1596725D02*
X2149343D01*
X1957974Y1595825D02*
X2149343D01*
X1957712Y1594925D02*
X2149343D01*
X1957094Y1594025D02*
X2149343D01*
X1955448Y1593125D02*
X2149343D01*
X1880113Y1592225D02*
X2149343D01*
X2067412Y1591325D02*
X2149343D01*
X2068584Y1590425D02*
X2149343D01*
X2069100Y1589525D02*
X2149343D01*
X2069295Y1588625D02*
X2149343D01*
X2069229Y1587725D02*
X2149343D01*
X2068885Y1586825D02*
X2149343D01*
X2068125Y1585925D02*
X2149343D01*
X2019103Y1585025D02*
X2149343D01*
X2020039Y1584125D02*
X2149343D01*
X2020520Y1583225D02*
X2149343D01*
X2020728Y1582325D02*
X2149343D01*
X2020710Y1581425D02*
X2149343D01*
X2020463Y1580525D02*
X2149343D01*
X2019927Y1579625D02*
X2149343D01*
X2018864Y1578725D02*
X2149343D01*
X2005094Y1577825D02*
X2149343D01*
X2005433Y1576925D02*
X2149343D01*
X2005495Y1576025D02*
X2149343D01*
X2005295Y1575125D02*
X2149343D01*
X2062016Y1574225D02*
X2149343D01*
X2062873Y1573325D02*
X2149343D01*
X2063315Y1572425D02*
X2149343D01*
X2063494Y1571525D02*
X2149343D01*
X2063448Y1570625D02*
X2149343D01*
X2063170Y1569725D02*
X2149343D01*
X2062590Y1568825D02*
X2149343D01*
X2061407Y1567925D02*
X2149343D01*
X2005410Y1567025D02*
X2149343D01*
X2005500Y1566125D02*
X2149343D01*
X2005331Y1565225D02*
X2149343D01*
X2004852Y1564325D02*
X2149343D01*
X2003789Y1563425D02*
X2149343D01*
X2054513Y1562525D02*
X2149343D01*
X2056304Y1561625D02*
X2149343D01*
X2057156Y1560725D02*
X2149343D01*
X2057666Y1559825D02*
X2149343D01*
X2057949Y1558925D02*
X2149343D01*
X2058046Y1558025D02*
X2149343D01*
X2057970Y1557125D02*
X2149343D01*
X2057710Y1556225D02*
X2149343D01*
X2057230Y1555325D02*
X2149343D01*
X2056430Y1554425D02*
X2149343D01*
X2054868Y1553525D02*
X2149343D01*
X1873991Y1552625D02*
X2149343D01*
X2038505Y1551725D02*
X2149343D01*
X2039747Y1550825D02*
X2149343D01*
X2040283Y1549925D02*
X2149343D01*
X2040492Y1549025D02*
X2149343D01*
X2040440Y1548125D02*
X2149343D01*
X2040111Y1547225D02*
X2149343D01*
X2071716Y1546325D02*
X2149343D01*
X2072536Y1545425D02*
X2149343D01*
X2138046Y1544525D02*
X2149343D01*
X2139882Y1543625D02*
X2149343D01*
X2140632Y1542725D02*
X2149343D01*
X2141029Y1541825D02*
X2149343D01*
X2141183Y1540925D02*
X2149343D01*
X2141124Y1540025D02*
X2149343D01*
X2140840Y1539125D02*
X2149343D01*
X2140268Y1538225D02*
X2149343D01*
X2139156Y1537325D02*
X2149343D01*
X2096636Y1536425D02*
X2149343D01*
X2095321Y1535525D02*
X2149343D01*
X1938123Y1534625D02*
X2149343D01*
X1937499Y1533725D02*
X2149343D01*
X1936180Y1532825D02*
X2149343D01*
X1905850Y1531925D02*
X2149343D01*
X1907487Y1531025D02*
X2149343D01*
X1909063Y1530125D02*
X2149343D01*
X1967181Y1529225D02*
X2149343D01*
X1983898Y1528325D02*
X2149343D01*
X1984946Y1527425D02*
X2149343D01*
X1985846Y1526525D02*
X2149343D01*
X1986746Y1525625D02*
X2149343D01*
X1987646Y1524725D02*
X2149343D01*
X1988546Y1523825D02*
X2149343D01*
X1989446Y1522925D02*
X2149343D01*
X1990346Y1522025D02*
X2149343D01*
X1991246Y1521125D02*
X2149343D01*
X1992146Y1520225D02*
X2149343D01*
X1993046Y1519325D02*
X2149343D01*
X1993946Y1518425D02*
X2149343D01*
X1994846Y1517525D02*
X2149343D01*
X1995746Y1516625D02*
X2149343D01*
X1996646Y1515725D02*
X2149343D01*
X1997546Y1514825D02*
X2149343D01*
X1999074Y1513925D02*
X2149343D01*
X1999972Y1513025D02*
X2149343D01*
X2000384Y1512125D02*
X2149343D01*
X2086843Y1511225D02*
X2149343D01*
X2087594Y1510325D02*
X2149343D01*
X2087933Y1509425D02*
X2149343D01*
X2122172Y1508525D02*
X2149343D01*
X2124163Y1507625D02*
X2149343D01*
X2124811Y1506725D02*
X2149343D01*
X2125091Y1505825D02*
X2149343D01*
X2125103Y1504925D02*
X2149343D01*
X2124849Y1504025D02*
X2149343D01*
X2141622Y1503125D02*
X2149343D01*
X2143880Y1502225D02*
X2149343D01*
X2144634Y1501325D02*
X2149343D01*
X2145020Y1500425D02*
X2149343D01*
X2145155Y1499525D02*
X2149343D01*
X2145068Y1498625D02*
X2149343D01*
X2144741Y1497725D02*
X2149343D01*
X2144086Y1496825D02*
X2149343D01*
X2142646Y1495925D02*
X2149343D01*
X1850513Y1495025D02*
X2149343D01*
X1850513Y1494125D02*
X2149343D01*
X1850513Y1493225D02*
X2149343D01*
X1850513Y1492325D02*
X2149343D01*
X1850513Y1491425D02*
X2149343D01*
X1850513Y1490525D02*
X2149343D01*
X1850513Y1489625D02*
X2149343D01*
X1989343Y1488725D02*
X2149343D01*
X1990094Y1487825D02*
X2149343D01*
X1990433Y1486925D02*
X2149343D01*
X1990495Y1486025D02*
X2149343D01*
X1990295Y1485125D02*
X2149343D01*
X1990001Y1484225D02*
X2149343D01*
X1989809Y1483325D02*
X2149343D01*
X1989216Y1482425D02*
X2149343D01*
X1988316Y1481525D02*
X2149343D01*
X1987416Y1480625D02*
X2149343D01*
X1850536Y1720025D02*
X2149319D01*
X1987324Y1479725D02*
X2149141D01*
X2124244Y1503125D02*
X2141291D01*
X2106046Y1495925D02*
X2140267D01*
X2122686Y1502225D02*
X2139034D01*
X2107350Y1496825D02*
X2138828D01*
X2107774Y1501325D02*
X2138280D01*
X2107970Y1497725D02*
X2138172D01*
X2108186Y1500425D02*
X2137893D01*
X2108274Y1498625D02*
X2137845D01*
X2108342Y1499525D02*
X2137758D01*
X2122298Y1544525D02*
X2136600D01*
X1970532Y1600325D02*
X2135926D01*
X2123408Y1537325D02*
X2135489D01*
X1907121Y1606625D02*
X2134963D01*
X2124134Y1543625D02*
X2134764D01*
X1970529Y1601225D02*
X2134607D01*
X2124520Y1538225D02*
X2134377D01*
X1907121Y1605725D02*
X2134168D01*
X2124884Y1542725D02*
X2134013D01*
X1970260Y1602125D02*
X2133984D01*
X2125092Y1539125D02*
X2133805D01*
X1907121Y1604825D02*
X2133760D01*
X1969630Y1603025D02*
X2133677D01*
X2125281Y1541825D02*
X2133616D01*
X1967881Y1603925D02*
X2133607D01*
X2125376Y1540025D02*
X2133522D01*
X2125435Y1540925D02*
X2133462D01*
X2087995Y1508525D02*
X2121687D01*
X2107040Y1502225D02*
X2121172D01*
X2072910Y1544525D02*
X2120852D01*
X2097258Y1537325D02*
X2119741D01*
X2087934Y1507625D02*
X2119695D01*
X2073000Y1543625D02*
X2119016D01*
X2097564Y1538225D02*
X2118629D01*
X2072831Y1542725D02*
X2118265D01*
X2097633Y1539125D02*
X2118057D01*
X2096274Y1541825D02*
X2117868D01*
X2097479Y1540025D02*
X2117774D01*
X2097070Y1540925D02*
X2117714D01*
X2070174Y1495925D02*
X2103246D01*
X2069371Y1502225D02*
X2102251D01*
X2070949Y1496825D02*
X2101941D01*
X2070461Y1501325D02*
X2101517D01*
X2071348Y1497725D02*
X2101322D01*
X2071099Y1500425D02*
X2101105D01*
X2071493Y1498625D02*
X2101017D01*
X2071415Y1499525D02*
X2100950D01*
X1938430Y1535525D02*
X2092553D01*
X2072352Y1541825D02*
X2091600D01*
X1938499Y1536425D02*
X2091238D01*
X2071289Y1540925D02*
X2090804D01*
X1938346Y1537325D02*
X2090616D01*
X2025956Y1540025D02*
X2090395D01*
X2024424Y1538225D02*
X2090310D01*
X2025440Y1539125D02*
X2090241D01*
X1991767Y1704725D02*
X2083450D01*
X2046843Y1511225D02*
X2082763D01*
X1993361Y1711025D02*
X2082451D01*
X1991767Y1705625D02*
X2082116D01*
X1992498Y1710125D02*
X2081663D01*
X1991767Y1706525D02*
X2081488D01*
X1991767Y1709225D02*
X2081257D01*
X1991767Y1707425D02*
X2081179D01*
X1991767Y1708325D02*
X2081106D01*
X2054433Y1672325D02*
X2070507D01*
X1985174Y1626425D02*
X2070114D01*
X1985714Y1627325D02*
X2069443D01*
X1985964Y1628225D02*
X2069148D01*
X2055333Y1673225D02*
X2068980D01*
X1985985Y1629125D02*
X2068370D01*
X2036289Y1540925D02*
X2068318D01*
X1991767Y1691225D02*
X2068239D01*
X2056295Y1674125D02*
X2068085D01*
X2039720Y1546325D02*
X2067891D01*
X1991767Y1690325D02*
X2067486D01*
X1985780Y1630025D02*
X2067470D01*
X1991767Y1689425D02*
X2067387D01*
X1991767Y1688525D02*
X2066967D01*
X1985303Y1630925D02*
X2066570D01*
X1850513Y1502225D02*
X2066220D01*
X1985521Y1631825D02*
X2065552D01*
X1850513Y1495925D02*
X2065417D01*
X1850513Y1501325D02*
X2065129D01*
X1923612Y1591325D02*
X2064793D01*
X1850513Y1496825D02*
X2064641D01*
X1850513Y1500425D02*
X2064491D01*
X1850513Y1497725D02*
X2064243D01*
X1850513Y1499525D02*
X2064175D01*
X1850513Y1498625D02*
X2064098D01*
X2018476Y1585925D02*
X2064080D01*
X1937695Y1620125D02*
X2063719D01*
X2052754Y1644425D02*
X2063494D01*
X1907121Y1612925D02*
X2063291D01*
X2037280Y1638125D02*
X2063121D01*
X2043008Y1643525D02*
X2062390D01*
X2038180Y1639025D02*
X2062215D01*
X1937794Y1619225D02*
X2061854D01*
X2041966Y1642625D02*
X2061838D01*
X1907121Y1613825D02*
X2061749D01*
X2039080Y1639925D02*
X2061749D01*
X2040867Y1641725D02*
X2061579D01*
X2039980Y1640825D02*
X2061551D01*
X1937671Y1618325D02*
X2061126D01*
X1907121Y1614725D02*
X2061071D01*
X1937301Y1617425D02*
X2060754D01*
X1934723Y1615625D02*
X2060730D01*
X1936574Y1616525D02*
X2060631D01*
X1991767Y1687625D02*
X2059888D01*
X2039516Y1686725D02*
X2058988D01*
X2005036Y1567925D02*
X2058199D01*
X2040373Y1685825D02*
X2058088D01*
X2004773Y1574225D02*
X2057591D01*
X2040815Y1684925D02*
X2057188D01*
X2004216Y1568825D02*
X2057017D01*
X2003580Y1573325D02*
X2056733D01*
X1965670Y1569725D02*
X2056436D01*
X1965815Y1572425D02*
X2056292D01*
X2040994Y1684025D02*
X2056288D01*
X1965948Y1570625D02*
X2056158D01*
X1965994Y1571525D02*
X2056113D01*
X2040948Y1683125D02*
X2055388D01*
X2040670Y1682225D02*
X2054488D01*
X2040090Y1681325D02*
X2053588D01*
X2038907Y1680425D02*
X2052688D01*
X2044513Y1562525D02*
X2052180D01*
X2044868Y1553525D02*
X2051825D01*
X1991767Y1679525D02*
X2051788D01*
X1991767Y1678625D02*
X2050888D01*
X2046304Y1561625D02*
X2050389D01*
X2046430Y1554425D02*
X2050263D01*
X1991767Y1677725D02*
X2049988D01*
X2047156Y1560725D02*
X2049537D01*
X2047230Y1555325D02*
X2049463D01*
X2043618Y1644425D02*
X2049450D01*
X1991767Y1676825D02*
X2049088D01*
X2047666Y1559825D02*
X2049027D01*
X2047710Y1556225D02*
X2048983D01*
X2041691Y1650725D02*
X2048922D01*
X2048191Y1558925D02*
X2048502D01*
X2043974Y1645325D02*
X2048296D01*
X1991767Y1675925D02*
X2048188D01*
X2042862Y1649825D02*
X2048049D01*
X2044134Y1646225D02*
X2047725D01*
X2043530Y1648925D02*
X2047599D01*
X2044119Y1647125D02*
X2047453D01*
X2043926Y1648025D02*
X2047414D01*
X1991767Y1675025D02*
X2047288D01*
X1991767Y1674125D02*
X2046388D01*
X1991767Y1673225D02*
X2045488D01*
X1991615Y1672325D02*
X2044588D01*
X1990974Y1671425D02*
X2043688D01*
X1990074Y1670525D02*
X2042788D01*
X2023680Y1511225D02*
X2042763D01*
X1850513Y1562525D02*
X2042180D01*
X1850513Y1503125D02*
X2042064D01*
X1989174Y1669625D02*
X2041888D01*
X1874131Y1553525D02*
X2041825D01*
X1988274Y1668725D02*
X2040988D01*
X1850513Y1504025D02*
X2040954D01*
X1950262Y1561625D02*
X2040389D01*
X1874049Y1554425D02*
X2040263D01*
X1987374Y1667825D02*
X2040088D01*
X1949148Y1555325D02*
X2039463D01*
X1986474Y1666925D02*
X2039188D01*
X2023503Y1504925D02*
X2038900D01*
X2024632Y1510325D02*
X2038291D01*
X1985581Y1666025D02*
X2038288D01*
X2024548Y1505825D02*
X2037769D01*
X2025119Y1509425D02*
X2037510D01*
X1985508Y1665125D02*
X2037388D01*
X2025077Y1506725D02*
X2037267D01*
X2033718Y1650725D02*
X2037207D01*
X2025332Y1508525D02*
X2037155D01*
X2025319Y1507625D02*
X2037081D01*
X1873598Y1551725D02*
X2036101D01*
X2034133Y1649825D02*
X2036035D01*
X1991767Y1680425D02*
X2035699D01*
X2034149Y1648925D02*
X2035368D01*
X1991767Y1686725D02*
X2035091D01*
X1991767Y1681325D02*
X2034517D01*
X1991767Y1685825D02*
X2034233D01*
X1991767Y1682225D02*
X2033936D01*
X1991767Y1684925D02*
X2033792D01*
X1991767Y1683125D02*
X2033658D01*
X1991767Y1684025D02*
X2033613D01*
X2026189Y1540925D02*
X2033318D01*
X1937834Y1546325D02*
X2032328D01*
X2026195Y1541825D02*
X2032254D01*
X1936934Y1545425D02*
X2032071D01*
X2025973Y1542725D02*
X2031775D01*
X2024496Y1544525D02*
X2031696D01*
X2025474Y1543625D02*
X2031606D01*
X2022835Y1650725D02*
X2025180D01*
X2022466Y1649825D02*
X2024765D01*
X2022375Y1648925D02*
X2024586D01*
X1937938Y1538225D02*
X2020615D01*
X1936034Y1544525D02*
X2020543D01*
X1850513Y1504925D02*
X2019804D01*
X2000503Y1511225D02*
X2019627D01*
X1937144Y1539125D02*
X2019600D01*
X1935134Y1543625D02*
X2019566D01*
X1931534Y1540025D02*
X2019084D01*
X1934234Y1542725D02*
X2019066D01*
X1932434Y1540925D02*
X2018850D01*
X1933334Y1541825D02*
X2018844D01*
X1959557Y1505825D02*
X2018759D01*
X2000364Y1510325D02*
X2018675D01*
X1964760Y1654325D02*
X2018267D01*
X1960394Y1506725D02*
X2018230D01*
X1999925Y1509425D02*
X2018188D01*
X1960825Y1507625D02*
X2017988D01*
X1998965Y1508525D02*
X2017975D01*
X1965530Y1653425D02*
X2017186D01*
X1965880Y1652525D02*
X2016701D01*
X1965949Y1651625D02*
X2016528D01*
X1965759Y1650725D02*
X2015862D01*
X1949969Y1585925D02*
X2015618D01*
X2004343Y1578725D02*
X2015231D01*
X1950512Y1585025D02*
X2014992D01*
X1965250Y1649825D02*
X2014962D01*
X1950898Y1579625D02*
X2014168D01*
X1964995Y1648925D02*
X2014062D01*
X1951315Y1584125D02*
X2014055D01*
X1951515Y1580525D02*
X2013632D01*
X1951728Y1583225D02*
X2013574D01*
X1951818Y1581425D02*
X2013384D01*
X1951885Y1582325D02*
X2013366D01*
X1964995Y1648025D02*
X2013162D01*
X1964995Y1647125D02*
X2012262D01*
X1964999Y1646225D02*
X2011362D01*
X1965586Y1645325D02*
X2010462D01*
X1965925Y1644425D02*
X2009562D01*
X1965987Y1643525D02*
X2008662D01*
X1965376Y1573325D02*
X2001027D01*
X1896289Y1563425D02*
X2000818D01*
X1965336Y1568825D02*
X2000391D01*
X1950484Y1578725D02*
X2000263D01*
X1960996Y1508525D02*
X1995641D01*
X1960943Y1509425D02*
X1994681D01*
X1976180Y1510325D02*
X1994243D01*
X1977499Y1511225D02*
X1993509D01*
X1978123Y1512125D02*
X1992609D01*
X1978430Y1513025D02*
X1991709D01*
X1978499Y1513925D02*
X1990809D01*
X1978346Y1514825D02*
X1989909D01*
X1977938Y1515725D02*
X1989009D01*
X1977144Y1516625D02*
X1988109D01*
X1983492Y1718225D02*
X1987986D01*
X1850513Y1517525D02*
X1987209D01*
X1984183Y1717325D02*
X1986460D01*
X1850513Y1518425D02*
X1986309D01*
X1984267Y1716425D02*
X1985669D01*
X1850513Y1519325D02*
X1985409D01*
X1894409Y1488725D02*
X1985263D01*
X1984349Y1715525D02*
X1985185D01*
X1895380Y1487825D02*
X1984512D01*
X1850513Y1520225D02*
X1984509D01*
X1978159Y1486925D02*
X1984173D01*
X1979072Y1486025D02*
X1984112D01*
X1866536Y1521125D02*
X1983609D01*
X1867436Y1522025D02*
X1982709D01*
X1967544Y1522925D02*
X1981809D01*
X1956036Y1625525D02*
X1980506D01*
X1956295Y1626425D02*
X1979432D01*
X1949253Y1630925D02*
X1979303D01*
X1950271Y1631825D02*
X1979085D01*
X1956322Y1627325D02*
X1978892D01*
X1954751Y1630025D02*
X1978826D01*
X1956125Y1628225D02*
X1978642D01*
X1955658Y1629125D02*
X1978621D01*
X1964590Y1708325D02*
X1977367D01*
X1964949Y1707425D02*
X1977367D01*
X1965003Y1706525D02*
X1977367D01*
X1965003Y1705625D02*
X1977367D01*
X1965003Y1704725D02*
X1977367D01*
X1965003Y1703825D02*
X1977367D01*
X1965003Y1702925D02*
X1977367D01*
X1965003Y1702025D02*
X1977367D01*
X1965003Y1701125D02*
X1977367D01*
X1965003Y1700225D02*
X1977367D01*
X1965003Y1699325D02*
X1977367D01*
X1965003Y1698425D02*
X1977367D01*
X1965003Y1697525D02*
X1977367D01*
X1965003Y1696625D02*
X1977367D01*
X1965003Y1695725D02*
X1977367D01*
X1965003Y1694825D02*
X1977367D01*
X1965003Y1693925D02*
X1977367D01*
X1965003Y1693025D02*
X1977367D01*
X1965003Y1692125D02*
X1977367D01*
X1965003Y1691225D02*
X1977367D01*
X1965003Y1690325D02*
X1977367D01*
X1965003Y1689425D02*
X1977367D01*
X1965003Y1688525D02*
X1977367D01*
X1965003Y1687625D02*
X1977367D01*
X1965003Y1686725D02*
X1977367D01*
X1965003Y1685825D02*
X1977367D01*
X1965003Y1684925D02*
X1977367D01*
X1965003Y1684025D02*
X1977367D01*
X1965003Y1683125D02*
X1977367D01*
X1965003Y1682225D02*
X1977367D01*
X1965003Y1681325D02*
X1977367D01*
X1965003Y1680425D02*
X1977367D01*
X1971543Y1679525D02*
X1977367D01*
X1972648Y1678625D02*
X1977367D01*
X1973201Y1677725D02*
X1977367D01*
X1973460Y1676825D02*
X1977367D01*
X1973488Y1675925D02*
X1977367D01*
X1973291Y1675025D02*
X1977367D01*
X1976227Y1674125D02*
X1977323D01*
X1963786Y1709225D02*
X1975924D01*
X1959294Y1718225D02*
X1975642D01*
X1962886Y1710125D02*
X1975006D01*
X1960036Y1717325D02*
X1974950D01*
X1960133Y1716425D02*
X1974867D01*
X1960133Y1715525D02*
X1974867D01*
X1960133Y1714625D02*
X1974867D01*
X1960133Y1713725D02*
X1974867D01*
X1960206Y1712825D02*
X1974867D01*
X1961086Y1711925D02*
X1974867D01*
X1961986Y1711025D02*
X1974867D01*
X1960656Y1510325D02*
X1973426D01*
X1850513Y1516625D02*
X1972463D01*
X1960062Y1511225D02*
X1972107D01*
X1941374Y1658825D02*
X1971997D01*
X1850513Y1515725D02*
X1971668D01*
X1958840Y1512125D02*
X1971484D01*
X1850513Y1514825D02*
X1971260D01*
X1850513Y1513025D02*
X1971177D01*
X1850513Y1513925D02*
X1971107D01*
X1965003Y1679525D02*
X1968064D01*
X1965003Y1678625D02*
X1966958D01*
X1907121Y1603925D02*
X1966844D01*
X1957697Y1597625D02*
X1966757D01*
X1965003Y1677725D02*
X1966406D01*
X1965003Y1676825D02*
X1966147D01*
X1965351Y1675925D02*
X1965858D01*
X1937068Y1603025D02*
X1965070D01*
X1957905Y1598525D02*
X1965025D01*
X1909748Y1529225D02*
X1963685D01*
X1867900Y1522925D02*
X1963323D01*
X1910094Y1528325D02*
X1962584D01*
X1907186Y1523825D02*
X1962414D01*
X1910196Y1527425D02*
X1962034D01*
X1908988Y1524725D02*
X1961947D01*
X1910076Y1526525D02*
X1961776D01*
X1909709Y1525625D02*
X1961749D01*
X1945615Y1654325D02*
X1960752D01*
X1950334Y1648925D02*
X1960595D01*
X1950377Y1648025D02*
X1960595D01*
X1950377Y1647125D02*
X1960595D01*
X1956843Y1646225D02*
X1960591D01*
X1949998Y1649825D02*
X1960262D01*
X1957594Y1645325D02*
X1960004D01*
X1946515Y1653425D02*
X1959982D01*
X1949215Y1650725D02*
X1959753D01*
X1957933Y1644425D02*
X1959665D01*
X1947415Y1652525D02*
X1959632D01*
X1958149Y1643525D02*
X1959604D01*
X1948315Y1651625D02*
X1959562D01*
X1896716Y1568825D02*
X1959270D01*
X1901080Y1573325D02*
X1959231D01*
X1881355Y1569725D02*
X1958936D01*
X1881361Y1572425D02*
X1958792D01*
X1881585Y1570625D02*
X1958658D01*
X1881587Y1571525D02*
X1958613D01*
X1850513Y1512125D02*
X1955766D01*
X1850513Y1505825D02*
X1955049D01*
X1850513Y1511225D02*
X1954544D01*
X1850513Y1506725D02*
X1954213D01*
X1935448Y1593125D02*
X1954158D01*
X1850513Y1510325D02*
X1953951D01*
X1850513Y1507625D02*
X1953781D01*
X1850513Y1509425D02*
X1953663D01*
X1850513Y1508525D02*
X1953611D01*
X1950819Y1646225D02*
X1952763D01*
X1937151Y1594025D02*
X1952455D01*
X1951277Y1645325D02*
X1951995D01*
X1946899Y1718225D02*
X1951572D01*
X1908121Y1623725D02*
X1950893D01*
X1948495Y1717325D02*
X1950830D01*
X1949304Y1716425D02*
X1950733D01*
X1949791Y1715525D02*
X1950675D01*
X1948353Y1630025D02*
X1950525D01*
X1908002Y1624625D02*
X1949790D01*
X1947453Y1629125D02*
X1949617D01*
X1907590Y1625525D02*
X1949239D01*
X1946553Y1628225D02*
X1949151D01*
X1934492Y1626425D02*
X1948981D01*
X1945653Y1627325D02*
X1948953D01*
X1941180Y1555325D02*
X1946600D01*
X1938423Y1634525D02*
X1946232D01*
X1938501Y1633625D02*
X1945731D01*
X1942144Y1561625D02*
X1945486D01*
X1942499Y1556225D02*
X1945216D01*
X1938107Y1635425D02*
X1945026D01*
X1938356Y1632725D02*
X1944831D01*
X1942938Y1560725D02*
X1944715D01*
X1943123Y1557125D02*
X1944574D01*
X1943346Y1559825D02*
X1944319D01*
X1943558Y1558025D02*
X1944130D01*
X1937469Y1636325D02*
X1944126D01*
X1936899Y1718225D02*
X1943967D01*
X1937957Y1631825D02*
X1943931D01*
X1936099Y1637225D02*
X1943226D01*
X1938495Y1717325D02*
X1942371D01*
X1915587Y1638125D02*
X1942326D01*
X1939304Y1716425D02*
X1941562D01*
X1916487Y1639025D02*
X1941426D01*
X1939789Y1715525D02*
X1941077D01*
X1917387Y1639925D02*
X1940526D01*
X1918287Y1640825D02*
X1939626D01*
X1919187Y1641725D02*
X1938726D01*
X1883680Y1555325D02*
X1938426D01*
X1920087Y1642625D02*
X1937826D01*
X1884644Y1561625D02*
X1937463D01*
X1884999Y1556225D02*
X1937107D01*
X1921002Y1643525D02*
X1936926D01*
X1885438Y1560725D02*
X1936668D01*
X1885623Y1557125D02*
X1936484D01*
X1872833Y1550825D02*
X1936400D01*
X1885846Y1559825D02*
X1936260D01*
X1885930Y1558025D02*
X1936177D01*
X1885999Y1558925D02*
X1936107D01*
X1928383Y1644425D02*
X1936026D01*
X1850513Y1549925D02*
X1935212D01*
X1929283Y1645325D02*
X1935126D01*
X1926413Y1549025D02*
X1934312D01*
X1880113Y1593125D02*
X1934158D01*
X1926899Y1718225D02*
X1933967D01*
X1914687Y1637225D02*
X1933507D01*
X1907121Y1615625D02*
X1933466D01*
X1904950Y1532825D02*
X1933426D01*
X1927403Y1548125D02*
X1933412D01*
X1907982Y1622825D02*
X1933065D01*
X1931098Y1646225D02*
X1932849D01*
X1907135Y1603025D02*
X1932695D01*
X1880113Y1594025D02*
X1932512D01*
X1927854Y1547225D02*
X1932512D01*
X1930191Y1539125D02*
X1932463D01*
X1907349Y1598525D02*
X1932379D01*
X1928495Y1717325D02*
X1932371D01*
X1913787Y1636325D02*
X1932137D01*
X1904050Y1533725D02*
X1932107D01*
X1906465Y1702925D02*
X1932091D01*
X1907365Y1702025D02*
X1932091D01*
X1908265Y1701125D02*
X1932091D01*
X1909165Y1700225D02*
X1932091D01*
X1910065Y1699325D02*
X1932091D01*
X1910965Y1698425D02*
X1932091D01*
X1911865Y1697525D02*
X1932091D01*
X1912765Y1696625D02*
X1932091D01*
X1913665Y1695725D02*
X1932091D01*
X1914565Y1694825D02*
X1932091D01*
X1915465Y1693925D02*
X1932091D01*
X1916365Y1693025D02*
X1932091D01*
X1930282Y1692125D02*
X1932091D01*
X1905565Y1703825D02*
X1932090D01*
X1907740Y1602125D02*
X1932022D01*
X1907894Y1599425D02*
X1931942D01*
X1931257Y1691225D02*
X1931925D01*
X1906075Y1597625D02*
X1931909D01*
X1880113Y1594925D02*
X1931895D01*
X1908062Y1601225D02*
X1931727D01*
X1908109Y1600325D02*
X1931703D01*
X1925819Y1538225D02*
X1931668D01*
X1880113Y1596725D02*
X1931637D01*
X1880113Y1595825D02*
X1931633D01*
X1907121Y1616525D02*
X1931615D01*
X1928002Y1546325D02*
X1931612D01*
X1929304Y1716425D02*
X1931562D01*
X1907543Y1621925D02*
X1931516D01*
X1912887Y1635425D02*
X1931499D01*
X1903150Y1534625D02*
X1931484D01*
X1904665Y1704725D02*
X1931356D01*
X1900450Y1537325D02*
X1931260D01*
X1909287Y1631825D02*
X1931254D01*
X1910187Y1632725D02*
X1931251D01*
X1911987Y1634525D02*
X1931183D01*
X1902250Y1535525D02*
X1931177D01*
X1901350Y1536425D02*
X1931107D01*
X1911087Y1633625D02*
X1931106D01*
X1929789Y1715525D02*
X1931077D01*
X1907121Y1617425D02*
X1930888D01*
X1907121Y1621025D02*
X1930837D01*
X1927892Y1545425D02*
X1930712D01*
X1907121Y1618325D02*
X1930517D01*
X1907121Y1620125D02*
X1930494D01*
X1903765Y1705625D02*
X1930456D01*
X1907121Y1619225D02*
X1930395D01*
X1906692Y1626425D02*
X1930114D01*
X1908387Y1630925D02*
X1929947D01*
X1927492Y1544525D02*
X1929812D01*
X1902865Y1706525D02*
X1929556D01*
X1905077Y1627325D02*
X1929443D01*
X1907487Y1630025D02*
X1929364D01*
X1905687Y1628225D02*
X1929148D01*
X1906587Y1629125D02*
X1929124D01*
X1927330Y1543625D02*
X1928912D01*
X1901965Y1707425D02*
X1928656D01*
X1901065Y1708325D02*
X1927756D01*
X1917265Y1692125D02*
X1926962D01*
X1916670Y1709225D02*
X1924196D01*
X1916899Y1718225D02*
X1923967D01*
X1899550Y1538225D02*
X1923787D01*
X1850513Y1549025D02*
X1923193D01*
X1918413Y1710125D02*
X1922453D01*
X1898650Y1539125D02*
X1922419D01*
X1918495Y1717325D02*
X1922371D01*
X1897075Y1542725D02*
X1921921D01*
X1897750Y1540025D02*
X1921851D01*
X1896283Y1541825D02*
X1921654D01*
X1896850Y1540925D02*
X1921621D01*
X1919256Y1711025D02*
X1921610D01*
X1919304Y1716425D02*
X1921562D01*
X1919760Y1711925D02*
X1921106D01*
X1919789Y1715525D02*
X1921077D01*
X1880113Y1591325D02*
X1920994D01*
X1920356Y1712825D02*
X1920510D01*
X1913367Y1585025D02*
X1920413D01*
X1913323Y1585925D02*
X1920281D01*
X1914193Y1653425D02*
X1920183D01*
X1911356Y1590425D02*
X1919821D01*
X1913495Y1586825D02*
X1919520D01*
X1913293Y1652525D02*
X1919513D01*
X1912568Y1589525D02*
X1919306D01*
X1913444Y1587725D02*
X1919176D01*
X1913159Y1588625D02*
X1919111D01*
X1912393Y1651625D02*
X1918613D01*
X1911493Y1650725D02*
X1917713D01*
X1910593Y1649825D02*
X1916813D01*
X1909693Y1648925D02*
X1915913D01*
X1908793Y1648025D02*
X1915013D01*
X1900165Y1709225D02*
X1914196D01*
X1907893Y1647125D02*
X1914113D01*
X1896381Y1718225D02*
X1913967D01*
X1906993Y1646225D02*
X1913213D01*
X1899265Y1710125D02*
X1912453D01*
X1897123Y1717325D02*
X1912371D01*
X1906093Y1645325D02*
X1912313D01*
X1899386Y1670525D02*
X1912103D01*
X1898406Y1669625D02*
X1912103D01*
X1897426Y1668725D02*
X1912103D01*
X1896447Y1667825D02*
X1912103D01*
X1895467Y1666925D02*
X1912103D01*
X1894487Y1666025D02*
X1912103D01*
X1893508Y1665125D02*
X1912103D01*
X1892528Y1664225D02*
X1912103D01*
X1891548Y1663325D02*
X1912103D01*
X1891098Y1662425D02*
X1912103D01*
X1891098Y1661525D02*
X1912103D01*
X1891098Y1660625D02*
X1912103D01*
X1891098Y1659725D02*
X1912103D01*
X1891098Y1658825D02*
X1911956D01*
X1900365Y1671425D02*
X1911932D01*
X1905264Y1675925D02*
X1911803D01*
X1898365Y1711025D02*
X1911610D01*
X1897220Y1716425D02*
X1911562D01*
X1905193Y1644425D02*
X1911413D01*
X1901345Y1672325D02*
X1911392D01*
X1904284Y1675025D02*
X1911326D01*
X1850513Y1681325D02*
X1911212D01*
X1902325Y1673225D02*
X1911142D01*
X1903304Y1674125D02*
X1911121D01*
X1897465Y1711925D02*
X1911106D01*
X1897220Y1715525D02*
X1911077D01*
X1891098Y1657925D02*
X1911056D01*
X1850513Y1682225D02*
X1911024D01*
X1897220Y1712825D02*
X1910827D01*
X1897220Y1714625D02*
X1910813D01*
X1897220Y1713725D02*
X1910733D01*
X1904293Y1643525D02*
X1910513D01*
X1891098Y1657025D02*
X1910156D01*
X1850513Y1683125D02*
X1910119D01*
X1903393Y1642625D02*
X1909613D01*
X1891098Y1656125D02*
X1909256D01*
X1850513Y1684025D02*
X1909217D01*
X1902493Y1641725D02*
X1908713D01*
X1891098Y1655225D02*
X1908356D01*
X1850513Y1684925D02*
X1908315D01*
X1880113Y1590425D02*
X1908251D01*
X1901593Y1640825D02*
X1907813D01*
X1891098Y1654325D02*
X1907456D01*
X1850513Y1685825D02*
X1907412D01*
X1880113Y1589525D02*
X1907038D01*
X1901097Y1639925D02*
X1906913D01*
X1891098Y1653425D02*
X1906556D01*
X1850513Y1686725D02*
X1906510D01*
X1880113Y1588625D02*
X1906447D01*
X1880113Y1585925D02*
X1906284D01*
X1891080Y1585025D02*
X1906239D01*
X1880113Y1587725D02*
X1906162D01*
X1880113Y1586825D02*
X1906111D01*
X1900838Y1639025D02*
X1906013D01*
X1868095Y1523825D02*
X1905806D01*
X1891098Y1652525D02*
X1905656D01*
X1850513Y1687625D02*
X1905607D01*
X1900285Y1638125D02*
X1905113D01*
X1891098Y1651625D02*
X1904756D01*
X1850513Y1688525D02*
X1904705D01*
X1899178Y1637225D02*
X1904213D01*
X1868065Y1524725D02*
X1904004D01*
X1891098Y1650725D02*
X1903856D01*
X1850513Y1689425D02*
X1903803D01*
X1880113Y1597625D02*
X1903767D01*
X1850513Y1680425D02*
X1903658D01*
X1850513Y1636325D02*
X1903313D01*
X1867804Y1525625D02*
X1903283D01*
X1899284Y1649825D02*
X1902956D01*
X1867249Y1526525D02*
X1902916D01*
X1850513Y1690325D02*
X1902900D01*
X1898487Y1621025D02*
X1902721D01*
X1897587Y1620125D02*
X1902721D01*
X1896687Y1619225D02*
X1902721D01*
X1895787Y1618325D02*
X1902721D01*
X1894887Y1617425D02*
X1902721D01*
X1893987Y1616525D02*
X1902721D01*
X1893087Y1615625D02*
X1902721D01*
X1892187Y1614725D02*
X1902721D01*
X1891287Y1613825D02*
X1902721D01*
X1890387Y1612925D02*
X1902721D01*
X1889487Y1612025D02*
X1902721D01*
X1888587Y1611125D02*
X1902721D01*
X1887687Y1610225D02*
X1902721D01*
X1886787Y1609325D02*
X1902721D01*
X1885887Y1608425D02*
X1902721D01*
X1884987Y1607525D02*
X1902721D01*
X1884087Y1606625D02*
X1902721D01*
X1883187Y1605725D02*
X1902721D01*
X1882287Y1604825D02*
X1902721D01*
X1881387Y1603925D02*
X1902721D01*
X1880487Y1603025D02*
X1902708D01*
X1866137Y1527425D02*
X1902707D01*
X1850513Y1679525D02*
X1902679D01*
X1880113Y1598525D02*
X1902494D01*
X1850513Y1635425D02*
X1902413D01*
X1899387Y1621925D02*
X1902299D01*
X1880113Y1602125D02*
X1902103D01*
X1900249Y1648925D02*
X1902056D01*
X1850513Y1691225D02*
X1901998D01*
X1880113Y1599425D02*
X1901949D01*
X1900287Y1622825D02*
X1901861D01*
X1850513Y1528325D02*
X1901813D01*
X1880113Y1601225D02*
X1901781D01*
X1880113Y1600325D02*
X1901734D01*
X1850513Y1678625D02*
X1901699D01*
X1894043Y1634525D02*
X1901513D01*
X1850513Y1692125D02*
X1901096D01*
X1850513Y1529225D02*
X1900913D01*
X1850513Y1677725D02*
X1900719D01*
X1895148Y1633625D02*
X1900613D01*
X1850513Y1693025D02*
X1900193D01*
X1850513Y1530125D02*
X1900013D01*
X1850513Y1676825D02*
X1899740D01*
X1895701Y1632725D02*
X1899713D01*
X1850513Y1693925D02*
X1899291D01*
X1850513Y1531025D02*
X1899113D01*
X1895960Y1631825D02*
X1898813D01*
X1850513Y1675925D02*
X1898760D01*
X1880856Y1573325D02*
X1898527D01*
X1850513Y1694825D02*
X1898388D01*
X1850513Y1531925D02*
X1898213D01*
X1895988Y1630925D02*
X1897913D01*
X1850513Y1675025D02*
X1897780D01*
X1889865Y1578725D02*
X1897745D01*
X1850513Y1695725D02*
X1897486D01*
X1880119Y1574225D02*
X1897333D01*
X1850513Y1532825D02*
X1897313D01*
X1895823Y1630025D02*
X1897013D01*
X1880113Y1577825D02*
X1897012D01*
X1880113Y1575125D02*
X1896811D01*
X1850513Y1674125D02*
X1896801D01*
X1880113Y1576925D02*
X1896673D01*
X1880113Y1576025D02*
X1896612D01*
X1850513Y1696625D02*
X1896584D01*
X1850513Y1533725D02*
X1896413D01*
X1850513Y1673225D02*
X1895821D01*
X1850513Y1637225D02*
X1895703D01*
X1850513Y1697525D02*
X1895681D01*
X1850513Y1534625D02*
X1895513D01*
X1891364Y1649825D02*
X1895283D01*
X1889969Y1643525D02*
X1895042D01*
X1850513Y1548125D02*
X1894877D01*
X1850513Y1672325D02*
X1894841D01*
X1850513Y1698425D02*
X1894779D01*
X1850513Y1535525D02*
X1894613D01*
X1850513Y1638125D02*
X1894597D01*
X1877915Y1642625D02*
X1894418D01*
X1891489Y1644425D02*
X1894375D01*
X1892097Y1648925D02*
X1894318D01*
X1876301Y1639025D02*
X1894044D01*
X1850513Y1627325D02*
X1894013D01*
X1877932Y1641725D02*
X1893953D01*
X1850513Y1547225D02*
X1893939D01*
X1850513Y1699325D02*
X1893877D01*
X1850513Y1671425D02*
X1893861D01*
X1892162Y1645325D02*
X1893853D01*
X1892471Y1648025D02*
X1893824D01*
X1877241Y1639925D02*
X1893785D01*
X1877723Y1640825D02*
X1893756D01*
X1891538Y1536425D02*
X1893713D01*
X1892501Y1646225D02*
X1893616D01*
X1892597Y1647125D02*
X1893607D01*
X1850513Y1626425D02*
X1893413D01*
X1850513Y1563425D02*
X1893318D01*
X1850513Y1546325D02*
X1893039D01*
X1850513Y1700225D02*
X1892974D01*
X1880845Y1568825D02*
X1892891D01*
X1850513Y1670525D02*
X1892882D01*
X1850513Y1625525D02*
X1892513D01*
X1850513Y1564325D02*
X1892254D01*
X1850513Y1545425D02*
X1892139D01*
X1850513Y1701125D02*
X1892072D01*
X1879843Y1567925D02*
X1892071D01*
X1850513Y1669625D02*
X1891902D01*
X1873398Y1565225D02*
X1891775D01*
X1875571Y1567025D02*
X1891696D01*
X1850513Y1624625D02*
X1891613D01*
X1874901Y1566125D02*
X1891606D01*
X1850513Y1544525D02*
X1891239D01*
X1850513Y1702025D02*
X1891170D01*
X1850513Y1668725D02*
X1890922D01*
X1850513Y1623725D02*
X1890713D01*
X1850513Y1634525D02*
X1890564D01*
X1850513Y1702925D02*
X1890267D01*
X1850513Y1628225D02*
X1890186D01*
X1850513Y1667825D02*
X1889943D01*
X1850513Y1543625D02*
X1889877D01*
X1850513Y1622825D02*
X1889813D01*
X1850513Y1536425D02*
X1889486D01*
X1850513Y1633625D02*
X1889458D01*
X1850513Y1703825D02*
X1889365D01*
X1850513Y1629125D02*
X1889281D01*
X1884409Y1488725D02*
X1889055D01*
X1850513Y1666925D02*
X1888963D01*
X1850513Y1621925D02*
X1888913D01*
X1850513Y1632725D02*
X1888906D01*
X1850513Y1630025D02*
X1888815D01*
X1883985Y1718225D02*
X1888658D01*
X1850513Y1631825D02*
X1888647D01*
X1850513Y1630925D02*
X1888618D01*
X1850513Y1704725D02*
X1888462D01*
X1885380Y1487825D02*
X1888084D01*
X1850513Y1542725D02*
X1888031D01*
X1850513Y1621025D02*
X1888013D01*
X1850513Y1666025D02*
X1887983D01*
X1850513Y1537325D02*
X1887935D01*
X1885582Y1717325D02*
X1887917D01*
X1877669Y1643525D02*
X1887826D01*
X1886391Y1716425D02*
X1887820D01*
X1886878Y1715525D02*
X1887761D01*
X1850513Y1705625D02*
X1887560D01*
X1885955Y1486925D02*
X1887509D01*
X1880113Y1578725D02*
X1887458D01*
X1850513Y1541825D02*
X1887305D01*
X1850513Y1538225D02*
X1887254D01*
X1886308Y1486025D02*
X1887156D01*
X1850513Y1620125D02*
X1887113D01*
X1874428Y1665125D02*
X1887086D01*
X1850513Y1540925D02*
X1886935D01*
X1850513Y1539125D02*
X1886912D01*
X1850513Y1540025D02*
X1886812D01*
X1875484Y1664225D02*
X1886725D01*
X1876017Y1663325D02*
X1886698D01*
X1876262Y1662425D02*
X1886698D01*
X1876278Y1661525D02*
X1886698D01*
X1876069Y1660625D02*
X1886698D01*
X1875585Y1659725D02*
X1886698D01*
X1874643Y1658825D02*
X1886698D01*
X1850513Y1657925D02*
X1886698D01*
X1850513Y1657025D02*
X1886698D01*
X1850513Y1656125D02*
X1886698D01*
X1850513Y1655225D02*
X1886698D01*
X1850513Y1654325D02*
X1886698D01*
X1850513Y1653425D02*
X1886698D01*
X1850513Y1652525D02*
X1886698D01*
X1850513Y1651625D02*
X1886698D01*
X1850513Y1650725D02*
X1886698D01*
X1850513Y1706525D02*
X1886658D01*
X1850513Y1649825D02*
X1886432D01*
X1877135Y1644425D02*
X1886307D01*
X1880113Y1585025D02*
X1886244D01*
X1850513Y1619225D02*
X1886213D01*
X1880113Y1579625D02*
X1886028D01*
X1850513Y1707425D02*
X1885755D01*
X1850513Y1648925D02*
X1885698D01*
X1876076Y1645325D02*
X1885633D01*
X1880113Y1584125D02*
X1885487D01*
X1880113Y1580525D02*
X1885375D01*
X1850513Y1648025D02*
X1885324D01*
X1850513Y1618325D02*
X1885313D01*
X1850513Y1646225D02*
X1885295D01*
X1850513Y1647125D02*
X1885198D01*
X1880113Y1583225D02*
X1885099D01*
X1880113Y1581425D02*
X1885049D01*
X1880113Y1582325D02*
X1884963D01*
X1850513Y1708325D02*
X1884853D01*
X1850513Y1617425D02*
X1884413D01*
X1850513Y1616525D02*
X1883513D01*
X1850513Y1615625D02*
X1882613D01*
X1850513Y1614725D02*
X1881713D01*
X1850513Y1709225D02*
X1881283D01*
X1850513Y1718225D02*
X1881054D01*
X1873728Y1555325D02*
X1880926D01*
X1850513Y1613825D02*
X1880813D01*
X1850513Y1561625D02*
X1879963D01*
X1850513Y1612925D02*
X1879913D01*
X1850714Y1479725D02*
X1879882D01*
X1850513Y1480625D02*
X1879698D01*
X1873082Y1556225D02*
X1879607D01*
X1850513Y1710125D02*
X1879540D01*
X1850513Y1717325D02*
X1879458D01*
X1850513Y1560725D02*
X1879168D01*
X1850513Y1488725D02*
X1879055D01*
X1850513Y1612025D02*
X1879013D01*
X1871680Y1557125D02*
X1878984D01*
X1850513Y1559825D02*
X1878760D01*
X1850513Y1711025D02*
X1878697D01*
X1850513Y1558025D02*
X1878677D01*
X1850513Y1716425D02*
X1878649D01*
X1850513Y1558925D02*
X1878607D01*
X1850513Y1481525D02*
X1878422D01*
X1850513Y1711925D02*
X1878192D01*
X1850513Y1715525D02*
X1878164D01*
X1850513Y1611125D02*
X1878113D01*
X1850513Y1487825D02*
X1878084D01*
X1850513Y1712825D02*
X1877913D01*
X1850513Y1714625D02*
X1877900D01*
X1850513Y1713725D02*
X1877820D01*
X1850513Y1482425D02*
X1877713D01*
X1850513Y1486925D02*
X1877509D01*
X1850513Y1483325D02*
X1877291D01*
X1850513Y1610225D02*
X1877213D01*
X1850513Y1486025D02*
X1877178D01*
X1850513Y1484225D02*
X1877076D01*
X1850513Y1485125D02*
X1877040D01*
X1850513Y1609325D02*
X1876313D01*
X1850513Y1608425D02*
X1875413D01*
X1850513Y1607525D02*
X1874513D01*
X1850513Y1606625D02*
X1873613D01*
X1850513Y1605725D02*
X1872713D01*
X1850513Y1645325D02*
X1872428D01*
X1850513Y1639025D02*
X1872203D01*
X1850513Y1604825D02*
X1871813D01*
X1850513Y1644425D02*
X1871369D01*
X1850513Y1639925D02*
X1871263D01*
X1850513Y1565225D02*
X1871208D01*
X1850513Y1603925D02*
X1870913D01*
X1850513Y1643525D02*
X1870835D01*
X1850513Y1640825D02*
X1870781D01*
X1850513Y1665125D02*
X1870769D01*
X1850513Y1642625D02*
X1870589D01*
X1850513Y1641725D02*
X1870572D01*
X1850513Y1658825D02*
X1870554D01*
X1850513Y1603025D02*
X1870262D01*
X1850513Y1602125D02*
X1870103D01*
X1850513Y1601225D02*
X1870103D01*
X1850513Y1600325D02*
X1870103D01*
X1850513Y1599425D02*
X1870103D01*
X1850513Y1598525D02*
X1870103D01*
X1850513Y1597625D02*
X1870103D01*
X1850513Y1596725D02*
X1870103D01*
X1850513Y1595825D02*
X1870103D01*
X1850513Y1594925D02*
X1870103D01*
X1850513Y1594025D02*
X1870103D01*
X1850513Y1593125D02*
X1870103D01*
X1850513Y1592225D02*
X1870103D01*
X1850513Y1591325D02*
X1870103D01*
X1850513Y1590425D02*
X1870103D01*
X1850513Y1589525D02*
X1870103D01*
X1850513Y1588625D02*
X1870103D01*
X1850513Y1587725D02*
X1870103D01*
X1850513Y1586825D02*
X1870103D01*
X1850513Y1585925D02*
X1870103D01*
X1850513Y1585025D02*
X1870103D01*
X1850513Y1584125D02*
X1870103D01*
X1850513Y1583225D02*
X1870103D01*
X1850513Y1582325D02*
X1870103D01*
X1850513Y1581425D02*
X1870103D01*
X1850513Y1580525D02*
X1870103D01*
X1850513Y1579625D02*
X1870103D01*
X1850513Y1578725D02*
X1870103D01*
X1850513Y1577825D02*
X1870103D01*
X1850513Y1576925D02*
X1870103D01*
X1850513Y1576025D02*
X1870103D01*
X1850513Y1575125D02*
X1870103D01*
X1850513Y1574225D02*
X1870103D01*
X1850513Y1573325D02*
X1870103D01*
X1850513Y1572425D02*
X1870103D01*
X1850513Y1571525D02*
X1869845D01*
X1850513Y1664225D02*
X1869713D01*
X1850513Y1566125D02*
X1869705D01*
X1850513Y1659725D02*
X1869612D01*
X1850513Y1557125D02*
X1869187D01*
X1850513Y1663325D02*
X1869180D01*
X1850513Y1660625D02*
X1869128D01*
X1850513Y1570625D02*
X1869108D01*
X1850513Y1567025D02*
X1869035D01*
X1850513Y1662425D02*
X1868935D01*
X1850513Y1661525D02*
X1868918D01*
X1850513Y1569725D02*
X1868731D01*
X1850513Y1567925D02*
X1868698D01*
X1850513Y1568825D02*
X1868604D01*
X1850513Y1550825D02*
X1868033D01*
X1850513Y1556225D02*
X1867785D01*
X1850513Y1551725D02*
X1867268D01*
X1850513Y1555325D02*
X1867138D01*
X1850513Y1552625D02*
X1866875D01*
X1850513Y1554425D02*
X1866817D01*
X1850513Y1553525D02*
X1866735D01*
X1850513Y1527425D02*
X1862682D01*
X1850513Y1521125D02*
X1862283D01*
X1850513Y1526525D02*
X1861570D01*
X1850513Y1522025D02*
X1861383D01*
X1850513Y1525625D02*
X1861015D01*
X1850513Y1522925D02*
X1860919D01*
X1850513Y1524725D02*
X1860754D01*
X1850513Y1523825D02*
X1860724D01*
G54D24*
X1987303Y1486043D02*
Y1486260D01*
G54D41*
X1978819Y1482461D02*
X1985433D01*
X1987303Y1484331*
Y1486043*
X1978819Y1482461D02*
X1976417Y1484862D01*
X1891732*
X1974803Y1513681D02*
Y1513760D01*
X1997303Y1511260D02*
X1996795Y1511758D01*
X1982588Y1525965*
X1965433*
X1906496Y1527461D02*
X1893976Y1539980D01*
X1890512*
X1934764Y1536240D02*
X1934783Y1536260D01*
X1934803*
X1890512Y1539980D02*
X1896496Y1545965D01*
X1924508*
X1924803Y1546260*
X1881969Y1558445D02*
X1882283Y1558760D01*
X1882303*
X1939961Y1558602D02*
X1939803Y1558760D01*
X2043346Y1557972D02*
X2042520Y1558799D01*
X1947874*
X2060039Y1571043D02*
X2059823Y1571260D01*
X2059803*
X1948189Y1582146D02*
X1947480D01*
X1947402Y1582224*
X1888661*
X2064331Y1616476D02*
Y1616634D01*
X2137165Y1603760D02*
X2137303D01*
X1892303Y1631260D02*
Y1641575D01*
X1891457Y1642421*
X1895748Y1646713*
X1897283*
X1982303Y1628760D02*
Y1628819D01*
X1982323Y1628839*
X1914803Y1657854D02*
X1913543Y1656594D01*
X1914803*
X1916693D02*
X1914803D01*
Y1657854*
X1897441Y1640492D02*
X1897441D01*
X1908760Y1651811*
X1908760*
X1913543Y1656594*
X1916693D02*
X1914803Y1658484D01*
X1947677Y1644272D02*
Y1648445D01*
X1939528Y1656594*
X1916693*
X1914803Y1657854D02*
Y1658484D01*
Y1673760*
X1962303*
X1969803Y1676260D02*
Y1676280D01*
X1962303Y1673760D02*
Y1706890D01*
X1955433Y1713760*
X2084803Y1708169D02*
Y1708524D01*
G54D79*
X1987303Y1486260D03*
X1997303Y1511260D03*
X2040276Y1507815D03*
X2044803Y1508760D03*
X2084803D03*
X2121929Y1505335D03*
X1924803Y1546260D03*
Y1541260D03*
X2034803Y1543760D03*
X2037303Y1548760D03*
X2069803Y1543760D03*
X1894803Y1566260D03*
X1899803Y1576260D03*
X2002303Y1566260D03*
Y1576260D03*
X1934803Y1596260D03*
X1922303Y1588406D03*
X1954803Y1596260D03*
X2066102Y1588406D03*
X1904921Y1600610D03*
X1934882Y1600689D03*
X1967362Y1600768D03*
X1904921Y1623760D03*
X1932303Y1628760D03*
X2072303D03*
X1930118Y1649272D03*
X1926693Y1651358D03*
X1934803Y1648760D03*
X1954803Y1643760D03*
X1938307Y1651280D03*
X1962795Y1643760D03*
X1962756Y1651831D03*
X2019724Y1651476D03*
X1922303Y1666260D03*
X1923071Y1661476D03*
X1927992Y1664350D03*
X1974803Y1671260D03*
X1977717Y1667224D03*
X1982283Y1665846D03*
X1928622Y1689390D03*
X1924134Y1683839D03*
X1946614Y1684035D03*
X1940827Y1682933D03*
G54D80*
X1885056Y1488186D02*
X1883854Y1486984D01*
X1878409Y1488186D02*
X1879611Y1486984D01*
X1878409Y1481539D02*
X1879611Y1482741D01*
X1885056Y1481539D02*
X1883854Y1482741D01*
X1984919Y1631376D02*
X1983717Y1630174D01*
X1979687Y1631376D02*
X1980889Y1630174D01*
X1979687Y1626144D02*
X1980889Y1627346D01*
X1984919Y1626144D02*
X1983717Y1627346D01*
X1955254Y1629604D02*
X1954052Y1628402D01*
X1950022Y1629604D02*
X1951224Y1628402D01*
X1950022Y1624372D02*
X1951224Y1625574D01*
X1955254Y1624372D02*
X1954052Y1625574D01*
X1937419Y1636376D02*
X1936217Y1635174D01*
X1932187Y1636376D02*
X1933389Y1635174D01*
X1937419Y1631144D02*
X1936217Y1632346D01*
X1894919Y1633876D02*
X1893717Y1632674D01*
X1889687Y1633876D02*
X1890889Y1632674D01*
X1889687Y1628644D02*
X1890889Y1629846D01*
X1899900Y1649329D02*
X1898698Y1648127D01*
X1894667Y1649329D02*
X1895869Y1648127D01*
X1894667Y1644096D02*
X1895869Y1645298D01*
X2019664Y1584565D02*
X2018461Y1583363D01*
X2014431Y1584565D02*
X2015633Y1583363D01*
X2014431Y1579333D02*
X2015633Y1580535D01*
X2019664Y1579333D02*
X2018461Y1580535D01*
X1959919Y1511376D02*
X1958717Y1510174D01*
X1954687Y1511376D02*
X1955889Y1510174D01*
X1954687Y1506144D02*
X1955889Y1507346D01*
X1959919Y1506144D02*
X1958717Y1507346D01*
X1912419Y1589683D02*
X1911217Y1588481D01*
X1907187Y1589683D02*
X1908389Y1588481D01*
X2025136Y1544014D02*
X2023934Y1542812D01*
X2019903Y1544014D02*
X2021105Y1542812D01*
X2019903Y1538781D02*
X2021105Y1539983D01*
X2025136Y1538781D02*
X2023934Y1539983D01*
X2024270Y1510746D02*
X2023068Y1509544D01*
X2019037Y1510746D02*
X2020239Y1509544D01*
X2019037Y1505514D02*
X2020239Y1506716D01*
X2024270Y1505514D02*
X2023068Y1506716D01*
X1867026Y1526770D02*
X1865824Y1525568D01*
X1861793Y1526770D02*
X1862995Y1525568D01*
X1861793Y1521537D02*
X1862995Y1522739D01*
X1867026Y1521537D02*
X1865824Y1522739D01*
X1884919Y1561376D02*
X1883717Y1560174D01*
X1879687Y1561376D02*
X1880889Y1560174D01*
X1879687Y1556144D02*
X1880889Y1557346D01*
X1884919Y1556144D02*
X1883717Y1557346D01*
X1873049Y1556258D02*
X1871847Y1555056D01*
X1867817Y1556258D02*
X1869019Y1555056D01*
X1867817Y1551025D02*
X1869019Y1552228D01*
X1873049Y1551025D02*
X1871847Y1552228D01*
X2067853Y1643778D02*
X2066650Y1642576D01*
X2062620Y1643778D02*
X2063822Y1642576D01*
X2062620Y1638545D02*
X2063822Y1639747D01*
X2067853Y1638545D02*
X2066650Y1639747D01*
X2053719Y1650353D02*
X2052517Y1649150D01*
X2048486Y1650353D02*
X2049688Y1649150D01*
X2048486Y1645120D02*
X2049688Y1646322D01*
X2053719Y1645120D02*
X2052517Y1646322D01*
X2096553Y1541573D02*
X2095351Y1540371D01*
X2091321Y1541573D02*
X2092523Y1540371D01*
X2091321Y1536340D02*
X2092523Y1537542D01*
X2096553Y1536340D02*
X2095351Y1537542D01*
X2107262Y1501967D02*
X2106060Y1500765D01*
X2102029Y1501967D02*
X2103231Y1500765D01*
X2102029Y1496734D02*
X2103231Y1497936D01*
X2107262Y1496734D02*
X2106060Y1497936D01*
X2144073Y1502045D02*
X2142871Y1500843D01*
X2138840Y1502045D02*
X2140042Y1500843D01*
X2138840Y1496813D02*
X2140042Y1498015D01*
X2144073Y1496813D02*
X2142871Y1498015D01*
X2070412Y1501376D02*
X2069209Y1500174D01*
X2065179Y1501376D02*
X2066381Y1500174D01*
X2065179Y1496144D02*
X2066381Y1497346D01*
X2070412Y1496144D02*
X2069209Y1497346D01*
X2039919Y1686376D02*
X2038717Y1685174D01*
X2034687Y1686376D02*
X2035889Y1685174D01*
X2034687Y1681144D02*
X2035889Y1682346D01*
X2039919Y1681144D02*
X2038717Y1682346D01*
X2087419Y1710786D02*
X2086217Y1709584D01*
X2082187Y1710786D02*
X2083389Y1709584D01*
X2082187Y1705553D02*
X2083389Y1706755D01*
X2087419Y1705553D02*
X2086217Y1706755D01*
X1964919Y1573876D02*
X1963717Y1572674D01*
X1959687Y1573876D02*
X1960889Y1572674D01*
X1959687Y1568644D02*
X1960889Y1569846D01*
X1964919Y1568644D02*
X1963717Y1569846D01*
X1936711Y1621888D02*
X1935509Y1620686D01*
X1931478Y1621888D02*
X1932680Y1620686D01*
X1931478Y1616655D02*
X1932680Y1617857D01*
X1936711Y1616655D02*
X1935509Y1617857D01*
X1875215Y1664526D02*
X1874013Y1663324D01*
X1869982Y1664526D02*
X1871184Y1663324D01*
X1869982Y1659293D02*
X1871184Y1660495D01*
X1875215Y1659293D02*
X1874013Y1660495D01*
X1876868Y1644723D02*
X1875666Y1643521D01*
X1871636Y1644723D02*
X1872838Y1643521D01*
X1871636Y1639490D02*
X1872838Y1640692D01*
X1876868Y1639490D02*
X1875666Y1640692D01*
X2066947Y1619093D02*
X2065745Y1617891D01*
X2061714Y1619093D02*
X2062916Y1617891D01*
X2061714Y1613860D02*
X2062916Y1615062D01*
X2066947Y1613860D02*
X2065745Y1615062D01*
X2139919Y1606376D02*
X2138717Y1605174D01*
X2134687Y1606376D02*
X2135889Y1605174D01*
X2134687Y1601144D02*
X2135889Y1602346D01*
X2139919Y1601144D02*
X2138717Y1602346D01*
X1977419Y1516376D02*
X1976217Y1515174D01*
X1972187Y1516376D02*
X1973389Y1515174D01*
X1972187Y1511144D02*
X1973389Y1512346D01*
X1977419Y1511144D02*
X1976217Y1512346D01*
X1942419Y1561376D02*
X1941217Y1560174D01*
X1937187Y1561376D02*
X1938389Y1560174D01*
X1937187Y1556144D02*
X1938389Y1557346D01*
X1942419Y1556144D02*
X1941217Y1557346D01*
X1937419Y1538876D02*
X1936217Y1537674D01*
X1932187Y1538876D02*
X1933389Y1537674D01*
X1932187Y1533644D02*
X1933389Y1534846D01*
X1937419Y1533644D02*
X1936217Y1534846D01*
X1972419Y1678876D02*
X1971217Y1677674D01*
X1967187Y1678876D02*
X1968389Y1677674D01*
X1967187Y1673644D02*
X1968389Y1674846D01*
X2062419Y1573876D02*
X2061217Y1572674D01*
X2057187Y1573876D02*
X2058389Y1572674D01*
X2057187Y1568644D02*
X2058389Y1569846D01*
X2062419Y1568644D02*
X2061217Y1569846D01*
G54D128*
X2072087Y1676752D03*
X1945433Y1713760D03*
X1935433D03*
X1925433D03*
X1915433D03*
X1882520D03*
X1881732Y1484862D03*
X1891732D03*
X2043346Y1557972D03*
X2053346D03*
X2039449Y1646594D03*
X1989567Y1713799D03*
G54D135*
X2072087Y1686752D03*
X1955433Y1713760D03*
X1892520D03*
X2029449Y1646594D03*
X1979567Y1713799D03*
G54D138*
X1957303Y1508760D03*
X1974803Y1513760D03*
X2021654Y1508130D03*
X2067795Y1498760D03*
X2104646Y1499350D03*
X2141457Y1499429D03*
X1864409Y1524154D03*
X1906496Y1527461D03*
X1934803Y1536260D03*
X1965433Y1525965D03*
X1870433Y1553642D03*
X1890512Y1539980D03*
X2022520Y1541398D03*
X2093937Y1538957D03*
X1872303Y1568760D03*
X1882303Y1558760D03*
X1877913Y1571083D03*
X1939803Y1558760D03*
X1947874Y1558799D03*
X1962303Y1571260D03*
X2059803D03*
X1888661Y1582224D03*
X1909803Y1587067D03*
X1948189Y1582146D03*
X2017047Y1581949D03*
X2064331Y1616476D03*
X2137303Y1603760D03*
X1892303Y1631260D03*
X1934094Y1619272D03*
X1934803Y1633760D03*
X1952638Y1626988D03*
X1982303Y1628760D03*
X1874252Y1642106D03*
X1888898Y1647067D03*
X1897283Y1646713D03*
X1897441Y1640492D03*
X1947677Y1644272D03*
X2051102Y1647736D03*
X2065236Y1641161D03*
X1872598Y1661909D03*
X1914803Y1673760D03*
X1969803Y1676260D03*
X1962303Y1673760D03*
X2037303Y1683760D03*
X2084803Y1708169D03*
G54D216*
X2137323Y1540728D03*
X2121575D03*
G54D293*
X1849213Y1721673D02*
X2150787D01*
Y1478327*
X1849213*
Y1721673*
G74*
X0Y0D02*
M02*
