*
*
G04 PADS 9.5 Build Number: 522968 generated Gerber (RS-274-X) file*
G04 PC Version=2.1*
*
%IN "SCAN_V2.01.pcb"*%
*
%MOIN*%
*
%FSLAX35Y35*%
*
*
*
*
G04 PC Standard Apertures*
*
*
G04 Thermal Relief Aperture macro.*
%AMTER*
1,1,$1,0,0*
1,0,$1-$2,0,0*
21,0,$3,$4,0,0,45*
21,0,$3,$4,0,0,135*
%
*
*
G04 Annular Aperture macro.*
%AMANN*
1,1,$1,0,0*
1,0,$2,0,0*
%
*
*
G04 Odd Aperture macro.*
%AMODD*
1,1,$1,0,0*
1,0,$1-0.005,0,0*
%
*
*
G04 PC Custom Aperture Macros*
*
*
*
*
*
*
G04 PC Aperture Table*
*
%ADD013C,0.001*%
%ADD023C,0.01*%
%ADD293C,0.02756*%
*
*
*
*
G04 PC Circuitry*
G04 Layer Name SCAN_V2.01.pcb - circuitry*
%LPD*%
*
*
G04 PC Custom Flashes*
G04 Layer Name SCAN_V2.01.pcb - flashes*
%LPD*%
*
*
G04 PC Circuitry*
G04 Layer Name SCAN_V2.01.pcb - circuitry*
%LPD*%
*
G54D13*
G54D23*
G01X2068087Y1682795D02*
X2076087Y1690795D01*
Y1682795*
X2068087Y1690795*
Y1682795*
Y1672795D02*
X2076087Y1680795D01*
Y1672795*
X2068087Y1680795*
Y1672795*
X1951433Y1709803D02*
X1959433Y1717803D01*
Y1709803*
X1951433Y1717803*
Y1709803*
X1941433D02*
X1949433Y1717803D01*
Y1709803*
X1941433Y1717803*
Y1709803*
X1931433D02*
X1939433Y1717803D01*
Y1709803*
X1931433Y1717803*
Y1709803*
X1921433D02*
X1929433Y1717803D01*
Y1709803*
X1921433Y1717803*
Y1709803*
X1911433D02*
X1919433Y1717803D01*
Y1709803*
X1911433Y1717803*
Y1709803*
X1888520D02*
X1896520Y1717803D01*
Y1709803*
X1888520Y1717803*
Y1709803*
X1878520D02*
X1886520Y1717803D01*
Y1709803*
X1878520Y1717803*
Y1709803*
X1877732Y1480906D02*
X1885732Y1488906D01*
Y1480906*
X1877732Y1488906*
Y1480906*
X1887732D02*
X1895732Y1488906D01*
Y1480906*
X1887732Y1488906*
Y1480906*
X2039346Y1554016D02*
X2047346Y1562016D01*
Y1554016*
X2039346Y1562016*
Y1554016*
X2049346D02*
X2057346Y1562016D01*
Y1554016*
X2049346Y1562016*
Y1554016*
X2025449Y1642638D02*
X2033449Y1650638D01*
Y1642638*
X2025449Y1650638*
Y1642638*
X2035449D02*
X2043449Y1650638D01*
Y1642638*
X2035449Y1650638*
Y1642638*
X1975567Y1709843D02*
X1983567Y1717843D01*
Y1709843*
X1975567Y1717843*
Y1709843*
X1985567D02*
X1993567Y1717843D01*
Y1709843*
X1985567Y1717843*
Y1709843*
X2133323Y1540772D02*
X2141323D01*
X2137323Y1536772D02*
Y1544772D01*
X2139323Y1546053D02*
Y1542772D01*
Y1546053D02*
X2140346D01*
X2140686Y1545897*
X2140800Y1545740*
X2140914Y1545428*
Y1545115*
X2140800Y1544803*
X2140686Y1544647*
X2140346Y1544490*
X2139323D02*
X2140346D01*
X2140686Y1544334*
X2140800Y1544178*
X2140914Y1543865*
Y1543397*
X2140800Y1543084*
X2140686Y1542928*
X2140346Y1542772*
X2139323*
X2117575Y1540772D02*
X2125575D01*
X2121575Y1536772D02*
Y1544772D01*
X2123575Y1546053D02*
Y1542772D01*
Y1546053D02*
X2124598D01*
X2124938Y1545897*
X2125052Y1545740*
X2125166Y1545428*
Y1545115*
X2125052Y1544803*
X2124938Y1544647*
X2124598Y1544490*
X2123575D02*
X2124598D01*
X2124938Y1544334*
X2125052Y1544178*
X2125166Y1543865*
Y1543397*
X2125052Y1543084*
X2124938Y1542928*
X2124598Y1542772*
X2123575*
X1983303Y1486303D02*
X1991303D01*
X1987303Y1482303D02*
Y1490303D01*
X1991008Y1490803D02*
X1990894Y1491116D01*
X1990667Y1491428*
X1990440Y1491584*
X1989985*
X1989758Y1491428*
X1989530Y1491116*
X1989417Y1490803*
X1989303Y1490334*
Y1489553*
X1989417Y1489084*
X1989530Y1488772*
X1989758Y1488459*
X1989985Y1488303*
X1990440*
X1990667Y1488459*
X1990894Y1488772*
X1991008Y1489084*
X1953303Y1508803D02*
X1961303D01*
X1957303Y1504803D02*
Y1512803D01*
X1959303Y1514084D02*
Y1510803D01*
Y1514084D02*
X1960099D01*
X1960440Y1513928*
X1960667Y1513616*
X1960780Y1513303*
X1960894Y1512834*
Y1512053*
X1960780Y1511584*
X1960667Y1511272*
X1960440Y1510959*
X1960099Y1510803*
X1959303*
X1970803Y1513803D02*
X1978803D01*
X1974803Y1509803D02*
Y1517803D01*
X1976803Y1519084D02*
Y1515803D01*
Y1519084D02*
X1977599D01*
X1977940Y1518928*
X1978167Y1518616*
X1978280Y1518303*
X1978394Y1517834*
Y1517053*
X1978280Y1516584*
X1978167Y1516272*
X1977940Y1515959*
X1977599Y1515803*
X1976803*
X1993303Y1511303D02*
X2001303D01*
X1997303Y1507303D02*
Y1515303D01*
X2001008Y1515803D02*
X2000894Y1516116D01*
X2000667Y1516428*
X2000440Y1516584*
X1999985*
X1999758Y1516428*
X1999530Y1516116*
X1999417Y1515803*
X1999303Y1515334*
Y1514553*
X1999417Y1514084*
X1999530Y1513772*
X1999758Y1513459*
X1999985Y1513303*
X2000440*
X2000667Y1513459*
X2000894Y1513772*
X2001008Y1514084*
X2017654Y1508173D02*
X2025654D01*
X2021654Y1504173D02*
Y1512173D01*
X2023654Y1513454D02*
Y1510173D01*
Y1513454D02*
X2024449D01*
X2024790Y1513298*
X2025017Y1512986*
X2025131Y1512673*
X2025244Y1512204*
Y1511423*
X2025131Y1510954*
X2025017Y1510642*
X2024790Y1510329*
X2024449Y1510173*
X2023654*
X2036276Y1507858D02*
X2044276D01*
X2040276Y1503858D02*
Y1511858D01*
X2043980Y1512358D02*
X2043866Y1512671D01*
X2043866D02*
X2043639Y1512983D01*
X2043412Y1513140*
X2042957*
X2042730Y1512983*
X2042503Y1512671*
X2042389Y1512358*
X2042276Y1511890*
Y1511108*
X2042389Y1510640*
X2042503Y1510327*
X2042730Y1510015*
X2042957Y1509858*
X2043412*
X2043639Y1510015*
X2043866Y1510327*
X2043866D02*
X2043980Y1510640D01*
X2040803Y1508803D02*
X2048803D01*
X2044803Y1504803D02*
Y1512803D01*
X2048508Y1513303D02*
X2048394Y1513616D01*
X2048167Y1513928*
X2047940Y1514084*
X2047485*
X2047258Y1513928*
X2047030Y1513616*
X2046917Y1513303*
X2046803Y1512834*
Y1512053*
X2046917Y1511584*
X2047030Y1511272*
X2047258Y1510959*
X2047485Y1510803*
X2047940*
X2048167Y1510959*
X2048394Y1511272*
X2048508Y1511584*
X2063795Y1498803D02*
X2071795D01*
X2067795Y1494803D02*
Y1502803D01*
X2069795Y1504084D02*
Y1500803D01*
Y1504084D02*
X2070591D01*
X2070932Y1503928*
X2071159Y1503616*
X2071273Y1503303*
X2071386Y1502834*
Y1502053*
X2071273Y1501584*
X2071159Y1501272*
X2070932Y1500959*
X2070591Y1500803*
X2069795*
X2080803Y1508803D02*
X2088803D01*
X2084803Y1504803D02*
Y1512803D01*
X2088508Y1513303D02*
X2088394Y1513616D01*
X2088167Y1513928*
X2087940Y1514084*
X2087485*
X2087258Y1513928*
X2087030Y1513616*
X2086917Y1513303*
X2086803Y1512834*
Y1512053*
X2086917Y1511584*
X2087030Y1511272*
X2087258Y1510959*
X2087485Y1510803*
X2087940*
X2088167Y1510959*
X2088394Y1511272*
X2088508Y1511584*
X2100646Y1499394D02*
X2108646D01*
X2104646Y1495394D02*
Y1503394D01*
X2106646Y1504675D02*
Y1501394D01*
Y1504675D02*
X2107441D01*
X2107782Y1504519*
X2108009Y1504206*
X2108123Y1503894*
X2108237Y1503425*
Y1502644*
X2108123Y1502175*
X2108009Y1501862*
X2107782Y1501550*
X2107441Y1501394*
X2106646*
X2117929Y1505378D02*
X2125929D01*
X2121929Y1501378D02*
Y1509378D01*
X2125634Y1509878D02*
X2125520Y1510190D01*
X2125293Y1510503*
X2125065Y1510659*
X2125065D02*
X2124611D01*
X2124384Y1510503*
X2124156Y1510190*
X2124043Y1509878*
X2123929Y1509409*
Y1508628*
X2124043Y1508159*
X2124156Y1507847*
X2124384Y1507534*
X2124611Y1507378*
X2125065*
X2125065D02*
X2125293Y1507534D01*
X2125520Y1507847*
X2125634Y1508159*
X2137457Y1499472D02*
X2145457D01*
X2141457Y1495472D02*
Y1503472D01*
X2143457Y1504754D02*
Y1501472D01*
Y1504754D02*
X2144252D01*
X2144593Y1504597*
X2144820Y1504285*
X2144934Y1503972*
X2145048Y1503504*
Y1502722*
X2144934Y1502254*
X2144820Y1501941*
X2144593Y1501629*
X2144252Y1501472*
X2143457*
X1860409Y1524197D02*
X1868409D01*
X1864409Y1520197D02*
Y1528197D01*
X1866409Y1529478D02*
Y1526197D01*
Y1529478D02*
X1867205D01*
X1867546Y1529322*
X1867773Y1529009*
X1867887Y1528697*
X1868000Y1528228*
Y1527447*
X1867887Y1526978*
X1867773Y1526666*
X1867546Y1526353*
X1867205Y1526197*
X1866409*
X1902496Y1527504D02*
X1910496D01*
X1906496Y1523504D02*
Y1531504D01*
X1908496Y1532785D02*
Y1529504D01*
Y1532785D02*
X1909292D01*
X1909632Y1532629*
X1909860Y1532316*
X1909973Y1532004*
X1910087Y1531535*
Y1530754*
X1909973Y1530285*
X1909860Y1529973*
X1909632Y1529660*
X1909292Y1529504*
X1908496*
X1930803Y1536303D02*
X1938803D01*
X1934803Y1532303D02*
Y1540303D01*
X1936803Y1541584D02*
Y1538303D01*
Y1541584D02*
X1937599D01*
X1937940Y1541428*
X1938167Y1541116*
X1938280Y1540803*
X1938394Y1540334*
Y1539553*
X1938280Y1539084*
X1938167Y1538772*
X1937940Y1538459*
X1937599Y1538303*
X1936803*
X1961433Y1526008D02*
X1969433D01*
X1965433Y1522008D02*
Y1530008D01*
X1967433Y1531289D02*
Y1528008D01*
Y1531289D02*
X1968229D01*
X1968569Y1531133*
X1968797Y1530820*
X1968910Y1530508*
X1969024Y1530039*
Y1529258*
X1968910Y1528789*
X1968797Y1528477*
X1968569Y1528164*
X1968229Y1528008*
X1967433*
X1866433Y1553685D02*
X1874433D01*
X1870433Y1549685D02*
Y1557685D01*
X1872433Y1558966D02*
Y1555685D01*
Y1558966D02*
X1873229D01*
X1873569Y1558810*
X1873797Y1558498*
X1873910Y1558185*
X1874024Y1557716*
Y1556935*
X1873910Y1556466*
X1873797Y1556154*
X1873569Y1555841*
X1873229Y1555685*
X1872433*
X1886512Y1540024D02*
X1894512D01*
X1890512Y1536024D02*
Y1544024D01*
X1892512Y1545305D02*
Y1542024D01*
Y1545305D02*
X1893307D01*
X1893648Y1545149*
X1893875Y1544836*
X1893989Y1544524*
X1894103Y1544055*
Y1543274*
X1893989Y1542805*
X1893875Y1542492*
X1893648Y1542180*
X1893307Y1542024*
X1892512*
X1920803Y1546303D02*
X1928803D01*
X1924803Y1542303D02*
Y1550303D01*
X1928508Y1550803D02*
X1928394Y1551116D01*
X1928167Y1551428*
X1927940Y1551584*
X1927485*
X1927258Y1551428*
X1927030Y1551116*
X1926917Y1550803*
X1926803Y1550334*
Y1549553*
X1926917Y1549084*
X1927030Y1548772*
X1927258Y1548459*
X1927485Y1548303*
X1927940*
X1928167Y1548459*
X1928394Y1548772*
X1928508Y1549084*
X1920803Y1541303D02*
X1928803D01*
X1924803Y1537303D02*
Y1545303D01*
X1928508Y1545803D02*
X1928394Y1546116D01*
X1928167Y1546428*
X1927940Y1546584*
X1927485*
X1927258Y1546428*
X1927030Y1546116*
X1926917Y1545803*
X1926803Y1545334*
Y1544553*
X1926917Y1544084*
X1927030Y1543772*
X1927258Y1543459*
X1927485Y1543303*
X1927940*
X1928167Y1543459*
X1928394Y1543772*
X1928508Y1544084*
X2018520Y1541441D02*
X2026520D01*
X2022520Y1537441D02*
Y1545441D01*
X2024520Y1546722D02*
Y1543441D01*
Y1546722D02*
X2025315D01*
X2025656Y1546566*
X2025883Y1546253*
X2025997Y1545941*
X2026111Y1545472*
Y1544691*
X2025997Y1544222*
X2025883Y1543910*
X2025656Y1543597*
X2025315Y1543441*
X2024520*
X2030803Y1543803D02*
X2038803D01*
X2034803Y1539803D02*
Y1547803D01*
X2038508Y1548303D02*
X2038394Y1548616D01*
X2038167Y1548928*
X2037940Y1549084*
X2037485*
X2037258Y1548928*
X2037030Y1548616*
X2036917Y1548303*
X2036803Y1547834*
Y1547053*
X2036917Y1546584*
X2037030Y1546272*
X2037258Y1545959*
X2037485Y1545803*
X2037940*
X2038167Y1545959*
X2038394Y1546272*
X2038508Y1546584*
X2033303Y1548803D02*
X2041303D01*
X2037303Y1544803D02*
Y1552803D01*
X2041008Y1553303D02*
X2040894Y1553616D01*
X2040667Y1553928*
X2040440Y1554084*
X2039985*
X2039758Y1553928*
X2039530Y1553616*
X2039417Y1553303*
X2039303Y1552834*
Y1552053*
X2039417Y1551584*
X2039530Y1551272*
X2039758Y1550959*
X2039985Y1550803*
X2040440*
X2040667Y1550959*
X2040894Y1551272*
X2041008Y1551584*
X2065803Y1543803D02*
X2073803D01*
X2069803Y1539803D02*
Y1547803D01*
X2073508Y1548303D02*
X2073394Y1548616D01*
X2073167Y1548928*
X2072940Y1549084*
X2072485*
X2072258Y1548928*
X2072030Y1548616*
X2071917Y1548303*
X2071803Y1547834*
Y1547053*
X2071917Y1546584*
X2072030Y1546272*
X2072258Y1545959*
X2072485Y1545803*
X2072940*
X2073167Y1545959*
X2073394Y1546272*
X2073508Y1546584*
X2089937Y1539000D02*
X2097937D01*
X2093937Y1535000D02*
Y1543000D01*
X2095937Y1544281D02*
Y1541000D01*
Y1544281D02*
X2096732D01*
X2097073Y1544125*
X2097301Y1543813*
X2097301D02*
X2097414Y1543500D01*
X2097528Y1543031*
Y1542250*
X2097414Y1541781*
X2097301Y1541469*
X2097073Y1541156*
X2096732Y1541000*
X2095937*
X1868303Y1568803D02*
X1876303D01*
X1872303Y1564803D02*
Y1572803D01*
X1874303Y1574084D02*
Y1570803D01*
Y1574084D02*
X1875099D01*
X1875440Y1573928*
X1875667Y1573616*
X1875780Y1573303*
X1875894Y1572834*
Y1572053*
X1875780Y1571584*
X1875667Y1571272*
X1875440Y1570959*
X1875099Y1570803*
X1874303*
X1878303Y1558803D02*
X1886303D01*
X1882303Y1554803D02*
Y1562803D01*
X1884303Y1564084D02*
Y1560803D01*
Y1564084D02*
X1885099D01*
X1885440Y1563928*
X1885667Y1563616*
X1885780Y1563303*
X1885894Y1562834*
Y1562053*
X1885780Y1561584*
X1885667Y1561272*
X1885440Y1560959*
X1885099Y1560803*
X1884303*
X1890803Y1566303D02*
X1898803D01*
X1894803Y1562303D02*
Y1570303D01*
X1898508Y1570803D02*
X1898394Y1571116D01*
X1898167Y1571428*
X1897940Y1571584*
X1897485*
X1897258Y1571428*
X1897030Y1571116*
X1896917Y1570803*
X1896803Y1570334*
Y1569553*
X1896917Y1569084*
X1897030Y1568772*
X1897258Y1568459*
X1897485Y1568303*
X1897940*
X1898167Y1568459*
X1898394Y1568772*
X1898508Y1569084*
X1873913Y1571126D02*
X1881913D01*
X1877913Y1567126D02*
Y1575126D01*
X1879913Y1576407D02*
Y1573126D01*
Y1576407D02*
X1880709D01*
X1881050Y1576251*
X1881277Y1575938*
X1881391Y1575626*
X1881504Y1575157*
Y1574376*
X1881391Y1573907*
X1881277Y1573595*
X1881050Y1573282*
X1880709Y1573126*
X1879913*
X1895803Y1576303D02*
X1903803D01*
X1899803Y1572303D02*
Y1580303D01*
X1903508Y1580803D02*
X1903394Y1581116D01*
X1903167Y1581428*
X1902940Y1581584*
X1902485*
X1902258Y1581428*
X1902030Y1581116*
X1901917Y1580803*
X1901803Y1580334*
Y1579553*
X1901917Y1579084*
X1902030Y1578772*
X1902258Y1578459*
X1902485Y1578303*
X1902940*
X1903167Y1578459*
X1903394Y1578772*
X1903508Y1579084*
X1935803Y1558803D02*
X1943803D01*
X1939803Y1554803D02*
Y1562803D01*
X1941803Y1564084D02*
Y1560803D01*
Y1564084D02*
X1942599D01*
X1942940Y1563928*
X1943167Y1563616*
X1943280Y1563303*
X1943394Y1562834*
Y1562053*
X1943280Y1561584*
X1943167Y1561272*
X1942940Y1560959*
X1942599Y1560803*
X1941803*
X1943874Y1558843D02*
X1951874D01*
X1947874Y1554843D02*
Y1562843D01*
X1949874Y1564124D02*
Y1560843D01*
Y1564124D02*
X1950669D01*
X1951010Y1563968*
X1951238Y1563655*
X1951351Y1563343*
X1951465Y1562874*
Y1562093*
X1951351Y1561624*
X1951238Y1561311*
X1951010Y1560999*
X1950669Y1560843*
X1949874*
X1958303Y1571303D02*
X1966303D01*
X1962303Y1567303D02*
Y1575303D01*
X1964303Y1576584D02*
Y1573303D01*
Y1576584D02*
X1965099D01*
X1965440Y1576428*
X1965667Y1576116*
X1965780Y1575803*
X1965894Y1575334*
Y1574553*
X1965780Y1574084*
X1965667Y1573772*
X1965440Y1573459*
X1965099Y1573303*
X1964303*
X1998303Y1566303D02*
X2006303D01*
X2002303Y1562303D02*
Y1570303D01*
X2006008Y1570803D02*
X2005894Y1571116D01*
X2005667Y1571428*
X2005440Y1571584*
X2004985*
X2004758Y1571428*
X2004530Y1571116*
X2004417Y1570803*
X2004303Y1570334*
Y1569553*
X2004417Y1569084*
X2004530Y1568772*
X2004758Y1568459*
X2004985Y1568303*
X2005440*
X2005667Y1568459*
X2005894Y1568772*
X2006008Y1569084*
X1998303Y1576303D02*
X2006303D01*
X2002303Y1572303D02*
Y1580303D01*
X2006008Y1580803D02*
X2005894Y1581116D01*
X2005667Y1581428*
X2005440Y1581584*
X2004985*
X2004758Y1581428*
X2004530Y1581116*
X2004417Y1580803*
X2004303Y1580334*
Y1579553*
X2004417Y1579084*
X2004530Y1578772*
X2004758Y1578459*
X2004985Y1578303*
X2005440*
X2005667Y1578459*
X2005894Y1578772*
X2006008Y1579084*
X2055803Y1571303D02*
X2063803D01*
X2059803Y1567303D02*
Y1575303D01*
X2061803Y1576584D02*
Y1573303D01*
Y1576584D02*
X2062599D01*
X2062940Y1576428*
X2063167Y1576116*
X2063280Y1575803*
X2063394Y1575334*
Y1574553*
X2063280Y1574084*
X2063167Y1573772*
X2062940Y1573459*
X2062599Y1573303*
X2061803*
X1884661Y1582268D02*
X1892661D01*
X1888661Y1578268D02*
Y1586268D01*
X1890661Y1587549D02*
Y1584268D01*
Y1587549D02*
X1891457D01*
X1891798Y1587393*
X1892025Y1587080*
X1892139Y1586768*
X1892252Y1586299*
Y1585518*
X1892139Y1585049*
X1892025Y1584736*
X1891798Y1584424*
X1891457Y1584268*
X1890661*
X1905803Y1587110D02*
X1913803D01*
X1909803Y1583110D02*
Y1591110D01*
X1911803Y1592391D02*
Y1589110D01*
Y1592391D02*
X1912599D01*
X1912940Y1592235*
X1913167Y1591923*
X1913280Y1591610*
X1913394Y1591141*
Y1590360*
X1913280Y1589891*
X1913167Y1589579*
X1912940Y1589266*
X1912599Y1589110*
X1911803*
X1930803Y1596303D02*
X1938803D01*
X1934803Y1592303D02*
Y1600303D01*
X1938508Y1600803D02*
X1938394Y1601116D01*
X1938167Y1601428*
X1937940Y1601584*
X1937485*
X1937258Y1601428*
X1937030Y1601116*
X1936917Y1600803*
X1936803Y1600334*
Y1599553*
X1936917Y1599084*
X1937030Y1598772*
X1937258Y1598459*
X1937485Y1598303*
X1937940*
X1938167Y1598459*
X1938394Y1598772*
X1938508Y1599084*
X1918303Y1588449D02*
X1926303D01*
X1922303Y1584449D02*
Y1592449D01*
X1926008Y1592949D02*
X1925894Y1593261D01*
X1925667Y1593574*
X1925440Y1593730*
X1924985*
X1924758Y1593574*
X1924530Y1593261*
X1924417Y1592949*
X1924303Y1592480*
Y1591699*
X1924417Y1591230*
X1924530Y1590918*
X1924758Y1590605*
X1924985Y1590449*
X1925440*
X1925667Y1590605*
X1925894Y1590918*
X1926008Y1591230*
X1950803Y1596303D02*
X1958803D01*
X1954803Y1592303D02*
Y1600303D01*
X1958508Y1600803D02*
X1958394Y1601116D01*
X1958167Y1601428*
X1957940Y1601584*
X1957485*
X1957258Y1601428*
X1957030Y1601116*
X1956917Y1600803*
X1956803Y1600334*
Y1599553*
X1956917Y1599084*
X1957030Y1598772*
X1957258Y1598459*
X1957485Y1598303*
X1957940*
X1958167Y1598459*
X1958394Y1598772*
X1958508Y1599084*
X1944189Y1582189D02*
X1952189D01*
X1948189Y1578189D02*
Y1586189D01*
X1950189Y1587470D02*
Y1584189D01*
Y1587470D02*
X1950984D01*
X1951325Y1587314*
X1951553Y1587001*
X1951666Y1586689*
X1951780Y1586220*
Y1585439*
X1951666Y1584970*
X1951553Y1584658*
X1951325Y1584345*
X1950984Y1584189*
X1950189*
X2013047Y1581992D02*
X2021047D01*
X2017047Y1577992D02*
Y1585992D01*
X2019047Y1587273D02*
Y1583992D01*
Y1587273D02*
X2019843D01*
X2020184Y1587117*
X2020411Y1586805*
X2020525Y1586492*
X2020638Y1586023*
Y1585242*
X2020525Y1584773*
X2020411Y1584461*
X2020184Y1584148*
X2019843Y1583992*
X2019047*
X2062102Y1588449D02*
X2070102D01*
X2066102Y1584449D02*
Y1592449D01*
X2069807Y1592949D02*
X2069693Y1593261D01*
X2069466Y1593574*
X2069239Y1593730*
X2068784*
X2068557Y1593574*
X2068330Y1593261*
X2068216Y1592949*
X2068102Y1592480*
Y1591699*
X2068216Y1591230*
X2068330Y1590918*
X2068557Y1590605*
X2068784Y1590449*
X2069239*
X2069466Y1590605*
X2069693Y1590918*
X2069807Y1591230*
X1900921Y1600654D02*
X1908921D01*
X1904921Y1596654D02*
Y1604654D01*
X1908626Y1605154D02*
X1908512Y1605466D01*
X1908285Y1605779*
X1908058Y1605935*
X1907603*
X1907376Y1605779*
X1907149Y1605466*
X1907035Y1605154*
X1906921Y1604685*
Y1603904*
X1907035Y1603435*
X1907149Y1603122*
X1907376Y1602810*
X1907603Y1602654*
X1908058*
X1908285Y1602810*
X1908512Y1603122*
X1908626Y1603435*
X1930882Y1600732D02*
X1938882D01*
X1934882Y1596732D02*
Y1604732D01*
X1938586Y1605232D02*
X1938473Y1605545D01*
X1938246Y1605857*
X1938018Y1606014*
X1937564*
X1937336Y1605857*
X1937109Y1605545*
X1936996Y1605232*
X1936882Y1604764*
Y1603982*
X1936996Y1603514*
X1937109Y1603201*
X1937336Y1602889*
X1937564Y1602732*
X1938018*
X1938246Y1602889*
X1938473Y1603201*
X1938586Y1603514*
X1963362Y1600811D02*
X1971362D01*
X1967362Y1596811D02*
Y1604811D01*
X1971067Y1605311D02*
X1970953Y1605624D01*
X1970726Y1605936*
X1970499Y1606092*
X1970044*
X1969817Y1605936*
X1969589Y1605624*
X1969476Y1605311*
X1969362Y1604842*
Y1604061*
X1969476Y1603592*
X1969589Y1603280*
X1969817Y1602967*
X1970044Y1602811*
X1970499*
X1970726Y1602967*
X1970953Y1603280*
X1971067Y1603592*
X2060331Y1616520D02*
X2068331D01*
X2064331Y1612520D02*
Y1620520D01*
X2066331Y1621801D02*
Y1618520D01*
Y1621801D02*
X2067126D01*
X2067467Y1621645*
X2067694Y1621332*
X2067808Y1621020*
X2067922Y1620551*
Y1619770*
X2067808Y1619301*
X2067694Y1618988*
X2067467Y1618676*
X2067126Y1618520*
X2066331*
X2133303Y1603803D02*
X2141303D01*
X2137303Y1599803D02*
Y1607803D01*
X2139303Y1609084D02*
Y1605803D01*
Y1609084D02*
X2140099D01*
X2140440Y1608928*
X2140667Y1608616*
X2140780Y1608303*
X2140894Y1607834*
Y1607053*
X2140780Y1606584*
X2140667Y1606272*
X2140440Y1605959*
X2140099Y1605803*
X2139303*
X1888303Y1631303D02*
X1896303D01*
X1892303Y1627303D02*
Y1635303D01*
X1894303Y1636584D02*
Y1633303D01*
Y1636584D02*
X1895099D01*
X1895440Y1636428*
X1895667Y1636116*
X1895780Y1635803*
X1895894Y1635334*
Y1634553*
X1895780Y1634084*
X1895667Y1633772*
X1895440Y1633459*
X1895099Y1633303*
X1894303*
X1900921Y1623803D02*
X1908921D01*
X1904921Y1619803D02*
Y1627803D01*
X1908626Y1628303D02*
X1908512Y1628616D01*
X1908285Y1628928*
X1908058Y1629084*
X1907603*
X1907376Y1628928*
X1907149Y1628616*
X1907035Y1628303*
X1906921Y1627834*
Y1627053*
X1907035Y1626584*
X1907149Y1626272*
X1907376Y1625959*
X1907603Y1625803*
X1908058*
X1908285Y1625959*
X1908512Y1626272*
X1908626Y1626584*
X1930094Y1619315D02*
X1938094D01*
X1934094Y1615315D02*
Y1623315D01*
X1936094Y1624596D02*
Y1621315D01*
Y1624596D02*
X1936890D01*
X1937231Y1624440*
X1937458Y1624127*
X1937572Y1623815*
X1937685Y1623346*
Y1622565*
X1937572Y1622096*
X1937458Y1621784*
X1937231Y1621471*
X1936890Y1621315*
X1936094*
X1930803Y1633803D02*
X1938803D01*
X1934803Y1629803D02*
Y1637803D01*
X1936803Y1639084D02*
Y1635803D01*
Y1639084D02*
X1937599D01*
X1937940Y1638928*
X1938167Y1638616*
X1938280Y1638303*
X1938394Y1637834*
Y1637053*
X1938280Y1636584*
X1938167Y1636272*
X1937940Y1635959*
X1937599Y1635803*
X1936803*
X1928303Y1628803D02*
X1936303D01*
X1932303Y1624803D02*
Y1632803D01*
X1936008Y1633303D02*
X1935894Y1633616D01*
X1935667Y1633928*
X1935440Y1634084*
X1934985*
X1934758Y1633928*
X1934530Y1633616*
X1934417Y1633303*
X1934303Y1632834*
Y1632053*
X1934417Y1631584*
X1934530Y1631272*
X1934758Y1630959*
X1934985Y1630803*
X1935440*
X1935667Y1630959*
X1935894Y1631272*
X1936008Y1631584*
X1948638Y1627031D02*
X1956638D01*
X1952638Y1623031D02*
Y1631031D01*
X1954638Y1632313D02*
Y1629031D01*
Y1632313D02*
X1955433D01*
X1955774Y1632156*
X1956001Y1631844*
X1956115Y1631531*
X1956229Y1631063*
Y1630281*
X1956115Y1629813*
X1956001Y1629500*
X1955774Y1629188*
X1955433Y1629031*
X1954638*
X1978303Y1628803D02*
X1986303D01*
X1982303Y1624803D02*
Y1632803D01*
X1984303Y1634084D02*
Y1630803D01*
Y1634084D02*
X1985099D01*
X1985440Y1633928*
X1985667Y1633616*
X1985780Y1633303*
X1985894Y1632834*
Y1632053*
X1985780Y1631584*
X1985667Y1631272*
X1985440Y1630959*
X1985099Y1630803*
X1984303*
X2068303Y1628803D02*
X2076303D01*
X2072303Y1624803D02*
Y1632803D01*
X2076008Y1633303D02*
X2075894Y1633616D01*
X2075667Y1633928*
X2075440Y1634084*
X2074985*
X2074758Y1633928*
X2074530Y1633616*
X2074417Y1633303*
X2074303Y1632834*
Y1632053*
X2074417Y1631584*
X2074530Y1631272*
X2074758Y1630959*
X2074985Y1630803*
X2075440*
X2075667Y1630959*
X2075894Y1631272*
X2076008Y1631584*
X1870252Y1642150D02*
X1878252D01*
X1874252Y1638150D02*
Y1646150D01*
X1876252Y1647431D02*
Y1644150D01*
Y1647431D02*
X1877047D01*
X1877388Y1647275*
X1877616Y1646962*
X1877729Y1646650*
X1877843Y1646181*
Y1645400*
X1877729Y1644931*
X1877616Y1644618*
X1877388Y1644306*
X1877047Y1644150*
X1876252*
X1884898Y1647110D02*
X1892898D01*
X1888898Y1643110D02*
Y1651110D01*
X1890898Y1652391D02*
Y1649110D01*
Y1652391D02*
X1891693D01*
X1892034Y1652235*
X1892261Y1651923*
X1892375Y1651610*
X1892489Y1651141*
Y1650360*
X1892375Y1649891*
X1892261Y1649579*
X1892034Y1649266*
X1891693Y1649110*
X1890898*
X1893283Y1646756D02*
X1901283D01*
X1897283Y1642756D02*
Y1650756D01*
X1899283Y1652037D02*
Y1648756D01*
Y1652037D02*
X1900079D01*
X1900420Y1651881*
X1900647Y1651568*
X1900761Y1651256*
X1900874Y1650787*
Y1650006*
X1900761Y1649537*
X1900647Y1649225*
X1900420Y1648912*
X1900079Y1648756*
X1899283*
X1893441Y1640535D02*
X1901441D01*
X1897441Y1636535D02*
Y1644535D01*
X1899441Y1645817D02*
Y1642535D01*
Y1645817D02*
X1900236D01*
X1900577Y1645660*
X1900805Y1645348*
X1900918Y1645035*
X1901032Y1644567*
Y1643785*
X1900918Y1643317*
X1900805Y1643004*
X1900577Y1642692*
X1900236Y1642535*
X1899441*
X1926118Y1649315D02*
X1934118D01*
X1930118Y1645315D02*
Y1653315D01*
X1933823Y1653815D02*
X1933709Y1654127D01*
X1933482Y1654440*
X1933254Y1654596*
X1932800*
X1932573Y1654440*
X1932345Y1654127*
X1932232Y1653815*
X1932118Y1653346*
Y1652565*
X1932232Y1652096*
X1932345Y1651784*
X1932573Y1651471*
X1932800Y1651315*
X1933254*
X1933482Y1651471*
X1933709Y1651784*
X1933823Y1652096*
X1922693Y1651402D02*
X1930693D01*
X1926693Y1647402D02*
Y1655402D01*
X1930397Y1655902D02*
X1930284Y1656214D01*
X1930057Y1656527*
X1929829Y1656683*
X1929375*
X1929147Y1656527*
X1928920Y1656214*
X1928807Y1655902*
X1928693Y1655433*
Y1654652*
X1928807Y1654183*
X1928920Y1653870*
X1929147Y1653558*
X1929375Y1653402*
X1929829*
X1930057Y1653558*
X1930284Y1653870*
X1930397Y1654183*
X1930803Y1648803D02*
X1938803D01*
X1934803Y1644803D02*
Y1652803D01*
X1938508Y1653303D02*
X1938394Y1653616D01*
X1938167Y1653928*
X1937940Y1654084*
X1937485*
X1937258Y1653928*
X1937030Y1653616*
X1936917Y1653303*
X1936803Y1652834*
Y1652053*
X1936917Y1651584*
X1937030Y1651272*
X1937258Y1650959*
X1937485Y1650803*
X1937940*
X1938167Y1650959*
X1938394Y1651272*
X1938508Y1651584*
X1943677Y1644315D02*
X1951677D01*
X1947677Y1640315D02*
Y1648315D01*
X1949677Y1649596D02*
Y1646315D01*
Y1649596D02*
X1950473D01*
X1950814Y1649440*
X1951041Y1649127*
X1951154Y1648815*
X1951268Y1648346*
Y1647565*
X1951154Y1647096*
X1951041Y1646784*
X1950814Y1646471*
X1950473Y1646315*
X1949677*
X1950803Y1643803D02*
X1958803D01*
X1954803Y1639803D02*
Y1647803D01*
X1958508Y1648303D02*
X1958394Y1648616D01*
X1958167Y1648928*
X1957940Y1649084*
X1957485*
X1957258Y1648928*
X1957030Y1648616*
X1956917Y1648303*
X1956803Y1647834*
Y1647053*
X1956917Y1646584*
X1957030Y1646272*
X1957258Y1645959*
X1957485Y1645803*
X1957940*
X1958167Y1645959*
X1958394Y1646272*
X1958508Y1646584*
X1934307Y1651323D02*
X1942307D01*
X1938307Y1647323D02*
Y1655323D01*
X1942012Y1655823D02*
X1941898Y1656135D01*
X1941671Y1656448*
X1941443Y1656604*
X1940989*
X1940762Y1656448*
X1940534Y1656135*
X1940421Y1655823*
X1940307Y1655354*
Y1654573*
X1940421Y1654104*
X1940534Y1653792*
X1940762Y1653479*
X1940989Y1653323*
X1941443*
X1941671Y1653479*
X1941898Y1653792*
X1942012Y1654104*
X1958795Y1643803D02*
X1966795D01*
X1962795Y1639803D02*
Y1647803D01*
X1966500Y1648303D02*
X1966386Y1648616D01*
X1966159Y1648928*
X1965932Y1649084*
X1965477*
X1965250Y1648928*
X1965023Y1648616*
X1964909Y1648303*
X1964795Y1647834*
Y1647053*
X1964909Y1646584*
X1965023Y1646272*
X1965250Y1645959*
X1965477Y1645803*
X1965932*
X1966159Y1645959*
X1966386Y1646272*
X1966500Y1646584*
X1958756Y1651874D02*
X1966756D01*
X1962756Y1647874D02*
Y1655874D01*
X1966460Y1656374D02*
X1966347Y1656687D01*
X1966120Y1656999*
X1965892Y1657155*
X1965438*
X1965210Y1656999*
X1964983Y1656687*
X1964870Y1656374*
X1964756Y1655905*
Y1655124*
X1964870Y1654655*
X1964983Y1654343*
X1965210Y1654030*
X1965438Y1653874*
X1965892*
X1966120Y1654030*
X1966347Y1654343*
X1966460Y1654655*
X2015724Y1651520D02*
X2023724D01*
X2019724Y1647520D02*
Y1655520D01*
X2023429Y1656020D02*
X2023315Y1656332D01*
X2023088Y1656645*
X2022861Y1656801*
X2022406*
X2022179Y1656645*
X2021952Y1656332*
X2021838Y1656020*
X2021724Y1655551*
Y1654770*
X2021838Y1654301*
X2021952Y1653988*
X2022179Y1653676*
X2022406Y1653520*
X2022861*
X2023088Y1653676*
X2023315Y1653988*
X2023429Y1654301*
X2047102Y1647780D02*
X2055102D01*
X2051102Y1643780D02*
Y1651780D01*
X2053102Y1653061D02*
Y1649780D01*
Y1653061D02*
X2053898D01*
X2054239Y1652905*
X2054466Y1652592*
X2054580Y1652280*
X2054693Y1651811*
Y1651030*
X2054580Y1650561*
X2054466Y1650248*
X2054239Y1649936*
X2053898Y1649780*
X2053102*
X2061236Y1641205D02*
X2069236D01*
X2065236Y1637205D02*
Y1645205D01*
X2067236Y1646486D02*
Y1643205D01*
Y1646486D02*
X2068032D01*
X2068373Y1646330*
X2068600Y1646017*
X2068713Y1645705*
X2068827Y1645236*
Y1644455*
X2068713Y1643986*
X2068600Y1643673*
X2068373Y1643361*
X2068032Y1643205*
X2067236*
X1868598Y1661953D02*
X1876598D01*
X1872598Y1657953D02*
Y1665953D01*
X1874598Y1667234D02*
Y1663953D01*
Y1667234D02*
X1875394D01*
X1875735Y1667078*
X1875962Y1666765*
X1876076Y1666453*
X1876189Y1665984*
Y1665203*
X1876076Y1664734*
X1875962Y1664422*
X1875735Y1664109*
X1875394Y1663953*
X1874598*
X1910803Y1673803D02*
X1918803D01*
X1914803Y1669803D02*
Y1677803D01*
X1916803Y1679084D02*
Y1675803D01*
Y1679084D02*
X1917599D01*
X1917940Y1678928*
X1918167Y1678616*
X1918280Y1678303*
X1918394Y1677834*
Y1677053*
X1918280Y1676584*
X1918167Y1676272*
X1917940Y1675959*
X1917599Y1675803*
X1916803*
X1918303Y1666303D02*
X1926303D01*
X1922303Y1662303D02*
Y1670303D01*
X1926008Y1670803D02*
X1925894Y1671116D01*
X1925667Y1671428*
X1925440Y1671584*
X1924985*
X1924758Y1671428*
X1924530Y1671116*
X1924417Y1670803*
X1924303Y1670334*
Y1669553*
X1924417Y1669084*
X1924530Y1668772*
X1924758Y1668459*
X1924985Y1668303*
X1925440*
X1925667Y1668459*
X1925894Y1668772*
X1926008Y1669084*
X1919071Y1661520D02*
X1927071D01*
X1923071Y1657520D02*
Y1665520D01*
X1926775Y1666020D02*
X1926662Y1666332D01*
X1926435Y1666645*
X1926435D02*
X1926207Y1666801D01*
X1925753*
X1925525Y1666645*
X1925298Y1666332*
X1925185Y1666020*
X1925185D02*
X1925071Y1665551D01*
Y1664770*
X1925185Y1664301*
X1925185D02*
X1925298Y1663988D01*
X1925525Y1663676*
X1925753Y1663520*
X1926207*
X1926435Y1663676*
X1926435D02*
X1926662Y1663988D01*
X1926775Y1664301*
X1923992Y1664394D02*
X1931992D01*
X1927992Y1660394D02*
Y1668394D01*
X1931697Y1668894D02*
X1931583Y1669206D01*
X1931356Y1669519*
X1931128Y1669675*
X1930674*
X1930447Y1669519*
X1930219Y1669206*
X1930106Y1668894*
X1929992Y1668425*
Y1667644*
X1930106Y1667175*
X1930219Y1666862*
X1930447Y1666550*
X1930674Y1666394*
X1931128*
X1931356Y1666550*
X1931583Y1666862*
X1931697Y1667175*
X1965803Y1676303D02*
X1973803D01*
X1969803Y1672303D02*
Y1680303D01*
X1971803Y1681584D02*
Y1678303D01*
Y1681584D02*
X1972599D01*
X1972940Y1681428*
X1973167Y1681116*
X1973280Y1680803*
X1973394Y1680334*
Y1679553*
X1973280Y1679084*
X1973167Y1678772*
X1972940Y1678459*
X1972599Y1678303*
X1971803*
X1970803Y1671303D02*
X1978803D01*
X1974803Y1667303D02*
Y1675303D01*
X1978508Y1675803D02*
X1978394Y1676116D01*
X1978167Y1676428*
X1977940Y1676584*
X1977485*
X1977258Y1676428*
X1977030Y1676116*
X1976917Y1675803*
X1976803Y1675334*
Y1674553*
X1976917Y1674084*
X1977030Y1673772*
X1977258Y1673459*
X1977485Y1673303*
X1977940*
X1978167Y1673459*
X1978394Y1673772*
X1978508Y1674084*
X1958303Y1673803D02*
X1966303D01*
X1962303Y1669803D02*
Y1677803D01*
X1964303Y1679084D02*
Y1675803D01*
Y1679084D02*
X1965099D01*
X1965440Y1678928*
X1965667Y1678616*
X1965780Y1678303*
X1965894Y1677834*
Y1677053*
X1965780Y1676584*
X1965667Y1676272*
X1965440Y1675959*
X1965099Y1675803*
X1964303*
X1973717Y1667268D02*
X1981717D01*
X1977717Y1663268D02*
Y1671268D01*
X1981421Y1671768D02*
X1981307Y1672080D01*
X1981080Y1672393*
X1980853Y1672549*
X1980398*
X1980171Y1672393*
X1979944Y1672080*
X1979830Y1671768*
X1979717Y1671299*
Y1670518*
X1979830Y1670049*
X1979944Y1669736*
X1980171Y1669424*
X1980398Y1669268*
X1980853*
X1981080Y1669424*
X1981307Y1669736*
X1981421Y1670049*
X1978283Y1665890D02*
X1986283D01*
X1982283Y1661890D02*
Y1669890D01*
X1985988Y1670390D02*
X1985874Y1670702D01*
X1985647Y1671015*
X1985420Y1671171*
X1984965*
X1984738Y1671015*
X1984511Y1670702*
X1984397Y1670390*
X1984283Y1669921*
Y1669140*
X1984397Y1668671*
X1984511Y1668359*
X1984738Y1668046*
X1984965Y1667890*
X1985420*
X1985647Y1668046*
X1985874Y1668359*
X1985988Y1668671*
X1924622Y1689433D02*
X1932622D01*
X1928622Y1685433D02*
Y1693433D01*
X1932327Y1693933D02*
X1932213Y1694246D01*
X1931986Y1694558*
X1931758Y1694714*
X1931304*
X1931077Y1694558*
X1930849Y1694246*
X1930736Y1693933*
X1930622Y1693464*
Y1692683*
X1930736Y1692214*
X1930849Y1691902*
X1931077Y1691589*
X1931304Y1691433*
X1931758*
X1931986Y1691589*
X1932213Y1691902*
X1932327Y1692214*
X1920134Y1683882D02*
X1928134D01*
X1924134Y1679882D02*
Y1687882D01*
X1927838Y1688382D02*
X1927725Y1688694D01*
X1927497Y1689007*
X1927270Y1689163*
X1926816*
X1926588Y1689007*
X1926361Y1688694*
X1926247Y1688382*
X1926134Y1687913*
Y1687132*
X1926247Y1686663*
X1926361Y1686351*
X1926588Y1686038*
X1926816Y1685882*
X1927270*
X1927497Y1686038*
X1927725Y1686351*
X1927838Y1686663*
X1942614Y1684079D02*
X1950614D01*
X1946614Y1680079D02*
Y1688079D01*
X1950319Y1688579D02*
X1950205Y1688891D01*
X1949978Y1689204*
X1949751Y1689360*
X1949296*
X1949069Y1689204*
X1948841Y1688891*
X1948728Y1688579*
X1948614Y1688110*
Y1687329*
X1948728Y1686860*
X1948841Y1686547*
X1949069Y1686235*
X1949296Y1686079*
X1949751*
X1949978Y1686235*
X1950205Y1686547*
X1950319Y1686860*
X1936827Y1682976D02*
X1944827D01*
X1940827Y1678976D02*
Y1686976D01*
X1944531Y1687476D02*
X1944418Y1687789D01*
X1944190Y1688101*
X1943963Y1688258*
X1943509*
X1943281Y1688101*
X1943054Y1687789*
X1942940Y1687476*
X1942827Y1687008*
Y1686226*
X1942940Y1685758*
X1943054Y1685445*
X1943281Y1685133*
X1943509Y1684976*
X1943963*
X1944190Y1685133*
X1944418Y1685445*
X1944531Y1685758*
X2033303Y1683803D02*
X2041303D01*
X2037303Y1679803D02*
Y1687803D01*
X2039303Y1689084D02*
Y1685803D01*
Y1689084D02*
X2040099D01*
X2040440Y1688928*
X2040667Y1688616*
X2040780Y1688303*
X2040894Y1687834*
Y1687053*
X2040780Y1686584*
X2040667Y1686272*
X2040440Y1685959*
X2040099Y1685803*
X2039303*
X2080803Y1708213D02*
X2088803D01*
X2084803Y1704213D02*
Y1712213D01*
X2086803Y1713494D02*
Y1710213D01*
Y1713494D02*
X2087599D01*
X2087940Y1713338*
X2088167Y1713025*
X2088280Y1712713*
X2088394Y1712244*
Y1711463*
X2088280Y1710994*
X2088167Y1710681*
X2087940Y1710369*
X2087599Y1710213*
X2086803*
X1899803Y1578803D02*
X2114803D01*
X1899803Y1558803D02*
X2114803D01*
X1899803Y1538803D02*
X2114803D01*
X1899803Y1518803D02*
X2114803D01*
X1899803Y1498803D02*
X2114803D01*
X1899803Y1478803D02*
X2114803D01*
X1899803Y1578803D02*
Y1478803D01*
X1969803Y1578803D02*
Y1478803D01*
X1999803Y1578803D02*
Y1478803D01*
X2029803Y1578803D02*
Y1478803D01*
X2074803Y1578803D02*
Y1478803D01*
X2114803Y1578803D02*
Y1478803D01*
X1923735Y1563803D02*
X1925023Y1565782D01*
X1925326Y1567449*
Y1570157*
X1925629Y1570366*
X1931538*
X1931841Y1570157*
Y1567970*
X1931538Y1567761*
X1925326*
X1928735D02*
X1929341Y1566303D01*
X1930932Y1564741*
X1932826Y1563803*
X1937674Y1565991D02*
X1937068Y1567032D01*
X1936159Y1567761*
X1934871Y1569220D02*
X1943280D01*
X1941462Y1570678D02*
Y1563803D01*
X1941159Y1563595*
X1938962Y1564011*
X1973735Y1566303D02*
X1978129D01*
X1977523D02*
X1976841Y1565053D01*
X1975932Y1564324*
X1974038Y1563595*
X1977523D02*
X1975932Y1564532D01*
X1974341Y1565053*
Y1565261*
X1975326Y1565991*
X1975932Y1567032*
Y1567241D02*
Y1570678D01*
X1974038D02*
X1974644Y1569636D01*
X1976841D02*
X1977523Y1570678D01*
X1978129Y1569220D02*
X1974038D01*
X1973735Y1567449D02*
X1975023Y1568178D01*
X1975932Y1569220*
X1977826Y1567970*
X1978432D02*
X1979038Y1569428D01*
Y1570678*
Y1569428D02*
X1983129D01*
X1982523D02*
X1981841Y1567241D01*
X1980326Y1564741*
X1978735Y1563595*
X1982826D02*
X1981538Y1564741D01*
X1980023Y1567241*
X1979341Y1569428*
X1984871Y1563803D02*
X1993962D01*
X1993280Y1564741D02*
X1985477D01*
X1986159Y1565991D02*
Y1567449D01*
X1986462Y1567761*
X1992674*
X1992977Y1567449*
Y1565991*
X1992674Y1565782*
X1986462*
X1986159Y1565991*
Y1566720D02*
X1992977D01*
X1989568Y1567761D02*
Y1563803D01*
X1985174Y1568491D02*
X1994265D01*
X1986159Y1569428D02*
Y1570366D01*
X1986462Y1570678*
X1992674*
X1992977Y1570366*
Y1569428*
X1992674Y1569220*
X1986462*
X1986159Y1569428*
Y1569949D02*
X1992977D01*
X2004341Y1566720D02*
X2005629Y1567761D01*
X2006538Y1568907*
X2005629Y1567761D02*
Y1563595D01*
X2009341Y1565261D02*
X2008129Y1566511D01*
X2007523Y1567761D02*
X2013129D01*
X2011841Y1568699D02*
Y1563803D01*
X2011538Y1563595*
X2010326Y1563803*
X2009341Y1565261D02*
X2008129Y1566511D01*
X2003735Y1569428D02*
X2005023Y1570157D01*
X2005326Y1570886*
X2005023Y1570157D02*
X2008432D01*
X2007144Y1569220D02*
X2005932Y1570157D01*
X2010023Y1570886D02*
X2009644Y1570157D01*
X2008735Y1569428*
X2009644Y1570157D02*
X2013129D01*
X2011841Y1569220D02*
X2010932Y1570157D01*
X2014871Y1567241D02*
X2023659D01*
X2017371D02*
X2016765Y1565991D01*
X2017068Y1565782*
X2022068*
X2022371Y1565574*
X2022068Y1563803*
X2021765Y1563595*
X2019265Y1563803*
X2016462Y1568699D02*
Y1570157D01*
X2016765Y1570366*
X2022068*
X2022371Y1570157*
Y1568699*
X2022068Y1568491*
X2016765*
X2016462Y1568699*
X2054303Y1568803D02*
Y1569116D01*
X2054530Y1569741*
X2054758Y1570053*
X2055212Y1570366*
X2056121*
X2056576Y1570053*
X2056803Y1569741*
X2057030Y1569116*
Y1568491*
X2056803Y1567866*
X2056576Y1567553*
X2055667Y1566928*
Y1565991*
Y1564428D02*
X2055440Y1564116D01*
X2055667Y1563803*
X2055894Y1564116*
X2055667Y1564428*
X2059076Y1568803D02*
Y1569116D01*
X2059303Y1569741*
X2059530Y1570053*
X2059985Y1570366*
X2060894*
X2061349Y1570053*
X2061576Y1569741*
X2061803Y1569116*
Y1568491*
X2061576Y1567866*
X2061349Y1567553*
X2060440Y1566928*
Y1565991*
Y1564428D02*
X2060212Y1564116D01*
X2060440Y1563803*
X2060667Y1564116*
X2060440Y1564428*
X2088621Y1570366D02*
Y1563803D01*
X2087030Y1570366D02*
X2090212D01*
X2093621D02*
X2093167Y1570053D01*
X2092712Y1569428*
X2092485Y1568803*
X2092258Y1567866*
Y1566303*
X2092485Y1565366*
X2092712Y1564741*
X2093167Y1564116*
X2093621Y1563803*
X2094530*
X2094985Y1564116*
X2095440Y1564741*
X2095667Y1565366*
X2095894Y1566303*
Y1567866*
X2095667Y1568803*
X2095440Y1569428*
X2094985Y1570053*
X2094530Y1570366*
X2093621*
X2097940D02*
Y1563803D01*
X2100667*
X1905258Y1550366D02*
X1907758D01*
X1906394Y1547866*
X1907076*
X1907530Y1547553*
X1907758Y1547241*
X1907985Y1546303*
Y1545678*
X1907758Y1544741*
X1907303Y1544116*
X1906621Y1543803*
X1905940*
X1905258Y1544116*
X1905030Y1544428*
X1904803Y1545053*
X1912985Y1550366D02*
X1910712D01*
X1910485Y1547553*
X1910712Y1547866*
X1911394Y1548178*
X1912076*
X1912758Y1547866*
X1913212Y1547241*
X1913440Y1546303*
X1913212Y1545678*
X1912985Y1544741*
X1912530Y1544116*
X1911849Y1543803*
X1911167*
X1910485Y1544116*
X1910258Y1544428*
X1910030Y1545053*
X1980667Y1549116D02*
X1981121Y1549428D01*
X1981803Y1550366*
Y1543803*
X1987030Y1550366D02*
X1984758Y1543803D01*
X1983849Y1550366D02*
X1987030D01*
X2009803Y1543803D02*
X2019803Y1553803D01*
Y1543803*
X2009803Y1553803*
Y1543803*
X2036917Y1550366D02*
X2038735Y1547241D01*
Y1543803*
X2040553Y1550366D02*
X2038735Y1547241D01*
X2042599Y1550366D02*
Y1543803D01*
Y1550366D02*
X2045553D01*
X2042599Y1547241D02*
X2044417D01*
X2042599Y1543803D02*
X2045553D01*
X2050780Y1549428D02*
X2050326Y1550053D01*
X2049644Y1550366*
X2048735*
X2048053Y1550053*
X2047599Y1549428*
Y1548803*
X2047826Y1548178*
X2048053Y1547866*
X2048508Y1547553*
X2049871Y1546928*
X2050326Y1546616*
X2050553Y1546303*
X2050780Y1545678*
Y1544741*
X2050326Y1544116*
X2049644Y1543803*
X2048735*
X2048053Y1544116*
X2047599Y1544741*
X2081235Y1549428D02*
Y1543803D01*
X2079190Y1546616D02*
X2083280D01*
X2089417Y1551616D02*
X2085326Y1541616D01*
X2091462Y1546616D02*
X2095553D01*
X2098962Y1550366D02*
X2098280Y1550053D01*
X2097826Y1549116*
X2097599Y1547553*
Y1546616*
X2097826Y1545053*
X2098280Y1544116*
X2098962Y1543803*
X2099417*
X2100099Y1544116*
X2100553Y1545053*
X2100780Y1546616*
Y1547553*
X2100553Y1549116*
X2100099Y1550053*
X2099417Y1550366*
X2098962*
X2103053Y1544428D02*
X2102826Y1544116D01*
X2103053Y1543803*
X2103280Y1544116*
X2103053Y1544428*
X2106690Y1550366D02*
X2106008Y1550053D01*
X2105553Y1549116*
X2105326Y1547553*
Y1546616*
X2105553Y1545053*
X2106008Y1544116*
X2106690Y1543803*
X2107144*
X2107826Y1544116*
X2108280Y1545053*
X2108508Y1546616*
Y1547553*
X2108280Y1549116*
X2107826Y1550053*
X2107144Y1550366*
X2106690*
X1905030Y1528803D02*
Y1529116D01*
X1905258Y1529741*
X1905485Y1530053*
X1905940Y1530366*
X1906849*
X1907303Y1530053*
X1907530Y1529741*
X1907758Y1529116*
Y1528491*
X1907530Y1527866*
X1907076Y1526928*
X1904803Y1523803*
X1907985*
X1910485Y1530366D02*
X1912985D01*
X1911621Y1527866*
X1912303*
X1912758Y1527553*
X1912985Y1527241*
X1913212Y1526303*
Y1525678*
X1912985Y1524741*
X1912530Y1524116*
X1911849Y1523803*
X1911167*
X1910485Y1524116*
X1910258Y1524428*
X1910030Y1525053*
X1915485Y1524428D02*
X1915258Y1524116D01*
X1915485Y1523803*
X1915712Y1524116*
X1915485Y1524428*
X1920485Y1529428D02*
X1920258Y1530053D01*
X1919576Y1530366*
X1919121*
X1918440Y1530053*
X1917985Y1529116*
X1917758Y1527553*
Y1525991*
X1917985Y1524741*
X1918440Y1524116*
X1919121Y1523803*
X1919349*
X1920030Y1524116*
X1920485Y1524741*
X1920712Y1525678*
Y1525991*
X1920485Y1526928*
X1920030Y1527553*
X1919349Y1527866*
X1919121*
X1918440Y1527553*
X1917985Y1526928*
X1917758Y1525991*
X1922985Y1528803D02*
Y1529116D01*
X1923212Y1529741*
X1923440Y1530053*
X1923894Y1530366*
X1924803*
X1925258Y1530053*
X1925485Y1529741*
X1925712Y1529116*
Y1528491*
X1925485Y1527866*
X1925030Y1526928*
X1922758Y1523803*
X1925940*
X1982485Y1528803D02*
Y1529116D01*
X1982712Y1529741*
X1982940Y1530053*
X1983394Y1530366*
X1984303*
X1984758Y1530053*
X1984985Y1529741*
X1985212Y1529116*
Y1528491*
X1984985Y1527866*
X1984530Y1526928*
X1982258Y1523803*
X1985440*
X2009803Y1528803D02*
X2019803D01*
X2014803Y1523803D02*
Y1533803D01*
X2017303Y1536553D02*
Y1531303D01*
Y1536553D02*
X2018940D01*
X2019485Y1536303*
X2019667Y1536053*
X2019849Y1535553*
Y1535053*
X2019667Y1534553*
X2019485Y1534303*
X2018940Y1534053*
X2017303D02*
X2018940D01*
X2019485Y1533803*
X2019667Y1533553*
X2019849Y1533053*
Y1532303*
X2019667Y1531803*
X2019485Y1531553*
X2018940Y1531303*
X2017303*
X2036917Y1530366D02*
X2038735Y1527241D01*
Y1523803*
X2040553Y1530366D02*
X2038735Y1527241D01*
X2042599Y1530366D02*
Y1523803D01*
Y1530366D02*
X2045553D01*
X2042599Y1527241D02*
X2044417D01*
X2042599Y1523803D02*
X2045553D01*
X2050780Y1529428D02*
X2050326Y1530053D01*
X2049644Y1530366*
X2048735*
X2048053Y1530053*
X2047599Y1529428*
Y1528803*
X2047826Y1528178*
X2048053Y1527866*
X2048508Y1527553*
X2049871Y1526928*
X2050326Y1526616*
X2050553Y1526303*
X2050780Y1525678*
Y1524741*
X2050326Y1524116*
X2049644Y1523803*
X2048735*
X2048053Y1524116*
X2047599Y1524741*
X2081235Y1529428D02*
Y1523803D01*
X2079190Y1526616D02*
X2083280D01*
X2089417Y1531616D02*
X2085326Y1521616D01*
X2091462Y1526616D02*
X2095553D01*
X2098962Y1530366D02*
X2098280Y1530053D01*
X2097826Y1529116*
X2097599Y1527553*
Y1526616*
X2097826Y1525053*
X2098280Y1524116*
X2098962Y1523803*
X2099417*
X2100099Y1524116*
X2100553Y1525053*
X2100780Y1526616*
Y1527553*
X2100553Y1529116*
X2100099Y1530053*
X2099417Y1530366*
X2098962*
X2103053Y1524428D02*
X2102826Y1524116D01*
X2103053Y1523803*
X2103280Y1524116*
X2103053Y1524428*
X2106690Y1530366D02*
X2106008Y1530053D01*
X2105553Y1529116*
X2105326Y1527553*
Y1526616*
X2105553Y1525053*
X2106008Y1524116*
X2106690Y1523803*
X2107144*
X2107826Y1524116*
X2108280Y1525053*
X2108508Y1526616*
Y1527553*
X2108280Y1529116*
X2107826Y1530053*
X2107144Y1530366*
X2106690*
X1904803Y1509116D02*
X1905258Y1509428D01*
X1905940Y1510366*
Y1503803*
X1910940Y1510366D02*
X1908667D01*
X1908440Y1507553*
X1908667Y1507866*
X1909349Y1508178*
X1910030*
X1910712Y1507866*
X1911167Y1507241*
X1911394Y1506303*
X1911167Y1505678*
X1910940Y1504741*
X1910485Y1504116*
X1909803Y1503803*
X1909121*
X1908440Y1504116*
X1908212Y1504428*
X1907985Y1505053*
X1913667Y1504428D02*
X1913440Y1504116D01*
X1913667Y1503803*
X1913894Y1504116*
X1913667Y1504428*
X1919121Y1510366D02*
X1916849Y1503803D01*
X1915940Y1510366D02*
X1919121D01*
X1924121D02*
X1921849D01*
X1921621Y1507553*
X1921849Y1507866*
X1922530Y1508178*
X1923212*
X1923894Y1507866*
X1924349Y1507241*
X1924576Y1506303*
X1924349Y1505678*
X1924121Y1504741*
X1923667Y1504116*
X1922985Y1503803*
X1922303*
X1921621Y1504116*
X1921394Y1504428*
X1921167Y1505053*
X1981803Y1510366D02*
X1979530Y1505991D01*
X1982940*
X1981803Y1510366D02*
Y1503803D01*
X1985440Y1510366D02*
X1987940D01*
X1986576Y1507866*
X1987258*
X1987712Y1507553*
X1987940Y1507241*
X1988167Y1506303*
Y1505678*
X1987940Y1504741*
X1987485Y1504116*
X1986803Y1503803*
X1986121*
X1985440Y1504116*
X1985212Y1504428*
X1984985Y1505053*
X2009803Y1508803D02*
X2019803D01*
X2014803Y1503803D02*
Y1513803D01*
X2020030Y1515303D02*
X2019849Y1515803D01*
X2019485Y1516303*
X2019121Y1516553*
X2018394*
X2018030Y1516303*
X2017667Y1515803*
X2017485Y1515303*
X2017303Y1514553*
Y1513303*
X2017485Y1512553*
X2017667Y1512053*
X2018030Y1511553*
X2018394Y1511303*
X2019121*
X2019485Y1511553*
X2019849Y1512053*
X2020030Y1512553*
X2036917Y1510366D02*
X2038735Y1507241D01*
Y1503803*
X2040553Y1510366D02*
X2038735Y1507241D01*
X2042599Y1510366D02*
Y1503803D01*
Y1510366D02*
X2045553D01*
X2042599Y1507241D02*
X2044417D01*
X2042599Y1503803D02*
X2045553D01*
X2050780Y1509428D02*
X2050326Y1510053D01*
X2049644Y1510366*
X2048735*
X2048053Y1510053*
X2047599Y1509428*
Y1508803*
X2047826Y1508178*
X2048053Y1507866*
X2048508Y1507553*
X2049871Y1506928*
X2050326Y1506616*
X2050553Y1506303*
X2050780Y1505678*
Y1504741*
X2050326Y1504116*
X2049644Y1503803*
X2048735*
X2048053Y1504116*
X2047599Y1504741*
X2081235Y1509428D02*
Y1503803D01*
X2079190Y1506616D02*
X2083280D01*
X2089417Y1511616D02*
X2085326Y1501616D01*
X2091462Y1506616D02*
X2095553D01*
X2098962Y1510366D02*
X2098280Y1510053D01*
X2097826Y1509116*
X2097599Y1507553*
Y1506616*
X2097826Y1505053*
X2098280Y1504116*
X2098962Y1503803*
X2099417*
X2100099Y1504116*
X2100553Y1505053*
X2100780Y1506616*
Y1507553*
X2100553Y1509116*
X2100099Y1510053*
X2099417Y1510366*
X2098962*
X2103053Y1504428D02*
X2102826Y1504116D01*
X2103053Y1503803*
X2103280Y1504116*
X2103053Y1504428*
X2106690Y1510366D02*
X2106008Y1510053D01*
X2105553Y1509116*
X2105326Y1507553*
Y1506616*
X2105553Y1505053*
X2106008Y1504116*
X2106690Y1503803*
X2107144*
X2107826Y1504116*
X2108280Y1505053*
X2108508Y1506616*
Y1507553*
X2108280Y1509116*
X2107826Y1510053*
X2107144Y1510366*
X2106690*
X1905030Y1488803D02*
Y1489116D01*
X1905258Y1489741*
X1905485Y1490053*
X1905940Y1490366*
X1906849*
X1907303Y1490053*
X1907530Y1489741*
X1907758Y1489116*
Y1488491*
X1907530Y1487866*
X1907076Y1486928*
X1904803Y1483803*
X1907985*
X1912303Y1490366D02*
X1910030Y1485991D01*
X1913440*
X1912303Y1490366D02*
Y1483803D01*
X1981690Y1490366D02*
X1979417Y1485991D01*
X1982826*
X1981690Y1490366D02*
Y1483803D01*
X1987826Y1490366D02*
X1985553D01*
X1985326Y1487553*
X1985553Y1487866*
X1986235Y1488178*
X1986917*
X1987599Y1487866*
X1988053Y1487241*
X1988280Y1486303*
X1988053Y1485678*
X1987826Y1484741*
X1987371Y1484116*
X1986690Y1483803*
X1986008*
X1985326Y1484116*
X1985099Y1484428*
X1984871Y1485053*
X2009803Y1488803D02*
X2019803D01*
X2014803Y1483803D02*
Y1493803D01*
X2017303Y1496553D02*
Y1491303D01*
Y1496553D02*
X2018576D01*
X2019121Y1496303*
X2019485Y1495803*
X2019667Y1495303*
X2019849Y1494553*
Y1493303*
X2019667Y1492553*
X2019485Y1492053*
X2019121Y1491553*
X2018576Y1491303*
X2017303*
X2036917Y1490366D02*
X2038735Y1487241D01*
Y1483803*
X2040553Y1490366D02*
X2038735Y1487241D01*
X2042599Y1490366D02*
Y1483803D01*
Y1490366D02*
X2045553D01*
X2042599Y1487241D02*
X2044417D01*
X2042599Y1483803D02*
X2045553D01*
X2050780Y1489428D02*
X2050326Y1490053D01*
X2049644Y1490366*
X2048735*
X2048053Y1490053*
X2047599Y1489428*
Y1488803*
X2047826Y1488178*
X2048053Y1487866*
X2048508Y1487553*
X2049871Y1486928*
X2050326Y1486616*
X2050553Y1486303*
X2050780Y1485678*
Y1484741*
X2050326Y1484116*
X2049644Y1483803*
X2048735*
X2048053Y1484116*
X2047599Y1484741*
X2081235Y1489428D02*
Y1483803D01*
X2079190Y1486616D02*
X2083280D01*
X2089417Y1491616D02*
X2085326Y1481616D01*
X2091462Y1486616D02*
X2095553D01*
X2098962Y1490366D02*
X2098280Y1490053D01*
X2097826Y1489116*
X2097599Y1487553*
Y1486616*
X2097826Y1485053*
X2098280Y1484116*
X2098962Y1483803*
X2099417*
X2100099Y1484116*
X2100553Y1485053*
X2100780Y1486616*
Y1487553*
X2100553Y1489116*
X2100099Y1490053*
X2099417Y1490366*
X2098962*
X2103053Y1484428D02*
X2102826Y1484116D01*
X2103053Y1483803*
X2103280Y1484116*
X2103053Y1484428*
X2106690Y1490366D02*
X2106008Y1490053D01*
X2105553Y1489116*
X2105326Y1487553*
Y1486616*
X2105553Y1485053*
X2106008Y1484116*
X2106690Y1483803*
X2107144*
X2107826Y1484116*
X2108280Y1485053*
X2108508Y1486616*
Y1487553*
X2108280Y1489116*
X2107826Y1490053*
X2107144Y1490366*
X2106690*
G54D293*
X1849213Y1721717D02*
X2150787D01*
Y1478370*
X1849213*
Y1721717*
X0Y0D02*
M02*
