%
T1C.01575F095S3
X2075Y15625
X2075Y15675
X2045Y15875
X205Y15975
X20725Y160965
X2085Y16175
X205512Y162185
X208508Y162193
X205512Y1645
X20825Y165
X2085Y167
X208031Y167051
X20885Y167252
X207689Y16726
X207327Y168272
X207819Y168559
X20725Y16875
X207433Y170508
X207882Y171063
X209681Y170528
X209102Y170417
X2125Y16925
X212791Y168846
X213248Y168709
X211295Y167307
X211299Y1665
X2105Y1665
X211756Y162201
X2105Y16175
X21375Y15075
X21475Y15325
X2185Y1565
X21875Y157
X21525Y15875
X21525Y15975
X216992Y167272
X22225Y165
X22163Y160965
X222Y1565
X2235Y153
X2195Y153
X219047Y152906
X227213Y152657
T2C.02362F197S55
X228752Y156197
X227177Y156197
T3C.024F197S55
X201461Y154539
X205669Y15487
X204071Y156122
X202063Y157488
X20325Y158
X20225Y159
X202811Y159232
X203886Y160346
X206Y160831
X20425Y16525
X204764Y166173
X202445Y166335
X204748Y166795
X203909Y166831
X20228Y168315
X2065Y1695
X21125Y1695
X209787Y166551
X2085Y1655
X210283Y164823
X208429Y164051
X209839Y160339
X21125Y15925
X209807Y158004
X209Y158
X2085Y15575
X21075Y153
X217185Y152937
X2125Y1535
X211563Y15472
X217272Y156264
X216724Y160319
X21325Y165
X212Y16975
X21875Y1705
X2235Y172941
X22013Y166898
X221543Y16624
X221453Y163772
X221Y15925
X221799Y152
X225484Y152059
X229165Y152067
X224413Y15602
X22875Y1625
T4C.035F197S55
X203193Y15061
X204193Y15061
X204272Y1735
X203272Y1735
X208563Y1735
X207563Y1735
X206563Y1735
X212976Y173504
X213976Y173504
X210563Y1735
X209563Y1735
X220354Y157921
X219354Y157921
X217965Y166783
X218965Y166783
X222228Y169799
X222228Y170799
M30
