*
*
G04 PADS 9.5 Build Number: 522968 generated Gerber (RS-274-X) file*
G04 PC Version=2.1*
*
%IN "SCAN_V2.01.pcb"*%
*
%MOIN*%
*
%FSLAX35Y35*%
*
*
*
*
G04 PC Standard Apertures*
*
*
G04 Thermal Relief Aperture macro.*
%AMTER*
1,1,$1,0,0*
1,0,$1-$2,0,0*
21,0,$3,$4,0,0,45*
21,0,$3,$4,0,0,135*
%
*
*
G04 Annular Aperture macro.*
%AMANN*
1,1,$1,0,0*
1,0,$2,0,0*
%
*
*
G04 Odd Aperture macro.*
%AMODD*
1,1,$1,0,0*
1,0,$1-0.005,0,0*
%
*
*
G04 PC Custom Aperture Macros*
*
*
*
*
*
*
G04 PC Aperture Table*
*
%ADD013C,0.001*%
%ADD042R,0.036X0.036*%
%ADD061R,0.05X0.04*%
%ADD062R,0.07087X0.05*%
%ADD064R,0.04X0.05*%
%ADD069O,0.074X0.024*%
%ADD113R,0.09X0.075*%
%ADD121R,0.036X0.05*%
%ADD123O,0.01X0.07087*%
%ADD124O,0.07087X0.01*%
%ADD151R,0.09449X0.09449*%
%ADD161R,0.06X0.05*%
%ADD201C,0.00004*%
%ADD203R,0.03937X0.03937*%
%ADD217R,0.033X0.033*%
%ADD240R,0.074X0.024*%
%ADD254R,0.01181X0.05906*%
%ADD255R,0.07087X0.07874*%
%ADD257R,0.02X0.025*%
%ADD258R,0.025X0.02*%
%ADD281R,0.04331X0.03937*%
%ADD282R,0.03937X0.04331*%
%ADD293C,0.02756*%
%ADD336R,0.07087X0.03937*%
%ADD337O,0.07087X0.03937*%
%ADD338O,0.03937X0.07087*%
%ADD339R,0.03937X0.07087*%
%ADD340R,0.02756X0.05906*%
%ADD341R,0.03937X0.0315*%
%ADD342R,0.05984X0.05197*%
%ADD343R,0.04X0.02*%
%ADD344R,0.06X0.01969*%
%ADD345O,0.06X0.01969*%
%ADD346R,0.05118X0.05118*%
%ADD347R,0.07283X0.01575*%
%ADD348R,0.06102X0.08661*%
*
*
*
*
G04 PC Circuitry*
G04 Layer Name SCAN_V2.01.pcb - circuitry*
%LPD*%
*
*
G04 PC Custom Flashes*
G04 Layer Name SCAN_V2.01.pcb - flashes*
%LPD*%
*
*
G04 PC Circuitry*
G04 Layer Name SCAN_V2.01.pcb - circuitry*
%LPD*%
*
G54D13*
G54D42*
G01X2071959Y1707970D03*
X2079459D03*
X1919380Y1527463D03*
X1911880D03*
X2071978Y1566439D03*
X2064478D03*
X2086407Y1543561D03*
X2093907D03*
G54D61*
X2051063Y1653224D03*
Y1661224D03*
X1890512Y1535437D03*
Y1527437D03*
G54D62*
X1970551Y1582280D03*
Y1570280D03*
G54D64*
X1955339Y1636831D03*
X1947339D03*
G54D69*
X1916811Y1549213D03*
Y1554213D03*
Y1559213D03*
X1891181D03*
Y1554213D03*
Y1549213D03*
Y1544213D03*
X1997953Y1629016D03*
Y1634016D03*
Y1639016D03*
X1967953D03*
Y1634016D03*
Y1629016D03*
Y1624016D03*
G54D113*
X1948031Y1519941D03*
Y1508191D03*
X2011378Y1519823D03*
Y1508073D03*
G54D121*
X2075709Y1715970D03*
X1915630Y1519463D03*
X2068228Y1558439D03*
X2090157Y1551561D03*
G54D123*
X1919134Y1641634D03*
X1921102D03*
X1923071D03*
X1925039D03*
X1927008D03*
X1928976D03*
X1930945D03*
X1932913D03*
X1934882D03*
X1936850D03*
X1938819D03*
X1940787D03*
Y1676280D03*
X1938819D03*
X1936850D03*
X1934882D03*
X1932913D03*
X1930945D03*
X1928976D03*
X1927008D03*
X1925039D03*
X1923071D03*
X1921102D03*
X1919134D03*
G54D124*
X1912638Y1669783D03*
Y1667815D03*
Y1665846D03*
Y1663878D03*
Y1661909D03*
Y1659941D03*
Y1657972D03*
Y1656004D03*
Y1654035D03*
Y1652067D03*
Y1650098D03*
Y1648130D03*
X1947283D03*
Y1650098D03*
Y1652067D03*
Y1654035D03*
Y1656004D03*
Y1657972D03*
Y1659941D03*
Y1661909D03*
Y1663878D03*
Y1665846D03*
Y1667815D03*
Y1669783D03*
G54D151*
X1992913Y1529232D03*
X1979134Y1543012D03*
G54D161*
X1908831Y1507146D03*
X1899831D03*
G54D201*
X1881888Y1664506D02*
X1875907D01*
Y1659313*
X1880747*
X1881888Y1660257*
Y1664506*
X1875907Y1659313D02*
Y1664506D01*
X1875909Y1659313D02*
Y1664506D01*
X1875911Y1659313D02*
Y1664506D01*
X1875913Y1659313D02*
Y1664506D01*
X1875915Y1659313D02*
Y1664506D01*
X1875917Y1659313D02*
Y1664506D01*
X1875919Y1659313D02*
Y1664506D01*
X1875921Y1659313D02*
Y1664506D01*
X1875923Y1659313D02*
Y1664506D01*
X1875925Y1659313D02*
Y1664506D01*
X1875927Y1659313D02*
Y1664506D01*
X1875929Y1659313D02*
Y1664506D01*
X1875931Y1659313D02*
Y1664506D01*
X1875933Y1659313D02*
Y1664506D01*
X1875935Y1659313D02*
Y1664506D01*
X1875937Y1659313D02*
Y1664506D01*
X1875939Y1659313D02*
Y1664506D01*
X1875941Y1659313D02*
Y1664506D01*
X1875943Y1659313D02*
Y1664506D01*
X1875945Y1659313D02*
Y1664506D01*
X1875947Y1659313D02*
Y1664506D01*
X1875949Y1659313D02*
Y1664506D01*
X1875951Y1659313D02*
Y1664506D01*
X1875953Y1659313D02*
Y1664506D01*
X1875955Y1659313D02*
Y1664506D01*
X1875957Y1659313D02*
Y1664506D01*
X1875959Y1659313D02*
Y1664506D01*
X1875961Y1659313D02*
Y1664506D01*
X1875963Y1659313D02*
Y1664506D01*
X1875965Y1659313D02*
Y1664506D01*
X1875967Y1659313D02*
Y1664506D01*
X1875969Y1659313D02*
Y1664506D01*
X1875970Y1659313D02*
Y1664506D01*
X1875972Y1659313D02*
Y1664506D01*
X1875974Y1659313D02*
Y1664506D01*
X1875976Y1659313D02*
Y1664506D01*
X1875978Y1659313D02*
Y1664506D01*
X1875980Y1659313D02*
Y1664506D01*
X1875982Y1659313D02*
Y1664506D01*
X1875984Y1659313D02*
Y1664506D01*
X1875986Y1659313D02*
Y1664506D01*
X1875988Y1659313D02*
Y1664506D01*
X1875990Y1659313D02*
Y1664506D01*
X1875992Y1659313D02*
Y1664506D01*
X1875994Y1659313D02*
Y1664506D01*
X1875996Y1659313D02*
Y1664506D01*
X1875998Y1659313D02*
Y1664506D01*
X1876000Y1659313D02*
Y1664506D01*
X1876002Y1659313D02*
Y1664506D01*
X1876004Y1659313D02*
Y1664506D01*
X1876006Y1659313D02*
Y1664506D01*
X1876008Y1659313D02*
Y1664506D01*
X1876010Y1659313D02*
Y1664506D01*
X1876012Y1659313D02*
Y1664506D01*
X1876014Y1659313D02*
Y1664506D01*
X1876016Y1659313D02*
Y1664506D01*
X1876018Y1659313D02*
Y1664506D01*
X1876020Y1659313D02*
Y1664506D01*
X1876022Y1659313D02*
Y1664506D01*
X1876024Y1659313D02*
Y1664506D01*
X1876026Y1659313D02*
Y1664506D01*
X1876028Y1659313D02*
Y1664506D01*
X1876030Y1659313D02*
Y1664506D01*
X1876031Y1659313D02*
Y1664506D01*
X1876033Y1659313D02*
Y1664506D01*
X1876035Y1659313D02*
Y1664506D01*
X1876037Y1659313D02*
Y1664506D01*
X1876039Y1659313D02*
Y1664506D01*
X1876041Y1659313D02*
Y1664506D01*
X1876043Y1659313D02*
Y1664506D01*
X1876045Y1659313D02*
Y1664506D01*
X1876047Y1659313D02*
Y1664506D01*
X1876049Y1659313D02*
Y1664506D01*
X1876051Y1659313D02*
Y1664506D01*
X1876053Y1659313D02*
Y1664506D01*
X1876055Y1659313D02*
Y1664506D01*
X1876057Y1659313D02*
Y1664506D01*
X1876059Y1659313D02*
Y1664506D01*
X1876061Y1659313D02*
Y1664506D01*
X1876063Y1659313D02*
Y1664506D01*
X1876065Y1659313D02*
Y1664506D01*
X1876067Y1659313D02*
Y1664506D01*
X1876069Y1659313D02*
Y1664506D01*
X1876071Y1659313D02*
Y1664506D01*
X1876073Y1659313D02*
Y1664506D01*
X1876075Y1659313D02*
Y1664506D01*
X1876077Y1659313D02*
Y1664506D01*
X1876079Y1659313D02*
Y1664506D01*
X1876081Y1659313D02*
Y1664506D01*
X1876083Y1659313D02*
Y1664506D01*
X1876085Y1659313D02*
Y1664506D01*
X1876087Y1659313D02*
Y1664506D01*
X1876089Y1659313D02*
Y1664506D01*
X1876091Y1659313D02*
Y1664506D01*
X1876093Y1659313D02*
Y1664506D01*
X1876094Y1659313D02*
Y1664506D01*
X1876096Y1659313D02*
Y1664506D01*
X1876098Y1659313D02*
Y1664506D01*
X1876100Y1659313D02*
Y1664506D01*
X1876102Y1659313D02*
Y1664506D01*
X1876104Y1659313D02*
Y1664506D01*
X1876106Y1659313D02*
Y1664506D01*
X1876108Y1659313D02*
Y1664506D01*
X1876110Y1659313D02*
Y1664506D01*
X1876112Y1659313D02*
Y1664506D01*
X1876114Y1659313D02*
Y1664506D01*
X1876116Y1659313D02*
Y1664506D01*
X1876118Y1659313D02*
Y1664506D01*
X1876120Y1659313D02*
Y1664506D01*
X1876122Y1659313D02*
Y1664506D01*
X1876124Y1659313D02*
Y1664506D01*
X1876126Y1659313D02*
Y1664506D01*
X1876128Y1659313D02*
Y1664506D01*
X1876130Y1659313D02*
Y1664506D01*
X1876132Y1659313D02*
Y1664506D01*
X1876134Y1659313D02*
Y1664506D01*
X1876136Y1659313D02*
Y1664506D01*
X1876138Y1659313D02*
Y1664506D01*
X1876140Y1659313D02*
Y1664506D01*
X1876142Y1659313D02*
Y1664506D01*
X1876144Y1659313D02*
Y1664506D01*
X1876146Y1659313D02*
Y1664506D01*
X1876148Y1659313D02*
Y1664506D01*
X1876150Y1659313D02*
Y1664506D01*
X1876152Y1659313D02*
Y1664506D01*
X1876154Y1659313D02*
Y1664506D01*
X1876156Y1659313D02*
Y1664506D01*
X1876157Y1659313D02*
Y1664506D01*
X1876159Y1659313D02*
Y1664506D01*
X1876161Y1659313D02*
Y1664506D01*
X1876163Y1659313D02*
Y1664506D01*
X1876165Y1659313D02*
Y1664506D01*
X1876167Y1659313D02*
Y1664506D01*
X1876169Y1659313D02*
Y1664506D01*
X1876171Y1659313D02*
Y1664506D01*
X1876173Y1659313D02*
Y1664506D01*
X1876175Y1659313D02*
Y1664506D01*
X1876177Y1659313D02*
Y1664506D01*
X1876179Y1659313D02*
Y1664506D01*
X1876181Y1659313D02*
Y1664506D01*
X1876183Y1659313D02*
Y1664506D01*
X1876185Y1659313D02*
Y1664506D01*
X1876187Y1659313D02*
Y1664506D01*
X1876189Y1659313D02*
Y1664506D01*
X1876191Y1659313D02*
Y1664506D01*
X1876193Y1659313D02*
Y1664506D01*
X1876195Y1659313D02*
Y1664506D01*
X1876197Y1659313D02*
Y1664506D01*
X1876199Y1659313D02*
Y1664506D01*
X1876201Y1659313D02*
Y1664506D01*
X1876203Y1659313D02*
Y1664506D01*
X1876205Y1659313D02*
Y1664506D01*
X1876207Y1659313D02*
Y1664506D01*
X1876209Y1659313D02*
Y1664506D01*
X1876211Y1659313D02*
Y1664506D01*
X1876213Y1659313D02*
Y1664506D01*
X1876215Y1659313D02*
Y1664506D01*
X1876217Y1659313D02*
Y1664506D01*
X1876219Y1659313D02*
Y1664506D01*
X1876220Y1659313D02*
Y1664506D01*
X1876222Y1659313D02*
Y1664506D01*
X1876224Y1659313D02*
Y1664506D01*
X1876226Y1659313D02*
Y1664506D01*
X1876228Y1659313D02*
Y1664506D01*
X1876230Y1659313D02*
Y1664506D01*
X1876232Y1659313D02*
Y1664506D01*
X1876234Y1659313D02*
Y1664506D01*
X1876236Y1659313D02*
Y1664506D01*
X1876238Y1659313D02*
Y1664506D01*
X1876240Y1659313D02*
Y1664506D01*
X1876242Y1659313D02*
Y1664506D01*
X1876244Y1659313D02*
Y1664506D01*
X1876246Y1659313D02*
Y1664506D01*
X1876248Y1659313D02*
Y1664506D01*
X1876250Y1659313D02*
Y1664506D01*
X1876252Y1659313D02*
Y1664506D01*
X1876254Y1659313D02*
Y1664506D01*
X1876256Y1659313D02*
Y1664506D01*
X1876258Y1659313D02*
Y1664506D01*
X1876260Y1659313D02*
Y1664506D01*
X1876262Y1659313D02*
Y1664506D01*
X1876264Y1659313D02*
Y1664506D01*
X1876266Y1659313D02*
Y1664506D01*
X1876268Y1659313D02*
Y1664506D01*
X1876270Y1659313D02*
Y1664506D01*
X1876272Y1659313D02*
Y1664506D01*
X1876274Y1659313D02*
Y1664506D01*
X1876276Y1659313D02*
Y1664506D01*
X1876278Y1659313D02*
Y1664506D01*
X1876280Y1659313D02*
Y1664506D01*
X1876281Y1659313D02*
Y1664506D01*
X1876283Y1659313D02*
Y1664506D01*
X1876285Y1659313D02*
Y1664506D01*
X1876287Y1659313D02*
Y1664506D01*
X1876289Y1659313D02*
Y1664506D01*
X1876291Y1659313D02*
Y1664506D01*
X1876293Y1659313D02*
Y1664506D01*
X1876295Y1659313D02*
Y1664506D01*
X1876297Y1659313D02*
Y1664506D01*
X1876299Y1659313D02*
Y1664506D01*
X1876301Y1659313D02*
Y1664506D01*
X1876303Y1659313D02*
Y1664506D01*
X1876305Y1659313D02*
Y1664506D01*
X1876307Y1659313D02*
Y1664506D01*
X1876309Y1659313D02*
Y1664506D01*
X1876311Y1659313D02*
Y1664506D01*
X1876313Y1659313D02*
Y1664506D01*
X1876315Y1659313D02*
Y1664506D01*
X1876317Y1659313D02*
Y1664506D01*
X1876319Y1659313D02*
Y1664506D01*
X1876321Y1659313D02*
Y1664506D01*
X1876323Y1659313D02*
Y1664506D01*
X1876325Y1659313D02*
Y1664506D01*
X1876327Y1659313D02*
Y1664506D01*
X1876329Y1659313D02*
Y1664506D01*
X1876331Y1659313D02*
Y1664506D01*
X1876333Y1659313D02*
Y1664506D01*
X1876335Y1659313D02*
Y1664506D01*
X1876337Y1659313D02*
Y1664506D01*
X1876339Y1659313D02*
Y1664506D01*
X1876341Y1659313D02*
Y1664506D01*
X1876343Y1659313D02*
Y1664506D01*
X1876344Y1659313D02*
Y1664506D01*
X1876346Y1659313D02*
Y1664506D01*
X1876348Y1659313D02*
Y1664506D01*
X1876350Y1659313D02*
Y1664506D01*
X1876352Y1659313D02*
Y1664506D01*
X1876354Y1659313D02*
Y1664506D01*
X1876356Y1659313D02*
Y1664506D01*
X1876358Y1659313D02*
Y1664506D01*
X1876360Y1659313D02*
Y1664506D01*
X1876362Y1659313D02*
Y1664506D01*
X1876364Y1659313D02*
Y1664506D01*
X1876366Y1659313D02*
Y1664506D01*
X1876368Y1659313D02*
Y1664506D01*
X1876370Y1659313D02*
Y1664506D01*
X1876372Y1659313D02*
Y1664506D01*
X1876374Y1659313D02*
Y1664506D01*
X1876376Y1659313D02*
Y1664506D01*
X1876378Y1659313D02*
Y1664506D01*
X1876380Y1659313D02*
Y1664506D01*
X1876382Y1659313D02*
Y1664506D01*
X1876384Y1659313D02*
Y1664506D01*
X1876386Y1659313D02*
Y1664506D01*
X1876388Y1659313D02*
Y1664506D01*
X1876390Y1659313D02*
Y1664506D01*
X1876392Y1659313D02*
Y1664506D01*
X1876394Y1659313D02*
Y1664506D01*
X1876396Y1659313D02*
Y1664506D01*
X1876398Y1659313D02*
Y1664506D01*
X1876400Y1659313D02*
Y1664506D01*
X1876402Y1659313D02*
Y1664506D01*
X1876404Y1659313D02*
Y1664506D01*
X1876406Y1659313D02*
Y1664506D01*
X1876407Y1659313D02*
Y1664506D01*
X1876409Y1659313D02*
Y1664506D01*
X1876411Y1659313D02*
Y1664506D01*
X1876413Y1659313D02*
Y1664506D01*
X1876415Y1659313D02*
Y1664506D01*
X1876417Y1659313D02*
Y1664506D01*
X1876419Y1659313D02*
Y1664506D01*
X1876421Y1659313D02*
Y1664506D01*
X1876423Y1659313D02*
Y1664506D01*
X1876425Y1659313D02*
Y1664506D01*
X1876427Y1659313D02*
Y1664506D01*
X1876429Y1659313D02*
Y1664506D01*
X1876431Y1659313D02*
Y1664506D01*
X1876433Y1659313D02*
Y1664506D01*
X1876435Y1659313D02*
Y1664506D01*
X1876437Y1659313D02*
Y1664506D01*
X1876439Y1659313D02*
Y1664506D01*
X1876441Y1659313D02*
Y1664506D01*
X1876443Y1659313D02*
Y1664506D01*
X1876445Y1659313D02*
Y1664506D01*
X1876447Y1659313D02*
Y1664506D01*
X1876449Y1659313D02*
Y1664506D01*
X1876451Y1659313D02*
Y1664506D01*
X1876453Y1659313D02*
Y1664506D01*
X1876455Y1659313D02*
Y1664506D01*
X1876457Y1659313D02*
Y1664506D01*
X1876459Y1659313D02*
Y1664506D01*
X1876461Y1659313D02*
Y1664506D01*
X1876463Y1659313D02*
Y1664506D01*
X1876465Y1659313D02*
Y1664506D01*
X1876467Y1659313D02*
Y1664506D01*
X1876469Y1659313D02*
Y1664506D01*
X1876470Y1659313D02*
Y1664506D01*
X1876472Y1659313D02*
Y1664506D01*
X1876474Y1659313D02*
Y1664506D01*
X1876476Y1659313D02*
Y1664506D01*
X1876478Y1659313D02*
Y1664506D01*
X1876480Y1659313D02*
Y1664506D01*
X1876482Y1659313D02*
Y1664506D01*
X1876484Y1659313D02*
Y1664506D01*
X1876486Y1659313D02*
Y1664506D01*
X1876488Y1659313D02*
Y1664506D01*
X1876490Y1659313D02*
Y1664506D01*
X1876492Y1659313D02*
Y1664506D01*
X1876494Y1659313D02*
Y1664506D01*
X1876496Y1659313D02*
Y1664506D01*
X1876498Y1659313D02*
Y1664506D01*
X1876500Y1659313D02*
Y1664506D01*
X1876502Y1659313D02*
Y1664506D01*
X1876504Y1659313D02*
Y1664506D01*
X1876506Y1659313D02*
Y1664506D01*
X1876508Y1659313D02*
Y1664506D01*
X1876510Y1659313D02*
Y1664506D01*
X1876512Y1659313D02*
Y1664506D01*
X1876514Y1659313D02*
Y1664506D01*
X1876516Y1659313D02*
Y1664506D01*
X1876518Y1659313D02*
Y1664506D01*
X1876520Y1659313D02*
Y1664506D01*
X1876522Y1659313D02*
Y1664506D01*
X1876524Y1659313D02*
Y1664506D01*
X1876526Y1659313D02*
Y1664506D01*
X1876528Y1659313D02*
Y1664506D01*
X1876530Y1659313D02*
Y1664506D01*
X1876531Y1659313D02*
Y1664506D01*
X1876533Y1659313D02*
Y1664506D01*
X1876535Y1659313D02*
Y1664506D01*
X1876537Y1659313D02*
Y1664506D01*
X1876539Y1659313D02*
Y1664506D01*
X1876541Y1659313D02*
Y1664506D01*
X1876543Y1659313D02*
Y1664506D01*
X1876545Y1659313D02*
Y1664506D01*
X1876547Y1659313D02*
Y1664506D01*
X1876549Y1659313D02*
Y1664506D01*
X1876551Y1659313D02*
Y1664506D01*
X1876553Y1659313D02*
Y1664506D01*
X1876555Y1659313D02*
Y1664506D01*
X1876557Y1659313D02*
Y1664506D01*
X1876559Y1659313D02*
Y1664506D01*
X1876561Y1659313D02*
Y1664506D01*
X1876563Y1659313D02*
Y1664506D01*
X1876565Y1659313D02*
Y1664506D01*
X1876567Y1659313D02*
Y1664506D01*
X1876569Y1659313D02*
Y1664506D01*
X1876571Y1659313D02*
Y1664506D01*
X1876573Y1659313D02*
Y1664506D01*
X1876575Y1659313D02*
Y1664506D01*
X1876577Y1659313D02*
Y1664506D01*
X1876579Y1659313D02*
Y1664506D01*
X1876581Y1659313D02*
Y1664506D01*
X1876583Y1659313D02*
Y1664506D01*
X1876585Y1659313D02*
Y1664506D01*
X1876587Y1659313D02*
Y1664506D01*
X1876589Y1659313D02*
Y1664506D01*
X1876591Y1659313D02*
Y1664506D01*
X1876593Y1659313D02*
Y1664506D01*
X1876594Y1659313D02*
Y1664506D01*
X1876596Y1659313D02*
Y1664506D01*
X1876598Y1659313D02*
Y1664506D01*
X1876600Y1659313D02*
Y1664506D01*
X1876602Y1659313D02*
Y1664506D01*
X1876604Y1659313D02*
Y1664506D01*
X1876606Y1659313D02*
Y1664506D01*
X1876608Y1659313D02*
Y1664506D01*
X1876610Y1659313D02*
Y1664506D01*
X1876612Y1659313D02*
Y1664506D01*
X1876614Y1659313D02*
Y1664506D01*
X1876616Y1659313D02*
Y1664506D01*
X1876618Y1659313D02*
Y1664506D01*
X1876620Y1659313D02*
Y1664506D01*
X1876622Y1659313D02*
Y1664506D01*
X1876624Y1659313D02*
Y1664506D01*
X1876626Y1659313D02*
Y1664506D01*
X1876628Y1659313D02*
Y1664506D01*
X1876630Y1659313D02*
Y1664506D01*
X1876632Y1659313D02*
Y1664506D01*
X1876634Y1659313D02*
Y1664506D01*
X1876636Y1659313D02*
Y1664506D01*
X1876638Y1659313D02*
Y1664506D01*
X1876640Y1659313D02*
Y1664506D01*
X1876642Y1659313D02*
Y1664506D01*
X1876644Y1659313D02*
Y1664506D01*
X1876646Y1659313D02*
Y1664506D01*
X1876648Y1659313D02*
Y1664506D01*
X1876650Y1659313D02*
Y1664506D01*
X1876652Y1659313D02*
Y1664506D01*
X1876654Y1659313D02*
Y1664506D01*
X1876656Y1659313D02*
Y1664506D01*
X1876657Y1659313D02*
Y1664506D01*
X1876659Y1659313D02*
Y1664506D01*
X1876661Y1659313D02*
Y1664506D01*
X1876663Y1659313D02*
Y1664506D01*
X1876665Y1659313D02*
Y1664506D01*
X1876667Y1659313D02*
Y1664506D01*
X1876669Y1659313D02*
Y1664506D01*
X1876671Y1659313D02*
Y1664506D01*
X1876673Y1659313D02*
Y1664506D01*
X1876675Y1659313D02*
Y1664506D01*
X1876677Y1659313D02*
Y1664506D01*
X1876679Y1659313D02*
Y1664506D01*
X1876681Y1659313D02*
Y1664506D01*
X1876683Y1659313D02*
Y1664506D01*
X1876685Y1659313D02*
Y1664506D01*
X1876687Y1659313D02*
Y1664506D01*
X1876689Y1659313D02*
Y1664506D01*
X1876691Y1659313D02*
Y1664506D01*
X1876693Y1659313D02*
Y1664506D01*
X1876695Y1659313D02*
Y1664506D01*
X1876697Y1659313D02*
Y1664506D01*
X1876699Y1659313D02*
Y1664506D01*
X1876701Y1659313D02*
Y1664506D01*
X1876703Y1659313D02*
Y1664506D01*
X1876705Y1659313D02*
Y1664506D01*
X1876707Y1659313D02*
Y1664506D01*
X1876709Y1659313D02*
Y1664506D01*
X1876711Y1659313D02*
Y1664506D01*
X1876713Y1659313D02*
Y1664506D01*
X1876715Y1659313D02*
Y1664506D01*
X1876717Y1659313D02*
Y1664506D01*
X1876719Y1659313D02*
Y1664506D01*
X1876720Y1659313D02*
Y1664506D01*
X1876722Y1659313D02*
Y1664506D01*
X1876724Y1659313D02*
Y1664506D01*
X1876726Y1659313D02*
Y1664506D01*
X1876728Y1659313D02*
Y1664506D01*
X1876730Y1659313D02*
Y1664506D01*
X1876732Y1659313D02*
Y1664506D01*
X1876734Y1659313D02*
Y1664506D01*
X1876736Y1659313D02*
Y1664506D01*
X1876738Y1659313D02*
Y1664506D01*
X1876740Y1659313D02*
Y1664506D01*
X1876742Y1659313D02*
Y1664506D01*
X1876744Y1659313D02*
Y1664506D01*
X1876746Y1659313D02*
Y1664506D01*
X1876748Y1659313D02*
Y1664506D01*
X1876750Y1659313D02*
Y1664506D01*
X1876752Y1659313D02*
Y1664506D01*
X1876754Y1659313D02*
Y1664506D01*
X1876756Y1659313D02*
Y1664506D01*
X1876758Y1659313D02*
Y1664506D01*
X1876760Y1659313D02*
Y1664506D01*
X1876762Y1659313D02*
Y1664506D01*
X1876764Y1659313D02*
Y1664506D01*
X1876766Y1659313D02*
Y1664506D01*
X1876768Y1659313D02*
Y1664506D01*
X1876770Y1659313D02*
Y1664506D01*
X1876772Y1659313D02*
Y1664506D01*
X1876774Y1659313D02*
Y1664506D01*
X1876776Y1659313D02*
Y1664506D01*
X1876778Y1659313D02*
Y1664506D01*
X1876780Y1659313D02*
Y1664506D01*
X1876781Y1659313D02*
Y1664506D01*
X1876783Y1659313D02*
Y1664506D01*
X1876785Y1659313D02*
Y1664506D01*
X1876787Y1659313D02*
Y1664506D01*
X1876789Y1659313D02*
Y1664506D01*
X1876791Y1659313D02*
Y1664506D01*
X1876793Y1659313D02*
Y1664506D01*
X1876795Y1659313D02*
Y1664506D01*
X1876797Y1659313D02*
Y1664506D01*
X1876799Y1659313D02*
Y1664506D01*
X1876801Y1659313D02*
Y1664506D01*
X1876803Y1659313D02*
Y1664506D01*
X1876805Y1659313D02*
Y1664506D01*
X1876807Y1659313D02*
Y1664506D01*
X1876809Y1659313D02*
Y1664506D01*
X1876811Y1659313D02*
Y1664506D01*
X1876813Y1659313D02*
Y1664506D01*
X1876815Y1659313D02*
Y1664506D01*
X1876817Y1659313D02*
Y1664506D01*
X1876819Y1659313D02*
Y1664506D01*
X1876821Y1659313D02*
Y1664506D01*
X1876823Y1659313D02*
Y1664506D01*
X1876825Y1659313D02*
Y1664506D01*
X1876827Y1659313D02*
Y1664506D01*
X1876829Y1659313D02*
Y1664506D01*
X1876831Y1659313D02*
Y1664506D01*
X1876833Y1659313D02*
Y1664506D01*
X1876835Y1659313D02*
Y1664506D01*
X1876837Y1659313D02*
Y1664506D01*
X1876839Y1659313D02*
Y1664506D01*
X1876841Y1659313D02*
Y1664506D01*
X1876843Y1659313D02*
Y1664506D01*
X1876844Y1659313D02*
Y1664506D01*
X1876846Y1659313D02*
Y1664506D01*
X1876848Y1659313D02*
Y1664506D01*
X1876850Y1659313D02*
Y1664506D01*
X1876852Y1659313D02*
Y1664506D01*
X1876854Y1659313D02*
Y1664506D01*
X1876856Y1659313D02*
Y1664506D01*
X1876858Y1659313D02*
Y1664506D01*
X1876860Y1659313D02*
Y1664506D01*
X1876862Y1659313D02*
Y1664506D01*
X1876864Y1659313D02*
Y1664506D01*
X1876866Y1659313D02*
Y1664506D01*
X1876868Y1659313D02*
Y1664506D01*
X1876870Y1659313D02*
Y1664506D01*
X1876872Y1659313D02*
Y1664506D01*
X1876874Y1659313D02*
Y1664506D01*
X1876876Y1659313D02*
Y1664506D01*
X1876878Y1659313D02*
Y1664506D01*
X1876880Y1659313D02*
Y1664506D01*
X1876882Y1659313D02*
Y1664506D01*
X1876884Y1659313D02*
Y1664506D01*
X1876886Y1659313D02*
Y1664506D01*
X1876888Y1659313D02*
Y1664506D01*
X1876890Y1659313D02*
Y1664506D01*
X1876892Y1659313D02*
Y1664506D01*
X1876894Y1659313D02*
Y1664506D01*
X1876896Y1659313D02*
Y1664506D01*
X1876898Y1659313D02*
Y1664506D01*
X1876900Y1659313D02*
Y1664506D01*
X1876902Y1659313D02*
Y1664506D01*
X1876904Y1659313D02*
Y1664506D01*
X1876906Y1659313D02*
Y1664506D01*
X1876907Y1659313D02*
Y1664506D01*
X1876909Y1659313D02*
Y1664506D01*
X1876911Y1659313D02*
Y1664506D01*
X1876913Y1659313D02*
Y1664506D01*
X1876915Y1659313D02*
Y1664506D01*
X1876917Y1659313D02*
Y1664506D01*
X1876919Y1659313D02*
Y1664506D01*
X1876921Y1659313D02*
Y1664506D01*
X1876923Y1659313D02*
Y1664506D01*
X1876925Y1659313D02*
Y1664506D01*
X1876927Y1659313D02*
Y1664506D01*
X1876929Y1659313D02*
Y1664506D01*
X1876931Y1659313D02*
Y1664506D01*
X1876933Y1659313D02*
Y1664506D01*
X1876935Y1659313D02*
Y1664506D01*
X1876937Y1659313D02*
Y1664506D01*
X1876939Y1659313D02*
Y1664506D01*
X1876941Y1659313D02*
Y1664506D01*
X1876943Y1659313D02*
Y1664506D01*
X1876945Y1659313D02*
Y1664506D01*
X1876947Y1659313D02*
Y1664506D01*
X1876949Y1659313D02*
Y1664506D01*
X1876951Y1659313D02*
Y1664506D01*
X1876953Y1659313D02*
Y1664506D01*
X1876955Y1659313D02*
Y1664506D01*
X1876957Y1659313D02*
Y1664506D01*
X1876959Y1659313D02*
Y1664506D01*
X1876961Y1659313D02*
Y1664506D01*
X1876963Y1659313D02*
Y1664506D01*
X1876965Y1659313D02*
Y1664506D01*
X1876967Y1659313D02*
Y1664506D01*
X1876969Y1659313D02*
Y1664506D01*
X1876970Y1659313D02*
Y1664506D01*
X1876972Y1659313D02*
Y1664506D01*
X1876974Y1659313D02*
Y1664506D01*
X1876976Y1659313D02*
Y1664506D01*
X1876978Y1659313D02*
Y1664506D01*
X1876980Y1659313D02*
Y1664506D01*
X1876982Y1659313D02*
Y1664506D01*
X1876984Y1659313D02*
Y1664506D01*
X1876986Y1659313D02*
Y1664506D01*
X1876988Y1659313D02*
Y1664506D01*
X1876990Y1659313D02*
Y1664506D01*
X1876992Y1659313D02*
Y1664506D01*
X1876994Y1659313D02*
Y1664506D01*
X1876996Y1659313D02*
Y1664506D01*
X1876998Y1659313D02*
Y1664506D01*
X1877000Y1659313D02*
Y1664506D01*
X1877002Y1659313D02*
Y1664506D01*
X1877004Y1659313D02*
Y1664506D01*
X1877006Y1659313D02*
Y1664506D01*
X1877008Y1659313D02*
Y1664506D01*
X1877010Y1659313D02*
Y1664506D01*
X1877012Y1659313D02*
Y1664506D01*
X1877014Y1659313D02*
Y1664506D01*
X1877016Y1659313D02*
Y1664506D01*
X1877018Y1659313D02*
Y1664506D01*
X1877020Y1659313D02*
Y1664506D01*
X1877022Y1659313D02*
Y1664506D01*
X1877024Y1659313D02*
Y1664506D01*
X1877026Y1659313D02*
Y1664506D01*
X1877028Y1659313D02*
Y1664506D01*
X1877030Y1659313D02*
Y1664506D01*
X1877031Y1659313D02*
Y1664506D01*
X1877033Y1659313D02*
Y1664506D01*
X1877035Y1659313D02*
Y1664506D01*
X1877037Y1659313D02*
Y1664506D01*
X1877039Y1659313D02*
Y1664506D01*
X1877041Y1659313D02*
Y1664506D01*
X1877043Y1659313D02*
Y1664506D01*
X1877045Y1659313D02*
Y1664506D01*
X1877047Y1659313D02*
Y1664506D01*
X1877049Y1659313D02*
Y1664506D01*
X1877051Y1659313D02*
Y1664506D01*
X1877053Y1659313D02*
Y1664506D01*
X1877055Y1659313D02*
Y1664506D01*
X1877057Y1659313D02*
Y1664506D01*
X1877059Y1659313D02*
Y1664506D01*
X1877061Y1659313D02*
Y1664506D01*
X1877063Y1659313D02*
Y1664506D01*
X1877065Y1659313D02*
Y1664506D01*
X1877067Y1659313D02*
Y1664506D01*
X1877069Y1659313D02*
Y1664506D01*
X1877071Y1659313D02*
Y1664506D01*
X1877073Y1659313D02*
Y1664506D01*
X1877075Y1659313D02*
Y1664506D01*
X1877077Y1659313D02*
Y1664506D01*
X1877079Y1659313D02*
Y1664506D01*
X1877081Y1659313D02*
Y1664506D01*
X1877083Y1659313D02*
Y1664506D01*
X1877085Y1659313D02*
Y1664506D01*
X1877087Y1659313D02*
Y1664506D01*
X1877089Y1659313D02*
Y1664506D01*
X1877091Y1659313D02*
Y1664506D01*
X1877093Y1659313D02*
Y1664506D01*
X1877094Y1659313D02*
Y1664506D01*
X1877096Y1659313D02*
Y1664506D01*
X1877098Y1659313D02*
Y1664506D01*
X1877100Y1659313D02*
Y1664506D01*
X1877102Y1659313D02*
Y1664506D01*
X1877104Y1659313D02*
Y1664506D01*
X1877106Y1659313D02*
Y1664506D01*
X1877108Y1659313D02*
Y1664506D01*
X1877110Y1659313D02*
Y1664506D01*
X1877112Y1659313D02*
Y1664506D01*
X1877114Y1659313D02*
Y1664506D01*
X1877116Y1659313D02*
Y1664506D01*
X1877118Y1659313D02*
Y1664506D01*
X1877120Y1659313D02*
Y1664506D01*
X1877122Y1659313D02*
Y1664506D01*
X1877124Y1659313D02*
Y1664506D01*
X1877126Y1659313D02*
Y1664506D01*
X1877128Y1659313D02*
Y1664506D01*
X1877130Y1659313D02*
Y1664506D01*
X1877132Y1659313D02*
Y1664506D01*
X1877134Y1659313D02*
Y1664506D01*
X1877136Y1659313D02*
Y1664506D01*
X1877138Y1659313D02*
Y1664506D01*
X1877140Y1659313D02*
Y1664506D01*
X1877142Y1659313D02*
Y1664506D01*
X1877144Y1659313D02*
Y1664506D01*
X1877146Y1659313D02*
Y1664506D01*
X1877148Y1659313D02*
Y1664506D01*
X1877150Y1659313D02*
Y1664506D01*
X1877152Y1659313D02*
Y1664506D01*
X1877154Y1659313D02*
Y1664506D01*
X1877156Y1659313D02*
Y1664506D01*
X1877157Y1659313D02*
Y1664506D01*
X1877159Y1659313D02*
Y1664506D01*
X1877161Y1659313D02*
Y1664506D01*
X1877163Y1659313D02*
Y1664506D01*
X1877165Y1659313D02*
Y1664506D01*
X1877167Y1659313D02*
Y1664506D01*
X1877169Y1659313D02*
Y1664506D01*
X1877171Y1659313D02*
Y1664506D01*
X1877173Y1659313D02*
Y1664506D01*
X1877175Y1659313D02*
Y1664506D01*
X1877177Y1659313D02*
Y1664506D01*
X1877179Y1659313D02*
Y1664506D01*
X1877181Y1659313D02*
Y1664506D01*
X1877183Y1659313D02*
Y1664506D01*
X1877185Y1659313D02*
Y1664506D01*
X1877187Y1659313D02*
Y1664506D01*
X1877189Y1659313D02*
Y1664506D01*
X1877191Y1659313D02*
Y1664506D01*
X1877193Y1659313D02*
Y1664506D01*
X1877195Y1659313D02*
Y1664506D01*
X1877197Y1659313D02*
Y1664506D01*
X1877199Y1659313D02*
Y1664506D01*
X1877201Y1659313D02*
Y1664506D01*
X1877203Y1659313D02*
Y1664506D01*
X1877205Y1659313D02*
Y1664506D01*
X1877207Y1659313D02*
Y1664506D01*
X1877209Y1659313D02*
Y1664506D01*
X1877211Y1659313D02*
Y1664506D01*
X1877213Y1659313D02*
Y1664506D01*
X1877215Y1659313D02*
Y1664506D01*
X1877217Y1659313D02*
Y1664506D01*
X1877219Y1659313D02*
Y1664506D01*
X1877220Y1659313D02*
Y1664506D01*
X1877222Y1659313D02*
Y1664506D01*
X1877224Y1659313D02*
Y1664506D01*
X1877226Y1659313D02*
Y1664506D01*
X1877228Y1659313D02*
Y1664506D01*
X1877230Y1659313D02*
Y1664506D01*
X1877232Y1659313D02*
Y1664506D01*
X1877234Y1659313D02*
Y1664506D01*
X1877236Y1659313D02*
Y1664506D01*
X1877238Y1659313D02*
Y1664506D01*
X1877240Y1659313D02*
Y1664506D01*
X1877242Y1659313D02*
Y1664506D01*
X1877244Y1659313D02*
Y1664506D01*
X1877246Y1659313D02*
Y1664506D01*
X1877248Y1659313D02*
Y1664506D01*
X1877250Y1659313D02*
Y1664506D01*
X1877252Y1659313D02*
Y1664506D01*
X1877254Y1659313D02*
Y1664506D01*
X1877256Y1659313D02*
Y1664506D01*
X1877258Y1659313D02*
Y1664506D01*
X1877260Y1659313D02*
Y1664506D01*
X1877262Y1659313D02*
Y1664506D01*
X1877264Y1659313D02*
Y1664506D01*
X1877266Y1659313D02*
Y1664506D01*
X1877268Y1659313D02*
Y1664506D01*
X1877270Y1659313D02*
Y1664506D01*
X1877272Y1659313D02*
Y1664506D01*
X1877274Y1659313D02*
Y1664506D01*
X1877276Y1659313D02*
Y1664506D01*
X1877278Y1659313D02*
Y1664506D01*
X1877280Y1659313D02*
Y1664506D01*
X1877281Y1659313D02*
Y1664506D01*
X1877283Y1659313D02*
Y1664506D01*
X1877285Y1659313D02*
Y1664506D01*
X1877287Y1659313D02*
Y1664506D01*
X1877289Y1659313D02*
Y1664506D01*
X1877291Y1659313D02*
Y1664506D01*
X1877293Y1659313D02*
Y1664506D01*
X1877295Y1659313D02*
Y1664506D01*
X1877297Y1659313D02*
Y1664506D01*
X1877299Y1659313D02*
Y1664506D01*
X1877301Y1659313D02*
Y1664506D01*
X1877303Y1659313D02*
Y1664506D01*
X1877305Y1659313D02*
Y1664506D01*
X1877307Y1659313D02*
Y1664506D01*
X1877309Y1659313D02*
Y1664506D01*
X1877311Y1659313D02*
Y1664506D01*
X1877313Y1659313D02*
Y1664506D01*
X1877315Y1659313D02*
Y1664506D01*
X1877317Y1659313D02*
Y1664506D01*
X1877319Y1659313D02*
Y1664506D01*
X1877321Y1659313D02*
Y1664506D01*
X1877323Y1659313D02*
Y1664506D01*
X1877325Y1659313D02*
Y1664506D01*
X1877327Y1659313D02*
Y1664506D01*
X1877329Y1659313D02*
Y1664506D01*
X1877331Y1659313D02*
Y1664506D01*
X1877333Y1659313D02*
Y1664506D01*
X1877335Y1659313D02*
Y1664506D01*
X1877337Y1659313D02*
Y1664506D01*
X1877339Y1659313D02*
Y1664506D01*
X1877341Y1659313D02*
Y1664506D01*
X1877343Y1659313D02*
Y1664506D01*
X1877344Y1659313D02*
Y1664506D01*
X1877346Y1659313D02*
Y1664506D01*
X1877348Y1659313D02*
Y1664506D01*
X1877350Y1659313D02*
Y1664506D01*
X1877352Y1659313D02*
Y1664506D01*
X1877354Y1659313D02*
Y1664506D01*
X1877356Y1659313D02*
Y1664506D01*
X1877358Y1659313D02*
Y1664506D01*
X1877360Y1659313D02*
Y1664506D01*
X1877362Y1659313D02*
Y1664506D01*
X1877364Y1659313D02*
Y1664506D01*
X1877366Y1659313D02*
Y1664506D01*
X1877368Y1659313D02*
Y1664506D01*
X1877370Y1659313D02*
Y1664506D01*
X1877372Y1659313D02*
Y1664506D01*
X1877374Y1659313D02*
Y1664506D01*
X1877376Y1659313D02*
Y1664506D01*
X1877378Y1659313D02*
Y1664506D01*
X1877380Y1659313D02*
Y1664506D01*
X1877382Y1659313D02*
Y1664506D01*
X1877384Y1659313D02*
Y1664506D01*
X1877386Y1659313D02*
Y1664506D01*
X1877388Y1659313D02*
Y1664506D01*
X1877390Y1659313D02*
Y1664506D01*
X1877392Y1659313D02*
Y1664506D01*
X1877394Y1659313D02*
Y1664506D01*
X1877396Y1659313D02*
Y1664506D01*
X1877398Y1659313D02*
Y1664506D01*
X1877400Y1659313D02*
Y1664506D01*
X1877402Y1659313D02*
Y1664506D01*
X1877404Y1659313D02*
Y1664506D01*
X1877406Y1659313D02*
Y1664506D01*
X1877407Y1659313D02*
Y1664506D01*
X1877409Y1659313D02*
Y1664506D01*
X1877411Y1659313D02*
Y1664506D01*
X1877413Y1659313D02*
Y1664506D01*
X1877415Y1659313D02*
Y1664506D01*
X1877417Y1659313D02*
Y1664506D01*
X1877419Y1659313D02*
Y1664506D01*
X1877421Y1659313D02*
Y1664506D01*
X1877423Y1659313D02*
Y1664506D01*
X1877425Y1659313D02*
Y1664506D01*
X1877427Y1659313D02*
Y1664506D01*
X1877429Y1659313D02*
Y1664506D01*
X1877431Y1659313D02*
Y1664506D01*
X1877433Y1659313D02*
Y1664506D01*
X1877435Y1659313D02*
Y1664506D01*
X1877437Y1659313D02*
Y1664506D01*
X1877439Y1659313D02*
Y1664506D01*
X1877441Y1659313D02*
Y1664506D01*
X1877443Y1659313D02*
Y1664506D01*
X1877445Y1659313D02*
Y1664506D01*
X1877447Y1659313D02*
Y1664506D01*
X1877449Y1659313D02*
Y1664506D01*
X1877451Y1659313D02*
Y1664506D01*
X1877453Y1659313D02*
Y1664506D01*
X1877455Y1659313D02*
Y1664506D01*
X1877457Y1659313D02*
Y1664506D01*
X1877459Y1659313D02*
Y1664506D01*
X1877461Y1659313D02*
Y1664506D01*
X1877463Y1659313D02*
Y1664506D01*
X1877465Y1659313D02*
Y1664506D01*
X1877467Y1659313D02*
Y1664506D01*
X1877469Y1659313D02*
Y1664506D01*
X1877470Y1659313D02*
Y1664506D01*
X1877472Y1659313D02*
Y1664506D01*
X1877474Y1659313D02*
Y1664506D01*
X1877476Y1659313D02*
Y1664506D01*
X1877478Y1659313D02*
Y1664506D01*
X1877480Y1659313D02*
Y1664506D01*
X1877482Y1659313D02*
Y1664506D01*
X1877484Y1659313D02*
Y1664506D01*
X1877486Y1659313D02*
Y1664506D01*
X1877488Y1659313D02*
Y1664506D01*
X1877490Y1659313D02*
Y1664506D01*
X1877492Y1659313D02*
Y1664506D01*
X1877494Y1659313D02*
Y1664506D01*
X1877496Y1659313D02*
Y1664506D01*
X1877498Y1659313D02*
Y1664506D01*
X1877500Y1659313D02*
Y1664506D01*
X1877502Y1659313D02*
Y1664506D01*
X1877504Y1659313D02*
Y1664506D01*
X1877506Y1659313D02*
Y1664506D01*
X1877508Y1659313D02*
Y1664506D01*
X1877510Y1659313D02*
Y1664506D01*
X1877512Y1659313D02*
Y1664506D01*
X1877514Y1659313D02*
Y1664506D01*
X1877516Y1659313D02*
Y1664506D01*
X1877518Y1659313D02*
Y1664506D01*
X1877520Y1659313D02*
Y1664506D01*
X1877522Y1659313D02*
Y1664506D01*
X1877524Y1659313D02*
Y1664506D01*
X1877526Y1659313D02*
Y1664506D01*
X1877528Y1659313D02*
Y1664506D01*
X1877530Y1659313D02*
Y1664506D01*
X1877531Y1659313D02*
Y1664506D01*
X1877533Y1659313D02*
Y1664506D01*
X1877535Y1659313D02*
Y1664506D01*
X1877537Y1659313D02*
Y1664506D01*
X1877539Y1659313D02*
Y1664506D01*
X1877541Y1659313D02*
Y1664506D01*
X1877543Y1659313D02*
Y1664506D01*
X1877545Y1659313D02*
Y1664506D01*
X1877547Y1659313D02*
Y1664506D01*
X1877549Y1659313D02*
Y1664506D01*
X1877551Y1659313D02*
Y1664506D01*
X1877553Y1659313D02*
Y1664506D01*
X1877555Y1659313D02*
Y1664506D01*
X1877557Y1659313D02*
Y1664506D01*
X1877559Y1659313D02*
Y1664506D01*
X1877561Y1659313D02*
Y1664506D01*
X1877563Y1659313D02*
Y1664506D01*
X1877565Y1659313D02*
Y1664506D01*
X1877567Y1659313D02*
Y1664506D01*
X1877569Y1659313D02*
Y1664506D01*
X1877571Y1659313D02*
Y1664506D01*
X1877573Y1659313D02*
Y1664506D01*
X1877575Y1659313D02*
Y1664506D01*
X1877577Y1659313D02*
Y1664506D01*
X1877579Y1659313D02*
Y1664506D01*
X1877581Y1659313D02*
Y1664506D01*
X1877583Y1659313D02*
Y1664506D01*
X1877585Y1659313D02*
Y1664506D01*
X1877587Y1659313D02*
Y1664506D01*
X1877589Y1659313D02*
Y1664506D01*
X1877591Y1659313D02*
Y1664506D01*
X1877593Y1659313D02*
Y1664506D01*
X1877594Y1659313D02*
Y1664506D01*
X1877596Y1659313D02*
Y1664506D01*
X1877598Y1659313D02*
Y1664506D01*
X1877600Y1659313D02*
Y1664506D01*
X1877602Y1659313D02*
Y1664506D01*
X1877604Y1659313D02*
Y1664506D01*
X1877606Y1659313D02*
Y1664506D01*
X1877608Y1659313D02*
Y1664506D01*
X1877610Y1659313D02*
Y1664506D01*
X1877612Y1659313D02*
Y1664506D01*
X1877614Y1659313D02*
Y1664506D01*
X1877616Y1659313D02*
Y1664506D01*
X1877618Y1659313D02*
Y1664506D01*
X1877620Y1659313D02*
Y1664506D01*
X1877622Y1659313D02*
Y1664506D01*
X1877624Y1659313D02*
Y1664506D01*
X1877626Y1659313D02*
Y1664506D01*
X1877628Y1659313D02*
Y1664506D01*
X1877630Y1659313D02*
Y1664506D01*
X1877632Y1659313D02*
Y1664506D01*
X1877634Y1659313D02*
Y1664506D01*
X1877636Y1659313D02*
Y1664506D01*
X1877638Y1659313D02*
Y1664506D01*
X1877640Y1659313D02*
Y1664506D01*
X1877642Y1659313D02*
Y1664506D01*
X1877644Y1659313D02*
Y1664506D01*
X1877646Y1659313D02*
Y1664506D01*
X1877648Y1659313D02*
Y1664506D01*
X1877650Y1659313D02*
Y1664506D01*
X1877652Y1659313D02*
Y1664506D01*
X1877654Y1659313D02*
Y1664506D01*
X1877656Y1659313D02*
Y1664506D01*
X1877657Y1659313D02*
Y1664506D01*
X1877659Y1659313D02*
Y1664506D01*
X1877661Y1659313D02*
Y1664506D01*
X1877663Y1659313D02*
Y1664506D01*
X1877665Y1659313D02*
Y1664506D01*
X1877667Y1659313D02*
Y1664506D01*
X1877669Y1659313D02*
Y1664506D01*
X1877671Y1659313D02*
Y1664506D01*
X1877673Y1659313D02*
Y1664506D01*
X1877675Y1659313D02*
Y1664506D01*
X1877677Y1659313D02*
Y1664506D01*
X1877679Y1659313D02*
Y1664506D01*
X1877681Y1659313D02*
Y1664506D01*
X1877683Y1659313D02*
Y1664506D01*
X1877685Y1659313D02*
Y1664506D01*
X1877687Y1659313D02*
Y1664506D01*
X1877689Y1659313D02*
Y1664506D01*
X1877691Y1659313D02*
Y1664506D01*
X1877693Y1659313D02*
Y1664506D01*
X1877695Y1659313D02*
Y1664506D01*
X1877697Y1659313D02*
Y1664506D01*
X1877699Y1659313D02*
Y1664506D01*
X1877701Y1659313D02*
Y1664506D01*
X1877703Y1659313D02*
Y1664506D01*
X1877705Y1659313D02*
Y1664506D01*
X1877707Y1659313D02*
Y1664506D01*
X1877709Y1659313D02*
Y1664506D01*
X1877711Y1659313D02*
Y1664506D01*
X1877713Y1659313D02*
Y1664506D01*
X1877715Y1659313D02*
Y1664506D01*
X1877717Y1659313D02*
Y1664506D01*
X1877719Y1659313D02*
Y1664506D01*
X1877720Y1659313D02*
Y1664506D01*
X1877722Y1659313D02*
Y1664506D01*
X1877724Y1659313D02*
Y1664506D01*
X1877726Y1659313D02*
Y1664506D01*
X1877728Y1659313D02*
Y1664506D01*
X1877730Y1659313D02*
Y1664506D01*
X1877732Y1659313D02*
Y1664506D01*
X1877734Y1659313D02*
Y1664506D01*
X1877736Y1659313D02*
Y1664506D01*
X1877738Y1659313D02*
Y1664506D01*
X1877740Y1659313D02*
Y1664506D01*
X1877742Y1659313D02*
Y1664506D01*
X1877744Y1659313D02*
Y1664506D01*
X1877746Y1659313D02*
Y1664506D01*
X1877748Y1659313D02*
Y1664506D01*
X1877750Y1659313D02*
Y1664506D01*
X1877752Y1659313D02*
Y1664506D01*
X1877754Y1659313D02*
Y1664506D01*
X1877756Y1659313D02*
Y1664506D01*
X1877758Y1659313D02*
Y1664506D01*
X1877760Y1659313D02*
Y1664506D01*
X1877762Y1659313D02*
Y1664506D01*
X1877764Y1659313D02*
Y1664506D01*
X1877766Y1659313D02*
Y1664506D01*
X1877768Y1659313D02*
Y1664506D01*
X1877770Y1659313D02*
Y1664506D01*
X1877772Y1659313D02*
Y1664506D01*
X1877774Y1659313D02*
Y1664506D01*
X1877776Y1659313D02*
Y1664506D01*
X1877778Y1659313D02*
Y1664506D01*
X1877780Y1659313D02*
Y1664506D01*
X1877781Y1659313D02*
Y1664506D01*
X1877783Y1659313D02*
Y1664506D01*
X1877785Y1659313D02*
Y1664506D01*
X1877787Y1659313D02*
Y1664506D01*
X1877789Y1659313D02*
Y1664506D01*
X1877791Y1659313D02*
Y1664506D01*
X1877793Y1659313D02*
Y1664506D01*
X1877795Y1659313D02*
Y1664506D01*
X1877797Y1659313D02*
Y1664506D01*
X1877799Y1659313D02*
Y1664506D01*
X1877801Y1659313D02*
Y1664506D01*
X1877803Y1659313D02*
Y1664506D01*
X1877805Y1659313D02*
Y1664506D01*
X1877807Y1659313D02*
Y1664506D01*
X1877809Y1659313D02*
Y1664506D01*
X1877811Y1659313D02*
Y1664506D01*
X1877813Y1659313D02*
Y1664506D01*
X1877815Y1659313D02*
Y1664506D01*
X1877817Y1659313D02*
Y1664506D01*
X1877819Y1659313D02*
Y1664506D01*
X1877821Y1659313D02*
Y1664506D01*
X1877823Y1659313D02*
Y1664506D01*
X1877825Y1659313D02*
Y1664506D01*
X1877827Y1659313D02*
Y1664506D01*
X1877829Y1659313D02*
Y1664506D01*
X1877831Y1659313D02*
Y1664506D01*
X1877833Y1659313D02*
Y1664506D01*
X1877835Y1659313D02*
Y1664506D01*
X1877837Y1659313D02*
Y1664506D01*
X1877839Y1659313D02*
Y1664506D01*
X1877841Y1659313D02*
Y1664506D01*
X1877843Y1659313D02*
Y1664506D01*
X1877844Y1659313D02*
Y1664506D01*
X1877846Y1659313D02*
Y1664506D01*
X1877848Y1659313D02*
Y1664506D01*
X1877850Y1659313D02*
Y1664506D01*
X1877852Y1659313D02*
Y1664506D01*
X1877854Y1659313D02*
Y1664506D01*
X1877856Y1659313D02*
Y1664506D01*
X1877858Y1659313D02*
Y1664506D01*
X1877860Y1659313D02*
Y1664506D01*
X1877862Y1659313D02*
Y1664506D01*
X1877864Y1659313D02*
Y1664506D01*
X1877866Y1659313D02*
Y1664506D01*
X1877868Y1659313D02*
Y1664506D01*
X1877870Y1659313D02*
Y1664506D01*
X1877872Y1659313D02*
Y1664506D01*
X1877874Y1659313D02*
Y1664506D01*
X1877876Y1659313D02*
Y1664506D01*
X1877878Y1659313D02*
Y1664506D01*
X1877880Y1659313D02*
Y1664506D01*
X1877882Y1659313D02*
Y1664506D01*
X1877884Y1659313D02*
Y1664506D01*
X1877886Y1659313D02*
Y1664506D01*
X1877888Y1659313D02*
Y1664506D01*
X1877890Y1659313D02*
Y1664506D01*
X1877892Y1659313D02*
Y1664506D01*
X1877894Y1659313D02*
Y1664506D01*
X1877896Y1659313D02*
Y1664506D01*
X1877898Y1659313D02*
Y1664506D01*
X1877900Y1659313D02*
Y1664506D01*
X1877902Y1659313D02*
Y1664506D01*
X1877904Y1659313D02*
Y1664506D01*
X1877906Y1659313D02*
Y1664506D01*
X1877907Y1659313D02*
Y1664506D01*
X1877909Y1659313D02*
Y1664506D01*
X1877911Y1659313D02*
Y1664506D01*
X1877913Y1659313D02*
Y1664506D01*
X1877915Y1659313D02*
Y1664506D01*
X1877917Y1659313D02*
Y1664506D01*
X1877919Y1659313D02*
Y1664506D01*
X1877921Y1659313D02*
Y1664506D01*
X1877923Y1659313D02*
Y1664506D01*
X1877925Y1659313D02*
Y1664506D01*
X1877927Y1659313D02*
Y1664506D01*
X1877929Y1659313D02*
Y1664506D01*
X1877931Y1659313D02*
Y1664506D01*
X1877933Y1659313D02*
Y1664506D01*
X1877935Y1659313D02*
Y1664506D01*
X1877937Y1659313D02*
Y1664506D01*
X1877939Y1659313D02*
Y1664506D01*
X1877941Y1659313D02*
Y1664506D01*
X1877943Y1659313D02*
Y1664506D01*
X1877945Y1659313D02*
Y1664506D01*
X1877947Y1659313D02*
Y1664506D01*
X1877949Y1659313D02*
Y1664506D01*
X1877951Y1659313D02*
Y1664506D01*
X1877953Y1659313D02*
Y1664506D01*
X1877955Y1659313D02*
Y1664506D01*
X1877957Y1659313D02*
Y1664506D01*
X1877959Y1659313D02*
Y1664506D01*
X1877961Y1659313D02*
Y1664506D01*
X1877963Y1659313D02*
Y1664506D01*
X1877965Y1659313D02*
Y1664506D01*
X1877967Y1659313D02*
Y1664506D01*
X1877969Y1659313D02*
Y1664506D01*
X1877970Y1659313D02*
Y1664506D01*
X1877972Y1659313D02*
Y1664506D01*
X1877974Y1659313D02*
Y1664506D01*
X1877976Y1659313D02*
Y1664506D01*
X1877978Y1659313D02*
Y1664506D01*
X1877980Y1659313D02*
Y1664506D01*
X1877982Y1659313D02*
Y1664506D01*
X1877984Y1659313D02*
Y1664506D01*
X1877986Y1659313D02*
Y1664506D01*
X1877988Y1659313D02*
Y1664506D01*
X1877990Y1659313D02*
Y1664506D01*
X1877992Y1659313D02*
Y1664506D01*
X1877994Y1659313D02*
Y1664506D01*
X1877996Y1659313D02*
Y1664506D01*
X1877998Y1659313D02*
Y1664506D01*
X1878000Y1659313D02*
Y1664506D01*
X1878002Y1659313D02*
Y1664506D01*
X1878004Y1659313D02*
Y1664506D01*
X1878006Y1659313D02*
Y1664506D01*
X1878008Y1659313D02*
Y1664506D01*
X1878010Y1659313D02*
Y1664506D01*
X1878012Y1659313D02*
Y1664506D01*
X1878014Y1659313D02*
Y1664506D01*
X1878016Y1659313D02*
Y1664506D01*
X1878018Y1659313D02*
Y1664506D01*
X1878020Y1659313D02*
Y1664506D01*
X1878022Y1659313D02*
Y1664506D01*
X1878024Y1659313D02*
Y1664506D01*
X1878026Y1659313D02*
Y1664506D01*
X1878028Y1659313D02*
Y1664506D01*
X1878030Y1659313D02*
Y1664506D01*
X1878031Y1659313D02*
Y1664506D01*
X1878033Y1659313D02*
Y1664506D01*
X1878035Y1659313D02*
Y1664506D01*
X1878037Y1659313D02*
Y1664506D01*
X1878039Y1659313D02*
Y1664506D01*
X1878041Y1659313D02*
Y1664506D01*
X1878043Y1659313D02*
Y1664506D01*
X1878045Y1659313D02*
Y1664506D01*
X1878047Y1659313D02*
Y1664506D01*
X1878049Y1659313D02*
Y1664506D01*
X1878051Y1659313D02*
Y1664506D01*
X1878053Y1659313D02*
Y1664506D01*
X1878055Y1659313D02*
Y1664506D01*
X1878057Y1659313D02*
Y1664506D01*
X1878059Y1659313D02*
Y1664506D01*
X1878061Y1659313D02*
Y1664506D01*
X1878063Y1659313D02*
Y1664506D01*
X1878065Y1659313D02*
Y1664506D01*
X1878067Y1659313D02*
Y1664506D01*
X1878069Y1659313D02*
Y1664506D01*
X1878071Y1659313D02*
Y1664506D01*
X1878073Y1659313D02*
Y1664506D01*
X1878075Y1659313D02*
Y1664506D01*
X1878077Y1659313D02*
Y1664506D01*
X1878079Y1659313D02*
Y1664506D01*
X1878081Y1659313D02*
Y1664506D01*
X1878083Y1659313D02*
Y1664506D01*
X1878085Y1659313D02*
Y1664506D01*
X1878087Y1659313D02*
Y1664506D01*
X1878089Y1659313D02*
Y1664506D01*
X1878091Y1659313D02*
Y1664506D01*
X1878093Y1659313D02*
Y1664506D01*
X1878094Y1659313D02*
Y1664506D01*
X1878096Y1659313D02*
Y1664506D01*
X1878098Y1659313D02*
Y1664506D01*
X1878100Y1659313D02*
Y1664506D01*
X1878102Y1659313D02*
Y1664506D01*
X1878104Y1659313D02*
Y1664506D01*
X1878106Y1659313D02*
Y1664506D01*
X1878108Y1659313D02*
Y1664506D01*
X1878110Y1659313D02*
Y1664506D01*
X1878112Y1659313D02*
Y1664506D01*
X1878114Y1659313D02*
Y1664506D01*
X1878116Y1659313D02*
Y1664506D01*
X1878118Y1659313D02*
Y1664506D01*
X1878120Y1659313D02*
Y1664506D01*
X1878122Y1659313D02*
Y1664506D01*
X1878124Y1659313D02*
Y1664506D01*
X1878126Y1659313D02*
Y1664506D01*
X1878128Y1659313D02*
Y1664506D01*
X1878130Y1659313D02*
Y1664506D01*
X1878132Y1659313D02*
Y1664506D01*
X1878134Y1659313D02*
Y1664506D01*
X1878136Y1659313D02*
Y1664506D01*
X1878138Y1659313D02*
Y1664506D01*
X1878140Y1659313D02*
Y1664506D01*
X1878142Y1659313D02*
Y1664506D01*
X1878144Y1659313D02*
Y1664506D01*
X1878146Y1659313D02*
Y1664506D01*
X1878148Y1659313D02*
Y1664506D01*
X1878150Y1659313D02*
Y1664506D01*
X1878152Y1659313D02*
Y1664506D01*
X1878154Y1659313D02*
Y1664506D01*
X1878156Y1659313D02*
Y1664506D01*
X1878157Y1659313D02*
Y1664506D01*
X1878159Y1659313D02*
Y1664506D01*
X1878161Y1659313D02*
Y1664506D01*
X1878163Y1659313D02*
Y1664506D01*
X1878165Y1659313D02*
Y1664506D01*
X1878167Y1659313D02*
Y1664506D01*
X1878169Y1659313D02*
Y1664506D01*
X1878171Y1659313D02*
Y1664506D01*
X1878173Y1659313D02*
Y1664506D01*
X1878175Y1659313D02*
Y1664506D01*
X1878177Y1659313D02*
Y1664506D01*
X1878179Y1659313D02*
Y1664506D01*
X1878181Y1659313D02*
Y1664506D01*
X1878183Y1659313D02*
Y1664506D01*
X1878185Y1659313D02*
Y1664506D01*
X1878187Y1659313D02*
Y1664506D01*
X1878189Y1659313D02*
Y1664506D01*
X1878191Y1659313D02*
Y1664506D01*
X1878193Y1659313D02*
Y1664506D01*
X1878195Y1659313D02*
Y1664506D01*
X1878197Y1659313D02*
Y1664506D01*
X1878199Y1659313D02*
Y1664506D01*
X1878201Y1659313D02*
Y1664506D01*
X1878203Y1659313D02*
Y1664506D01*
X1878205Y1659313D02*
Y1664506D01*
X1878207Y1659313D02*
Y1664506D01*
X1878209Y1659313D02*
Y1664506D01*
X1878211Y1659313D02*
Y1664506D01*
X1878213Y1659313D02*
Y1664506D01*
X1878215Y1659313D02*
Y1664506D01*
X1878217Y1659313D02*
Y1664506D01*
X1878219Y1659313D02*
Y1664506D01*
X1878220Y1659313D02*
Y1664506D01*
X1878222Y1659313D02*
Y1664506D01*
X1878224Y1659313D02*
Y1664506D01*
X1878226Y1659313D02*
Y1664506D01*
X1878228Y1659313D02*
Y1664506D01*
X1878230Y1659313D02*
Y1664506D01*
X1878232Y1659313D02*
Y1664506D01*
X1878234Y1659313D02*
Y1664506D01*
X1878236Y1659313D02*
Y1664506D01*
X1878238Y1659313D02*
Y1664506D01*
X1878240Y1659313D02*
Y1664506D01*
X1878242Y1659313D02*
Y1664506D01*
X1878244Y1659313D02*
Y1664506D01*
X1878246Y1659313D02*
Y1664506D01*
X1878248Y1659313D02*
Y1664506D01*
X1878250Y1659313D02*
Y1664506D01*
X1878252Y1659313D02*
Y1664506D01*
X1878254Y1659313D02*
Y1664506D01*
X1878256Y1659313D02*
Y1664506D01*
X1878258Y1659313D02*
Y1664506D01*
X1878260Y1659313D02*
Y1664506D01*
X1878262Y1659313D02*
Y1664506D01*
X1878264Y1659313D02*
Y1664506D01*
X1878266Y1659313D02*
Y1664506D01*
X1878268Y1659313D02*
Y1664506D01*
X1878270Y1659313D02*
Y1664506D01*
X1878272Y1659313D02*
Y1664506D01*
X1878274Y1659313D02*
Y1664506D01*
X1878276Y1659313D02*
Y1664506D01*
X1878278Y1659313D02*
Y1664506D01*
X1878280Y1659313D02*
Y1664506D01*
X1878281Y1659313D02*
Y1664506D01*
X1878283Y1659313D02*
Y1664506D01*
X1878285Y1659313D02*
Y1664506D01*
X1878287Y1659313D02*
Y1664506D01*
X1878289Y1659313D02*
Y1664506D01*
X1878291Y1659313D02*
Y1664506D01*
X1878293Y1659313D02*
Y1664506D01*
X1878295Y1659313D02*
Y1664506D01*
X1878297Y1659313D02*
Y1664506D01*
X1878299Y1659313D02*
Y1664506D01*
X1878301Y1659313D02*
Y1664506D01*
X1878303Y1659313D02*
Y1664506D01*
X1878305Y1659313D02*
Y1664506D01*
X1878307Y1659313D02*
Y1664506D01*
X1878309Y1659313D02*
Y1664506D01*
X1878311Y1659313D02*
Y1664506D01*
X1878313Y1659313D02*
Y1664506D01*
X1878315Y1659313D02*
Y1664506D01*
X1878317Y1659313D02*
Y1664506D01*
X1878319Y1659313D02*
Y1664506D01*
X1878321Y1659313D02*
Y1664506D01*
X1878323Y1659313D02*
Y1664506D01*
X1878325Y1659313D02*
Y1664506D01*
X1878327Y1659313D02*
Y1664506D01*
X1878329Y1659313D02*
Y1664506D01*
X1878331Y1659313D02*
Y1664506D01*
X1878333Y1659313D02*
Y1664506D01*
X1878335Y1659313D02*
Y1664506D01*
X1878337Y1659313D02*
Y1664506D01*
X1878339Y1659313D02*
Y1664506D01*
X1878341Y1659313D02*
Y1664506D01*
X1878343Y1659313D02*
Y1664506D01*
X1878344Y1659313D02*
Y1664506D01*
X1878346Y1659313D02*
Y1664506D01*
X1878348Y1659313D02*
Y1664506D01*
X1878350Y1659313D02*
Y1664506D01*
X1878352Y1659313D02*
Y1664506D01*
X1878354Y1659313D02*
Y1664506D01*
X1878356Y1659313D02*
Y1664506D01*
X1878358Y1659313D02*
Y1664506D01*
X1878360Y1659313D02*
Y1664506D01*
X1878362Y1659313D02*
Y1664506D01*
X1878364Y1659313D02*
Y1664506D01*
X1878366Y1659313D02*
Y1664506D01*
X1878368Y1659313D02*
Y1664506D01*
X1878370Y1659313D02*
Y1664506D01*
X1878372Y1659313D02*
Y1664506D01*
X1878374Y1659313D02*
Y1664506D01*
X1878376Y1659313D02*
Y1664506D01*
X1878378Y1659313D02*
Y1664506D01*
X1878380Y1659313D02*
Y1664506D01*
X1878382Y1659313D02*
Y1664506D01*
X1878384Y1659313D02*
Y1664506D01*
X1878386Y1659313D02*
Y1664506D01*
X1878388Y1659313D02*
Y1664506D01*
X1878390Y1659313D02*
Y1664506D01*
X1878392Y1659313D02*
Y1664506D01*
X1878394Y1659313D02*
Y1664506D01*
X1878396Y1659313D02*
Y1664506D01*
X1878398Y1659313D02*
Y1664506D01*
X1878400Y1659313D02*
Y1664506D01*
X1878402Y1659313D02*
Y1664506D01*
X1878404Y1659313D02*
Y1664506D01*
X1878406Y1659313D02*
Y1664506D01*
X1878407Y1659313D02*
Y1664506D01*
X1878409Y1659313D02*
Y1664506D01*
X1878411Y1659313D02*
Y1664506D01*
X1878413Y1659313D02*
Y1664506D01*
X1878415Y1659313D02*
Y1664506D01*
X1878417Y1659313D02*
Y1664506D01*
X1878419Y1659313D02*
Y1664506D01*
X1878421Y1659313D02*
Y1664506D01*
X1878423Y1659313D02*
Y1664506D01*
X1878425Y1659313D02*
Y1664506D01*
X1878427Y1659313D02*
Y1664506D01*
X1878429Y1659313D02*
Y1664506D01*
X1878431Y1659313D02*
Y1664506D01*
X1878433Y1659313D02*
Y1664506D01*
X1878435Y1659313D02*
Y1664506D01*
X1878437Y1659313D02*
Y1664506D01*
X1878439Y1659313D02*
Y1664506D01*
X1878441Y1659313D02*
Y1664506D01*
X1878443Y1659313D02*
Y1664506D01*
X1878445Y1659313D02*
Y1664506D01*
X1878447Y1659313D02*
Y1664506D01*
X1878449Y1659313D02*
Y1664506D01*
X1878451Y1659313D02*
Y1664506D01*
X1878453Y1659313D02*
Y1664506D01*
X1878455Y1659313D02*
Y1664506D01*
X1878457Y1659313D02*
Y1664506D01*
X1878459Y1659313D02*
Y1664506D01*
X1878461Y1659313D02*
Y1664506D01*
X1878463Y1659313D02*
Y1664506D01*
X1878465Y1659313D02*
Y1664506D01*
X1878467Y1659313D02*
Y1664506D01*
X1878469Y1659313D02*
Y1664506D01*
X1878470Y1659313D02*
Y1664506D01*
X1878472Y1659313D02*
Y1664506D01*
X1878474Y1659313D02*
Y1664506D01*
X1878476Y1659313D02*
Y1664506D01*
X1878478Y1659313D02*
Y1664506D01*
X1878480Y1659313D02*
Y1664506D01*
X1878482Y1659313D02*
Y1664506D01*
X1878484Y1659313D02*
Y1664506D01*
X1878486Y1659313D02*
Y1664506D01*
X1878488Y1659313D02*
Y1664506D01*
X1878490Y1659313D02*
Y1664506D01*
X1878492Y1659313D02*
Y1664506D01*
X1878494Y1659313D02*
Y1664506D01*
X1878496Y1659313D02*
Y1664506D01*
X1878498Y1659313D02*
Y1664506D01*
X1878500Y1659313D02*
Y1664506D01*
X1878502Y1659313D02*
Y1664506D01*
X1878504Y1659313D02*
Y1664506D01*
X1878506Y1659313D02*
Y1664506D01*
X1878508Y1659313D02*
Y1664506D01*
X1878510Y1659313D02*
Y1664506D01*
X1878512Y1659313D02*
Y1664506D01*
X1878514Y1659313D02*
Y1664506D01*
X1878516Y1659313D02*
Y1664506D01*
X1878518Y1659313D02*
Y1664506D01*
X1878520Y1659313D02*
Y1664506D01*
X1878522Y1659313D02*
Y1664506D01*
X1878524Y1659313D02*
Y1664506D01*
X1878526Y1659313D02*
Y1664506D01*
X1878528Y1659313D02*
Y1664506D01*
X1878530Y1659313D02*
Y1664506D01*
X1878531Y1659313D02*
Y1664506D01*
X1878533Y1659313D02*
Y1664506D01*
X1878535Y1659313D02*
Y1664506D01*
X1878537Y1659313D02*
Y1664506D01*
X1878539Y1659313D02*
Y1664506D01*
X1878541Y1659313D02*
Y1664506D01*
X1878543Y1659313D02*
Y1664506D01*
X1878545Y1659313D02*
Y1664506D01*
X1878547Y1659313D02*
Y1664506D01*
X1878549Y1659313D02*
Y1664506D01*
X1878551Y1659313D02*
Y1664506D01*
X1878553Y1659313D02*
Y1664506D01*
X1878555Y1659313D02*
Y1664506D01*
X1878557Y1659313D02*
Y1664506D01*
X1878559Y1659313D02*
Y1664506D01*
X1878561Y1659313D02*
Y1664506D01*
X1878563Y1659313D02*
Y1664506D01*
X1878565Y1659313D02*
Y1664506D01*
X1878567Y1659313D02*
Y1664506D01*
X1878569Y1659313D02*
Y1664506D01*
X1878571Y1659313D02*
Y1664506D01*
X1878573Y1659313D02*
Y1664506D01*
X1878575Y1659313D02*
Y1664506D01*
X1878577Y1659313D02*
Y1664506D01*
X1878579Y1659313D02*
Y1664506D01*
X1878581Y1659313D02*
Y1664506D01*
X1878583Y1659313D02*
Y1664506D01*
X1878585Y1659313D02*
Y1664506D01*
X1878587Y1659313D02*
Y1664506D01*
X1878589Y1659313D02*
Y1664506D01*
X1878591Y1659313D02*
Y1664506D01*
X1878593Y1659313D02*
Y1664506D01*
X1878594Y1659313D02*
Y1664506D01*
X1878596Y1659313D02*
Y1664506D01*
X1878598Y1659313D02*
Y1664506D01*
X1878600Y1659313D02*
Y1664506D01*
X1878602Y1659313D02*
Y1664506D01*
X1878604Y1659313D02*
Y1664506D01*
X1878606Y1659313D02*
Y1664506D01*
X1878608Y1659313D02*
Y1664506D01*
X1878610Y1659313D02*
Y1664506D01*
X1878612Y1659313D02*
Y1664506D01*
X1878614Y1659313D02*
Y1664506D01*
X1878616Y1659313D02*
Y1664506D01*
X1878618Y1659313D02*
Y1664506D01*
X1878620Y1659313D02*
Y1664506D01*
X1878622Y1659313D02*
Y1664506D01*
X1878624Y1659313D02*
Y1664506D01*
X1878626Y1659313D02*
Y1664506D01*
X1878628Y1659313D02*
Y1664506D01*
X1878630Y1659313D02*
Y1664506D01*
X1878632Y1659313D02*
Y1664506D01*
X1878634Y1659313D02*
Y1664506D01*
X1878636Y1659313D02*
Y1664506D01*
X1878638Y1659313D02*
Y1664506D01*
X1878640Y1659313D02*
Y1664506D01*
X1878642Y1659313D02*
Y1664506D01*
X1878644Y1659313D02*
Y1664506D01*
X1878646Y1659313D02*
Y1664506D01*
X1878648Y1659313D02*
Y1664506D01*
X1878650Y1659313D02*
Y1664506D01*
X1878652Y1659313D02*
Y1664506D01*
X1878654Y1659313D02*
Y1664506D01*
X1878656Y1659313D02*
Y1664506D01*
X1878657Y1659313D02*
Y1664506D01*
X1878659Y1659313D02*
Y1664506D01*
X1878661Y1659313D02*
Y1664506D01*
X1878663Y1659313D02*
Y1664506D01*
X1878665Y1659313D02*
Y1664506D01*
X1878667Y1659313D02*
Y1664506D01*
X1878669Y1659313D02*
Y1664506D01*
X1878671Y1659313D02*
Y1664506D01*
X1878673Y1659313D02*
Y1664506D01*
X1878675Y1659313D02*
Y1664506D01*
X1878677Y1659313D02*
Y1664506D01*
X1878679Y1659313D02*
Y1664506D01*
X1878681Y1659313D02*
Y1664506D01*
X1878683Y1659313D02*
Y1664506D01*
X1878685Y1659313D02*
Y1664506D01*
X1878687Y1659313D02*
Y1664506D01*
X1878689Y1659313D02*
Y1664506D01*
X1878691Y1659313D02*
Y1664506D01*
X1878693Y1659313D02*
Y1664506D01*
X1878695Y1659313D02*
Y1664506D01*
X1878697Y1659313D02*
Y1664506D01*
X1878699Y1659313D02*
Y1664506D01*
X1878701Y1659313D02*
Y1664506D01*
X1878703Y1659313D02*
Y1664506D01*
X1878705Y1659313D02*
Y1664506D01*
X1878707Y1659313D02*
Y1664506D01*
X1878709Y1659313D02*
Y1664506D01*
X1878711Y1659313D02*
Y1664506D01*
X1878713Y1659313D02*
Y1664506D01*
X1878715Y1659313D02*
Y1664506D01*
X1878717Y1659313D02*
Y1664506D01*
X1878719Y1659313D02*
Y1664506D01*
X1878720Y1659313D02*
Y1664506D01*
X1878722Y1659313D02*
Y1664506D01*
X1878724Y1659313D02*
Y1664506D01*
X1878726Y1659313D02*
Y1664506D01*
X1878728Y1659313D02*
Y1664506D01*
X1878730Y1659313D02*
Y1664506D01*
X1878732Y1659313D02*
Y1664506D01*
X1878734Y1659313D02*
Y1664506D01*
X1878736Y1659313D02*
Y1664506D01*
X1878738Y1659313D02*
Y1664506D01*
X1878740Y1659313D02*
Y1664506D01*
X1878742Y1659313D02*
Y1664506D01*
X1878744Y1659313D02*
Y1664506D01*
X1878746Y1659313D02*
Y1664506D01*
X1878748Y1659313D02*
Y1664506D01*
X1878750Y1659313D02*
Y1664506D01*
X1878752Y1659313D02*
Y1664506D01*
X1878754Y1659313D02*
Y1664506D01*
X1878756Y1659313D02*
Y1664506D01*
X1878758Y1659313D02*
Y1664506D01*
X1878760Y1659313D02*
Y1664506D01*
X1878762Y1659313D02*
Y1664506D01*
X1878764Y1659313D02*
Y1664506D01*
X1878766Y1659313D02*
Y1664506D01*
X1878768Y1659313D02*
Y1664506D01*
X1878770Y1659313D02*
Y1664506D01*
X1878772Y1659313D02*
Y1664506D01*
X1878774Y1659313D02*
Y1664506D01*
X1878776Y1659313D02*
Y1664506D01*
X1878778Y1659313D02*
Y1664506D01*
X1878780Y1659313D02*
Y1664506D01*
X1878781Y1659313D02*
Y1664506D01*
X1878783Y1659313D02*
Y1664506D01*
X1878785Y1659313D02*
Y1664506D01*
X1878787Y1659313D02*
Y1664506D01*
X1878789Y1659313D02*
Y1664506D01*
X1878791Y1659313D02*
Y1664506D01*
X1878793Y1659313D02*
Y1664506D01*
X1878795Y1659313D02*
Y1664506D01*
X1878797Y1659313D02*
Y1664506D01*
X1878799Y1659313D02*
Y1664506D01*
X1878801Y1659313D02*
Y1664506D01*
X1878803Y1659313D02*
Y1664506D01*
X1878805Y1659313D02*
Y1664506D01*
X1878807Y1659313D02*
Y1664506D01*
X1878809Y1659313D02*
Y1664506D01*
X1878811Y1659313D02*
Y1664506D01*
X1878813Y1659313D02*
Y1664506D01*
X1878815Y1659313D02*
Y1664506D01*
X1878817Y1659313D02*
Y1664506D01*
X1878819Y1659313D02*
Y1664506D01*
X1878821Y1659313D02*
Y1664506D01*
X1878823Y1659313D02*
Y1664506D01*
X1878825Y1659313D02*
Y1664506D01*
X1878827Y1659313D02*
Y1664506D01*
X1878829Y1659313D02*
Y1664506D01*
X1878831Y1659313D02*
Y1664506D01*
X1878833Y1659313D02*
Y1664506D01*
X1878835Y1659313D02*
Y1664506D01*
X1878837Y1659313D02*
Y1664506D01*
X1878839Y1659313D02*
Y1664506D01*
X1878841Y1659313D02*
Y1664506D01*
X1878843Y1659313D02*
Y1664506D01*
X1878844Y1659313D02*
Y1664506D01*
X1878846Y1659313D02*
Y1664506D01*
X1878848Y1659313D02*
Y1664506D01*
X1878850Y1659313D02*
Y1664506D01*
X1878852Y1659313D02*
Y1664506D01*
X1878854Y1659313D02*
Y1664506D01*
X1878856Y1659313D02*
Y1664506D01*
X1878858Y1659313D02*
Y1664506D01*
X1878860Y1659313D02*
Y1664506D01*
X1878862Y1659313D02*
Y1664506D01*
X1878864Y1659313D02*
Y1664506D01*
X1878866Y1659313D02*
Y1664506D01*
X1878868Y1659313D02*
Y1664506D01*
X1878870Y1659313D02*
Y1664506D01*
X1878872Y1659313D02*
Y1664506D01*
X1878874Y1659313D02*
Y1664506D01*
X1878876Y1659313D02*
Y1664506D01*
X1878878Y1659313D02*
Y1664506D01*
X1878880Y1659313D02*
Y1664506D01*
X1878882Y1659313D02*
Y1664506D01*
X1878884Y1659313D02*
Y1664506D01*
X1878886Y1659313D02*
Y1664506D01*
X1878888Y1659313D02*
Y1664506D01*
X1878890Y1659313D02*
Y1664506D01*
X1878892Y1659313D02*
Y1664506D01*
X1878894Y1659313D02*
Y1664506D01*
X1878896Y1659313D02*
Y1664506D01*
X1878898Y1659313D02*
Y1664506D01*
X1878900Y1659313D02*
Y1664506D01*
X1878902Y1659313D02*
Y1664506D01*
X1878904Y1659313D02*
Y1664506D01*
X1878906Y1659313D02*
Y1664506D01*
X1878907Y1659313D02*
Y1664506D01*
X1878909Y1659313D02*
Y1664506D01*
X1878911Y1659313D02*
Y1664506D01*
X1878913Y1659313D02*
Y1664506D01*
X1878915Y1659313D02*
Y1664506D01*
X1878917Y1659313D02*
Y1664506D01*
X1878919Y1659313D02*
Y1664506D01*
X1878921Y1659313D02*
Y1664506D01*
X1878923Y1659313D02*
Y1664506D01*
X1878925Y1659313D02*
Y1664506D01*
X1878927Y1659313D02*
Y1664506D01*
X1878929Y1659313D02*
Y1664506D01*
X1878931Y1659313D02*
Y1664506D01*
X1878933Y1659313D02*
Y1664506D01*
X1878935Y1659313D02*
Y1664506D01*
X1878937Y1659313D02*
Y1664506D01*
X1878939Y1659313D02*
Y1664506D01*
X1878941Y1659313D02*
Y1664506D01*
X1878943Y1659313D02*
Y1664506D01*
X1878945Y1659313D02*
Y1664506D01*
X1878947Y1659313D02*
Y1664506D01*
X1878949Y1659313D02*
Y1664506D01*
X1878951Y1659313D02*
Y1664506D01*
X1878953Y1659313D02*
Y1664506D01*
X1878955Y1659313D02*
Y1664506D01*
X1878957Y1659313D02*
Y1664506D01*
X1878959Y1659313D02*
Y1664506D01*
X1878961Y1659313D02*
Y1664506D01*
X1878963Y1659313D02*
Y1664506D01*
X1878965Y1659313D02*
Y1664506D01*
X1878967Y1659313D02*
Y1664506D01*
X1878969Y1659313D02*
Y1664506D01*
X1878970Y1659313D02*
Y1664506D01*
X1878972Y1659313D02*
Y1664506D01*
X1878974Y1659313D02*
Y1664506D01*
X1878976Y1659313D02*
Y1664506D01*
X1878978Y1659313D02*
Y1664506D01*
X1878980Y1659313D02*
Y1664506D01*
X1878982Y1659313D02*
Y1664506D01*
X1878984Y1659313D02*
Y1664506D01*
X1878986Y1659313D02*
Y1664506D01*
X1878988Y1659313D02*
Y1664506D01*
X1878990Y1659313D02*
Y1664506D01*
X1878992Y1659313D02*
Y1664506D01*
X1878994Y1659313D02*
Y1664506D01*
X1878996Y1659313D02*
Y1664506D01*
X1878998Y1659313D02*
Y1664506D01*
X1879000Y1659313D02*
Y1664506D01*
X1879002Y1659313D02*
Y1664506D01*
X1879004Y1659313D02*
Y1664506D01*
X1879006Y1659313D02*
Y1664506D01*
X1879008Y1659313D02*
Y1664506D01*
X1879010Y1659313D02*
Y1664506D01*
X1879012Y1659313D02*
Y1664506D01*
X1879014Y1659313D02*
Y1664506D01*
X1879016Y1659313D02*
Y1664506D01*
X1879018Y1659313D02*
Y1664506D01*
X1879020Y1659313D02*
Y1664506D01*
X1879022Y1659313D02*
Y1664506D01*
X1879024Y1659313D02*
Y1664506D01*
X1879026Y1659313D02*
Y1664506D01*
X1879028Y1659313D02*
Y1664506D01*
X1879030Y1659313D02*
Y1664506D01*
X1879031Y1659313D02*
Y1664506D01*
X1879033Y1659313D02*
Y1664506D01*
X1879035Y1659313D02*
Y1664506D01*
X1879037Y1659313D02*
Y1664506D01*
X1879039Y1659313D02*
Y1664506D01*
X1879041Y1659313D02*
Y1664506D01*
X1879043Y1659313D02*
Y1664506D01*
X1879045Y1659313D02*
Y1664506D01*
X1879047Y1659313D02*
Y1664506D01*
X1879049Y1659313D02*
Y1664506D01*
X1879051Y1659313D02*
Y1664506D01*
X1879053Y1659313D02*
Y1664506D01*
X1879055Y1659313D02*
Y1664506D01*
X1879057Y1659313D02*
Y1664506D01*
X1879059Y1659313D02*
Y1664506D01*
X1879061Y1659313D02*
Y1664506D01*
X1879063Y1659313D02*
Y1664506D01*
X1879065Y1659313D02*
Y1664506D01*
X1879067Y1659313D02*
Y1664506D01*
X1879069Y1659313D02*
Y1664506D01*
X1879071Y1659313D02*
Y1664506D01*
X1879073Y1659313D02*
Y1664506D01*
X1879075Y1659313D02*
Y1664506D01*
X1879077Y1659313D02*
Y1664506D01*
X1879079Y1659313D02*
Y1664506D01*
X1879081Y1659313D02*
Y1664506D01*
X1879083Y1659313D02*
Y1664506D01*
X1879085Y1659313D02*
Y1664506D01*
X1879087Y1659313D02*
Y1664506D01*
X1879089Y1659313D02*
Y1664506D01*
X1879091Y1659313D02*
Y1664506D01*
X1879093Y1659313D02*
Y1664506D01*
X1879094Y1659313D02*
Y1664506D01*
X1879096Y1659313D02*
Y1664506D01*
X1879098Y1659313D02*
Y1664506D01*
X1879100Y1659313D02*
Y1664506D01*
X1879102Y1659313D02*
Y1664506D01*
X1879104Y1659313D02*
Y1664506D01*
X1879106Y1659313D02*
Y1664506D01*
X1879108Y1659313D02*
Y1664506D01*
X1879110Y1659313D02*
Y1664506D01*
X1879112Y1659313D02*
Y1664506D01*
X1879114Y1659313D02*
Y1664506D01*
X1879116Y1659313D02*
Y1664506D01*
X1879118Y1659313D02*
Y1664506D01*
X1879120Y1659313D02*
Y1664506D01*
X1879122Y1659313D02*
Y1664506D01*
X1879124Y1659313D02*
Y1664506D01*
X1879126Y1659313D02*
Y1664506D01*
X1879128Y1659313D02*
Y1664506D01*
X1879130Y1659313D02*
Y1664506D01*
X1879132Y1659313D02*
Y1664506D01*
X1879134Y1659313D02*
Y1664506D01*
X1879136Y1659313D02*
Y1664506D01*
X1879138Y1659313D02*
Y1664506D01*
X1879140Y1659313D02*
Y1664506D01*
X1879142Y1659313D02*
Y1664506D01*
X1879144Y1659313D02*
Y1664506D01*
X1879146Y1659313D02*
Y1664506D01*
X1879148Y1659313D02*
Y1664506D01*
X1879150Y1659313D02*
Y1664506D01*
X1879152Y1659313D02*
Y1664506D01*
X1879154Y1659313D02*
Y1664506D01*
X1879156Y1659313D02*
Y1664506D01*
X1879157Y1659313D02*
Y1664506D01*
X1879159Y1659313D02*
Y1664506D01*
X1879161Y1659313D02*
Y1664506D01*
X1879163Y1659313D02*
Y1664506D01*
X1879165Y1659313D02*
Y1664506D01*
X1879167Y1659313D02*
Y1664506D01*
X1879169Y1659313D02*
Y1664506D01*
X1879171Y1659313D02*
Y1664506D01*
X1879173Y1659313D02*
Y1664506D01*
X1879175Y1659313D02*
Y1664506D01*
X1879177Y1659313D02*
Y1664506D01*
X1879179Y1659313D02*
Y1664506D01*
X1879181Y1659313D02*
Y1664506D01*
X1879183Y1659313D02*
Y1664506D01*
X1879185Y1659313D02*
Y1664506D01*
X1879187Y1659313D02*
Y1664506D01*
X1879189Y1659313D02*
Y1664506D01*
X1879191Y1659313D02*
Y1664506D01*
X1879193Y1659313D02*
Y1664506D01*
X1879195Y1659313D02*
Y1664506D01*
X1879197Y1659313D02*
Y1664506D01*
X1879199Y1659313D02*
Y1664506D01*
X1879201Y1659313D02*
Y1664506D01*
X1879203Y1659313D02*
Y1664506D01*
X1879205Y1659313D02*
Y1664506D01*
X1879207Y1659313D02*
Y1664506D01*
X1879209Y1659313D02*
Y1664506D01*
X1879211Y1659313D02*
Y1664506D01*
X1879213Y1659313D02*
Y1664506D01*
X1879215Y1659313D02*
Y1664506D01*
X1879217Y1659313D02*
Y1664506D01*
X1879219Y1659313D02*
Y1664506D01*
X1879220Y1659313D02*
Y1664506D01*
X1879222Y1659313D02*
Y1664506D01*
X1879224Y1659313D02*
Y1664506D01*
X1879226Y1659313D02*
Y1664506D01*
X1879228Y1659313D02*
Y1664506D01*
X1879230Y1659313D02*
Y1664506D01*
X1879232Y1659313D02*
Y1664506D01*
X1879234Y1659313D02*
Y1664506D01*
X1879236Y1659313D02*
Y1664506D01*
X1879238Y1659313D02*
Y1664506D01*
X1879240Y1659313D02*
Y1664506D01*
X1879242Y1659313D02*
Y1664506D01*
X1879244Y1659313D02*
Y1664506D01*
X1879246Y1659313D02*
Y1664506D01*
X1879248Y1659313D02*
Y1664506D01*
X1879250Y1659313D02*
Y1664506D01*
X1879252Y1659313D02*
Y1664506D01*
X1879254Y1659313D02*
Y1664506D01*
X1879256Y1659313D02*
Y1664506D01*
X1879258Y1659313D02*
Y1664506D01*
X1879260Y1659313D02*
Y1664506D01*
X1879262Y1659313D02*
Y1664506D01*
X1879264Y1659313D02*
Y1664506D01*
X1879266Y1659313D02*
Y1664506D01*
X1879268Y1659313D02*
Y1664506D01*
X1879270Y1659313D02*
Y1664506D01*
X1879272Y1659313D02*
Y1664506D01*
X1879274Y1659313D02*
Y1664506D01*
X1879276Y1659313D02*
Y1664506D01*
X1879278Y1659313D02*
Y1664506D01*
X1879280Y1659313D02*
Y1664506D01*
X1879281Y1659313D02*
Y1664506D01*
X1879283Y1659313D02*
Y1664506D01*
X1879285Y1659313D02*
Y1664506D01*
X1879287Y1659313D02*
Y1664506D01*
X1879289Y1659313D02*
Y1664506D01*
X1879291Y1659313D02*
Y1664506D01*
X1879293Y1659313D02*
Y1664506D01*
X1879295Y1659313D02*
Y1664506D01*
X1879297Y1659313D02*
Y1664506D01*
X1879299Y1659313D02*
Y1664506D01*
X1879301Y1659313D02*
Y1664506D01*
X1879303Y1659313D02*
Y1664506D01*
X1879305Y1659313D02*
Y1664506D01*
X1879307Y1659313D02*
Y1664506D01*
X1879309Y1659313D02*
Y1664506D01*
X1879311Y1659313D02*
Y1664506D01*
X1879313Y1659313D02*
Y1664506D01*
X1879315Y1659313D02*
Y1664506D01*
X1879317Y1659313D02*
Y1664506D01*
X1879319Y1659313D02*
Y1664506D01*
X1879321Y1659313D02*
Y1664506D01*
X1879323Y1659313D02*
Y1664506D01*
X1879325Y1659313D02*
Y1664506D01*
X1879327Y1659313D02*
Y1664506D01*
X1879329Y1659313D02*
Y1664506D01*
X1879331Y1659313D02*
Y1664506D01*
X1879333Y1659313D02*
Y1664506D01*
X1879335Y1659313D02*
Y1664506D01*
X1879337Y1659313D02*
Y1664506D01*
X1879339Y1659313D02*
Y1664506D01*
X1879341Y1659313D02*
Y1664506D01*
X1879343Y1659313D02*
Y1664506D01*
X1879344Y1659313D02*
Y1664506D01*
X1879346Y1659313D02*
Y1664506D01*
X1879348Y1659313D02*
Y1664506D01*
X1879350Y1659313D02*
Y1664506D01*
X1879352Y1659313D02*
Y1664506D01*
X1879354Y1659313D02*
Y1664506D01*
X1879356Y1659313D02*
Y1664506D01*
X1879358Y1659313D02*
Y1664506D01*
X1879360Y1659313D02*
Y1664506D01*
X1879362Y1659313D02*
Y1664506D01*
X1879364Y1659313D02*
Y1664506D01*
X1879366Y1659313D02*
Y1664506D01*
X1879368Y1659313D02*
Y1664506D01*
X1879370Y1659313D02*
Y1664506D01*
X1879372Y1659313D02*
Y1664506D01*
X1879374Y1659313D02*
Y1664506D01*
X1879376Y1659313D02*
Y1664506D01*
X1879378Y1659313D02*
Y1664506D01*
X1879380Y1659313D02*
Y1664506D01*
X1879382Y1659313D02*
Y1664506D01*
X1879384Y1659313D02*
Y1664506D01*
X1879386Y1659313D02*
Y1664506D01*
X1879388Y1659313D02*
Y1664506D01*
X1879390Y1659313D02*
Y1664506D01*
X1879392Y1659313D02*
Y1664506D01*
X1879394Y1659313D02*
Y1664506D01*
X1879396Y1659313D02*
Y1664506D01*
X1879398Y1659313D02*
Y1664506D01*
X1879400Y1659313D02*
Y1664506D01*
X1879402Y1659313D02*
Y1664506D01*
X1879404Y1659313D02*
Y1664506D01*
X1879406Y1659313D02*
Y1664506D01*
X1879407Y1659313D02*
Y1664506D01*
X1879409Y1659313D02*
Y1664506D01*
X1879411Y1659313D02*
Y1664506D01*
X1879413Y1659313D02*
Y1664506D01*
X1879415Y1659313D02*
Y1664506D01*
X1879417Y1659313D02*
Y1664506D01*
X1879419Y1659313D02*
Y1664506D01*
X1879421Y1659313D02*
Y1664506D01*
X1879423Y1659313D02*
Y1664506D01*
X1879425Y1659313D02*
Y1664506D01*
X1879427Y1659313D02*
Y1664506D01*
X1879429Y1659313D02*
Y1664506D01*
X1879431Y1659313D02*
Y1664506D01*
X1879433Y1659313D02*
Y1664506D01*
X1879435Y1659313D02*
Y1664506D01*
X1879437Y1659313D02*
Y1664506D01*
X1879439Y1659313D02*
Y1664506D01*
X1879441Y1659313D02*
Y1664506D01*
X1879443Y1659313D02*
Y1664506D01*
X1879445Y1659313D02*
Y1664506D01*
X1879447Y1659313D02*
Y1664506D01*
X1879449Y1659313D02*
Y1664506D01*
X1879451Y1659313D02*
Y1664506D01*
X1879453Y1659313D02*
Y1664506D01*
X1879455Y1659313D02*
Y1664506D01*
X1879457Y1659313D02*
Y1664506D01*
X1879459Y1659313D02*
Y1664506D01*
X1879461Y1659313D02*
Y1664506D01*
X1879463Y1659313D02*
Y1664506D01*
X1879465Y1659313D02*
Y1664506D01*
X1879467Y1659313D02*
Y1664506D01*
X1879469Y1659313D02*
Y1664506D01*
X1879470Y1659313D02*
Y1664506D01*
X1879472Y1659313D02*
Y1664506D01*
X1879474Y1659313D02*
Y1664506D01*
X1879476Y1659313D02*
Y1664506D01*
X1879478Y1659313D02*
Y1664506D01*
X1879480Y1659313D02*
Y1664506D01*
X1879482Y1659313D02*
Y1664506D01*
X1879484Y1659313D02*
Y1664506D01*
X1879486Y1659313D02*
Y1664506D01*
X1879488Y1659313D02*
Y1664506D01*
X1879490Y1659313D02*
Y1664506D01*
X1879492Y1659313D02*
Y1664506D01*
X1879494Y1659313D02*
Y1664506D01*
X1879496Y1659313D02*
Y1664506D01*
X1879498Y1659313D02*
Y1664506D01*
X1879500Y1659313D02*
Y1664506D01*
X1879502Y1659313D02*
Y1664506D01*
X1879504Y1659313D02*
Y1664506D01*
X1879506Y1659313D02*
Y1664506D01*
X1879508Y1659313D02*
Y1664506D01*
X1879510Y1659313D02*
Y1664506D01*
X1879512Y1659313D02*
Y1664506D01*
X1879514Y1659313D02*
Y1664506D01*
X1879516Y1659313D02*
Y1664506D01*
X1879518Y1659313D02*
Y1664506D01*
X1879520Y1659313D02*
Y1664506D01*
X1879522Y1659313D02*
Y1664506D01*
X1879524Y1659313D02*
Y1664506D01*
X1879526Y1659313D02*
Y1664506D01*
X1879528Y1659313D02*
Y1664506D01*
X1879530Y1659313D02*
Y1664506D01*
X1879531Y1659313D02*
Y1664506D01*
X1879533Y1659313D02*
Y1664506D01*
X1879535Y1659313D02*
Y1664506D01*
X1879537Y1659313D02*
Y1664506D01*
X1879539Y1659313D02*
Y1664506D01*
X1879541Y1659313D02*
Y1664506D01*
X1879543Y1659313D02*
Y1664506D01*
X1879545Y1659313D02*
Y1664506D01*
X1879547Y1659313D02*
Y1664506D01*
X1879549Y1659313D02*
Y1664506D01*
X1879551Y1659313D02*
Y1664506D01*
X1879553Y1659313D02*
Y1664506D01*
X1879555Y1659313D02*
Y1664506D01*
X1879557Y1659313D02*
Y1664506D01*
X1879559Y1659313D02*
Y1664506D01*
X1879561Y1659313D02*
Y1664506D01*
X1879563Y1659313D02*
Y1664506D01*
X1879565Y1659313D02*
Y1664506D01*
X1879567Y1659313D02*
Y1664506D01*
X1879569Y1659313D02*
Y1664506D01*
X1879571Y1659313D02*
Y1664506D01*
X1879573Y1659313D02*
Y1664506D01*
X1879575Y1659313D02*
Y1664506D01*
X1879577Y1659313D02*
Y1664506D01*
X1879579Y1659313D02*
Y1664506D01*
X1879581Y1659313D02*
Y1664506D01*
X1879583Y1659313D02*
Y1664506D01*
X1879585Y1659313D02*
Y1664506D01*
X1879587Y1659313D02*
Y1664506D01*
X1879589Y1659313D02*
Y1664506D01*
X1879591Y1659313D02*
Y1664506D01*
X1879593Y1659313D02*
Y1664506D01*
X1879594Y1659313D02*
Y1664506D01*
X1879596Y1659313D02*
Y1664506D01*
X1879598Y1659313D02*
Y1664506D01*
X1879600Y1659313D02*
Y1664506D01*
X1879602Y1659313D02*
Y1664506D01*
X1879604Y1659313D02*
Y1664506D01*
X1879606Y1659313D02*
Y1664506D01*
X1879608Y1659313D02*
Y1664506D01*
X1879610Y1659313D02*
Y1664506D01*
X1879612Y1659313D02*
Y1664506D01*
X1879614Y1659313D02*
Y1664506D01*
X1879616Y1659313D02*
Y1664506D01*
X1879618Y1659313D02*
Y1664506D01*
X1879620Y1659313D02*
Y1664506D01*
X1879622Y1659313D02*
Y1664506D01*
X1879624Y1659313D02*
Y1664506D01*
X1879626Y1659313D02*
Y1664506D01*
X1879628Y1659313D02*
Y1664506D01*
X1879630Y1659313D02*
Y1664506D01*
X1879632Y1659313D02*
Y1664506D01*
X1879634Y1659313D02*
Y1664506D01*
X1879636Y1659313D02*
Y1664506D01*
X1879638Y1659313D02*
Y1664506D01*
X1879640Y1659313D02*
Y1664506D01*
X1879642Y1659313D02*
Y1664506D01*
X1879644Y1659313D02*
Y1664506D01*
X1879646Y1659313D02*
Y1664506D01*
X1879648Y1659313D02*
Y1664506D01*
X1879650Y1659313D02*
Y1664506D01*
X1879652Y1659313D02*
Y1664506D01*
X1879654Y1659313D02*
Y1664506D01*
X1879656Y1659313D02*
Y1664506D01*
X1879657Y1659313D02*
Y1664506D01*
X1879659Y1659313D02*
Y1664506D01*
X1879661Y1659313D02*
Y1664506D01*
X1879663Y1659313D02*
Y1664506D01*
X1879665Y1659313D02*
Y1664506D01*
X1879667Y1659313D02*
Y1664506D01*
X1879669Y1659313D02*
Y1664506D01*
X1879671Y1659313D02*
Y1664506D01*
X1879673Y1659313D02*
Y1664506D01*
X1879675Y1659313D02*
Y1664506D01*
X1879677Y1659313D02*
Y1664506D01*
X1879679Y1659313D02*
Y1664506D01*
X1879681Y1659313D02*
Y1664506D01*
X1879683Y1659313D02*
Y1664506D01*
X1879685Y1659313D02*
Y1664506D01*
X1879687Y1659313D02*
Y1664506D01*
X1879689Y1659313D02*
Y1664506D01*
X1879691Y1659313D02*
Y1664506D01*
X1879693Y1659313D02*
Y1664506D01*
X1879695Y1659313D02*
Y1664506D01*
X1879697Y1659313D02*
Y1664506D01*
X1879699Y1659313D02*
Y1664506D01*
X1879701Y1659313D02*
Y1664506D01*
X1879703Y1659313D02*
Y1664506D01*
X1879705Y1659313D02*
Y1664506D01*
X1879707Y1659313D02*
Y1664506D01*
X1879709Y1659313D02*
Y1664506D01*
X1879711Y1659313D02*
Y1664506D01*
X1879713Y1659313D02*
Y1664506D01*
X1879715Y1659313D02*
Y1664506D01*
X1879717Y1659313D02*
Y1664506D01*
X1879719Y1659313D02*
Y1664506D01*
X1879720Y1659313D02*
Y1664506D01*
X1879722Y1659313D02*
Y1664506D01*
X1879724Y1659313D02*
Y1664506D01*
X1879726Y1659313D02*
Y1664506D01*
X1879728Y1659313D02*
Y1664506D01*
X1879730Y1659313D02*
Y1664506D01*
X1879732Y1659313D02*
Y1664506D01*
X1879734Y1659313D02*
Y1664506D01*
X1879736Y1659313D02*
Y1664506D01*
X1879738Y1659313D02*
Y1664506D01*
X1879740Y1659313D02*
Y1664506D01*
X1879742Y1659313D02*
Y1664506D01*
X1879744Y1659313D02*
Y1664506D01*
X1879746Y1659313D02*
Y1664506D01*
X1879748Y1659313D02*
Y1664506D01*
X1879750Y1659313D02*
Y1664506D01*
X1879752Y1659313D02*
Y1664506D01*
X1879754Y1659313D02*
Y1664506D01*
X1879756Y1659313D02*
Y1664506D01*
X1879758Y1659313D02*
Y1664506D01*
X1879760Y1659313D02*
Y1664506D01*
X1879762Y1659313D02*
Y1664506D01*
X1879764Y1659313D02*
Y1664506D01*
X1879766Y1659313D02*
Y1664506D01*
X1879768Y1659313D02*
Y1664506D01*
X1879770Y1659313D02*
Y1664506D01*
X1879772Y1659313D02*
Y1664506D01*
X1879774Y1659313D02*
Y1664506D01*
X1879776Y1659313D02*
Y1664506D01*
X1879778Y1659313D02*
Y1664506D01*
X1879780Y1659313D02*
Y1664506D01*
X1879781Y1659313D02*
Y1664506D01*
X1879783Y1659313D02*
Y1664506D01*
X1879785Y1659313D02*
Y1664506D01*
X1879787Y1659313D02*
Y1664506D01*
X1879789Y1659313D02*
Y1664506D01*
X1879791Y1659313D02*
Y1664506D01*
X1879793Y1659313D02*
Y1664506D01*
X1879795Y1659313D02*
Y1664506D01*
X1879797Y1659313D02*
Y1664506D01*
X1879799Y1659313D02*
Y1664506D01*
X1879801Y1659313D02*
Y1664506D01*
X1879803Y1659313D02*
Y1664506D01*
X1879805Y1659313D02*
Y1664506D01*
X1879807Y1659313D02*
Y1664506D01*
X1879809Y1659313D02*
Y1664506D01*
X1879811Y1659313D02*
Y1664506D01*
X1879813Y1659313D02*
Y1664506D01*
X1879815Y1659313D02*
Y1664506D01*
X1879817Y1659313D02*
Y1664506D01*
X1879819Y1659313D02*
Y1664506D01*
X1879821Y1659313D02*
Y1664506D01*
X1879823Y1659313D02*
Y1664506D01*
X1879825Y1659313D02*
Y1664506D01*
X1879827Y1659313D02*
Y1664506D01*
X1879829Y1659313D02*
Y1664506D01*
X1879831Y1659313D02*
Y1664506D01*
X1879833Y1659313D02*
Y1664506D01*
X1879835Y1659313D02*
Y1664506D01*
X1879837Y1659313D02*
Y1664506D01*
X1879839Y1659313D02*
Y1664506D01*
X1879841Y1659313D02*
Y1664506D01*
X1879843Y1659313D02*
Y1664506D01*
X1879844Y1659313D02*
Y1664506D01*
X1879846Y1659313D02*
Y1664506D01*
X1879848Y1659313D02*
Y1664506D01*
X1879850Y1659313D02*
Y1664506D01*
X1879852Y1659313D02*
Y1664506D01*
X1879854Y1659313D02*
Y1664506D01*
X1879856Y1659313D02*
Y1664506D01*
X1879858Y1659313D02*
Y1664506D01*
X1879860Y1659313D02*
Y1664506D01*
X1879862Y1659313D02*
Y1664506D01*
X1879864Y1659313D02*
Y1664506D01*
X1879866Y1659313D02*
Y1664506D01*
X1879868Y1659313D02*
Y1664506D01*
X1879870Y1659313D02*
Y1664506D01*
X1879872Y1659313D02*
Y1664506D01*
X1879874Y1659313D02*
Y1664506D01*
X1879876Y1659313D02*
Y1664506D01*
X1879878Y1659313D02*
Y1664506D01*
X1879880Y1659313D02*
Y1664506D01*
X1879882Y1659313D02*
Y1664506D01*
X1879884Y1659313D02*
Y1664506D01*
X1879886Y1659313D02*
Y1664506D01*
X1879888Y1659313D02*
Y1664506D01*
X1879890Y1659313D02*
Y1664506D01*
X1879892Y1659313D02*
Y1664506D01*
X1879894Y1659313D02*
Y1664506D01*
X1879896Y1659313D02*
Y1664506D01*
X1879898Y1659313D02*
Y1664506D01*
X1879900Y1659313D02*
Y1664506D01*
X1879902Y1659313D02*
Y1664506D01*
X1879904Y1659313D02*
Y1664506D01*
X1879906Y1659313D02*
Y1664506D01*
X1879907Y1659313D02*
Y1664506D01*
X1879909Y1659313D02*
Y1664506D01*
X1879911Y1659313D02*
Y1664506D01*
X1879913Y1659313D02*
Y1664506D01*
X1879915Y1659313D02*
Y1664506D01*
X1879917Y1659313D02*
Y1664506D01*
X1879919Y1659313D02*
Y1664506D01*
X1879921Y1659313D02*
Y1664506D01*
X1879923Y1659313D02*
Y1664506D01*
X1879925Y1659313D02*
Y1664506D01*
X1879927Y1659313D02*
Y1664506D01*
X1879929Y1659313D02*
Y1664506D01*
X1879931Y1659313D02*
Y1664506D01*
X1879933Y1659313D02*
Y1664506D01*
X1879935Y1659313D02*
Y1664506D01*
X1879937Y1659313D02*
Y1664506D01*
X1879939Y1659313D02*
Y1664506D01*
X1879941Y1659313D02*
Y1664506D01*
X1879943Y1659313D02*
Y1664506D01*
X1879945Y1659313D02*
Y1664506D01*
X1879947Y1659313D02*
Y1664506D01*
X1879949Y1659313D02*
Y1664506D01*
X1879951Y1659313D02*
Y1664506D01*
X1879953Y1659313D02*
Y1664506D01*
X1879955Y1659313D02*
Y1664506D01*
X1879957Y1659313D02*
Y1664506D01*
X1879959Y1659313D02*
Y1664506D01*
X1879961Y1659313D02*
Y1664506D01*
X1879963Y1659313D02*
Y1664506D01*
X1879965Y1659313D02*
Y1664506D01*
X1879967Y1659313D02*
Y1664506D01*
X1879969Y1659313D02*
Y1664506D01*
X1879970Y1659313D02*
Y1664506D01*
X1879972Y1659313D02*
Y1664506D01*
X1879974Y1659313D02*
Y1664506D01*
X1879976Y1659313D02*
Y1664506D01*
X1879978Y1659313D02*
Y1664506D01*
X1879980Y1659313D02*
Y1664506D01*
X1879982Y1659313D02*
Y1664506D01*
X1879984Y1659313D02*
Y1664506D01*
X1879986Y1659313D02*
Y1664506D01*
X1879988Y1659313D02*
Y1664506D01*
X1879990Y1659313D02*
Y1664506D01*
X1879992Y1659313D02*
Y1664506D01*
X1879994Y1659313D02*
Y1664506D01*
X1879996Y1659313D02*
Y1664506D01*
X1879998Y1659313D02*
Y1664506D01*
X1880000Y1659313D02*
Y1664506D01*
X1880002Y1659313D02*
Y1664506D01*
X1880004Y1659313D02*
Y1664506D01*
X1880006Y1659313D02*
Y1664506D01*
X1880008Y1659313D02*
Y1664506D01*
X1880010Y1659313D02*
Y1664506D01*
X1880012Y1659313D02*
Y1664506D01*
X1880014Y1659313D02*
Y1664506D01*
X1880016Y1659313D02*
Y1664506D01*
X1880018Y1659313D02*
Y1664506D01*
X1880020Y1659313D02*
Y1664506D01*
X1880022Y1659313D02*
Y1664506D01*
X1880024Y1659313D02*
Y1664506D01*
X1880026Y1659313D02*
Y1664506D01*
X1880028Y1659313D02*
Y1664506D01*
X1880030Y1659313D02*
Y1664506D01*
X1880031Y1659313D02*
Y1664506D01*
X1880033Y1659313D02*
Y1664506D01*
X1880035Y1659313D02*
Y1664506D01*
X1880037Y1659313D02*
Y1664506D01*
X1880039Y1659313D02*
Y1664506D01*
X1880041Y1659313D02*
Y1664506D01*
X1880043Y1659313D02*
Y1664506D01*
X1880045Y1659313D02*
Y1664506D01*
X1880047Y1659313D02*
Y1664506D01*
X1880049Y1659313D02*
Y1664506D01*
X1880051Y1659313D02*
Y1664506D01*
X1880053Y1659313D02*
Y1664506D01*
X1880055Y1659313D02*
Y1664506D01*
X1880057Y1659313D02*
Y1664506D01*
X1880059Y1659313D02*
Y1664506D01*
X1880061Y1659313D02*
Y1664506D01*
X1880063Y1659313D02*
Y1664506D01*
X1880065Y1659313D02*
Y1664506D01*
X1880067Y1659313D02*
Y1664506D01*
X1880069Y1659313D02*
Y1664506D01*
X1880071Y1659313D02*
Y1664506D01*
X1880073Y1659313D02*
Y1664506D01*
X1880075Y1659313D02*
Y1664506D01*
X1880077Y1659313D02*
Y1664506D01*
X1880079Y1659313D02*
Y1664506D01*
X1880081Y1659313D02*
Y1664506D01*
X1880083Y1659313D02*
Y1664506D01*
X1880085Y1659313D02*
Y1664506D01*
X1880087Y1659313D02*
Y1664506D01*
X1880089Y1659313D02*
Y1664506D01*
X1880091Y1659313D02*
Y1664506D01*
X1880093Y1659313D02*
Y1664506D01*
X1880094Y1659313D02*
Y1664506D01*
X1880096Y1659313D02*
Y1664506D01*
X1880098Y1659313D02*
Y1664506D01*
X1880100Y1659313D02*
Y1664506D01*
X1880102Y1659313D02*
Y1664506D01*
X1880104Y1659313D02*
Y1664506D01*
X1880106Y1659313D02*
Y1664506D01*
X1880108Y1659313D02*
Y1664506D01*
X1880110Y1659313D02*
Y1664506D01*
X1880112Y1659313D02*
Y1664506D01*
X1880114Y1659313D02*
Y1664506D01*
X1880116Y1659313D02*
Y1664506D01*
X1880118Y1659313D02*
Y1664506D01*
X1880120Y1659313D02*
Y1664506D01*
X1880122Y1659313D02*
Y1664506D01*
X1880124Y1659313D02*
Y1664506D01*
X1880126Y1659313D02*
Y1664506D01*
X1880128Y1659313D02*
Y1664506D01*
X1880130Y1659313D02*
Y1664506D01*
X1880132Y1659313D02*
Y1664506D01*
X1880134Y1659313D02*
Y1664506D01*
X1880136Y1659313D02*
Y1664506D01*
X1880138Y1659313D02*
Y1664506D01*
X1880140Y1659313D02*
Y1664506D01*
X1880142Y1659313D02*
Y1664506D01*
X1880144Y1659313D02*
Y1664506D01*
X1880146Y1659313D02*
Y1664506D01*
X1880148Y1659313D02*
Y1664506D01*
X1880150Y1659313D02*
Y1664506D01*
X1880152Y1659313D02*
Y1664506D01*
X1880154Y1659313D02*
Y1664506D01*
X1880156Y1659313D02*
Y1664506D01*
X1880157Y1659313D02*
Y1664506D01*
X1880159Y1659313D02*
Y1664506D01*
X1880161Y1659313D02*
Y1664506D01*
X1880163Y1659313D02*
Y1664506D01*
X1880165Y1659313D02*
Y1664506D01*
X1880167Y1659313D02*
Y1664506D01*
X1880169Y1659313D02*
Y1664506D01*
X1880171Y1659313D02*
Y1664506D01*
X1880173Y1659313D02*
Y1664506D01*
X1880175Y1659313D02*
Y1664506D01*
X1880177Y1659313D02*
Y1664506D01*
X1880179Y1659313D02*
Y1664506D01*
X1880181Y1659313D02*
Y1664506D01*
X1880183Y1659313D02*
Y1664506D01*
X1880185Y1659313D02*
Y1664506D01*
X1880187Y1659313D02*
Y1664506D01*
X1880189Y1659313D02*
Y1664506D01*
X1880191Y1659313D02*
Y1664506D01*
X1880193Y1659313D02*
Y1664506D01*
X1880195Y1659313D02*
Y1664506D01*
X1880197Y1659313D02*
Y1664506D01*
X1880199Y1659313D02*
Y1664506D01*
X1880201Y1659313D02*
Y1664506D01*
X1880203Y1659313D02*
Y1664506D01*
X1880205Y1659313D02*
Y1664506D01*
X1880207Y1659313D02*
Y1664506D01*
X1880209Y1659313D02*
Y1664506D01*
X1880211Y1659313D02*
Y1664506D01*
X1880213Y1659313D02*
Y1664506D01*
X1880215Y1659313D02*
Y1664506D01*
X1880217Y1659313D02*
Y1664506D01*
X1880219Y1659313D02*
Y1664506D01*
X1880220Y1659313D02*
Y1664506D01*
X1880222Y1659313D02*
Y1664506D01*
X1880224Y1659313D02*
Y1664506D01*
X1880226Y1659313D02*
Y1664506D01*
X1880228Y1659313D02*
Y1664506D01*
X1880230Y1659313D02*
Y1664506D01*
X1880232Y1659313D02*
Y1664506D01*
X1880234Y1659313D02*
Y1664506D01*
X1880236Y1659313D02*
Y1664506D01*
X1880238Y1659313D02*
Y1664506D01*
X1880240Y1659313D02*
Y1664506D01*
X1880242Y1659313D02*
Y1664506D01*
X1880244Y1659313D02*
Y1664506D01*
X1880246Y1659313D02*
Y1664506D01*
X1880248Y1659313D02*
Y1664506D01*
X1880250Y1659313D02*
Y1664506D01*
X1880252Y1659313D02*
Y1664506D01*
X1880254Y1659313D02*
Y1664506D01*
X1880256Y1659313D02*
Y1664506D01*
X1880258Y1659313D02*
Y1664506D01*
X1880260Y1659313D02*
Y1664506D01*
X1880262Y1659313D02*
Y1664506D01*
X1880264Y1659313D02*
Y1664506D01*
X1880266Y1659313D02*
Y1664506D01*
X1880268Y1659313D02*
Y1664506D01*
X1880270Y1659313D02*
Y1664506D01*
X1880272Y1659313D02*
Y1664506D01*
X1880274Y1659313D02*
Y1664506D01*
X1880276Y1659313D02*
Y1664506D01*
X1880278Y1659313D02*
Y1664506D01*
X1880280Y1659313D02*
Y1664506D01*
X1880281Y1659313D02*
Y1664506D01*
X1880283Y1659313D02*
Y1664506D01*
X1880285Y1659313D02*
Y1664506D01*
X1880287Y1659313D02*
Y1664506D01*
X1880289Y1659313D02*
Y1664506D01*
X1880291Y1659313D02*
Y1664506D01*
X1880293Y1659313D02*
Y1664506D01*
X1880295Y1659313D02*
Y1664506D01*
X1880297Y1659313D02*
Y1664506D01*
X1880299Y1659313D02*
Y1664506D01*
X1880301Y1659313D02*
Y1664506D01*
X1880303Y1659313D02*
Y1664506D01*
X1880305Y1659313D02*
Y1664506D01*
X1880307Y1659313D02*
Y1664506D01*
X1880309Y1659313D02*
Y1664506D01*
X1880311Y1659313D02*
Y1664506D01*
X1880313Y1659313D02*
Y1664506D01*
X1880315Y1659313D02*
Y1664506D01*
X1880317Y1659313D02*
Y1664506D01*
X1880319Y1659313D02*
Y1664506D01*
X1880321Y1659313D02*
Y1664506D01*
X1880323Y1659313D02*
Y1664506D01*
X1880325Y1659313D02*
Y1664506D01*
X1880327Y1659313D02*
Y1664506D01*
X1880329Y1659313D02*
Y1664506D01*
X1880331Y1659313D02*
Y1664506D01*
X1880333Y1659313D02*
Y1664506D01*
X1880335Y1659313D02*
Y1664506D01*
X1880337Y1659313D02*
Y1664506D01*
X1880339Y1659313D02*
Y1664506D01*
X1880341Y1659313D02*
Y1664506D01*
X1880343Y1659313D02*
Y1664506D01*
X1880344Y1659313D02*
Y1664506D01*
X1880346Y1659313D02*
Y1664506D01*
X1880348Y1659313D02*
Y1664506D01*
X1880350Y1659313D02*
Y1664506D01*
X1880352Y1659313D02*
Y1664506D01*
X1880354Y1659313D02*
Y1664506D01*
X1880356Y1659313D02*
Y1664506D01*
X1880358Y1659313D02*
Y1664506D01*
X1880360Y1659313D02*
Y1664506D01*
X1880362Y1659313D02*
Y1664506D01*
X1880364Y1659313D02*
Y1664506D01*
X1880366Y1659313D02*
Y1664506D01*
X1880368Y1659313D02*
Y1664506D01*
X1880370Y1659313D02*
Y1664506D01*
X1880372Y1659313D02*
Y1664506D01*
X1880374Y1659313D02*
Y1664506D01*
X1880376Y1659313D02*
Y1664506D01*
X1880378Y1659313D02*
Y1664506D01*
X1880380Y1659313D02*
Y1664506D01*
X1880382Y1659313D02*
Y1664506D01*
X1880384Y1659313D02*
Y1664506D01*
X1880386Y1659313D02*
Y1664506D01*
X1880388Y1659313D02*
Y1664506D01*
X1880390Y1659313D02*
Y1664506D01*
X1880392Y1659313D02*
Y1664506D01*
X1880394Y1659313D02*
Y1664506D01*
X1880396Y1659313D02*
Y1664506D01*
X1880398Y1659313D02*
Y1664506D01*
X1880400Y1659313D02*
Y1664506D01*
X1880402Y1659313D02*
Y1664506D01*
X1880404Y1659313D02*
Y1664506D01*
X1880406Y1659313D02*
Y1664506D01*
X1880407Y1659313D02*
Y1664506D01*
X1880409Y1659313D02*
Y1664506D01*
X1880411Y1659313D02*
Y1664506D01*
X1880413Y1659313D02*
Y1664506D01*
X1880415Y1659313D02*
Y1664506D01*
X1880417Y1659313D02*
Y1664506D01*
X1880419Y1659313D02*
Y1664506D01*
X1880421Y1659313D02*
Y1664506D01*
X1880423Y1659313D02*
Y1664506D01*
X1880425Y1659313D02*
Y1664506D01*
X1880427Y1659313D02*
Y1664506D01*
X1880429Y1659313D02*
Y1664506D01*
X1880431Y1659313D02*
Y1664506D01*
X1880433Y1659313D02*
Y1664506D01*
X1880435Y1659313D02*
Y1664506D01*
X1880437Y1659313D02*
Y1664506D01*
X1880439Y1659313D02*
Y1664506D01*
X1880441Y1659313D02*
Y1664506D01*
X1880443Y1659313D02*
Y1664506D01*
X1880445Y1659313D02*
Y1664506D01*
X1880447Y1659313D02*
Y1664506D01*
X1880449Y1659313D02*
Y1664506D01*
X1880451Y1659313D02*
Y1664506D01*
X1880453Y1659313D02*
Y1664506D01*
X1880455Y1659313D02*
Y1664506D01*
X1880457Y1659313D02*
Y1664506D01*
X1880459Y1659313D02*
Y1664506D01*
X1880461Y1659313D02*
Y1664506D01*
X1880463Y1659313D02*
Y1664506D01*
X1880465Y1659313D02*
Y1664506D01*
X1880467Y1659313D02*
Y1664506D01*
X1880469Y1659313D02*
Y1664506D01*
X1880470Y1659313D02*
Y1664506D01*
X1880472Y1659313D02*
Y1664506D01*
X1880474Y1659313D02*
Y1664506D01*
X1880476Y1659313D02*
Y1664506D01*
X1880478Y1659313D02*
Y1664506D01*
X1880480Y1659313D02*
Y1664506D01*
X1880482Y1659313D02*
Y1664506D01*
X1880484Y1659313D02*
Y1664506D01*
X1880486Y1659313D02*
Y1664506D01*
X1880488Y1659313D02*
Y1664506D01*
X1880490Y1659313D02*
Y1664506D01*
X1880492Y1659313D02*
Y1664506D01*
X1880494Y1659313D02*
Y1664506D01*
X1880496Y1659313D02*
Y1664506D01*
X1880498Y1659313D02*
Y1664506D01*
X1880500Y1659313D02*
Y1664506D01*
X1880502Y1659313D02*
Y1664506D01*
X1880504Y1659313D02*
Y1664506D01*
X1880506Y1659313D02*
Y1664506D01*
X1880508Y1659313D02*
Y1664506D01*
X1880510Y1659313D02*
Y1664506D01*
X1880512Y1659313D02*
Y1664506D01*
X1880514Y1659313D02*
Y1664506D01*
X1880516Y1659313D02*
Y1664506D01*
X1880518Y1659313D02*
Y1664506D01*
X1880520Y1659313D02*
Y1664506D01*
X1880522Y1659313D02*
Y1664506D01*
X1880524Y1659313D02*
Y1664506D01*
X1880526Y1659313D02*
Y1664506D01*
X1880528Y1659313D02*
Y1664506D01*
X1880530Y1659313D02*
Y1664506D01*
X1880531Y1659313D02*
Y1664506D01*
X1880533Y1659313D02*
Y1664506D01*
X1880535Y1659313D02*
Y1664506D01*
X1880537Y1659313D02*
Y1664506D01*
X1880539Y1659313D02*
Y1664506D01*
X1880541Y1659313D02*
Y1664506D01*
X1880543Y1659313D02*
Y1664506D01*
X1880545Y1659313D02*
Y1664506D01*
X1880547Y1659313D02*
Y1664506D01*
X1880549Y1659313D02*
Y1664506D01*
X1880551Y1659313D02*
Y1664506D01*
X1880553Y1659313D02*
Y1664506D01*
X1880555Y1659313D02*
Y1664506D01*
X1880557Y1659313D02*
Y1664506D01*
X1880559Y1659313D02*
Y1664506D01*
X1880561Y1659313D02*
Y1664506D01*
X1880563Y1659313D02*
Y1664506D01*
X1880565Y1659313D02*
Y1664506D01*
X1880567Y1659313D02*
Y1664506D01*
X1880569Y1659313D02*
Y1664506D01*
X1880571Y1659313D02*
Y1664506D01*
X1880573Y1659313D02*
Y1664506D01*
X1880575Y1659313D02*
Y1664506D01*
X1880577Y1659313D02*
Y1664506D01*
X1880579Y1659313D02*
Y1664506D01*
X1880581Y1659313D02*
Y1664506D01*
X1880583Y1659313D02*
Y1664506D01*
X1880585Y1659313D02*
Y1664506D01*
X1880587Y1659313D02*
Y1664506D01*
X1880589Y1659313D02*
Y1664506D01*
X1880591Y1659313D02*
Y1664506D01*
X1880593Y1659313D02*
Y1664506D01*
X1880594Y1659313D02*
Y1664506D01*
X1880596Y1659313D02*
Y1664506D01*
X1880598Y1659313D02*
Y1664506D01*
X1880600Y1659313D02*
Y1664506D01*
X1880602Y1659313D02*
Y1664506D01*
X1880604Y1659313D02*
Y1664506D01*
X1880606Y1659313D02*
Y1664506D01*
X1880608Y1659313D02*
Y1664506D01*
X1880610Y1659313D02*
Y1664506D01*
X1880612Y1659313D02*
Y1664506D01*
X1880614Y1659313D02*
Y1664506D01*
X1880616Y1659313D02*
Y1664506D01*
X1880618Y1659313D02*
Y1664506D01*
X1880620Y1659313D02*
Y1664506D01*
X1880622Y1659313D02*
Y1664506D01*
X1880624Y1659313D02*
Y1664506D01*
X1880626Y1659313D02*
Y1664506D01*
X1880628Y1659313D02*
Y1664506D01*
X1880630Y1659313D02*
Y1664506D01*
X1880632Y1659313D02*
Y1664506D01*
X1880634Y1659313D02*
Y1664506D01*
X1880636Y1659313D02*
Y1664506D01*
X1880638Y1659313D02*
Y1664506D01*
X1880640Y1659313D02*
Y1664506D01*
X1880642Y1659313D02*
Y1664506D01*
X1880644Y1659313D02*
Y1664506D01*
X1880646Y1659313D02*
Y1664506D01*
X1880648Y1659313D02*
Y1664506D01*
X1880650Y1659313D02*
Y1664506D01*
X1880652Y1659313D02*
Y1664506D01*
X1880654Y1659313D02*
Y1664506D01*
X1880656Y1659313D02*
Y1664506D01*
X1880657Y1659313D02*
Y1664506D01*
X1880659Y1659313D02*
Y1664506D01*
X1880661Y1659313D02*
Y1664506D01*
X1880663Y1659313D02*
Y1664506D01*
X1880665Y1659313D02*
Y1664506D01*
X1880667Y1659313D02*
Y1664506D01*
X1880669Y1659313D02*
Y1664506D01*
X1880671Y1659313D02*
Y1664506D01*
X1880673Y1659313D02*
Y1664506D01*
X1880675Y1659313D02*
Y1664506D01*
X1880677Y1659313D02*
Y1664506D01*
X1880679Y1659313D02*
Y1664506D01*
X1880681Y1659313D02*
Y1664506D01*
X1880683Y1659313D02*
Y1664506D01*
X1880685Y1659313D02*
Y1664506D01*
X1880687Y1659313D02*
Y1664506D01*
X1880689Y1659313D02*
Y1664506D01*
X1880691Y1659313D02*
Y1664506D01*
X1880693Y1659313D02*
Y1664506D01*
X1880695Y1659313D02*
Y1664506D01*
X1880697Y1659313D02*
Y1664506D01*
X1880699Y1659313D02*
Y1664506D01*
X1880701Y1659313D02*
Y1664506D01*
X1880703Y1659313D02*
Y1664506D01*
X1880705Y1659313D02*
Y1664506D01*
X1880707Y1659313D02*
Y1664506D01*
X1880709Y1659313D02*
Y1664506D01*
X1880711Y1659313D02*
Y1664506D01*
X1880713Y1659313D02*
Y1664506D01*
X1880715Y1659313D02*
Y1664506D01*
X1880717Y1659313D02*
Y1664506D01*
X1880719Y1659313D02*
Y1664506D01*
X1880720Y1659313D02*
Y1664506D01*
X1880722Y1659313D02*
Y1664506D01*
X1880724Y1659313D02*
Y1664506D01*
X1880726Y1659313D02*
Y1664506D01*
X1880728Y1659313D02*
Y1664506D01*
X1880730Y1659313D02*
Y1664506D01*
X1880732Y1659313D02*
Y1664506D01*
X1880734Y1659313D02*
Y1664506D01*
X1880736Y1659313D02*
Y1664506D01*
X1880738Y1659313D02*
Y1664506D01*
X1880740Y1659313D02*
Y1664506D01*
X1880742Y1659313D02*
Y1664506D01*
X1880744Y1659313D02*
Y1664506D01*
X1880746Y1659313D02*
Y1664506D01*
X1880748Y1659314D02*
Y1664506D01*
X1880750Y1659315D02*
Y1664506D01*
X1880752Y1659317D02*
Y1664506D01*
X1880754Y1659318D02*
Y1664506D01*
X1880756Y1659320D02*
Y1664506D01*
X1880758Y1659322D02*
Y1664506D01*
X1880760Y1659323D02*
Y1664506D01*
X1880762Y1659325D02*
Y1664506D01*
X1880764Y1659327D02*
Y1664506D01*
X1880766Y1659328D02*
Y1664506D01*
X1880768Y1659330D02*
Y1664506D01*
X1880770Y1659331D02*
Y1664506D01*
X1880772Y1659333D02*
Y1664506D01*
X1880774Y1659335D02*
Y1664506D01*
X1880776Y1659336D02*
Y1664506D01*
X1880778Y1659338D02*
Y1664506D01*
X1880780Y1659340D02*
Y1664506D01*
X1880781Y1659341D02*
Y1664506D01*
X1880783Y1659343D02*
Y1664506D01*
X1880785Y1659345D02*
Y1664506D01*
X1880787Y1659346D02*
Y1664506D01*
X1880789Y1659348D02*
Y1664506D01*
X1880791Y1659349D02*
Y1664506D01*
X1880793Y1659351D02*
Y1664506D01*
X1880795Y1659353D02*
Y1664506D01*
X1880797Y1659354D02*
Y1664506D01*
X1880799Y1659356D02*
Y1664506D01*
X1880801Y1659358D02*
Y1664506D01*
X1880803Y1659359D02*
Y1664506D01*
X1880805Y1659361D02*
Y1664506D01*
X1880807Y1659362D02*
Y1664506D01*
X1880809Y1659364D02*
Y1664506D01*
X1880811Y1659366D02*
Y1664506D01*
X1880813Y1659367D02*
Y1664506D01*
X1880815Y1659369D02*
Y1664506D01*
X1880817Y1659371D02*
Y1664506D01*
X1880819Y1659372D02*
Y1664506D01*
X1880821Y1659374D02*
Y1664506D01*
X1880823Y1659375D02*
Y1664506D01*
X1880825Y1659377D02*
Y1664506D01*
X1880827Y1659379D02*
Y1664506D01*
X1880829Y1659380D02*
Y1664506D01*
X1880831Y1659382D02*
Y1664506D01*
X1880833Y1659384D02*
Y1664506D01*
X1880835Y1659385D02*
Y1664506D01*
X1880837Y1659387D02*
Y1664506D01*
X1880839Y1659389D02*
Y1664506D01*
X1880841Y1659390D02*
Y1664506D01*
X1880843Y1659392D02*
Y1664506D01*
X1880844Y1659393D02*
Y1664506D01*
X1880846Y1659395D02*
Y1664506D01*
X1880848Y1659397D02*
Y1664506D01*
X1880850Y1659398D02*
Y1664506D01*
X1880852Y1659400D02*
Y1664506D01*
X1880854Y1659402D02*
Y1664506D01*
X1880856Y1659403D02*
Y1664506D01*
X1880858Y1659405D02*
Y1664506D01*
X1880860Y1659406D02*
Y1664506D01*
X1880862Y1659408D02*
Y1664506D01*
X1880864Y1659410D02*
Y1664506D01*
X1880866Y1659411D02*
Y1664506D01*
X1880868Y1659413D02*
Y1664506D01*
X1880870Y1659415D02*
Y1664506D01*
X1880872Y1659416D02*
Y1664506D01*
X1880874Y1659418D02*
Y1664506D01*
X1880876Y1659419D02*
Y1664506D01*
X1880878Y1659421D02*
Y1664506D01*
X1880880Y1659423D02*
Y1664506D01*
X1880882Y1659424D02*
Y1664506D01*
X1880884Y1659426D02*
Y1664506D01*
X1880886Y1659428D02*
Y1664506D01*
X1880888Y1659429D02*
Y1664506D01*
X1880890Y1659431D02*
Y1664506D01*
X1880892Y1659433D02*
Y1664506D01*
X1880894Y1659434D02*
Y1664506D01*
X1880896Y1659436D02*
Y1664506D01*
X1880898Y1659437D02*
Y1664506D01*
X1880900Y1659439D02*
Y1664506D01*
X1880902Y1659441D02*
Y1664506D01*
X1880904Y1659442D02*
Y1664506D01*
X1880906Y1659444D02*
Y1664506D01*
X1880907Y1659446D02*
Y1664506D01*
X1880909Y1659447D02*
Y1664506D01*
X1880911Y1659449D02*
Y1664506D01*
X1880913Y1659450D02*
Y1664506D01*
X1880915Y1659452D02*
Y1664506D01*
X1880917Y1659454D02*
Y1664506D01*
X1880919Y1659455D02*
Y1664506D01*
X1880921Y1659457D02*
Y1664506D01*
X1880923Y1659459D02*
Y1664506D01*
X1880925Y1659460D02*
Y1664506D01*
X1880927Y1659462D02*
Y1664506D01*
X1880929Y1659463D02*
Y1664506D01*
X1880931Y1659465D02*
Y1664506D01*
X1880933Y1659467D02*
Y1664506D01*
X1880935Y1659468D02*
Y1664506D01*
X1880937Y1659470D02*
Y1664506D01*
X1880939Y1659472D02*
Y1664506D01*
X1880941Y1659473D02*
Y1664506D01*
X1880943Y1659475D02*
Y1664506D01*
X1880945Y1659476D02*
Y1664506D01*
X1880947Y1659478D02*
Y1664506D01*
X1880949Y1659480D02*
Y1664506D01*
X1880951Y1659481D02*
Y1664506D01*
X1880953Y1659483D02*
Y1664506D01*
X1880955Y1659485D02*
Y1664506D01*
X1880957Y1659486D02*
Y1664506D01*
X1880959Y1659488D02*
Y1664506D01*
X1880961Y1659490D02*
Y1664506D01*
X1880963Y1659491D02*
Y1664506D01*
X1880965Y1659493D02*
Y1664506D01*
X1880967Y1659494D02*
Y1664506D01*
X1880969Y1659496D02*
Y1664506D01*
X1880970Y1659498D02*
Y1664506D01*
X1880972Y1659499D02*
Y1664506D01*
X1880974Y1659501D02*
Y1664506D01*
X1880976Y1659503D02*
Y1664506D01*
X1880978Y1659504D02*
Y1664506D01*
X1880980Y1659506D02*
Y1664506D01*
X1880982Y1659507D02*
Y1664506D01*
X1880984Y1659509D02*
Y1664506D01*
X1880986Y1659511D02*
Y1664506D01*
X1880988Y1659512D02*
Y1664506D01*
X1880990Y1659514D02*
Y1664506D01*
X1880992Y1659516D02*
Y1664506D01*
X1880994Y1659517D02*
Y1664506D01*
X1880996Y1659519D02*
Y1664506D01*
X1880998Y1659520D02*
Y1664506D01*
X1881000Y1659522D02*
Y1664506D01*
X1881002Y1659524D02*
Y1664506D01*
X1881004Y1659525D02*
Y1664506D01*
X1881006Y1659527D02*
Y1664506D01*
X1881008Y1659529D02*
Y1664506D01*
X1881010Y1659530D02*
Y1664506D01*
X1881012Y1659532D02*
Y1664506D01*
X1881014Y1659534D02*
Y1664506D01*
X1881016Y1659535D02*
Y1664506D01*
X1881018Y1659537D02*
Y1664506D01*
X1881020Y1659538D02*
Y1664506D01*
X1881022Y1659540D02*
Y1664506D01*
X1881024Y1659542D02*
Y1664506D01*
X1881026Y1659543D02*
Y1664506D01*
X1881028Y1659545D02*
Y1664506D01*
X1881030Y1659547D02*
Y1664506D01*
X1881031Y1659548D02*
Y1664506D01*
X1881033Y1659550D02*
Y1664506D01*
X1881035Y1659551D02*
Y1664506D01*
X1881037Y1659553D02*
Y1664506D01*
X1881039Y1659555D02*
Y1664506D01*
X1881041Y1659556D02*
Y1664506D01*
X1881043Y1659558D02*
Y1664506D01*
X1881045Y1659560D02*
Y1664506D01*
X1881047Y1659561D02*
Y1664506D01*
X1881049Y1659563D02*
Y1664506D01*
X1881051Y1659564D02*
Y1664506D01*
X1881053Y1659566D02*
Y1664506D01*
X1881055Y1659568D02*
Y1664506D01*
X1881057Y1659569D02*
Y1664506D01*
X1881059Y1659571D02*
Y1664506D01*
X1881061Y1659573D02*
Y1664506D01*
X1881063Y1659574D02*
Y1664506D01*
X1881065Y1659576D02*
Y1664506D01*
X1881067Y1659577D02*
Y1664506D01*
X1881069Y1659579D02*
Y1664506D01*
X1881071Y1659581D02*
Y1664506D01*
X1881073Y1659582D02*
Y1664506D01*
X1881075Y1659584D02*
Y1664506D01*
X1881077Y1659586D02*
Y1664506D01*
X1881079Y1659587D02*
Y1664506D01*
X1881081Y1659589D02*
Y1664506D01*
X1881083Y1659591D02*
Y1664506D01*
X1881085Y1659592D02*
Y1664506D01*
X1881087Y1659594D02*
Y1664506D01*
X1881089Y1659595D02*
Y1664506D01*
X1881091Y1659597D02*
Y1664506D01*
X1881093Y1659599D02*
Y1664506D01*
X1881094Y1659600D02*
Y1664506D01*
X1881096Y1659602D02*
Y1664506D01*
X1881098Y1659604D02*
Y1664506D01*
X1881100Y1659605D02*
Y1664506D01*
X1881102Y1659607D02*
Y1664506D01*
X1881104Y1659608D02*
Y1664506D01*
X1881106Y1659610D02*
Y1664506D01*
X1881108Y1659612D02*
Y1664506D01*
X1881110Y1659613D02*
Y1664506D01*
X1881112Y1659615D02*
Y1664506D01*
X1881114Y1659617D02*
Y1664506D01*
X1881116Y1659618D02*
Y1664506D01*
X1881118Y1659620D02*
Y1664506D01*
X1881120Y1659621D02*
Y1664506D01*
X1881122Y1659623D02*
Y1664506D01*
X1881124Y1659625D02*
Y1664506D01*
X1881126Y1659626D02*
Y1664506D01*
X1881128Y1659628D02*
Y1664506D01*
X1881130Y1659630D02*
Y1664506D01*
X1881132Y1659631D02*
Y1664506D01*
X1881134Y1659633D02*
Y1664506D01*
X1881136Y1659635D02*
Y1664506D01*
X1881138Y1659636D02*
Y1664506D01*
X1881140Y1659638D02*
Y1664506D01*
X1881142Y1659639D02*
Y1664506D01*
X1881144Y1659641D02*
Y1664506D01*
X1881146Y1659643D02*
Y1664506D01*
X1881148Y1659644D02*
Y1664506D01*
X1881150Y1659646D02*
Y1664506D01*
X1881152Y1659648D02*
Y1664506D01*
X1881154Y1659649D02*
Y1664506D01*
X1881156Y1659651D02*
Y1664506D01*
X1881157Y1659652D02*
Y1664506D01*
X1881159Y1659654D02*
Y1664506D01*
X1881161Y1659656D02*
Y1664506D01*
X1881163Y1659657D02*
Y1664506D01*
X1881165Y1659659D02*
Y1664506D01*
X1881167Y1659661D02*
Y1664506D01*
X1881169Y1659662D02*
Y1664506D01*
X1881171Y1659664D02*
Y1664506D01*
X1881173Y1659665D02*
Y1664506D01*
X1881175Y1659667D02*
Y1664506D01*
X1881177Y1659669D02*
Y1664506D01*
X1881179Y1659670D02*
Y1664506D01*
X1881181Y1659672D02*
Y1664506D01*
X1881183Y1659674D02*
Y1664506D01*
X1881185Y1659675D02*
Y1664506D01*
X1881187Y1659677D02*
Y1664506D01*
X1881189Y1659678D02*
Y1664506D01*
X1881191Y1659680D02*
Y1664506D01*
X1881193Y1659682D02*
Y1664506D01*
X1881195Y1659683D02*
Y1664506D01*
X1881197Y1659685D02*
Y1664506D01*
X1881199Y1659687D02*
Y1664506D01*
X1881201Y1659688D02*
Y1664506D01*
X1881203Y1659690D02*
Y1664506D01*
X1881205Y1659692D02*
Y1664506D01*
X1881207Y1659693D02*
Y1664506D01*
X1881209Y1659695D02*
Y1664506D01*
X1881211Y1659696D02*
Y1664506D01*
X1881213Y1659698D02*
Y1664506D01*
X1881215Y1659700D02*
Y1664506D01*
X1881217Y1659701D02*
Y1664506D01*
X1881219Y1659703D02*
Y1664506D01*
X1881220Y1659705D02*
Y1664506D01*
X1881222Y1659706D02*
Y1664506D01*
X1881224Y1659708D02*
Y1664506D01*
X1881226Y1659709D02*
Y1664506D01*
X1881228Y1659711D02*
Y1664506D01*
X1881230Y1659713D02*
Y1664506D01*
X1881232Y1659714D02*
Y1664506D01*
X1881234Y1659716D02*
Y1664506D01*
X1881236Y1659718D02*
Y1664506D01*
X1881238Y1659719D02*
Y1664506D01*
X1881240Y1659721D02*
Y1664506D01*
X1881242Y1659722D02*
Y1664506D01*
X1881244Y1659724D02*
Y1664506D01*
X1881246Y1659726D02*
Y1664506D01*
X1881248Y1659727D02*
Y1664506D01*
X1881250Y1659729D02*
Y1664506D01*
X1881252Y1659731D02*
Y1664506D01*
X1881254Y1659732D02*
Y1664506D01*
X1881256Y1659734D02*
Y1664506D01*
X1881258Y1659736D02*
Y1664506D01*
X1881260Y1659737D02*
Y1664506D01*
X1881262Y1659739D02*
Y1664506D01*
X1881264Y1659740D02*
Y1664506D01*
X1881266Y1659742D02*
Y1664506D01*
X1881268Y1659744D02*
Y1664506D01*
X1881270Y1659745D02*
Y1664506D01*
X1881272Y1659747D02*
Y1664506D01*
X1881274Y1659749D02*
Y1664506D01*
X1881276Y1659750D02*
Y1664506D01*
X1881278Y1659752D02*
Y1664506D01*
X1881280Y1659753D02*
Y1664506D01*
X1881281Y1659755D02*
Y1664506D01*
X1881283Y1659757D02*
Y1664506D01*
X1881285Y1659758D02*
Y1664506D01*
X1881287Y1659760D02*
Y1664506D01*
X1881289Y1659762D02*
Y1664506D01*
X1881291Y1659763D02*
Y1664506D01*
X1881293Y1659765D02*
Y1664506D01*
X1881295Y1659766D02*
Y1664506D01*
X1881297Y1659768D02*
Y1664506D01*
X1881299Y1659770D02*
Y1664506D01*
X1881301Y1659771D02*
Y1664506D01*
X1881303Y1659773D02*
Y1664506D01*
X1881305Y1659775D02*
Y1664506D01*
X1881307Y1659776D02*
Y1664506D01*
X1881309Y1659778D02*
Y1664506D01*
X1881311Y1659780D02*
Y1664506D01*
X1881313Y1659781D02*
Y1664506D01*
X1881315Y1659783D02*
Y1664506D01*
X1881317Y1659784D02*
Y1664506D01*
X1881319Y1659786D02*
Y1664506D01*
X1881321Y1659788D02*
Y1664506D01*
X1881323Y1659789D02*
Y1664506D01*
X1881325Y1659791D02*
Y1664506D01*
X1881327Y1659793D02*
Y1664506D01*
X1881329Y1659794D02*
Y1664506D01*
X1881331Y1659796D02*
Y1664506D01*
X1881333Y1659797D02*
Y1664506D01*
X1881335Y1659799D02*
Y1664506D01*
X1881337Y1659801D02*
Y1664506D01*
X1881339Y1659802D02*
Y1664506D01*
X1881341Y1659804D02*
Y1664506D01*
X1881343Y1659806D02*
Y1664506D01*
X1881344Y1659807D02*
Y1664506D01*
X1881346Y1659809D02*
Y1664506D01*
X1881348Y1659810D02*
Y1664506D01*
X1881350Y1659812D02*
Y1664506D01*
X1881352Y1659814D02*
Y1664506D01*
X1881354Y1659815D02*
Y1664506D01*
X1881356Y1659817D02*
Y1664506D01*
X1881358Y1659819D02*
Y1664506D01*
X1881360Y1659820D02*
Y1664506D01*
X1881362Y1659822D02*
Y1664506D01*
X1881364Y1659823D02*
Y1664506D01*
X1881366Y1659825D02*
Y1664506D01*
X1881368Y1659827D02*
Y1664506D01*
X1881370Y1659828D02*
Y1664506D01*
X1881372Y1659830D02*
Y1664506D01*
X1881374Y1659832D02*
Y1664506D01*
X1881376Y1659833D02*
Y1664506D01*
X1881378Y1659835D02*
Y1664506D01*
X1881380Y1659837D02*
Y1664506D01*
X1881382Y1659838D02*
Y1664506D01*
X1881384Y1659840D02*
Y1664506D01*
X1881386Y1659841D02*
Y1664506D01*
X1881388Y1659843D02*
Y1664506D01*
X1881390Y1659845D02*
Y1664506D01*
X1881392Y1659846D02*
Y1664506D01*
X1881394Y1659848D02*
Y1664506D01*
X1881396Y1659850D02*
Y1664506D01*
X1881398Y1659851D02*
Y1664506D01*
X1881400Y1659853D02*
Y1664506D01*
X1881402Y1659854D02*
Y1664506D01*
X1881404Y1659856D02*
Y1664506D01*
X1881406Y1659858D02*
Y1664506D01*
X1881407Y1659859D02*
Y1664506D01*
X1881409Y1659861D02*
Y1664506D01*
X1881411Y1659863D02*
Y1664506D01*
X1881413Y1659864D02*
Y1664506D01*
X1881415Y1659866D02*
Y1664506D01*
X1881417Y1659867D02*
Y1664506D01*
X1881419Y1659869D02*
Y1664506D01*
X1881421Y1659871D02*
Y1664506D01*
X1881423Y1659872D02*
Y1664506D01*
X1881425Y1659874D02*
Y1664506D01*
X1881427Y1659876D02*
Y1664506D01*
X1881429Y1659877D02*
Y1664506D01*
X1881431Y1659879D02*
Y1664506D01*
X1881433Y1659881D02*
Y1664506D01*
X1881435Y1659882D02*
Y1664506D01*
X1881437Y1659884D02*
Y1664506D01*
X1881439Y1659885D02*
Y1664506D01*
X1881441Y1659887D02*
Y1664506D01*
X1881443Y1659889D02*
Y1664506D01*
X1881445Y1659890D02*
Y1664506D01*
X1881447Y1659892D02*
Y1664506D01*
X1881449Y1659894D02*
Y1664506D01*
X1881451Y1659895D02*
Y1664506D01*
X1881453Y1659897D02*
Y1664506D01*
X1881455Y1659898D02*
Y1664506D01*
X1881457Y1659900D02*
Y1664506D01*
X1881459Y1659902D02*
Y1664506D01*
X1881461Y1659903D02*
Y1664506D01*
X1881463Y1659905D02*
Y1664506D01*
X1881465Y1659907D02*
Y1664506D01*
X1881467Y1659908D02*
Y1664506D01*
X1881469Y1659910D02*
Y1664506D01*
X1881470Y1659911D02*
Y1664506D01*
X1881472Y1659913D02*
Y1664506D01*
X1881474Y1659915D02*
Y1664506D01*
X1881476Y1659916D02*
Y1664506D01*
X1881478Y1659918D02*
Y1664506D01*
X1881480Y1659920D02*
Y1664506D01*
X1881482Y1659921D02*
Y1664506D01*
X1881484Y1659923D02*
Y1664506D01*
X1881486Y1659924D02*
Y1664506D01*
X1881488Y1659926D02*
Y1664506D01*
X1881490Y1659928D02*
Y1664506D01*
X1881492Y1659929D02*
Y1664506D01*
X1881494Y1659931D02*
Y1664506D01*
X1881496Y1659933D02*
Y1664506D01*
X1881498Y1659934D02*
Y1664506D01*
X1881500Y1659936D02*
Y1664506D01*
X1881502Y1659938D02*
Y1664506D01*
X1881504Y1659939D02*
Y1664506D01*
X1881506Y1659941D02*
Y1664506D01*
X1881508Y1659942D02*
Y1664506D01*
X1881510Y1659944D02*
Y1664506D01*
X1881512Y1659946D02*
Y1664506D01*
X1881514Y1659947D02*
Y1664506D01*
X1881516Y1659949D02*
Y1664506D01*
X1881518Y1659951D02*
Y1664506D01*
X1881520Y1659952D02*
Y1664506D01*
X1881522Y1659954D02*
Y1664506D01*
X1881524Y1659955D02*
Y1664506D01*
X1881526Y1659957D02*
Y1664506D01*
X1881528Y1659959D02*
Y1664506D01*
X1881530Y1659960D02*
Y1664506D01*
X1881531Y1659962D02*
Y1664506D01*
X1881533Y1659964D02*
Y1664506D01*
X1881535Y1659965D02*
Y1664506D01*
X1881537Y1659967D02*
Y1664506D01*
X1881539Y1659968D02*
Y1664506D01*
X1881541Y1659970D02*
Y1664506D01*
X1881543Y1659972D02*
Y1664506D01*
X1881545Y1659973D02*
Y1664506D01*
X1881547Y1659975D02*
Y1664506D01*
X1881549Y1659977D02*
Y1664506D01*
X1881551Y1659978D02*
Y1664506D01*
X1881553Y1659980D02*
Y1664506D01*
X1881555Y1659982D02*
Y1664506D01*
X1881557Y1659983D02*
Y1664506D01*
X1881559Y1659985D02*
Y1664506D01*
X1881561Y1659986D02*
Y1664506D01*
X1881563Y1659988D02*
Y1664506D01*
X1881565Y1659990D02*
Y1664506D01*
X1881567Y1659991D02*
Y1664506D01*
X1881569Y1659993D02*
Y1664506D01*
X1881571Y1659995D02*
Y1664506D01*
X1881573Y1659996D02*
Y1664506D01*
X1881575Y1659998D02*
Y1664506D01*
X1881577Y1659999D02*
Y1664506D01*
X1881579Y1660001D02*
Y1664506D01*
X1881581Y1660003D02*
Y1664506D01*
X1881583Y1660004D02*
Y1664506D01*
X1881585Y1660006D02*
Y1664506D01*
X1881587Y1660008D02*
Y1664506D01*
X1881589Y1660009D02*
Y1664506D01*
X1881591Y1660011D02*
Y1664506D01*
X1881593Y1660012D02*
Y1664506D01*
X1881594Y1660014D02*
Y1664506D01*
X1881596Y1660016D02*
Y1664506D01*
X1881598Y1660017D02*
Y1664506D01*
X1881600Y1660019D02*
Y1664506D01*
X1881602Y1660021D02*
Y1664506D01*
X1881604Y1660022D02*
Y1664506D01*
X1881606Y1660024D02*
Y1664506D01*
X1881608Y1660025D02*
Y1664506D01*
X1881610Y1660027D02*
Y1664506D01*
X1881612Y1660029D02*
Y1664506D01*
X1881614Y1660030D02*
Y1664506D01*
X1881616Y1660032D02*
Y1664506D01*
X1881618Y1660034D02*
Y1664506D01*
X1881620Y1660035D02*
Y1664506D01*
X1881622Y1660037D02*
Y1664506D01*
X1881624Y1660039D02*
Y1664506D01*
X1881626Y1660040D02*
Y1664506D01*
X1881628Y1660042D02*
Y1664506D01*
X1881630Y1660043D02*
Y1664506D01*
X1881632Y1660045D02*
Y1664506D01*
X1881634Y1660047D02*
Y1664506D01*
X1881636Y1660048D02*
Y1664506D01*
X1881638Y1660050D02*
Y1664506D01*
X1881640Y1660052D02*
Y1664506D01*
X1881642Y1660053D02*
Y1664506D01*
X1881644Y1660055D02*
Y1664506D01*
X1881646Y1660056D02*
Y1664506D01*
X1881648Y1660058D02*
Y1664506D01*
X1881650Y1660060D02*
Y1664506D01*
X1881652Y1660061D02*
Y1664506D01*
X1881654Y1660063D02*
Y1664506D01*
X1881656Y1660065D02*
Y1664506D01*
X1881657Y1660066D02*
Y1664506D01*
X1881659Y1660068D02*
Y1664506D01*
X1881661Y1660069D02*
Y1664506D01*
X1881663Y1660071D02*
Y1664506D01*
X1881665Y1660073D02*
Y1664506D01*
X1881667Y1660074D02*
Y1664506D01*
X1881669Y1660076D02*
Y1664506D01*
X1881671Y1660078D02*
Y1664506D01*
X1881673Y1660079D02*
Y1664506D01*
X1881675Y1660081D02*
Y1664506D01*
X1881677Y1660083D02*
Y1664506D01*
X1881679Y1660084D02*
Y1664506D01*
X1881681Y1660086D02*
Y1664506D01*
X1881683Y1660087D02*
Y1664506D01*
X1881685Y1660089D02*
Y1664506D01*
X1881687Y1660091D02*
Y1664506D01*
X1881689Y1660092D02*
Y1664506D01*
X1881691Y1660094D02*
Y1664506D01*
X1881693Y1660096D02*
Y1664506D01*
X1881695Y1660097D02*
Y1664506D01*
X1881697Y1660099D02*
Y1664506D01*
X1881699Y1660100D02*
Y1664506D01*
X1881701Y1660102D02*
Y1664506D01*
X1881703Y1660104D02*
Y1664506D01*
X1881705Y1660105D02*
Y1664506D01*
X1881707Y1660107D02*
Y1664506D01*
X1881709Y1660109D02*
Y1664506D01*
X1881711Y1660110D02*
Y1664506D01*
X1881713Y1660112D02*
Y1664506D01*
X1881715Y1660113D02*
Y1664506D01*
X1881717Y1660115D02*
Y1664506D01*
X1881719Y1660117D02*
Y1664506D01*
X1881720Y1660118D02*
Y1664506D01*
X1881722Y1660120D02*
Y1664506D01*
X1881724Y1660122D02*
Y1664506D01*
X1881726Y1660123D02*
Y1664506D01*
X1881728Y1660125D02*
Y1664506D01*
X1881730Y1660127D02*
Y1664506D01*
X1881732Y1660128D02*
Y1664506D01*
X1881734Y1660130D02*
Y1664506D01*
X1881736Y1660131D02*
Y1664506D01*
X1881738Y1660133D02*
Y1664506D01*
X1881740Y1660135D02*
Y1664506D01*
X1881742Y1660136D02*
Y1664506D01*
X1881744Y1660138D02*
Y1664506D01*
X1881746Y1660140D02*
Y1664506D01*
X1881748Y1660141D02*
Y1664506D01*
X1881750Y1660143D02*
Y1664506D01*
X1881752Y1660144D02*
Y1664506D01*
X1881754Y1660146D02*
Y1664506D01*
X1881756Y1660148D02*
Y1664506D01*
X1881758Y1660149D02*
Y1664506D01*
X1881760Y1660151D02*
Y1664506D01*
X1881762Y1660153D02*
Y1664506D01*
X1881764Y1660154D02*
Y1664506D01*
X1881766Y1660156D02*
Y1664506D01*
X1881768Y1660157D02*
Y1664506D01*
X1881770Y1660159D02*
Y1664506D01*
X1881772Y1660161D02*
Y1664506D01*
X1881774Y1660162D02*
Y1664506D01*
X1881776Y1660164D02*
Y1664506D01*
X1881778Y1660166D02*
Y1664506D01*
X1881780Y1660167D02*
Y1664506D01*
X1881781Y1660169D02*
Y1664506D01*
X1881783Y1660170D02*
Y1664506D01*
X1881785Y1660172D02*
Y1664506D01*
X1881787Y1660174D02*
Y1664506D01*
X1881789Y1660175D02*
Y1664506D01*
X1881791Y1660177D02*
Y1664506D01*
X1881793Y1660179D02*
Y1664506D01*
X1881795Y1660180D02*
Y1664506D01*
X1881797Y1660182D02*
Y1664506D01*
X1881799Y1660184D02*
Y1664506D01*
X1881801Y1660185D02*
Y1664506D01*
X1881803Y1660187D02*
Y1664506D01*
X1881805Y1660188D02*
Y1664506D01*
X1881807Y1660190D02*
Y1664506D01*
X1881809Y1660192D02*
Y1664506D01*
X1881811Y1660193D02*
Y1664506D01*
X1881813Y1660195D02*
Y1664506D01*
X1881815Y1660197D02*
Y1664506D01*
X1881817Y1660198D02*
Y1664506D01*
X1881819Y1660200D02*
Y1664506D01*
X1881821Y1660201D02*
Y1664506D01*
X1881823Y1660203D02*
Y1664506D01*
X1881825Y1660205D02*
Y1664506D01*
X1881827Y1660206D02*
Y1664506D01*
X1881829Y1660208D02*
Y1664506D01*
X1881831Y1660210D02*
Y1664506D01*
X1881833Y1660211D02*
Y1664506D01*
X1881835Y1660213D02*
Y1664506D01*
X1881837Y1660214D02*
Y1664506D01*
X1881839Y1660216D02*
Y1664506D01*
X1881841Y1660218D02*
Y1664506D01*
X1881843Y1660219D02*
Y1664506D01*
X1881844Y1660221D02*
Y1664506D01*
X1881846Y1660223D02*
Y1664506D01*
X1881848Y1660224D02*
Y1664506D01*
X1881850Y1660226D02*
Y1664506D01*
X1881852Y1660228D02*
Y1664506D01*
X1881854Y1660229D02*
Y1664506D01*
X1881856Y1660231D02*
Y1664506D01*
X1881858Y1660232D02*
Y1664506D01*
X1881860Y1660234D02*
Y1664506D01*
X1881862Y1660236D02*
Y1664506D01*
X1881864Y1660237D02*
Y1664506D01*
X1881866Y1660239D02*
Y1664506D01*
X1881868Y1660241D02*
Y1664506D01*
X1881870Y1660242D02*
Y1664506D01*
X1881872Y1660244D02*
Y1664506D01*
X1881874Y1660245D02*
Y1664506D01*
X1881876Y1660247D02*
Y1664506D01*
X1881878Y1660249D02*
Y1664506D01*
X1881880Y1660250D02*
Y1664506D01*
X1881882Y1660252D02*
Y1664506D01*
X1881884Y1660254D02*
Y1664506D01*
X1881886Y1660255D02*
Y1664506D01*
G54D203*
X1878898Y1661909D03*
G54D217*
X2064921Y1709586D03*
Y1715886D03*
X1859921Y1608287D03*
X1866221D03*
X1859921Y1601083D03*
X1866221D03*
X1859921Y1594035D03*
X1866221D03*
G54D240*
X1916811Y1544213D03*
X1997953Y1624016D03*
G54D254*
X2041496Y1675728D03*
X2039528D03*
X2037559D03*
X2035591D03*
X2033622D03*
X2031654D03*
X2029685D03*
X2027717D03*
X2025748D03*
X2023780D03*
X2021811D03*
X2019843D03*
G54D255*
X2049173Y1682618D03*
X2012165D03*
G54D257*
X2069173Y1631083D03*
X2065236D03*
Y1636594D03*
X2069173D03*
X2071929Y1702303D03*
X2075866D03*
X1935236Y1558366D03*
X1931299D03*
X1929252Y1536358D03*
X1925315D03*
X1877087Y1608287D03*
X1873150D03*
X1975630Y1609232D03*
X1971693D03*
Y1615059D03*
X1975630D03*
X1901378Y1581909D03*
X1905315D03*
Y1587224D03*
X1901378D03*
X1920512Y1536358D03*
X1916575D03*
X2009173Y1546280D03*
X2013110D03*
X2018583D03*
X2022520D03*
X1883622Y1668996D03*
X1887559D03*
X1903386Y1533760D03*
X1907323D03*
X1931220Y1553248D03*
X1935157D03*
X1877087Y1601083D03*
X1873150D03*
X1882835Y1648130D03*
X1878898D03*
X1876929Y1594035D03*
X1872992D03*
X2066063Y1579035D03*
X2070000D03*
X2066063Y1573484D03*
X2070000D03*
X1969882Y1671555D03*
X1965945D03*
X1878701Y1636909D03*
X1882638D03*
X1878740Y1642067D03*
X1882677D03*
X2076142Y1543524D03*
X2080079D03*
X1965433Y1513209D03*
X1969370D03*
X1991378Y1506043D03*
X1987441D03*
X2091339Y1561240D03*
X2095276D03*
G54D258*
X2064291Y1620650D03*
Y1624587D03*
X2064921Y1699075D03*
Y1703012D03*
X1884449Y1535335D03*
Y1531398D03*
X1928543Y1620886D03*
Y1624823D03*
X2044567Y1657382D03*
Y1661319D03*
X2037008Y1656831D03*
Y1660768D03*
X2032126Y1656713D03*
Y1660650D03*
X2121811Y1512028D03*
Y1515965D03*
X1928504Y1600689D03*
Y1596752D03*
X1901378Y1600453D03*
Y1596516D03*
X1931102Y1548130D03*
Y1544193D03*
X1872402Y1579783D03*
Y1575846D03*
X1894646Y1660098D03*
Y1656161D03*
X1881260Y1550571D03*
Y1554508D03*
X1893110Y1636516D03*
Y1640453D03*
X1927913Y1695492D03*
Y1699429D03*
X1939449Y1619350D03*
Y1623287D03*
X1919685Y1699429D03*
Y1695492D03*
X1948031Y1623287D03*
Y1619350D03*
X2085906Y1512028D03*
Y1515965D03*
X2049409Y1512028D03*
Y1515965D03*
X1969331Y1508169D03*
Y1504232D03*
X1961063Y1578327D03*
Y1582264D03*
X2020197Y1567618D03*
Y1571555D03*
X1971220Y1593327D03*
Y1597264D03*
X2000709Y1520020D03*
Y1516083D03*
X1957953Y1519941D03*
Y1516004D03*
X1958543Y1624980D03*
Y1628917D03*
G54D281*
X1974921Y1520020D03*
X1965472D03*
G54D282*
X1898583Y1515689D03*
Y1525138D03*
X2105551Y1561398D03*
Y1551949D03*
G54D293*
X1849213Y1721673D02*
X2150787D01*
Y1478327*
X1849213*
Y1721673*
G54D336*
X2091102Y1689862D03*
Y1683957D03*
Y1678051D03*
X2091220Y1672146D03*
X2091102Y1666240D03*
Y1660335D03*
Y1654429D03*
Y1648524D03*
Y1642618D03*
Y1636713D03*
Y1630807D03*
Y1624902D03*
X2143071D03*
Y1630807D03*
Y1636713D03*
Y1642618D03*
Y1648524D03*
Y1654429D03*
Y1660335D03*
Y1666240D03*
Y1672146D03*
Y1678051D03*
Y1683957D03*
Y1689862D03*
G54D337*
X2091102Y1618996D03*
X2143071D03*
G54D338*
X2096417Y1612106D03*
X2137756D03*
G54D339*
X2102323D03*
X2108228D03*
X2114134D03*
X2120039D03*
X2125945D03*
X2131850D03*
G54D340*
X1978268Y1493209D03*
X1990079D03*
X1995984D03*
G54D341*
X1972756Y1490256D03*
X2001496Y1489311D03*
X1972756Y1481201D03*
X2001496D03*
G54D342*
X1878898Y1655217D03*
X1887559Y1661909D03*
Y1655217D03*
G54D343*
X1981547Y1519980D03*
Y1516240D03*
Y1512500D03*
X1992783D03*
Y1516240D03*
Y1519980D03*
G54D344*
X1985236Y1597303D03*
G54D345*
Y1592303D03*
Y1587303D03*
Y1582303D03*
Y1577303D03*
Y1572303D03*
Y1567303D03*
X2009646D03*
Y1572303D03*
Y1577303D03*
Y1582303D03*
Y1587303D03*
Y1592303D03*
Y1597303D03*
G54D346*
X2113937Y1487657D03*
X2135787Y1499469D03*
X2135591Y1487657D03*
X2113937Y1499469D03*
X2077835Y1487657D03*
X2099685Y1499469D03*
X2099488Y1487657D03*
X2077835Y1499469D03*
X2041063Y1487343D03*
X2062913Y1499154D03*
X2062717Y1487343D03*
X2041063Y1499154D03*
G54D347*
X1868189Y1535335D03*
Y1537894D03*
Y1540453D03*
Y1543012D03*
Y1545571D03*
G54D348*
X1856319Y1524311D03*
Y1556594D03*
X0Y0D02*
M02*
