*
*
G04 PADS 9.5 Build Number: 522968 generated Gerber (RS-274-X) file*
G04 PC Version=2.1*
*
%IN "SCAN_V2.01.pcb"*%
*
%MOIN*%
*
%FSLAX35Y35*%
*
*
*
*
G04 PC Standard Apertures*
*
*
G04 Thermal Relief Aperture macro.*
%AMTER*
1,1,$1,0,0*
1,0,$1-$2,0,0*
21,0,$3,$4,0,0,45*
21,0,$3,$4,0,0,135*
%
*
*
G04 Annular Aperture macro.*
%AMANN*
1,1,$1,0,0*
1,0,$2,0,0*
%
*
*
G04 Odd Aperture macro.*
%AMODD*
1,1,$1,0,0*
1,0,$1-0.005,0,0*
%
*
*
G04 PC Custom Aperture Macros*
*
*
*
*
*
*
G04 PC Aperture Table*
*
%ADD010C,0.006*%
%ADD011C,0.005*%
%ADD012C,0.008*%
%ADD013C,0.001*%
%ADD023C,0.01*%
%ADD027C,0.007*%
%ADD036C,0.00591*%
%ADD038C,0.00591*%
%ADD086C,0.00394*%
%ADD293C,0.02756*%
%ADD321C,0.00197*%
*
*
*
*
G04 PC Circuitry*
G04 Layer Name SCAN_V2.01.pcb - circuitry*
%LPD*%
*
G54D13*
G01X1861648Y1514349D02*
X1861591Y1514691D01*
X1861421Y1514974*
X1861075Y1515205*
X1860720Y1515323*
X1860714Y1515415*
X1861071Y1515594*
X1861300Y1515765*
X1861470Y1516049*
X1861528Y1516453*
X1861471Y1516851*
X1861187Y1517135*
X1860780Y1517367*
X1860255Y1517425*
X1859728Y1517367*
X1859282Y1517144*
Y1516599*
X1859629Y1516797*
X1859646Y1516803*
X1860067Y1516863*
X1860084*
X1860385Y1516803*
X1860391Y1516801*
X1860571Y1516741*
X1860597Y1516721*
X1860718Y1516541*
X1860724Y1516525*
X1860785Y1516285*
Y1516263*
X1860725Y1515962*
X1860711Y1515937*
X1860531Y1515756*
X1860508Y1515743*
X1860267Y1515683*
X1860262Y1515682*
X1859841Y1515622*
X1859834Y1515621*
X1859523*
Y1515059*
X1859834*
X1859840*
X1860321Y1514999*
X1860334Y1514996*
X1860634Y1514875*
X1860651Y1514864*
X1860832Y1514684*
X1860845Y1514658*
X1860905Y1514358*
Y1514338*
X1860845Y1514037*
X1860832Y1514012*
X1860651Y1513831*
X1860638Y1513822*
X1860398Y1513702*
X1860383Y1513697*
X1860023Y1513637*
X1860008*
X1859527Y1513697*
X1859511Y1513702*
X1859102Y1513906*
Y1513300*
X1859545Y1513134*
X1860075Y1513075*
X1860721Y1513133*
X1861243Y1513424*
X1861532Y1513827*
X1861648Y1514349*
X1858040Y1517365D02*
X1857297D01*
Y1514769*
Y1514762*
X1857237Y1514341*
X1857235Y1514332*
X1857114Y1513971*
X1857102Y1513952*
X1856922Y1513771*
X1856896Y1513757*
X1856596Y1513697*
X1856576*
X1856275Y1513757*
X1856263Y1513762*
X1856094Y1513846*
Y1513179*
X1856355Y1513074*
X1856581*
X1857229Y1513192*
X1857689Y1513480*
X1857921Y1514001*
X1858040Y1514773*
Y1517365*
X1856100Y1513176D02*
Y1513843D01*
X1856200Y1513136D02*
Y1513793D01*
X1856300Y1513096D02*
Y1513752D01*
X1856400Y1513074D02*
Y1513732D01*
X1856500Y1513074D02*
Y1513712D01*
X1856600Y1513078D02*
Y1513698D01*
X1856700Y1513096D02*
Y1513718D01*
X1856800Y1513114D02*
Y1513738D01*
X1856900Y1513132D02*
Y1513758D01*
X1857000Y1513151D02*
Y1513849D01*
X1857100Y1513169D02*
Y1513949D01*
X1857200Y1513187D02*
Y1514228D01*
X1857300Y1513237D02*
Y1517365D01*
X1857400Y1513299D02*
Y1517365D01*
X1857500Y1513362D02*
Y1517365D01*
X1857600Y1513424D02*
Y1517365D01*
X1857700Y1513504D02*
Y1517365D01*
X1857800Y1513729D02*
Y1517365D01*
X1857900Y1513954D02*
Y1517365D01*
X1858000Y1514516D02*
Y1517365D01*
X1859200Y1513263D02*
Y1513857D01*
X1859300Y1513225D02*
Y1513807D01*
Y1516609D02*
Y1517153D01*
X1859400Y1513188D02*
Y1513757D01*
Y1516667D02*
Y1517203D01*
X1859500Y1513150D02*
Y1513707D01*
Y1516724D02*
Y1517253D01*
X1859600Y1513128D02*
Y1513688D01*
Y1515059D02*
Y1515621D01*
Y1516781D02*
Y1517303D01*
X1859700Y1513116D02*
Y1513675D01*
Y1515059D02*
Y1515621D01*
Y1516811D02*
Y1517353D01*
X1859800Y1513105D02*
Y1513663D01*
Y1515059D02*
Y1515621D01*
Y1516825D02*
Y1517375D01*
X1859900Y1513094D02*
Y1513650D01*
Y1515052D02*
Y1515630D01*
Y1516840D02*
Y1517386D01*
X1860000Y1513083D02*
Y1513638D01*
Y1515039D02*
Y1515644D01*
Y1516854D02*
Y1517397D01*
X1860100Y1513077D02*
Y1513650D01*
Y1515027D02*
Y1515659D01*
Y1516860D02*
Y1517408D01*
X1860200Y1513086D02*
Y1513666D01*
Y1515014D02*
Y1515673D01*
Y1516840D02*
Y1517419D01*
X1860300Y1513095D02*
Y1513683D01*
Y1515002D02*
Y1515691D01*
Y1516820D02*
Y1517420D01*
X1860400Y1513104D02*
Y1513703D01*
Y1514969D02*
Y1515716D01*
Y1516798D02*
Y1517409D01*
X1860500Y1513113D02*
Y1513753D01*
Y1514929D02*
Y1515741D01*
Y1516765D02*
Y1517398D01*
X1860600Y1513122D02*
Y1513803D01*
Y1514889D02*
Y1515825D01*
Y1516717D02*
Y1517387D01*
X1860700Y1513132D02*
Y1513880D01*
Y1514816D02*
Y1515336D01*
Y1515405D02*
Y1515925D01*
Y1516567D02*
Y1517376D01*
X1860800Y1513177D02*
Y1513980D01*
Y1514716D02*
Y1515296D01*
Y1515458D02*
Y1517356D01*
X1860900Y1513233D02*
Y1514311D01*
Y1514385D02*
Y1515263D01*
Y1515508D02*
Y1517299D01*
X1861000Y1513288D02*
Y1515230D01*
Y1515558D02*
Y1517241D01*
X1861100Y1513344D02*
Y1515188D01*
Y1515616D02*
Y1517184D01*
X1861200Y1513400D02*
Y1515121D01*
Y1515691D02*
Y1517121D01*
X1861300Y1513503D02*
Y1515055D01*
Y1515766D02*
Y1517021D01*
X1861400Y1513643D02*
Y1514988D01*
Y1515932D02*
Y1516921D01*
X1861500Y1513783D02*
Y1514842D01*
Y1516259D02*
Y1516647D01*
X1861600Y1514135D02*
Y1514635D01*
*
G04 PC Custom Flashes*
G04 Layer Name SCAN_V2.01.pcb - flashes*
%LPD*%
*
*
G04 PC Circuitry*
G04 Layer Name SCAN_V2.01.pcb - circuitry*
%LPD*%
*
G54D10*
X2063205Y1635636D02*
X2071205D01*
Y1631636*
X2063205*
Y1635636*
X2062291Y1621971D02*
Y1628371D01*
X2066291D02*
G75*
G03X2062291I-2000J-1751D01*
G01X2066291D02*
Y1621971D01*
X2062293Y1621970D02*
G03X2066293Y1621973I1998J1768D01*
G01X2064005Y1641148D02*
X2070405D01*
Y1637148D02*
G03Y1641148I-1751J2000D01*
G01Y1637148D02*
X2064005D01*
X2064003Y1641146D02*
G03X2064006Y1637146I1768J-1998D01*
G01X2077898Y1702856D02*
X2069898D01*
Y1706856*
X2077898*
Y1702856*
X2066921Y1707596D02*
Y1699596D01*
X2062921*
Y1707596*
X2066921*
X1911811Y1544766D02*
Y1563766D01*
X1896299*
Y1544766*
X1900311*
Y1544843*
X1904961D02*
G03X1900311I-2325J-0D01*
G01X1904961D02*
Y1544817D01*
X1911811Y1544766*
X1910611Y1547016D02*
G03X1910611I-800J0D01*
G01X1909704Y1541884D02*
X1912204Y1541084D01*
Y1542684*
X1909804Y1541884*
X1886449Y1539119D02*
Y1532719D01*
X1882449D02*
G03X1886449I2000J1751D01*
G01X1882449D02*
Y1539119D01*
X1886447Y1539121D02*
G03X1882447Y1539118I-1998J-1768D01*
G01X1926543Y1622207D02*
Y1628607D01*
X1930543D02*
G03X1926543I-2000J-1750D01*
G01X1930543D02*
Y1622207D01*
X1926545Y1622206D02*
G03X1930545Y1622209I1998J1768D01*
G01X2053307Y1681037D02*
X2008031D01*
Y1689699*
X2053307*
Y1681037*
X2042567Y1658704D02*
Y1665104D01*
X2046567D02*
G03X2042567I-2000J-1751D01*
G01X2046567D02*
Y1658704D01*
X2042568Y1658702D02*
G03X2046568Y1658705I1999J1768D01*
G01X2039008Y1665352D02*
Y1657352D01*
X2035008*
Y1665352*
X2039008*
X1929268Y1562919D02*
X1937268D01*
Y1558919*
X1929268*
Y1562919*
X2034126Y1665234D02*
Y1657234D01*
X2030126*
Y1665234*
X2034126*
X1923283Y1540911D02*
X1931283D01*
Y1536911*
X1923283*
Y1540911*
X2123811Y1520549D02*
Y1512549D01*
X2119811*
Y1520549*
X2123811*
X1871118Y1612841D02*
X1879118D01*
Y1608841*
X1871118*
Y1612841*
X1992953Y1624569D02*
Y1643569D01*
X1972953*
Y1624569*
X1981453*
Y1624646*
X1984453D02*
G03X1981453I-1500J-0D01*
G01X1984453D02*
Y1624569D01*
X1992953*
X1991753Y1626819D02*
G03X1991753I-800J0D01*
G01X1990373Y1621844D02*
X1992873Y1621044D01*
Y1622644*
X1990473Y1621844*
X1969661Y1613785D02*
X1977661D01*
Y1609785*
X1969661*
Y1613785*
X1977661Y1615612D02*
X1969661D01*
Y1619612*
X1977661*
Y1615612*
X1907346Y1582463D02*
X1899346D01*
Y1586463*
X1907346*
Y1582463*
X1926504Y1597274D02*
Y1605274D01*
X1930504*
Y1597274*
X1926504*
X1899378Y1597037D02*
Y1605037D01*
X1903378*
Y1597037*
X1899378*
X1899346Y1591778D02*
X1907346D01*
Y1587778*
X1899346*
Y1591778*
X1914543Y1540911D02*
X1922543D01*
Y1536911*
X1914543*
Y1540911*
X2015142Y1546833D02*
X2007142D01*
Y1550833*
X2015142*
Y1546833*
X2024551D02*
X2016551D01*
Y1550833*
X2024551*
Y1546833*
X1929102Y1544715D02*
Y1552715D01*
X1933102*
Y1544715*
X1929102*
X1882391Y1673549D02*
X1888791D01*
Y1669549D02*
G03Y1673549I-1751J2000D01*
G01Y1669549D02*
X1882391D01*
X1882389Y1673548D02*
G03X1882392Y1669548I1768J-1999D01*
G01X1870402Y1576368D02*
Y1584368D01*
X1874402*
Y1576368*
X1870402*
X1892646Y1656683D02*
Y1664683D01*
X1896646*
Y1656683*
X1892646*
X1909354Y1534313D02*
X1901354D01*
Y1538313*
X1909354*
Y1534313*
X1929989Y1557801D02*
X1936389D01*
Y1553801D02*
G03Y1557801I-1751J2000D01*
G01Y1553801D02*
X1929989D01*
X1929987Y1557800D02*
G03X1929991Y1553800I1768J-1999D01*
G01X1879260Y1551893D02*
Y1558293D01*
X1883260D02*
G03X1879260I-2000J-1751D01*
G01X1883260D02*
Y1551893D01*
X1879261Y1551891D02*
G03X1883261Y1551894I1999J1768D01*
G01X1871118Y1605636D02*
X1879118D01*
Y1601636*
X1871118*
Y1605636*
X1884066Y1648683D02*
X1877666D01*
Y1652683D02*
G03Y1648683I1751J-2000D01*
G01Y1652683D02*
X1884066D01*
X1884068Y1648685D02*
G03X1884064Y1652685I-1768J1998D01*
G01X1870961Y1598589D02*
X1878961D01*
Y1594589*
X1870961*
Y1598589*
X2072031Y1579589D02*
X2064031D01*
Y1583589*
X2072031*
Y1579589*
Y1574037D02*
X2064031D01*
Y1578037*
X2072031*
Y1574037*
X1891110Y1637837D02*
Y1644237D01*
X1895110D02*
G03X1891110I-2000J-1750D01*
G01X1895110D02*
Y1637837D01*
X1891112Y1637836D02*
G03X1895112Y1637839I1998J1768D01*
G01X1929913Y1704014D02*
Y1696014D01*
X1925913*
Y1704014*
X1929913*
X1937449Y1620672D02*
Y1627072D01*
X1941449D02*
G03X1937449I-2000J-1751D01*
G01X1941449D02*
Y1620672D01*
X1937450Y1620670D02*
G03X1941450Y1620674I1999J1768D01*
G01X1921685Y1703214D02*
Y1696814D01*
X1917685D02*
G03X1921685I2000J1751D01*
G01X1917685D02*
Y1703214D01*
X1921683Y1703216D02*
G03X1917684Y1703212I-1998J-1769D01*
G01X1946031Y1619872D02*
Y1627872D01*
X1950031*
Y1619872*
X1946031*
X1971113Y1672108D02*
X1964713D01*
Y1676108D02*
G03Y1672108I1751J-2000D01*
G01Y1676108D02*
X1971113D01*
X1971115Y1672110D02*
G03X1971112Y1676110I-1768J1998D01*
G01X1884669Y1637463D02*
X1876669D01*
Y1641463*
X1884669*
Y1637463*
X1877509Y1646620D02*
X1883909D01*
Y1642620D02*
G03Y1646620I-1751J2000D01*
G01Y1642620D02*
X1877509D01*
X1877507Y1646619D02*
G03X1877510Y1642619I1768J-1999D01*
G01X2082110Y1544077D02*
X2074110D01*
Y1548077*
X2082110*
Y1544077*
X2087906Y1520549D02*
Y1512549D01*
X2083906*
Y1520549*
X2087906*
X2051409D02*
Y1512549D01*
X2047409*
Y1520549*
X2051409*
X1967331Y1504754D02*
Y1512754D01*
X1971331*
Y1504754*
X1967331*
X1989165Y1524793D02*
X1987165Y1522793D01*
X1985165Y1524793*
X1959063Y1579648D02*
Y1586048D01*
X1963063D02*
G03X1959063I-2000J-1750D01*
G01X1963063D02*
Y1579648D01*
X1959065Y1579647D02*
G03X1963065Y1579650I1998J1768D01*
G01X2022197Y1576140D02*
Y1568140D01*
X2018197*
Y1576140*
X2022197*
X1973220Y1601848D02*
Y1593848D01*
X1969220*
Y1601848*
X1973220*
X2002709Y1523804D02*
Y1517404D01*
X1998709D02*
G03X2002709I2000J1751D01*
G01X1998709D02*
Y1523804D01*
X2002707Y1523806D02*
G03X1998707Y1523803I-1998J-1768D01*
G01X1994488Y1530211D02*
Y1547140D01*
X1977559*
Y1530211*
X1994488*
X1971402Y1513762D02*
X1963402D01*
Y1517762*
X1971402*
Y1513762*
X1985409Y1510596D02*
X1993409D01*
Y1506596*
X1985409*
Y1510596*
X1959953Y1523726D02*
Y1517326D01*
X1955953D02*
G03X1959953I2000J1750D01*
G01X1955953D02*
Y1523726D01*
X1959951Y1523727D02*
G03X1955951Y1523724I-1998J-1768D01*
G01X2097307Y1561793D02*
X2089307D01*
Y1565793*
X2097307*
Y1561793*
X1956543Y1626302D02*
Y1632702D01*
X1960543D02*
G03X1956543I-2000J-1751D01*
G01X1960543D02*
Y1626302D01*
X1956545Y1626300D02*
G03X1960545Y1626304I1998J1768D01*
G01X1887505Y1522339D02*
Y1518857D01*
Y1522339D02*
X1888444D01*
X1888847Y1522173*
X1889115Y1521842*
X1889250Y1521510*
X1889384Y1521013*
Y1520184*
X1889250Y1519686*
X1889115Y1519355*
X1888847Y1519023*
X1888444Y1518857*
X1887505*
X1890592Y1521676D02*
X1890860Y1521842D01*
X1891263Y1522339*
Y1518857*
X1894216Y1522339D02*
X1892874D01*
X1892740Y1520847*
X1892874Y1521013*
X1893276Y1521178*
X1893679*
X1894082Y1521013*
X1894350Y1520681*
X1894485Y1520184*
X1894350Y1519852*
X1894216Y1519355*
X1893948Y1519023*
X1893545Y1518857*
X1893142*
X1892740Y1519023*
X1892605Y1519189*
X1892471Y1519520*
X2050182Y1718914D02*
Y1715432D01*
X2051793*
X2053001Y1718914D02*
Y1715432D01*
Y1718914D02*
X2054746D01*
X2053001Y1717256D02*
X2054074D01*
X2053001Y1715432D02*
X2054746D01*
X2055954Y1718914D02*
Y1715432D01*
Y1718914D02*
X2056893D01*
X2057296Y1718748*
X2057564Y1718417*
X2057699Y1718085*
X2057833Y1717587*
Y1716758*
X2057699Y1716261*
X2057564Y1715929*
X2057296Y1715598*
X2056893Y1715432*
X2055954*
X2059175Y1718085D02*
Y1718251D01*
X2059309Y1718582*
X2059444Y1718748*
X2059712Y1718914*
X2060249*
X2060517Y1718748*
X2060652Y1718582*
X2060786Y1718251*
Y1717919*
X2060652Y1717587*
X2060383Y1717090*
X2059041Y1715432*
X2060920*
X2052188Y1671124D02*
X2052052Y1671462D01*
X2051779Y1671799*
X2051506Y1671968*
X2050961*
X2050688Y1671799*
X2050415Y1671462*
X2050279Y1671124*
X2050143Y1670618*
Y1669774*
X2050279Y1669268*
X2050415Y1668930*
X2050688Y1668593*
X2050961Y1668424*
X2051506*
X2051779Y1668593*
X2052052Y1668930*
X2052188Y1669268*
X2054097Y1671968D02*
X2053688Y1671799D01*
X2053552Y1671462*
Y1671124*
X2053688Y1670787*
X2053961Y1670618*
X2054506Y1670449*
X2054915Y1670280*
X2055188Y1669943*
X2055324Y1669605*
Y1669099*
X2055188Y1668762*
X2055052Y1668593*
X2054643Y1668424*
X2054097*
X2053688Y1668593*
X2053552Y1668762*
X2053415Y1669099*
Y1669605*
X2053552Y1669943*
X2053824Y1670280*
X2054233Y1670449*
X2054779Y1670618*
X2055052Y1670787*
X2055188Y1671124*
Y1671462*
X2055052Y1671799*
X2054643Y1671968*
X2054097*
X1854001Y1634426D02*
Y1630944D01*
X1855612*
X1856820Y1634426D02*
Y1630944D01*
Y1634426D02*
X1858565D01*
X1856820Y1632768D02*
X1857893D01*
X1856820Y1630944D02*
X1858565D01*
X1859773Y1634426D02*
Y1630944D01*
Y1634426D02*
X1860712D01*
X1861115Y1634260*
X1861383Y1633928*
X1861518Y1633597*
X1861652Y1633099*
Y1632270*
X1861518Y1631773*
X1861383Y1631441*
X1861115Y1631110*
X1860712Y1630944*
X1859773*
X1862860Y1633763D02*
X1863128Y1633928D01*
X1863531Y1634426*
Y1630944*
X1916260Y1511432D02*
Y1507494D01*
Y1511432D02*
X1917487D01*
X1917896Y1511244*
X1918033Y1511057*
X1918169Y1510682*
Y1510307*
X1918033Y1509932*
X1917896Y1509744*
X1917487Y1509557*
X1916260*
X1917214D02*
X1918169Y1507494D01*
X1919396Y1510682D02*
X1919669Y1510869D01*
X1920078Y1511432*
Y1507494*
X1921987Y1511432D02*
X1921578Y1511244D01*
X1921442Y1510869*
Y1510494*
X1921578Y1510119*
X1921851Y1509932*
X1922396Y1509744*
X1922805Y1509557*
X1923078Y1509182*
X1923214Y1508807*
Y1508244*
X1923078Y1507869*
X1922942Y1507682*
X1922533Y1507494*
X1921987*
X1921578Y1507682*
X1921442Y1507869*
X1921305Y1508244*
Y1508807*
X1921442Y1509182*
X1921714Y1509557*
X1922123Y1509744*
X1922669Y1509932*
X1922942Y1510119*
X1923078Y1510494*
Y1510869*
X1922942Y1511244*
X1922533Y1511432*
X1921987*
X1854001Y1627221D02*
Y1623739D01*
X1855612*
X1856820Y1627221D02*
Y1623739D01*
Y1627221D02*
X1858565D01*
X1856820Y1625563D02*
X1857893D01*
X1856820Y1623739D02*
X1858565D01*
X1859773Y1627221D02*
Y1623739D01*
Y1627221D02*
X1860712D01*
X1861115Y1627055*
X1861383Y1626724*
X1861518Y1626392*
X1861652Y1625895*
Y1625065*
X1861518Y1624568*
X1861383Y1624236*
X1861115Y1623905*
X1860712Y1623739*
X1859773*
X1863128Y1627221D02*
X1864605D01*
X1863799Y1625895*
X1864202*
X1864471Y1625729*
X1864605Y1625563*
X1864739Y1625065*
Y1624734*
X1864605Y1624236*
X1864336Y1623905*
X1863934Y1623739*
X1863531*
X1863128Y1623905*
X1862994Y1624071*
X1862860Y1624402*
X1854001Y1620174D02*
Y1616692D01*
X1855612*
X1856820Y1620174D02*
Y1616692D01*
Y1620174D02*
X1858565D01*
X1856820Y1618516D02*
X1857893D01*
X1856820Y1616692D02*
X1858565D01*
X1859773Y1620174D02*
Y1616692D01*
Y1620174D02*
X1860712D01*
X1861115Y1620008*
X1861383Y1619676*
X1861518Y1619345*
X1861652Y1618847*
Y1618018*
X1861518Y1617521*
X1861383Y1617189*
X1861115Y1616858*
X1860712Y1616692*
X1859773*
X1864202Y1620174D02*
X1862860Y1617852D01*
X1864873*
X1864202Y1620174D02*
Y1616692D01*
X2110261Y1561512D02*
Y1558030D01*
Y1561512D02*
X2111200D01*
X2111603Y1561347*
X2111871Y1561015*
X2112006Y1560683*
X2112140Y1560186*
Y1559357*
X2112006Y1558859*
X2111871Y1558528*
X2111603Y1558196*
X2111200Y1558030*
X2110261*
X2113348Y1560849D02*
X2113616Y1561015D01*
X2114019Y1561512*
Y1558030*
X1968172Y1566400D02*
X1968036Y1566737D01*
X1967763Y1567075*
X1967490Y1567243*
X1966945*
X1966672Y1567075*
X1966400Y1566737*
X1966400D02*
X1966263Y1566400D01*
X1966127Y1565893*
Y1565050*
X1966263Y1564543*
X1966400Y1564206*
X1966400D02*
X1966672Y1563868D01*
X1966945Y1563700*
X1967490*
X1967763Y1563868*
X1968036Y1564206*
X1968172Y1564543*
X1970354Y1567243D02*
Y1563700D01*
X1969400Y1567243D02*
X1971309D01*
X1974172Y1566737D02*
X1974036Y1567075D01*
X1973627Y1567243*
X1973354*
X1972945Y1567075*
X1972672Y1566568*
X1972536Y1565725*
Y1564881*
X1972672Y1564206*
X1972945Y1563868*
X1973354Y1563700*
X1973490*
X1973900Y1563868*
X1973900D02*
X1974172Y1564206D01*
X1974309Y1564712*
Y1564881*
X1974172Y1565387*
X1973900Y1565725*
X1973900D02*
X1973490Y1565893D01*
X1973354*
X1972945Y1565725*
X1972672Y1565387*
X1972536Y1564881*
X1966087Y1530292D02*
Y1526810D01*
Y1530292D02*
X1967027D01*
X1967430Y1530126*
X1967698Y1529794*
X1967832Y1529463*
X1967967Y1528965*
Y1528136*
X1967832Y1527639*
X1967698Y1527307*
X1967430Y1526976*
X1967027Y1526810*
X1966087*
X1969175Y1529629D02*
X1969443Y1529794D01*
X1969846Y1530292*
Y1526810*
X1972396Y1530292D02*
X1971054Y1527971D01*
X1973067*
X1972396Y1530292D02*
Y1526810D01*
X1946612Y1533683D02*
X1946476Y1534058D01*
X1946203Y1534433*
X1945931Y1534621*
X1945385*
X1945112Y1534433*
X1944840Y1534058*
X1944703Y1533683*
X1944567Y1533121*
Y1532183*
X1944703Y1531621*
X1944840Y1531246*
X1945112Y1530871*
X1945385Y1530683*
X1945931*
X1946203Y1530871*
X1946476Y1531246*
X1946612Y1531621*
X1948794Y1534621D02*
Y1530683D01*
X1947840Y1534621D02*
X1949749D01*
X1951249D02*
X1952749D01*
X1951931Y1533121*
X1952340*
X1952612Y1532933*
X1952749Y1532746*
X1952885Y1532183*
Y1531808*
X1952749Y1531246*
X1952476Y1530871*
X1952067Y1530683*
X1951658*
X1951249Y1530871*
X1951112Y1531058*
X1950976Y1531433*
X2022597Y1518014D02*
X2022460Y1518389D01*
X2022188Y1518764*
X2021915Y1518951*
X2021369*
X2021097Y1518764*
X2020824Y1518389*
X2020688Y1518014*
X2020551Y1517451*
Y1516514*
X2020688Y1515951*
X2020824Y1515576*
X2021097Y1515201*
X2021369Y1515014*
X2021915*
X2022188Y1515201*
X2022460Y1515576*
X2022597Y1515951*
X2025188Y1518951D02*
X2023824Y1516326D01*
X2025869*
X2025188Y1518951D02*
Y1515014D01*
X2027778Y1518951D02*
X2027369Y1518764D01*
X2027233Y1518389*
Y1518014*
X2027369Y1517639*
X2027642Y1517451*
X2028188Y1517264*
X2028597Y1517076*
X2028869Y1516701*
X2029006Y1516326*
Y1515764*
X2028869Y1515389*
X2028733Y1515201*
X2028324Y1515014*
X2027778*
X2027369Y1515201*
X2027233Y1515389*
X2027097Y1515764*
Y1516326*
X2027233Y1516701*
X2027506Y1517076*
X2027915Y1517264*
X2028460Y1517451*
X2028733Y1517639*
X2028869Y1518014*
Y1518389*
X2028733Y1518764*
X2028324Y1518951*
X2027778*
X1950416Y1646872D02*
X1950280Y1647210D01*
X1950007Y1647547*
X1949735Y1647716*
X1949735D02*
X1949189D01*
X1948916Y1647547*
X1948644Y1647210*
X1948507Y1646872*
X1948371Y1646366*
Y1645522*
X1948507Y1645016*
X1948644Y1644678*
X1948916Y1644341*
X1949189Y1644172*
X1949735*
X1949735D02*
X1950007Y1644341D01*
X1950280Y1644678*
X1950416Y1645016*
X1951780Y1646872D02*
Y1647041D01*
X1951916Y1647378*
X1952053Y1647547*
X1952325Y1647716*
X1952871*
X1953144Y1647547*
X1953280Y1647378*
X1953416Y1647041*
Y1646703*
X1953280Y1646366*
X1953007Y1645860*
X1951644Y1644172*
X1953553*
X1956144Y1647716D02*
X1954780Y1645353D01*
X1956825*
X1956144Y1647716D02*
Y1644172D01*
X2090000Y1572849D02*
Y1568911D01*
Y1572849D02*
X2091227D01*
X2091636Y1572661*
X2091773Y1572474*
X2091909Y1572099*
Y1571724*
X2091773Y1571349*
X2091636Y1571161*
X2091227Y1570974*
X2090000*
X2090955D02*
X2091909Y1568911D01*
X2093409Y1572849D02*
X2094909D01*
X2094091Y1571349*
X2094500*
X2094773Y1571161*
X2094909Y1570974*
X2095045Y1570411*
Y1570036*
X2094909Y1569474*
X2094636Y1569099*
X2094227Y1568911*
X2093818*
X2093409Y1569099*
X2093273Y1569286*
X2093136Y1569661*
X2096273Y1572099D02*
X2096545Y1572286D01*
X2096955Y1572849*
Y1568911*
G54D11*
X2052402Y1677216D02*
X2052174Y1677075D01*
X2051833Y1676653*
Y1679606*
X2073478Y1635461D02*
Y1632508D01*
Y1635461D02*
X2074501D01*
X2074842Y1635320*
X2074956Y1635180*
X2075069Y1634899*
X2075069D02*
Y1634617D01*
X2074956Y1634336*
X2074842Y1634195*
X2074501Y1634055*
X2073478*
X2074274D02*
X2075069Y1632508D01*
X2077228Y1635461D02*
X2076092Y1633492D01*
X2077797*
X2077228Y1635461D02*
Y1632508D01*
X2069395Y1626096D02*
X2069282Y1626378D01*
X2069055Y1626659*
X2068827Y1626800*
X2068373*
X2068145Y1626659*
X2067918Y1626378*
X2067805Y1626096*
X2067691Y1625675*
Y1624971*
X2067805Y1624550*
X2067918Y1624268*
X2068145Y1623987*
X2068373Y1623846*
X2068827*
X2069055Y1623987*
X2069282Y1624268*
X2069395Y1624550*
X2070418Y1626237D02*
X2070645Y1626378D01*
X2070986Y1626800*
Y1623846*
X2074435Y1639994D02*
X2074321Y1640275D01*
X2074094Y1640557*
X2073867Y1640697*
X2073412*
X2073185Y1640557*
X2072958Y1640275*
X2072844Y1639994*
X2072730Y1639572*
Y1638869*
X2072844Y1638447*
X2072958Y1638166*
X2073185Y1637885*
X2073412Y1637744*
X2073867*
X2074094Y1637885*
X2074321Y1638166*
X2074435Y1638447*
X2075685Y1640697D02*
X2076935D01*
X2076253Y1639572*
X2076594*
X2076821Y1639432*
X2076935Y1639291*
X2077048Y1638869*
Y1638588*
X2076935Y1638166*
X2076708Y1637885*
X2076367Y1637744*
X2076026*
X2075685Y1637885*
X2075571Y1638025*
X2075458Y1638307*
X2079896Y1706327D02*
Y1703374D01*
Y1706327D02*
X2080918D01*
X2081259Y1706187*
X2081373Y1706046*
X2081487Y1705765*
Y1705483*
X2081373Y1705202*
X2081259Y1705062*
X2080918Y1704921*
X2079896*
X2080691D02*
X2081487Y1703374D01*
X2083987Y1706327D02*
X2082850D01*
X2082737Y1705062*
X2082850Y1705202*
X2083191Y1705343*
X2083532*
X2083873Y1705202*
X2084100Y1704921*
X2084214Y1704499*
X2084100Y1704218*
X2083987Y1703796*
X2083759Y1703515*
X2083418Y1703374*
X2083077*
X2082737Y1703515*
X2082623Y1703655*
X2082509Y1703937*
X2056943Y1704634D02*
Y1701681D01*
Y1704634D02*
X2057966D01*
X2058307Y1704494*
X2058420Y1704353*
X2058534Y1704072*
Y1703790*
X2058420Y1703509*
X2058307Y1703369*
X2057966Y1703228*
X2056943*
X2057738D02*
X2058534Y1701681D01*
X2061147Y1704634D02*
X2060011Y1701681D01*
X2059557Y1704634D02*
X2061147D01*
X1901982Y1569319D02*
Y1567210D01*
X1902096Y1566788*
X1902323Y1566507*
X1902664Y1566366*
X1902891*
X1903232Y1566507*
X1903460Y1566788*
X1903573Y1567210*
Y1569319*
X1904596Y1568757D02*
X1904823Y1568897D01*
X1905164Y1569319*
Y1566366*
X1906869Y1569319D02*
X1906528Y1569179D01*
X1906300Y1568757*
X1906187Y1568054*
Y1567632*
X1906300Y1566929*
X1906528Y1566507*
X1906869Y1566366*
X1907096*
X1907437Y1566507*
X1907664Y1566929*
X1907778Y1567632*
Y1568054*
X1907664Y1568757*
X1907437Y1569179*
X1907096Y1569319*
X1906869*
X1876285Y1536608D02*
X1876172Y1536890D01*
X1875944Y1537171*
X1875717Y1537311*
X1875263*
X1875035Y1537171*
X1874808Y1536890*
X1874694Y1536608*
X1874581Y1536186*
Y1535483*
X1874694Y1535061*
X1874808Y1534780*
X1875035Y1534499*
X1875263Y1534358*
X1875717*
X1875944Y1534499*
X1876172Y1534780*
X1876285Y1535061*
X1878785Y1537311D02*
X1877649D01*
X1877535Y1536046*
X1877649Y1536186*
X1877990Y1536327*
X1878331*
X1878672Y1536186*
X1878899Y1535905*
X1879013Y1535483*
X1878899Y1535202*
X1878785Y1534780*
X1878558Y1534499*
X1878217Y1534358*
X1877876*
X1877535Y1534499*
X1877422Y1534640*
X1877308Y1534921*
X1880263Y1537311D02*
X1881513D01*
X1880831Y1536186*
X1881172*
X1881399Y1536046*
X1881513Y1535905*
X1881626Y1535483*
Y1535202*
X1881513Y1534780*
X1881285Y1534499*
X1880944Y1534358*
X1880603*
X1880263Y1534499*
X1880149Y1534640*
X1880035Y1534921*
X1927860Y1632868D02*
X1927746Y1633149D01*
X1927519Y1633431*
X1927292Y1633571*
X1926837*
X1926610Y1633431*
X1926383Y1633149*
X1926269Y1632868*
X1926156Y1632446*
Y1631743*
X1926269Y1631321*
X1926383Y1631040*
X1926610Y1630759*
X1926837Y1630618*
X1927292*
X1927519Y1630759*
X1927746Y1631040*
X1927860Y1631321*
X1930019Y1633571D02*
X1928883Y1631602D01*
X1930587*
X1930019Y1633571D02*
Y1630618D01*
X1961473Y1489204D02*
X1961246Y1489517D01*
X1960905Y1489673*
X1960450*
X1960109Y1489517*
X1959882Y1489204*
Y1488892*
X1959996Y1488579*
X1960109Y1488423*
X1960336Y1488267*
X1961018Y1487954*
X1961246Y1487798*
X1961359Y1487642*
X1961473Y1487329*
Y1486860*
X1961246Y1486548*
X1960905Y1486392*
X1960450*
X1960109Y1486548*
X1959882Y1486860*
X1962496Y1489673D02*
X1963064Y1486392D01*
X1963632Y1489673D02*
X1963064Y1486392D01*
X1963632Y1489673D02*
X1964200Y1486392D01*
X1964768Y1489673D02*
X1964200Y1486392D01*
X1965791Y1489048D02*
X1966018Y1489204D01*
X1966359Y1489673*
Y1486392*
X2044041Y1670033D02*
X2043928Y1670315D01*
X2043700Y1670596*
X2043473Y1670737*
X2043018*
X2042791Y1670596*
X2042564Y1670315*
X2042450Y1670033*
X2042337Y1669612*
Y1668908*
X2042450Y1668487*
X2042564Y1668205*
X2042791Y1667924*
X2043018Y1667783*
X2043473*
X2043700Y1667924*
X2043928Y1668205*
X2044041Y1668487*
X2046541Y1669752D02*
X2046428Y1669330D01*
X2046200Y1669049*
X2045859Y1668908*
X2045746*
X2045405Y1669049*
X2045178Y1669330*
X2045064Y1669752*
Y1669893*
X2045178Y1670315*
X2045405Y1670596*
X2045746Y1670737*
X2045859*
X2046200Y1670596*
X2046428Y1670315*
X2046541Y1669752*
Y1669049*
X2046428Y1668346*
X2046200Y1667924*
X2045859Y1667783*
X2045632*
X2045291Y1667924*
X2045178Y1668205*
X2035565Y1669831D02*
Y1666878D01*
Y1669831D02*
X2036588D01*
X2036929Y1669690*
X2037042Y1669550*
X2037156Y1669269*
Y1668987*
X2037042Y1668706*
X2036929Y1668565*
X2036588Y1668425*
X2035565*
X2036360D02*
X2037156Y1666878D01*
X2038747Y1669831D02*
X2038406Y1669690D01*
X2038292Y1669409*
Y1669128*
X2038406Y1668847*
X2038633Y1668706*
X2039088Y1668565*
X2039429Y1668425*
X2039656Y1668144*
X2039770Y1667862*
Y1667440*
X2039656Y1667159*
X2039542Y1667019*
X2039201Y1666878*
X2038747*
X2038406Y1667019*
X2038292Y1667159*
X2038179Y1667440*
Y1667862*
X2038292Y1668144*
X2038520Y1668425*
X2038860Y1668565*
X2039315Y1668706*
X2039542Y1668847*
X2039656Y1669128*
Y1669409*
X2039542Y1669690*
X2039201Y1669831*
X2038747*
X1939030Y1563178D02*
Y1560224D01*
Y1563178D02*
X1940052D01*
X1940393Y1563037*
X1940507Y1562896*
X1940620Y1562615*
Y1562334*
X1940507Y1562053*
X1940393Y1561912*
X1940052Y1561771*
X1939030*
X1939825D02*
X1940620Y1560224D01*
X1941643Y1562615D02*
X1941870Y1562756D01*
X1942211Y1563178*
Y1560224*
X1944598Y1562756D02*
X1944484Y1563037D01*
X1944143Y1563178*
X1943916*
X1943575Y1563037*
X1943348Y1562615*
X1943234Y1561912*
Y1561209*
X1943348Y1560646*
X1943575Y1560365*
X1943916Y1560224*
X1944030*
X1944370Y1560365*
X1944598Y1560646*
X1944711Y1561068*
Y1561209*
X1944598Y1561631*
X1944370Y1561912*
X1944030Y1562053*
X1943916*
X1943575Y1561912*
X1943348Y1561631*
X1943234Y1561209*
X2029699Y1669752D02*
Y1666799D01*
Y1669752D02*
X2030722D01*
X2031062Y1669612*
X2031176Y1669471*
X2031290Y1669190*
Y1668909*
X2031176Y1668627*
X2031062Y1668487*
X2030722Y1668346*
X2029699*
X2030494D02*
X2031290Y1666799D01*
X2033790Y1668768D02*
X2033676Y1668346D01*
X2033449Y1668065*
X2033108Y1667924*
X2032994*
X2032653Y1668065*
X2032426Y1668346*
X2032312Y1668768*
Y1668909*
X2032426Y1669330*
X2032653Y1669612*
X2032994Y1669752*
X2033108*
X2033449Y1669612*
X2033676Y1669330*
X2033790Y1668768*
Y1668065*
X2033676Y1667362*
X2033449Y1666940*
X2033108Y1666799*
X2032881*
X2032540Y1666940*
X2032426Y1667221*
X1925014Y1535894D02*
Y1532941D01*
Y1535894D02*
X1926037D01*
X1926377Y1535753*
X1926491Y1535613*
X1926605Y1535332*
Y1535050*
X1926491Y1534769*
X1926377Y1534628*
X1926037Y1534488*
X1925014*
X1925809D02*
X1926605Y1532941D01*
X1927627Y1535332D02*
X1927855Y1535472D01*
X1928196Y1535894*
Y1532941*
X1930355Y1535894D02*
X1929218Y1533925D01*
X1930923*
X1930355Y1535894D02*
Y1532941D01*
X2125447Y1517823D02*
Y1514870D01*
Y1517823D02*
X2126470D01*
X2126810Y1517683*
X2126924Y1517542*
X2127038Y1517261*
Y1516979*
X2126924Y1516698*
X2126810Y1516558*
X2126470Y1516417*
X2125447*
X2126242D02*
X2127038Y1514870D01*
X2128060Y1517261D02*
X2128288Y1517401D01*
X2128629Y1517823*
Y1514870*
X2130333Y1517823D02*
X2129992Y1517683D01*
X2129765Y1517261*
X2129651Y1516558*
Y1516136*
X2129765Y1515433*
X2129992Y1515011*
X2130333Y1514870*
X2130560*
X2130901Y1515011*
X2131129Y1515433*
X2131242Y1516136*
Y1516558*
X2131129Y1517261*
X2130901Y1517683*
X2130560Y1517823*
X2130333*
X1881943Y1612115D02*
Y1609161D01*
Y1612115D02*
X1882966D01*
X1883307Y1611974*
X1883420Y1611833*
X1883534Y1611552*
Y1611271*
X1883420Y1610990*
X1883307Y1610849*
X1882966Y1610708*
X1881943*
X1882738D02*
X1883534Y1609161D01*
X1884670Y1611411D02*
Y1611552D01*
X1884784Y1611833*
X1884897Y1611974*
X1885125Y1612115*
X1885579*
X1885807Y1611974*
X1885920Y1611833*
X1886034Y1611552*
Y1611271*
X1885920Y1610990*
X1885693Y1610568*
X1884557Y1609161*
X1886147*
X1981195Y1649083D02*
Y1646974D01*
X1981309Y1646552*
X1981536Y1646271*
X1981877Y1646130*
X1982104*
X1982445Y1646271*
X1982672Y1646552*
X1982786Y1646974*
Y1649083*
X1984036D02*
X1985286D01*
X1984604Y1647958*
X1984945*
X1985172Y1647817*
X1985286Y1647677*
X1985399Y1647255*
Y1646974*
X1985286Y1646552*
X1985059Y1646271*
X1984718Y1646130*
X1984377*
X1984036Y1646271*
X1983922Y1646411*
X1983809Y1646692*
X1979778Y1613532D02*
Y1610579D01*
Y1613532D02*
X1980800D01*
X1981141Y1613391*
X1981255Y1613251*
X1981368Y1612969*
Y1612688*
X1981255Y1612407*
X1981141Y1612266*
X1980800Y1612126*
X1979778*
X1980573D02*
X1981368Y1610579D01*
X1982618Y1613532D02*
X1983868D01*
X1983187Y1612407*
X1983528*
X1983755Y1612266*
X1983868Y1612126*
X1983982Y1611704*
Y1611422*
X1983868Y1611001*
X1983641Y1610719*
X1983300Y1610579*
X1982959*
X1982618Y1610719*
X1982505Y1610860*
X1982391Y1611141*
X1979423Y1619083D02*
Y1616130D01*
Y1619083D02*
X1980446D01*
X1980787Y1618942*
X1980901Y1618802*
X1980901D02*
X1981014Y1618521D01*
Y1618239*
X1980901Y1617958*
X1980901D02*
X1980787Y1617817D01*
X1980446Y1617677*
X1979423*
X1980219D02*
X1981014Y1616130D01*
X1983401Y1618661D02*
X1983287Y1618942D01*
X1982946Y1619083*
X1982719*
X1982378Y1618942*
X1982151Y1618521*
X1982151D02*
X1982037Y1617817D01*
Y1617114*
X1982151Y1616552*
X1982151D02*
X1982378Y1616271D01*
X1982719Y1616130*
X1982832*
X1983173Y1616271*
X1983401Y1616552*
X1983401D02*
X1983514Y1616974D01*
Y1617114*
X1983401Y1617536*
X1983401D02*
X1983173Y1617817D01*
X1982832Y1617958*
X1982719*
X1982378Y1617817*
X1982151Y1617536*
X1982151D02*
X1982037Y1617114D01*
X1909423Y1586130D02*
Y1583177D01*
Y1586130D02*
X1910446D01*
X1910787Y1585990*
X1910901Y1585849*
X1910901D02*
X1911014Y1585568D01*
Y1585287*
X1910901Y1585005*
X1910901D02*
X1910787Y1584865D01*
X1910446Y1584724*
X1909423*
X1910219D02*
X1911014Y1583177D01*
X1912037Y1585568D02*
X1912264Y1585708D01*
X1912605Y1586130*
Y1583177*
X1913628Y1585568D02*
X1913855Y1585708D01*
X1914196Y1586130*
Y1583177*
X1925998Y1609752D02*
Y1606799D01*
Y1609752D02*
X1927021D01*
X1927362Y1609612*
X1927475Y1609471*
X1927589Y1609190*
Y1608909*
X1927475Y1608627*
X1927362Y1608487*
X1927021Y1608346*
X1925998*
X1926793D02*
X1927589Y1606799D01*
X1928839Y1609752D02*
X1930089D01*
X1929407Y1608627*
X1929748*
X1929975Y1608487*
X1930089Y1608346*
X1930203Y1607924*
Y1607643*
X1930089Y1607221*
X1929862Y1606940*
X1929521Y1606799*
X1929180*
X1928839Y1606940*
X1928725Y1607080*
X1928612Y1607362*
X1931453Y1609752D02*
X1932703D01*
X1932021Y1608627*
X1932362*
X1932589Y1608487*
X1932703Y1608346*
X1932816Y1607924*
Y1607643*
X1932703Y1607221*
X1932475Y1606940*
X1932134Y1606799*
X1931793*
X1931453Y1606940*
X1931339Y1607080*
X1931225Y1607362*
X1898557Y1609752D02*
Y1606799D01*
Y1609752D02*
X1899580D01*
X1899921Y1609612*
X1900034Y1609471*
X1900148Y1609190*
Y1608909*
X1900034Y1608627*
X1899921Y1608487*
X1899580Y1608346*
X1898557*
X1899353D02*
X1900148Y1606799D01*
X1901398Y1609752D02*
X1902648D01*
X1901966Y1608627*
X1902307*
X1902534Y1608487*
X1902648Y1608346*
X1902762Y1607924*
Y1607643*
X1902648Y1607221*
X1902421Y1606940*
X1902080Y1606799*
X1901739*
X1901398Y1606940*
X1901284Y1607080*
X1901171Y1607362*
X1905148Y1609330D02*
X1905034Y1609612D01*
X1904693Y1609752*
X1904466*
X1904125Y1609612*
X1903898Y1609190*
X1903784Y1608487*
Y1607784*
X1903898Y1607221*
X1904125Y1606940*
X1904466Y1606799*
X1904580*
X1904921Y1606940*
X1905148Y1607221*
X1905262Y1607643*
Y1607784*
X1905148Y1608205*
X1904921Y1608487*
X1904580Y1608627*
X1904466*
X1904125Y1608487*
X1903898Y1608205*
X1903784Y1607784*
X1909069Y1591563D02*
Y1588610D01*
Y1591563D02*
X1910092D01*
X1910433Y1591423*
X1910546Y1591282*
X1910660Y1591001*
Y1590720*
X1910546Y1590438*
X1910433Y1590298*
X1910092Y1590157*
X1909069*
X1909864D02*
X1910660Y1588610D01*
X1911683Y1591001D02*
X1911910Y1591141D01*
X1912251Y1591563*
Y1588610*
X1914751Y1590579D02*
X1914637Y1590157D01*
X1914410Y1589876*
X1914069Y1589735*
X1913955*
X1913614Y1589876*
X1913387Y1590157*
X1913273Y1590579*
Y1590720*
X1913387Y1591141*
X1913614Y1591423*
X1913955Y1591563*
X1914069*
X1914410Y1591423*
X1914637Y1591141*
X1914751Y1590579*
Y1589876*
X1914637Y1589173*
X1914410Y1588751*
X1914069Y1588610*
X1913842*
X1913501Y1588751*
X1913387Y1589032*
X1915919Y1536130D02*
Y1533177D01*
Y1536130D02*
X1916942D01*
X1917283Y1535990*
X1917397Y1535849*
X1917510Y1535568*
Y1535287*
X1917397Y1535005*
X1917283Y1534865*
X1916942Y1534724*
X1915919*
X1916715D02*
X1917510Y1533177D01*
X1918533Y1535568D02*
X1918760Y1535708D01*
X1919101Y1536130*
Y1533177*
X1920351Y1536130D02*
X1921601D01*
X1920919Y1535005*
X1921260*
X1921487Y1534865*
X1921601Y1534724*
X1921715Y1534302*
Y1534021*
X1921601Y1533599*
X1921374Y1533318*
X1921033Y1533177*
X1920692*
X1920351Y1533318*
X1920237Y1533458*
X1920124Y1533740*
X2007967Y1555658D02*
Y1552705D01*
Y1555658D02*
X2008989D01*
X2009330Y1555517*
X2009444Y1555377*
X2009557Y1555095*
Y1554814*
X2009444Y1554533*
X2009330Y1554392*
X2008989Y1554252*
X2007967*
X2008762D02*
X2009557Y1552705D01*
X2010694Y1554955D02*
Y1555095D01*
X2010807Y1555377*
X2010921Y1555517*
X2011148Y1555658*
X2011603*
X2011830Y1555517*
X2011944Y1555377*
X2012057Y1555095*
Y1554814*
X2011944Y1554533*
X2011717Y1554111*
X2010580Y1552705*
X2012171*
X2013876Y1555658D02*
X2013535Y1555517D01*
X2013307Y1555095*
X2013194Y1554392*
Y1553970*
X2013307Y1553267*
X2013535Y1552845*
X2013876Y1552705*
X2014103*
X2014444Y1552845*
X2014671Y1553267*
X2014785Y1553970*
Y1554392*
X2014671Y1555095*
X2014444Y1555517*
X2014103Y1555658*
X2013876*
X2017730Y1555855D02*
Y1552902D01*
Y1555855D02*
X2018753D01*
X2019094Y1555714*
X2019208Y1555573*
X2019321Y1555292*
Y1555011*
X2019208Y1554730*
X2019094Y1554589*
X2018753Y1554448*
X2017730*
X2018526D02*
X2019321Y1552902D01*
X2020458Y1555152D02*
Y1555292D01*
X2020571Y1555573*
X2020685Y1555714*
X2020912Y1555855*
X2021367*
X2021594Y1555714*
X2021708Y1555573*
X2021821Y1555292*
Y1555011*
X2021708Y1554730*
X2021480Y1554308*
X2020344Y1552902*
X2021935*
X2022958Y1555292D02*
X2023185Y1555433D01*
X2023526Y1555855*
Y1552902*
X1935171Y1550225D02*
Y1547272D01*
Y1550225D02*
X1936194D01*
X1936535Y1550084*
X1936649Y1549944*
X1936762Y1549662*
Y1549381*
X1936649Y1549100*
X1936535Y1548959*
X1936194Y1548819*
X1935171*
X1935967D02*
X1936762Y1547272D01*
X1937785Y1549662D02*
X1938012Y1549803D01*
X1938353Y1550225*
Y1547272*
X1940853Y1550225D02*
X1939717D01*
X1939603Y1548959*
X1939717Y1549100*
X1940058Y1549240*
X1940399*
X1940739Y1549100*
X1940967Y1548819*
X1941080Y1548397*
X1940967Y1548115*
X1940853Y1547694*
X1940626Y1547412*
X1940285Y1547272*
X1939944*
X1939603Y1547412*
X1939489Y1547553*
X1939376Y1547834*
X1878018Y1672081D02*
X1877904Y1672362D01*
X1877677Y1672643*
X1877449Y1672784*
X1876995*
X1876768Y1672643*
X1876540Y1672362*
X1876427Y1672081*
X1876313Y1671659*
Y1670956*
X1876427Y1670534*
X1876540Y1670253*
X1876768Y1669971*
X1876995Y1669831*
X1877449*
X1877677Y1669971*
X1877904Y1670253*
X1878018Y1670534*
X1879154Y1672081D02*
Y1672221D01*
X1879268Y1672503*
X1879381Y1672643*
X1879608Y1672784*
X1880063*
X1880290Y1672643*
X1880404Y1672503*
X1880518Y1672221*
Y1671940*
X1880404Y1671659*
X1880177Y1671237*
X1879040Y1669831*
X1880631*
X1869896Y1589162D02*
Y1586209D01*
Y1589162D02*
X1870918D01*
X1871259Y1589021*
X1871373Y1588881*
X1871487Y1588599*
Y1588318*
X1871373Y1588037*
X1871259Y1587896*
X1870918Y1587756*
X1869896*
X1870691D02*
X1871487Y1586209D01*
X1872509Y1588599D02*
X1872737Y1588740D01*
X1873077Y1589162*
Y1586209*
X1874214Y1588459D02*
Y1588599D01*
X1874327Y1588881*
X1874441Y1589021*
X1874668Y1589162*
X1875123*
X1875350Y1589021*
X1875464Y1588881*
X1875577Y1588599*
Y1588318*
X1875464Y1588037*
X1875237Y1587615*
X1874100Y1586209*
X1875691*
X1898085Y1662705D02*
Y1659752D01*
Y1662705D02*
X1899107D01*
X1899448Y1662564*
X1899562Y1662424*
X1899676Y1662143*
Y1661861*
X1899562Y1661580*
X1899448Y1661439*
X1899107Y1661299*
X1898085*
X1898880D02*
X1899676Y1659752D01*
X1900812Y1662002D02*
Y1662143D01*
X1900926Y1662424*
X1901039Y1662564*
X1901266Y1662705*
X1901721*
X1901948Y1662564*
X1902062Y1662424*
X1902176Y1662143*
Y1661861*
X1902062Y1661580*
X1901835Y1661158*
X1900698Y1659752*
X1902289*
X1903426Y1662002D02*
Y1662143D01*
X1903539Y1662424*
X1903653Y1662564*
X1903880Y1662705*
X1904335*
X1904562Y1662564*
X1904676Y1662424*
X1904789Y1662143*
Y1661861*
X1904676Y1661580*
X1904448Y1661158*
X1903312Y1659752*
X1904903*
X1902691Y1542548D02*
Y1539594D01*
Y1542548D02*
X1903714D01*
X1904055Y1542407*
X1904168Y1542266*
X1904282Y1541985*
Y1541704*
X1904168Y1541423*
X1904055Y1541282*
X1903714Y1541141*
X1902691*
X1903486D02*
X1904282Y1539594D01*
X1905305Y1541985D02*
X1905532Y1542126D01*
X1905873Y1542548*
Y1539594*
X1908486Y1542548D02*
X1907350Y1539594D01*
X1906895Y1542548D02*
X1908486D01*
X1889159Y1544128D02*
X1889046Y1544409D01*
X1888818Y1544690*
X1888591Y1544831*
X1888137*
X1887909Y1544690*
X1887682Y1544409*
X1887568Y1544128*
X1887455Y1543706*
Y1543003*
X1887568Y1542581*
X1887682Y1542300*
X1887909Y1542019*
X1888137Y1541878*
X1888591*
X1888818Y1542019*
X1889046Y1542300*
X1889159Y1542581*
X1891659Y1544831D02*
X1890523D01*
X1890409Y1543565*
X1890523Y1543706*
X1890864Y1543847*
X1891205*
X1891546Y1543706*
X1891773Y1543425*
X1891887Y1543003*
X1891773Y1542722*
X1891659Y1542300*
X1891432Y1542019*
X1891091Y1541878*
X1890750*
X1890409Y1542019*
X1890296Y1542159*
X1890182Y1542440*
X1893023Y1544128D02*
Y1544269D01*
X1893137Y1544550*
X1893250Y1544690*
X1893477Y1544831*
X1893932*
X1894159Y1544690*
X1894273Y1544550*
X1894387Y1544269*
Y1543987*
X1894273Y1543706*
X1894046Y1543284*
X1892909Y1541878*
X1894500*
X1941128Y1556569D02*
X1941014Y1556850D01*
X1940787Y1557131*
X1940560Y1557272*
X1940105*
X1939878Y1557131*
X1939651Y1556850*
X1939651D02*
X1939537Y1556569D01*
X1939423Y1556147*
Y1555444*
X1939537Y1555022*
X1939651Y1554741*
X1939651D02*
X1939878Y1554460D01*
X1940105Y1554319*
X1940560*
X1940787Y1554460*
X1941014Y1554741*
X1941128Y1555022*
X1943628Y1557272D02*
X1942491D01*
X1942378Y1556006*
X1942491Y1556147*
X1942832Y1556288*
X1943173*
X1943514Y1556147*
X1943741Y1555866*
X1943855Y1555444*
X1943741Y1555163*
X1943628Y1554741*
X1943401Y1554460*
X1943401D02*
X1943060Y1554319D01*
X1942719*
X1942378Y1554460*
X1942264Y1554600*
X1942151Y1554881*
X1946355Y1557272D02*
X1945219D01*
X1945105Y1556006*
X1945219Y1556147*
X1945560Y1556288*
X1945901*
X1945901D02*
X1946241Y1556147D01*
X1946469Y1555866*
X1946582Y1555444*
X1946469Y1555163*
X1946355Y1554741*
X1946128Y1554460*
X1945787Y1554319*
X1945446*
X1945105Y1554460*
X1944991Y1554600*
X1944878Y1554881*
X1880025Y1563301D02*
X1879912Y1563582D01*
X1879685Y1563864*
X1879685D02*
X1879457Y1564004D01*
X1879003*
X1878775Y1563864*
X1878548Y1563582*
X1878435Y1563301*
X1878435D02*
X1878321Y1562879D01*
Y1562176*
X1878435Y1561754*
X1878435D02*
X1878548Y1561473D01*
X1878775Y1561192*
X1879003Y1561051*
X1879457*
X1879685Y1561192*
X1879685D02*
X1879912Y1561473D01*
X1880025Y1561754*
X1882525Y1564004D02*
X1881389D01*
X1881275Y1562739*
X1881389Y1562879*
X1881730Y1563020*
X1882071*
X1882412Y1562879*
X1882639Y1562598*
X1882753Y1562176*
X1882639Y1561895*
X1882525Y1561473*
X1882298Y1561192*
X1881957Y1561051*
X1881616*
X1881275Y1561192*
X1881162Y1561332*
X1881048Y1561614*
X1884912Y1564004D02*
X1883775Y1562036D01*
X1885480*
X1884912Y1564004D02*
Y1561051D01*
X1881510Y1605185D02*
Y1602232D01*
Y1605185D02*
X1882533D01*
X1882873Y1605045*
X1882987Y1604904*
X1883101Y1604623*
Y1604342*
X1882987Y1604060*
X1882873Y1603920*
X1882533Y1603779*
X1881510*
X1882305D02*
X1883101Y1602232D01*
X1884237Y1604482D02*
Y1604623D01*
X1884351Y1604904*
X1884464Y1605045*
X1884692Y1605185*
X1885146*
X1885373Y1605045*
X1885487Y1604904*
X1885601Y1604623*
Y1604342*
X1885487Y1604060*
X1885260Y1603639*
X1884123Y1602232*
X1885714*
X1886964Y1605185D02*
X1888214D01*
X1887533Y1604060*
X1887873*
X1888101Y1603920*
X1888214Y1603779*
X1888328Y1603357*
Y1603076*
X1888214Y1602654*
X1887987Y1602373*
X1887646Y1602232*
X1887305*
X1886964Y1602373*
X1886851Y1602514*
X1886737Y1602795*
X1868990Y1661996D02*
X1869899Y1660590D01*
Y1659043*
X1870808Y1661996D02*
X1869899Y1660590D01*
X1871945Y1661293D02*
Y1661434D01*
X1872058Y1661715*
X1872172Y1661856*
X1872399Y1661996*
X1872854*
X1873081Y1661856*
X1873195Y1661715*
X1873308Y1661434*
Y1661153*
X1873195Y1660871*
X1872967Y1660450*
X1871831Y1659043*
X1873422*
X1871482Y1651451D02*
X1871368Y1651732D01*
X1871141Y1652013*
X1870914Y1652154*
X1870459*
X1870232Y1652013*
X1870005Y1651732*
X1869891Y1651451*
X1869778Y1651029*
Y1650326*
X1869891Y1649904*
X1870005Y1649623*
X1870232Y1649341*
X1870459Y1649201*
X1870914*
X1871141Y1649341*
X1871368Y1649623*
X1871482Y1649904*
X1872505Y1651591D02*
X1872732Y1651732D01*
X1873073Y1652154*
Y1649201*
X1875573Y1651170D02*
X1875459Y1650748D01*
X1875232Y1650466*
X1874891Y1650326*
X1874778*
X1874437Y1650466*
X1874209Y1650748*
X1874096Y1651170*
Y1651310*
X1874209Y1651732*
X1874437Y1652013*
X1874778Y1652154*
X1874891*
X1875232Y1652013*
X1875459Y1651732*
X1875573Y1651170*
Y1650466*
X1875459Y1649763*
X1875232Y1649341*
X1874891Y1649201*
X1874664*
X1874323Y1649341*
X1874209Y1649623*
X1881667Y1598492D02*
Y1595539D01*
Y1598492D02*
X1882690D01*
X1882690D02*
X1883031Y1598352D01*
X1883145Y1598211*
X1883258Y1597930*
Y1597649*
X1883145Y1597367*
X1883145D02*
X1883031Y1597227D01*
X1882690Y1597086*
X1881667*
X1882463D02*
X1883258Y1595539D01*
X1884395Y1597789D02*
Y1597930D01*
X1884508Y1598211*
X1884622Y1598352*
X1884849Y1598492*
X1884849D02*
X1885304D01*
X1885304D02*
X1885531Y1598352D01*
X1885645Y1598211*
X1885758Y1597930*
Y1597649*
X1885645Y1597367*
X1885645D02*
X1885417Y1596946D01*
X1884281Y1595539*
X1885872*
X1888031Y1598492D02*
X1886895Y1596524D01*
X1888599*
X1888031Y1598492D02*
Y1595539D01*
X2056195Y1582823D02*
Y1579870D01*
Y1582823D02*
X2057218D01*
X2057559Y1582683*
X2057672Y1582542*
X2057786Y1582261*
Y1581979*
X2057672Y1581698*
X2057559Y1581558*
X2057218Y1581417*
X2056195*
X2056990D02*
X2057786Y1579870D01*
X2058922Y1582120D02*
Y1582261D01*
X2059036Y1582542*
X2059149Y1582683*
X2059377Y1582823*
X2059831*
X2060059Y1582683*
X2060172Y1582542*
X2060286Y1582261*
Y1581979*
X2060172Y1581698*
X2059945Y1581276*
X2058809Y1579870*
X2060399*
X2063013Y1582823D02*
X2061877Y1579870D01*
X2061422Y1582823D02*
X2063013D01*
X2055919Y1577902D02*
Y1574949D01*
Y1577902D02*
X2056942D01*
X2057283Y1577761*
X2057397Y1577621*
X2057510Y1577339*
Y1577058*
X2057397Y1576777*
X2057283Y1576636*
X2056942Y1576496*
X2055919*
X2056715D02*
X2057510Y1574949D01*
X2058647Y1577199D02*
Y1577339D01*
X2058760Y1577621*
X2058874Y1577761*
X2059101Y1577902*
X2059556*
X2059783Y1577761*
X2059897Y1577621*
X2060010Y1577339*
Y1577058*
X2059897Y1576777*
X2059669Y1576355*
X2058533Y1574949*
X2060124*
X2061715Y1577902D02*
X2061374Y1577761D01*
X2061260Y1577480*
Y1577199*
X2061374Y1576918*
X2061601Y1576777*
X2062056Y1576636*
X2062397Y1576496*
X2062624Y1576214*
X2062737Y1575933*
Y1575511*
X2062624Y1575230*
X2062510Y1575089*
X2062169Y1574949*
X2061715*
X2061374Y1575089*
X2061260Y1575230*
X2061147Y1575511*
Y1575933*
X2061260Y1576214*
X2061487Y1576496*
X2061828Y1576636*
X2062283Y1576777*
X2062510Y1576918*
X2062624Y1577199*
Y1577480*
X2062510Y1577761*
X2062169Y1577902*
X2061715*
X1898214Y1642317D02*
X1898101Y1642598D01*
X1897873Y1642879*
X1897646Y1643020*
X1897192*
X1896964Y1642879*
X1896737Y1642598*
X1896623Y1642317*
X1896510Y1641895*
Y1641192*
X1896623Y1640770*
X1896737Y1640489*
X1896964Y1640208*
X1897192Y1640067*
X1897646*
X1897873Y1640208*
X1898101Y1640489*
X1898214Y1640770*
X1899351Y1642317D02*
Y1642458D01*
X1899464Y1642739*
X1899578Y1642879*
X1899805Y1643020*
X1900260*
X1900487Y1642879*
X1900601Y1642739*
X1900714Y1642458*
Y1642176*
X1900601Y1641895*
X1900373Y1641473*
X1899237Y1640067*
X1900828*
X1901851Y1642458D02*
X1902078Y1642598D01*
X1902419Y1643020*
Y1640067*
X1926274Y1694634D02*
Y1691681D01*
Y1694634D02*
X1927296D01*
X1927637Y1694494*
X1927751Y1694353*
X1927865Y1694072*
Y1693790*
X1927751Y1693509*
X1927637Y1693369*
X1927296Y1693228*
X1926274*
X1927069D02*
X1927865Y1691681D01*
X1928887Y1694072D02*
X1929115Y1694212D01*
X1929455Y1694634*
Y1691681*
X1937545Y1631530D02*
X1937431Y1631811D01*
X1937204Y1632092*
X1936977Y1632233*
X1936522*
X1936295Y1632092*
X1936068Y1631811*
X1935954Y1631530*
X1935841Y1631108*
Y1630405*
X1935954Y1629983*
X1936068Y1629701*
X1936295Y1629420*
X1936522Y1629280*
X1936977*
X1937204Y1629420*
X1937431Y1629701*
X1937545Y1629983*
X1938681Y1631530D02*
Y1631670D01*
X1938795Y1631951*
X1938909Y1632092*
X1939136Y1632233*
X1939591*
X1939818Y1632092*
X1939931Y1631951*
X1940045Y1631670*
Y1631389*
X1939931Y1631108*
X1939704Y1630686*
X1938568Y1629280*
X1940159*
X1941295Y1631530D02*
Y1631670D01*
X1941409Y1631951*
X1941522Y1632092*
X1941750Y1632233*
X1942204*
X1942431Y1632092*
X1942545Y1631951*
X1942659Y1631670*
Y1631389*
X1942545Y1631108*
X1942318Y1630686*
X1941181Y1629280*
X1942772*
X1917466Y1693931D02*
X1917353Y1694212D01*
X1917125Y1694494*
X1916898Y1694634*
X1916444*
X1916216Y1694494*
X1915989Y1694212*
X1915875Y1693931*
X1915762Y1693509*
Y1692806*
X1915875Y1692384*
X1915989Y1692103*
X1916216Y1691822*
X1916444Y1691681*
X1916898*
X1917125Y1691822*
X1917353Y1692103*
X1917466Y1692384*
X1918603Y1693931D02*
Y1694072D01*
X1918716Y1694353*
X1918830Y1694494*
X1919057Y1694634*
X1919512*
X1919739Y1694494*
X1919853Y1694353*
X1919966Y1694072*
Y1693790*
X1919853Y1693509*
X1919625Y1693087*
X1918489Y1691681*
X1920080*
X1921330Y1694634D02*
X1922580D01*
X1921898Y1693509*
X1922239*
X1922466Y1693369*
X1922580Y1693228*
X1922694Y1692806*
Y1692525*
X1922580Y1692103*
X1922353Y1691822*
X1922012Y1691681*
X1921671*
X1921330Y1691822*
X1921216Y1691962*
X1921103Y1692244*
X1946195Y1632508D02*
Y1629555D01*
Y1632508D02*
X1947218D01*
X1947559Y1632368*
X1947672Y1632227*
X1947786Y1631946*
Y1631664*
X1947672Y1631383*
X1947559Y1631243*
X1947218Y1631102*
X1946195*
X1946990D02*
X1947786Y1629555D01*
X1948922Y1631805D02*
Y1631946D01*
X1949036Y1632227*
X1949149Y1632368*
X1949377Y1632508*
X1949831*
X1950059Y1632368*
X1950172Y1632227*
X1950286Y1631946*
Y1631664*
X1950172Y1631383*
X1949945Y1630961*
X1948809Y1629555*
X1950399*
X1952899Y1632508D02*
X1951763D01*
X1951649Y1631243*
X1951763Y1631383*
X1952104Y1631524*
X1952445*
X1952786Y1631383*
X1953013Y1631102*
X1953127Y1630680*
X1953013Y1630399*
X1952899Y1629977*
X1952672Y1629696*
X1952331Y1629555*
X1951990*
X1951649Y1629696*
X1951536Y1629836*
X1951422Y1630118*
X1966679Y1679994D02*
X1966565Y1680275D01*
X1966338Y1680557*
X1966111Y1680697*
X1965656*
X1965429Y1680557*
X1965202Y1680275*
X1965088Y1679994*
X1964974Y1679572*
Y1678869*
X1965088Y1678447*
X1965202Y1678166*
X1965429Y1677885*
X1965656Y1677744*
X1966111*
X1966338Y1677885*
X1966565Y1678166*
X1966679Y1678447*
X1967815Y1679994D02*
Y1680135D01*
X1967929Y1680416*
X1968043Y1680557*
X1968270Y1680697*
X1968724*
X1968952Y1680557*
X1969065Y1680416*
X1969179Y1680135*
Y1679853*
X1969065Y1679572*
X1968838Y1679150*
X1967702Y1677744*
X1969293*
X1971793Y1680697D02*
X1970656D01*
X1970543Y1679432*
X1970656Y1679572*
X1970997Y1679713*
X1971338*
X1971679Y1679572*
X1971906Y1679291*
X1972020Y1678869*
X1971906Y1678588*
X1971793Y1678166*
X1971565Y1677885*
X1971224Y1677744*
X1970884*
X1970884D02*
X1970543Y1677885D01*
X1970429Y1678025*
X1970315Y1678307*
X1869108Y1640894D02*
Y1637941D01*
Y1640894D02*
X1870131D01*
X1870472Y1640753*
X1870586Y1640613*
X1870699Y1640332*
Y1640050*
X1870586Y1639769*
X1870472Y1639628*
X1870131Y1639488*
X1869108*
X1869904D02*
X1870699Y1637941D01*
X1871836Y1640191D02*
Y1640332D01*
X1871949Y1640613*
X1872063Y1640753*
X1872290Y1640894*
X1872745*
X1872972Y1640753*
X1873086Y1640613*
X1873199Y1640332*
Y1640050*
X1873086Y1639769*
X1872858Y1639347*
X1871722Y1637941*
X1873313*
X1875699Y1640472D02*
X1875586Y1640753D01*
X1875245Y1640894*
X1875017*
X1874676Y1640753*
X1874449Y1640332*
X1874336Y1639628*
Y1638925*
X1874449Y1638363*
X1874676Y1638082*
X1875017Y1637941*
X1875131*
X1875472Y1638082*
X1875699Y1638363*
X1875813Y1638785*
Y1638925*
X1875699Y1639347*
X1875472Y1639628*
X1875131Y1639769*
X1875017*
X1874676Y1639628*
X1874449Y1639347*
X1874336Y1638925*
X1870892Y1645467D02*
X1870778Y1645748D01*
X1870551Y1646029*
X1870323Y1646170*
X1869869*
X1869642Y1646029*
X1869414Y1645748*
X1869301Y1645467*
X1869187Y1645045*
Y1644342*
X1869301Y1643920*
X1869414Y1643638*
X1869642Y1643357*
X1869869Y1643217*
X1870323*
X1870551Y1643357*
X1870778Y1643638*
X1870892Y1643920*
X1872028Y1645467D02*
Y1645607D01*
X1872142Y1645888*
X1872255Y1646029*
X1872482Y1646170*
X1872937*
X1873164Y1646029*
X1873278Y1645888*
X1873392Y1645607*
Y1645326*
X1873278Y1645045*
X1873051Y1644623*
X1871914Y1643217*
X1873505*
X1875892Y1645748D02*
X1875778Y1646029D01*
X1875437Y1646170*
X1875210*
X1874869Y1646029*
X1874642Y1645607*
X1874528Y1644904*
Y1644201*
X1874642Y1643638*
X1874869Y1643357*
X1875210Y1643217*
X1875323*
X1875664Y1643357*
X1875892Y1643638*
X1876005Y1644060*
Y1644201*
X1875892Y1644623*
X1875664Y1644904*
X1875323Y1645045*
X1875210*
X1874869Y1644904*
X1874642Y1644623*
X1874528Y1644201*
X2074974Y1542508D02*
Y1539555D01*
Y1542508D02*
X2075997D01*
X2076338Y1542368*
X2076452Y1542227*
X2076565Y1541946*
Y1541664*
X2076452Y1541383*
X2076338Y1541243*
X2075997Y1541102*
X2074974*
X2075770D02*
X2076565Y1539555D01*
X2077815Y1542508D02*
X2079065D01*
X2078384Y1541383*
X2078384D02*
X2078724D01*
X2078952Y1541243*
X2079065Y1541102*
X2079179Y1540680*
Y1540399*
X2079065Y1539977*
X2078838Y1539696*
X2078497Y1539555*
X2078156*
X2077815Y1539696*
X2077702Y1539836*
X2077588Y1540118*
X2080315Y1541805D02*
Y1541946D01*
X2080429Y1542227*
X2080543Y1542368*
X2080770Y1542508*
X2081224*
X2081452Y1542368*
X2081565Y1542227*
X2081679Y1541946*
Y1541664*
X2081565Y1541383*
X2081338Y1540961*
X2080202Y1539555*
X2081793*
X2089620Y1518138D02*
Y1515185D01*
Y1518138D02*
X2090643D01*
X2090984Y1517998*
X2091097Y1517857*
X2091211Y1517576*
Y1517294*
X2091097Y1517013*
X2090984Y1516873*
X2090643Y1516732*
X2089620*
X2090416D02*
X2091211Y1515185D01*
X2092347Y1517435D02*
Y1517576D01*
X2092461Y1517857*
X2092575Y1517998*
X2092802Y1518138*
X2093256*
X2093484Y1517998*
X2093597Y1517857*
X2093711Y1517576*
Y1517294*
X2093597Y1517013*
X2093370Y1516591*
X2092234Y1515185*
X2093825*
X2096325Y1517154D02*
X2096211Y1516732D01*
X2095984Y1516451*
X2095643Y1516310*
X2095529*
X2095188Y1516451*
X2094961Y1516732*
X2094847Y1517154*
Y1517294*
X2094961Y1517716*
X2095188Y1517998*
X2095529Y1518138*
X2095643*
X2095984Y1517998*
X2096211Y1517716*
X2096325Y1517154*
Y1516451*
X2096211Y1515748*
X2095984Y1515326*
X2095643Y1515185*
X2095416*
X2095075Y1515326*
X2094961Y1515607*
X2053163Y1518414D02*
Y1515461D01*
Y1518414D02*
X2054186D01*
X2054527Y1518273*
X2054641Y1518133*
X2054754Y1517851*
Y1517570*
X2054641Y1517289*
X2054527Y1517148*
X2054186Y1517008*
X2053163*
X2053959D02*
X2054754Y1515461D01*
X2056004Y1518414D02*
X2057254D01*
X2056572Y1517289*
X2056913*
X2057141Y1517148*
X2057254Y1517008*
X2057368Y1516586*
Y1516304*
X2057254Y1515883*
X2057027Y1515601*
X2056686Y1515461*
X2056345*
X2056004Y1515601*
X2055891Y1515742*
X2055777Y1516023*
X2059072Y1518414D02*
X2058732Y1518273D01*
X2058504Y1517851*
X2058391Y1517148*
Y1516726*
X2058504Y1516023*
X2058732Y1515601*
X2059072Y1515461*
X2059300*
X2059641Y1515601*
X2059868Y1516023*
X2059982Y1516726*
Y1517148*
X2059868Y1517851*
X2059641Y1518273*
X2059300Y1518414*
X2059072*
X1972494Y1510146D02*
Y1507193D01*
Y1510146D02*
X1973517D01*
X1973858Y1510005*
X1973971Y1509865*
X1974085Y1509584*
Y1509302*
X1973971Y1509021*
X1973858Y1508880*
X1973517Y1508740*
X1972494*
X1973290D02*
X1974085Y1507193D01*
X1975335Y1510146D02*
X1976585D01*
X1975903Y1509021*
X1976244*
X1976471Y1508880*
X1976585Y1508740*
X1976699Y1508318*
Y1508037*
X1976585Y1507615*
X1976358Y1507334*
X1976017Y1507193*
X1975676*
X1975335Y1507334*
X1975221Y1507474*
X1975108Y1507755*
X1978290Y1510146D02*
X1977949Y1510005D01*
X1977835Y1509724*
Y1509443*
X1977949Y1509162*
X1978176Y1509021*
X1978630Y1508880*
X1978971Y1508740*
X1979199Y1508459*
X1979312Y1508177*
Y1507755*
X1979199Y1507474*
X1979085Y1507334*
X1978744Y1507193*
X1978290*
X1977949Y1507334*
X1977835Y1507474*
X1977721Y1507755*
Y1508177*
X1977835Y1508459*
X1978062Y1508740*
X1978403Y1508880*
X1978858Y1509021*
X1979085Y1509162*
X1979199Y1509443*
Y1509724*
X1979085Y1510005*
X1978744Y1510146*
X1978290*
X2001785Y1533453D02*
Y1531344D01*
X2001899Y1530922*
X2002126Y1530641*
X2002467Y1530500*
X2002695*
X2003035Y1530641*
X2003263Y1530922*
X2003376Y1531344*
Y1533453*
X2005990D02*
X2004854Y1530500D01*
X2004399Y1533453D02*
X2005990D01*
X1959317Y1576175D02*
X1959203Y1576456D01*
X1958976Y1576738*
X1958749Y1576878*
X1958294*
X1958067Y1576738*
X1957839Y1576456*
X1957726Y1576175*
X1957612Y1575753*
Y1575050*
X1957726Y1574628*
X1957839Y1574347*
X1958067Y1574066*
X1958294Y1573925*
X1958749*
X1958976Y1574066*
X1959203Y1574347*
X1959317Y1574628*
X1960339Y1576316D02*
X1960567Y1576456D01*
X1960908Y1576878*
Y1573925*
X1963521Y1576878D02*
X1962385Y1573925D01*
X1961930Y1576878D02*
X1963521D01*
X2017888Y1581445D02*
Y1578492D01*
Y1581445D02*
X2018911D01*
X2019251Y1581305*
X2019365Y1581164*
X2019479Y1580883*
Y1580602*
X2019479D02*
X2019365Y1580320D01*
X2019251Y1580180*
X2018911Y1580039*
X2017888*
X2018683D02*
X2019479Y1578492D01*
X2020729Y1581445D02*
X2021979D01*
X2021297Y1580320*
X2021638*
X2021865Y1580180*
X2021979Y1580039*
X2022092Y1579617*
Y1579336*
X2021979Y1578914*
X2021751Y1578633*
X2021411Y1578492*
X2021070*
X2020729Y1578633*
X2020615Y1578773*
X2020501Y1579055*
X2024592Y1581445D02*
X2023456D01*
X2023342Y1580180*
X2023456Y1580320*
X2023797Y1580461*
X2024138*
X2024479Y1580320*
X2024706Y1580039*
X2024820Y1579617*
X2024706Y1579336*
X2024592Y1578914*
X2024365Y1578633*
X2024024Y1578492*
X2023683*
X2023342Y1578633*
X2023229Y1578773*
X2023115Y1579055*
X1961037Y1599044D02*
Y1596091D01*
Y1599044D02*
X1962060D01*
X1962401Y1598903*
X1962515Y1598762*
X1962628Y1598481*
Y1598200*
X1962515Y1597919*
X1962401Y1597778*
X1962060Y1597637*
X1961037*
X1961833D02*
X1962628Y1596091D01*
X1963878Y1599044D02*
X1965128D01*
X1964446Y1597919*
X1964787*
X1965015Y1597778*
X1965128Y1597637*
X1965242Y1597216*
Y1596934*
X1965128Y1596512*
X1964901Y1596231*
X1964560Y1596091*
X1964219*
X1963878Y1596231*
X1963765Y1596372*
X1963651Y1596653*
X1967401Y1599044D02*
X1966265Y1597075D01*
X1967969*
X1967401Y1599044D02*
Y1596091D01*
X1995407Y1608138D02*
Y1606029D01*
X1995521Y1605607*
X1995748Y1605326*
X1996089Y1605185*
X1996317*
X1996657Y1605326*
X1996885Y1605607*
X1996998Y1606029*
Y1608138*
X1998021Y1607576D02*
X1998248Y1607716D01*
X1998589Y1608138*
Y1605185*
X1999839Y1608138D02*
X2001089D01*
X2000407Y1607013*
X2000748*
X2000976Y1606873*
X2001089Y1606732*
X2001203Y1606310*
Y1606029*
X2001089Y1605607*
X2000862Y1605326*
X2000521Y1605185*
X2000180*
X1999839Y1605326*
X1999726Y1605466*
X1999612Y1605748*
X1998766Y1514049D02*
X1998652Y1514330D01*
X1998425Y1514612*
X1998197Y1514752*
X1997743*
X1997516Y1514612*
X1997288Y1514330*
X1997175Y1514049*
X1997061Y1513627*
Y1512924*
X1997175Y1512502*
X1997288Y1512221*
X1997516Y1511940*
X1997743Y1511799*
X1998197*
X1998425Y1511940*
X1998652Y1512221*
X1998766Y1512502*
X2000925Y1514752D02*
X1999788Y1512784D01*
X2001493*
X2000925Y1514752D02*
Y1511799D01*
X2003993Y1513768D02*
X2003879Y1513346D01*
X2003652Y1513065*
X2003311Y1512924*
X2003197*
X2002856Y1513065*
X2002629Y1513346*
X2002516Y1513768*
Y1513909*
X2002629Y1514330*
X2002856Y1514612*
X2003197Y1514752*
X2003311*
X2003652Y1514612*
X2003879Y1514330*
X2003993Y1513768*
Y1513065*
X2003879Y1512362*
X2003652Y1511940*
X2003311Y1511799*
X2003084*
X2002743Y1511940*
X2002629Y1512221*
X1984148Y1556012D02*
Y1553059D01*
X1985511*
X1988011Y1556012D02*
X1986875D01*
X1986761Y1554747*
X1986875Y1554887*
X1987216Y1555028*
X1987557*
X1987898Y1554887*
X1988125Y1554606*
X1988239Y1554184*
X1988125Y1553903*
X1988011Y1553481*
X1987784Y1553200*
X1987443Y1553059*
X1987102*
X1986761Y1553200*
X1986648Y1553340*
X1986534Y1553622*
X1972691Y1517390D02*
Y1514437D01*
Y1517390D02*
X1973714D01*
X1974055Y1517250*
X1974168Y1517109*
X1974282Y1516828*
Y1516546*
X1974168Y1516265*
X1974055Y1516125*
X1973714Y1515984*
X1972691*
X1973486D02*
X1974282Y1514437D01*
X1975532Y1517390D02*
X1976782D01*
X1976100Y1516265*
X1976441*
X1976668Y1516125*
X1976782Y1515984*
X1976895Y1515562*
Y1515281*
X1976782Y1514859*
X1976555Y1514578*
X1976214Y1514437*
X1975873*
X1975532Y1514578*
X1975418Y1514718*
X1975305Y1515000*
X1979509Y1517390D02*
X1978373Y1514437D01*
X1977918Y1517390D02*
X1979509D01*
X1986431Y1504989D02*
Y1502035D01*
Y1504989D02*
X1987454D01*
X1987795Y1504848*
X1987908Y1504707*
X1988022Y1504426*
Y1504145*
X1987908Y1503864*
X1987795Y1503723*
X1987454Y1503582*
X1986431*
X1987227D02*
X1988022Y1502035D01*
X1989272Y1504989D02*
X1990522D01*
X1989840Y1503864*
X1990181*
X1990408Y1503723*
X1990522Y1503582*
X1990636Y1503160*
Y1502879*
X1990522Y1502457*
X1990295Y1502176*
X1989954Y1502035*
X1989613*
X1989272Y1502176*
X1989158Y1502317*
X1989045Y1502598*
X1993136Y1504004D02*
X1993022Y1503582D01*
X1992795Y1503301*
X1992454Y1503160*
X1992340*
X1991999Y1503301*
X1991772Y1503582*
X1991658Y1504004*
Y1504145*
X1991772Y1504567*
X1991999Y1504848*
X1992340Y1504989*
X1992454*
X1992795Y1504848*
X1993022Y1504567*
X1993136Y1504004*
Y1503301*
X1993022Y1502598*
X1992795Y1502176*
X1992454Y1502035*
X1992227*
X1991886Y1502176*
X1991772Y1502457*
X1957781Y1514207D02*
X1957668Y1514488D01*
X1957440Y1514769*
X1957213Y1514910*
X1956759*
X1956531Y1514769*
X1956304Y1514488*
X1956190Y1514207*
X1956077Y1513785*
Y1513082*
X1956190Y1512660*
X1956304Y1512379*
X1956531Y1512097*
X1956759Y1511957*
X1957213*
X1957440Y1512097*
X1957668Y1512379*
X1957781Y1512660*
X1959940Y1514910D02*
X1958804Y1512941D01*
X1960509*
X1959940Y1514910D02*
Y1511957D01*
X1961645Y1514207D02*
Y1514347D01*
X1961759Y1514629*
X1961872Y1514769*
X1962100Y1514910*
X1962100D02*
X1962554D01*
X1962781Y1514769*
X1962895Y1514629*
X1963009Y1514347*
Y1514066*
X1962895Y1513785*
X1962668Y1513363*
X1961531Y1511957*
X1963122*
X2124463Y1566918D02*
Y1563965D01*
Y1566918D02*
X2125485D01*
X2125826Y1566777*
X2125940Y1566636*
X2126054Y1566355*
Y1566074*
X2125940Y1565793*
X2125826Y1565652*
X2125485Y1565511*
X2124463D02*
X2125485D01*
X2125826Y1565371*
X2125940Y1565230*
X2126054Y1564949*
Y1564527*
X2125940Y1564246*
X2125826Y1564105*
X2125485Y1563965*
X2124463*
X2127076Y1566918D02*
Y1563965D01*
Y1566918D02*
X2128554D01*
X2127076Y1565511D02*
X2127985D01*
X2127076Y1563965D02*
X2128554D01*
X2129576Y1566918D02*
Y1563965D01*
Y1566918D02*
X2131054D01*
X2129576Y1565511D02*
X2130485D01*
X2129576Y1563965D02*
X2131054D01*
X2132076Y1566918D02*
Y1563965D01*
Y1566918D02*
X2133099D01*
X2133440Y1566777*
X2133554Y1566636*
X2133667Y1566355*
Y1565933*
X2133554Y1565652*
X2133440Y1565511*
X2133099Y1565371*
X2132076*
X2134804Y1566215D02*
Y1566355D01*
X2134917Y1566636*
X2135031Y1566777*
X2135258Y1566918*
X2135713*
X2135940Y1566777*
X2136054Y1566636*
X2136167Y1566355*
Y1566074*
X2136054Y1565793*
X2135826Y1565371*
X2134690Y1563965*
X2136281*
X2115685Y1485188D02*
X2115458Y1485501D01*
X2115117Y1485657*
X2114663*
X2114322Y1485501*
X2114094Y1485188*
Y1484876*
X2114208Y1484563*
X2114322Y1484407*
X2114549Y1484251*
X2115231Y1483938*
X2115458Y1483782*
X2115572Y1483626*
X2115685Y1483313*
Y1482845*
X2115458Y1482532*
X2115117Y1482376*
X2114663*
X2114322Y1482532*
X2114094Y1482845*
X2116708Y1485657D02*
X2117276Y1482376D01*
X2117844Y1485657D02*
X2117276Y1482376D01*
X2117844Y1485657D02*
X2118413Y1482376D01*
X2118981Y1485657D02*
X2118413Y1482376D01*
X2120117Y1484876D02*
Y1485032D01*
X2120231Y1485345*
X2120344Y1485501*
X2120572Y1485657*
X2121026*
X2121254Y1485501*
X2121367Y1485345*
X2121481Y1485032*
Y1484720*
X2121367Y1484407*
X2121140Y1483938*
X2120004Y1482376*
X2121594*
X2078638Y1485425D02*
X2078411Y1485737D01*
X2078070Y1485893*
X2077615*
X2077275Y1485737*
X2077047Y1485425*
Y1485112*
X2077161Y1484800*
X2077275Y1484643*
X2077502Y1484487*
X2078184Y1484175*
X2078411Y1484018*
X2078525Y1483862*
X2078638Y1483550*
Y1483081*
X2078411Y1482768*
X2078070Y1482612*
X2077615*
X2077275Y1482768*
X2077047Y1483081*
X2079661Y1485893D02*
X2080229Y1482612D01*
X2080797Y1485893D02*
X2080229Y1482612D01*
X2080797Y1485893D02*
X2081365Y1482612D01*
X2081934Y1485893D02*
X2081365Y1482612D01*
X2083184Y1485893D02*
X2084434D01*
X2083752Y1484643*
X2084093*
X2084320Y1484487*
X2084434Y1484331*
X2084547Y1483862*
Y1483550*
X2084434Y1483081*
X2084206Y1482768*
X2083865Y1482612*
X2083525*
X2083184Y1482768*
X2083070Y1482925*
X2082956Y1483237*
X2042851Y1485110D02*
X2042623Y1485422D01*
X2042283Y1485578*
X2041828*
X2041487Y1485422*
X2041260Y1485110*
Y1484797*
X2041373Y1484485*
X2041487Y1484328*
X2041714Y1484172*
X2042396Y1483860*
X2042623Y1483703*
X2042737Y1483547*
X2042851Y1483235*
Y1482766*
X2042623Y1482453*
X2042283Y1482297*
X2041828*
X2041487Y1482453*
X2041260Y1482766*
X2043873Y1485578D02*
X2044442Y1482297D01*
X2045010Y1485578D02*
X2044442Y1482297D01*
X2045010Y1485578D02*
X2045578Y1482297D01*
X2046146Y1485578D02*
X2045578Y1482297D01*
X2048305Y1485578D02*
X2047169Y1483391D01*
X2048873*
X2048305Y1485578D02*
Y1482297D01*
X1865402Y1634983D02*
X1865174Y1634671D01*
X1864947Y1634202*
X1864720Y1633577*
X1864606Y1632796*
Y1632171*
X1864720Y1631389*
X1864947Y1630764*
X1865174Y1630296*
X1865402Y1629983*
X1866424Y1634358D02*
Y1631077D01*
Y1634358D02*
X1867447D01*
X1867788Y1634202*
X1867902Y1634046*
X1868015Y1633733*
Y1633421*
X1867902Y1633108*
X1867788Y1632952*
X1867447Y1632796*
X1866424*
X1867220D02*
X1868015Y1631077D01*
X1869038Y1632327D02*
X1870402D01*
Y1632639*
X1870288Y1632952*
X1870174Y1633108*
X1869947Y1633264*
X1869606*
X1869379Y1633108*
X1869152Y1632796*
X1869038Y1632327*
Y1632014*
X1869152Y1631546*
X1869379Y1631233*
X1869606Y1631077*
X1869947*
X1870174Y1631233*
X1870402Y1631546*
X1872788Y1634358D02*
Y1631077D01*
Y1632796D02*
X1872561Y1633108D01*
X1872334Y1633264*
X1871993*
X1871765Y1633108*
X1871538Y1632796*
X1871424Y1632327*
Y1632014*
X1871538Y1631546*
X1871765Y1631233*
X1871993Y1631077*
X1872334*
X1872561Y1631233*
X1872788Y1631546*
X1873811Y1634983D02*
X1874038Y1634671D01*
X1874265Y1634202*
X1874493Y1633577*
X1874606Y1632796*
Y1632171*
X1874493Y1631389*
X1874265Y1630764*
X1874038Y1630296*
X1873811Y1629983*
X1866740Y1628290D02*
X1866513Y1627978D01*
X1866286Y1627509*
X1866059Y1626884*
X1865945Y1626103*
Y1625478*
X1866059Y1624696*
X1866286Y1624071*
X1866513Y1623603*
X1866740Y1623290*
X1869468Y1626884D02*
X1869354Y1627196D01*
X1869127Y1627509*
X1868899Y1627665*
X1868445*
X1868218Y1627509*
X1867990Y1627196*
X1867877Y1626884*
X1867763Y1626415*
Y1625634*
X1867877Y1625165*
X1867990Y1624853*
X1868218Y1624540*
X1868445Y1624384*
X1868899*
X1869127Y1624540*
X1869354Y1624853*
X1869468Y1625165*
Y1625634*
X1868899D02*
X1869468D01*
X1870490Y1626571D02*
Y1624384D01*
Y1625634D02*
X1870604Y1626103D01*
X1870831Y1626415*
X1871059Y1626571*
X1871399*
X1872422Y1625634D02*
X1873786D01*
Y1625946*
X1873672Y1626259*
X1873559Y1626415*
X1873331Y1626571*
X1872990*
X1872763Y1626415*
X1872536Y1626103*
X1872422Y1625634*
Y1625321*
X1872536Y1624853*
X1872763Y1624540*
X1872990Y1624384*
X1873331*
X1873559Y1624540*
X1873786Y1624853*
X1874809Y1625634D02*
X1876172D01*
Y1625946*
X1876059Y1626259*
X1875945Y1626415*
X1875718Y1626571*
X1875377*
X1875149Y1626415*
X1874922Y1626103*
X1874809Y1625634*
Y1625321*
X1874922Y1624853*
X1875149Y1624540*
X1875377Y1624384*
X1875718*
X1875945Y1624540*
X1876172Y1624853*
X1877195Y1626571D02*
Y1624384D01*
Y1625946D02*
X1877536Y1626415D01*
X1877763Y1626571*
X1878104*
X1878331Y1626415*
X1878445Y1625946*
Y1624384*
X1879468Y1628290D02*
X1879695Y1627978D01*
X1879922Y1627509*
X1880149Y1626884*
X1880263Y1626103*
Y1625478*
X1880149Y1624696*
X1879922Y1624071*
X1879695Y1623603*
X1879468Y1623290*
X1866662Y1621085D02*
X1866434Y1620773D01*
X1866207Y1620304*
X1865980Y1619679*
X1865866Y1618898*
Y1618273*
X1865980Y1617492*
X1866207Y1616867*
X1866434Y1616398*
X1866662Y1616085*
X1867684Y1620460D02*
X1868593Y1618898D01*
Y1617179*
X1869503Y1620460D02*
X1868593Y1618898D01*
X1870525Y1618429D02*
X1871889D01*
Y1618742*
X1871775Y1619054*
X1871662Y1619210*
X1871434Y1619367*
X1871093*
X1870866Y1619210*
X1870639Y1618898*
X1870525Y1618429*
Y1618117*
X1870639Y1617648*
X1870866Y1617335*
X1871093Y1617179*
X1871434*
X1871662Y1617335*
X1871889Y1617648*
X1872912Y1620460D02*
Y1617179D01*
X1873934Y1620460D02*
Y1617179D01*
X1875525Y1619367D02*
X1875298Y1619210D01*
X1875071Y1618898*
X1874957Y1618429*
Y1618117*
X1875071Y1617648*
X1875298Y1617335*
X1875525Y1617179*
X1875866*
X1876093Y1617335*
X1876321Y1617648*
X1876434Y1618117*
Y1618429*
X1876321Y1618898*
X1876093Y1619210*
X1875866Y1619367*
X1875525*
X1877457D02*
X1877912Y1617179D01*
X1878366Y1619367D02*
X1877912Y1617179D01*
X1878366Y1619367D02*
X1878821Y1617179D01*
X1879275Y1619367D02*
X1878821Y1617179D01*
X1880298Y1621085D02*
X1880525Y1620773D01*
X1880753Y1620304*
X1880980Y1619679*
X1881093Y1618898*
Y1618273*
X1880980Y1617492*
X1880753Y1616867*
X1880525Y1616398*
X1880298Y1616085*
X2050717Y1714747D02*
X2050489Y1714434D01*
X2050262Y1713966*
X2050035Y1713341*
X2049921Y1712559*
Y1711934*
X2050035Y1711153*
X2050262Y1710528*
X2050489Y1710059*
X2050717Y1709747*
X2051739Y1714122D02*
Y1710841D01*
Y1714122D02*
X2052762D01*
X2053103Y1713966*
X2053217Y1713809*
X2053330Y1713497*
Y1713184*
X2053217Y1712872*
X2053103Y1712716*
X2052762Y1712559*
X2051739D02*
X2052762D01*
X2053103Y1712403*
X2053217Y1712247*
X2053330Y1711934*
Y1711466*
X2053217Y1711153*
X2053103Y1710997*
X2052762Y1710841*
X2051739*
X2054353Y1714122D02*
Y1710841D01*
X2055376Y1713028D02*
Y1711466D01*
X2055489Y1710997*
X2055717Y1710841*
X2056058*
X2056285Y1710997*
X2056626Y1711466*
Y1713028D02*
Y1710841D01*
X2057649Y1712091D02*
X2059012D01*
Y1712403*
X2058899Y1712716*
X2058785Y1712872*
X2058558Y1713028*
X2058217*
X2057989Y1712872*
X2057762Y1712559*
X2057649Y1712091*
Y1711778*
X2057762Y1711309*
X2057989Y1710997*
X2058217Y1710841*
X2058558*
X2058785Y1710997*
X2059012Y1711309*
X2060035Y1714747D02*
X2060262Y1714434D01*
X2060489Y1713966*
X2060717Y1713341*
X2060830Y1712559*
Y1711934*
X2060717Y1711153*
X2060489Y1710528*
X2060262Y1710059*
X2060035Y1709747*
X1899646Y1488571D02*
Y1485289D01*
Y1488571D02*
X1900668D01*
X1901009Y1488414*
X1901123Y1488258*
X1901237Y1487946*
Y1487633*
X1901123Y1487321*
X1901009Y1487164*
X1900668Y1487008*
X1899646D02*
X1900668D01*
X1901009Y1486852*
X1901123Y1486696*
X1901237Y1486383*
Y1485914*
X1901123Y1485602*
X1901009Y1485446*
X1900668Y1485289*
X1899646*
X1903623Y1487477D02*
Y1485289D01*
Y1487008D02*
X1903396Y1487321D01*
X1903168Y1487477*
X1902827*
X1902600Y1487321*
X1902373Y1487008*
X1902259Y1486539*
Y1486227*
X1902373Y1485758*
X1902600Y1485446*
X1902827Y1485289*
X1903168*
X1903396Y1485446*
X1903623Y1485758*
X1904987Y1488571D02*
Y1485914D01*
X1905100Y1485446*
X1905327Y1485289*
X1905555*
X1904646Y1487477D02*
X1905441D01*
X1906918Y1488571D02*
Y1485914D01*
X1907032Y1485446*
X1907259Y1485289*
X1907487*
X1906577Y1487477D02*
X1907373D01*
X1909873D02*
Y1485289D01*
Y1487008D02*
X1909646Y1487321D01*
X1909418Y1487477*
X1909077*
X1908850Y1487321*
X1908623Y1487008*
X1908509Y1486539*
Y1486227*
X1908623Y1485758*
X1908850Y1485446*
X1909077Y1485289*
X1909418*
X1909646Y1485446*
X1909873Y1485758*
X1910896Y1487477D02*
Y1485289D01*
Y1486539D02*
X1911009Y1487008D01*
X1911237Y1487321*
X1911464Y1487477*
X1911805*
X1912941D02*
X1913623Y1485289D01*
X1914305Y1487477D02*
X1913623Y1485289D01*
X1913396Y1484664*
X1913168Y1484352*
X1912941Y1484196*
X1912827*
X2050835Y1486558D02*
X2050608Y1486245D01*
X2050380Y1485777*
X2050153Y1485152*
X2050039Y1484370*
Y1483745*
X2050153Y1482964*
X2050380Y1482339*
X2050608Y1481870*
X2050835Y1481558*
X2051858Y1485933D02*
Y1482652D01*
Y1485933D02*
X2052880D01*
X2053221Y1485777*
X2053335Y1485620*
X2053448Y1485308*
Y1484995*
X2053335Y1484683*
X2053221Y1484527*
X2052880Y1484370*
X2051858*
X2052653D02*
X2053448Y1482652D01*
X2054471Y1483902D02*
X2055835D01*
Y1484214*
X2055721Y1484527*
X2055608Y1484683*
X2055380Y1484839*
X2055039*
X2054812Y1484683*
X2054585Y1484370*
X2054471Y1483902*
Y1483589*
X2054585Y1483120*
X2054812Y1482808*
X2055039Y1482652*
X2055380*
X2055608Y1482808*
X2055835Y1483120*
X2058108Y1484370D02*
X2057994Y1484683D01*
X2057653Y1484839*
X2057312*
X2056971Y1484683*
X2056858Y1484370*
X2056971Y1484058*
X2057198Y1483902*
X2057767Y1483745*
X2057994Y1483589*
X2058108Y1483277*
Y1483120*
X2057994Y1482808*
X2057653Y1482652*
X2057312*
X2056971Y1482808*
X2056858Y1483120*
X2059130Y1483902D02*
X2060494D01*
Y1484214*
X2060380Y1484527*
X2060267Y1484683*
X2060039Y1484839*
X2059698*
X2059471Y1484683*
X2059244Y1484370*
X2059130Y1483902*
Y1483589*
X2059244Y1483120*
X2059471Y1482808*
X2059698Y1482652*
X2060039*
X2060267Y1482808*
X2060494Y1483120*
X2061858Y1485933D02*
Y1483277D01*
X2061971Y1482808*
X2062198Y1482652*
X2062426*
X2061517Y1484839D02*
X2062312D01*
X2063448Y1486558D02*
X2063676Y1486245D01*
X2063903Y1485777*
X2064130Y1485152*
X2064244Y1484370*
Y1483745*
X2064130Y1482964*
X2063903Y1482339*
X2063676Y1481870*
X2063448Y1481558*
X2086307Y1486912D02*
X2086080Y1486600D01*
X2085853Y1486131*
X2085625Y1485506*
X2085512Y1484725*
Y1484100*
X2085625Y1483318*
X2085853Y1482693*
X2086080Y1482225*
X2086307Y1481912*
X2087330Y1486287D02*
Y1483006D01*
Y1486287D02*
X2088807D01*
X2087330Y1484725D02*
X2088239D01*
X2087330Y1483006D02*
X2088807D01*
X2089830Y1485193D02*
Y1483006D01*
Y1484256D02*
X2089944Y1484725D01*
X2090171Y1485037*
X2090398Y1485193*
X2090739*
X2093125D02*
Y1483006D01*
Y1484725D02*
X2092898Y1485037D01*
X2092671Y1485193*
X2092330*
X2092103Y1485037*
X2091875Y1484725*
X2091762Y1484256*
Y1483943*
X2091875Y1483475*
X2092103Y1483162*
X2092330Y1483006*
X2092671*
X2092898Y1483162*
X2093125Y1483475*
X2095398Y1484725D02*
X2095285Y1485037D01*
X2094944Y1485193*
X2094603*
X2094262Y1485037*
X2094148Y1484725*
X2094262Y1484412*
X2094489Y1484256*
X2095057Y1484100*
X2095285Y1483943*
X2095398Y1483631*
Y1483475*
X2095285Y1483162*
X2094944Y1483006*
X2094603*
X2094262Y1483162*
X2094148Y1483475*
X2096421Y1484256D02*
X2097785D01*
Y1484568*
X2097671Y1484881*
X2097557Y1485037*
X2097330Y1485193*
X2096989*
X2096762Y1485037*
X2096535Y1484725*
X2096421Y1484256*
Y1483943*
X2096535Y1483475*
X2096762Y1483162*
X2096989Y1483006*
X2097330*
X2097557Y1483162*
X2097785Y1483475*
X2098807Y1486912D02*
X2099035Y1486600D01*
X2099262Y1486131*
X2099489Y1485506*
X2099603Y1484725*
Y1484100*
X2099489Y1483318*
X2099262Y1482693*
X2099035Y1482225*
X2098807Y1481912*
X2123197Y1486518D02*
X2122970Y1486206D01*
X2122742Y1485737*
X2122515Y1485112*
X2122402Y1484331*
Y1483706*
X2122515Y1482925*
X2122742Y1482300*
X2122970Y1481831*
X2123197Y1481518*
X2125811Y1485425D02*
X2125583Y1485737D01*
X2125242Y1485893*
X2124788*
X2124447Y1485737*
X2124220Y1485425*
Y1485112*
X2124333Y1484800*
X2124447Y1484643*
X2124674Y1484487*
X2125356Y1484175*
X2125583Y1484018*
X2125697Y1483862*
X2125811Y1483550*
Y1483081*
X2125583Y1482768*
X2125242Y1482612*
X2124788*
X2124447Y1482768*
X2124220Y1483081*
X2128197Y1484331D02*
X2127970Y1484643D01*
X2127742Y1484800*
X2127402*
X2127174Y1484643*
X2126947Y1484331*
X2126833Y1483862*
Y1483550*
X2126947Y1483081*
X2127174Y1482768*
X2127402Y1482612*
X2127742*
X2127970Y1482768*
X2128197Y1483081*
X2130583Y1484800D02*
Y1482612D01*
Y1484331D02*
X2130356Y1484643D01*
X2130129Y1484800*
X2129788*
X2129561Y1484643*
X2129333Y1484331*
X2129220Y1483862*
Y1483550*
X2129333Y1483081*
X2129561Y1482768*
X2129788Y1482612*
X2130129*
X2130356Y1482768*
X2130583Y1483081*
X2131606Y1484800D02*
Y1482612D01*
Y1484175D02*
X2131947Y1484643D01*
X2132174Y1484800*
X2132515*
X2132742Y1484643*
X2132856Y1484175*
Y1482612*
X2133879Y1486518D02*
X2134106Y1486206D01*
X2134333Y1485737*
X2134561Y1485112*
X2134674Y1484331*
Y1483706*
X2134561Y1482925*
X2134333Y1482300*
X2134106Y1481831*
X2133879Y1481518*
X2045047Y1552700D02*
X2044820Y1552387D01*
X2044593Y1551918*
X2044366Y1551293*
X2044252Y1550512*
Y1549887*
X2044366Y1549106*
X2044593Y1548481*
X2044820Y1548012*
X2045047Y1547700*
X2046070Y1552075D02*
Y1548793D01*
Y1552075D02*
X2046979Y1548793D01*
X2047888Y1552075D02*
X2046979Y1548793D01*
X2047888Y1552075D02*
Y1548793D01*
X2049479Y1550981D02*
X2049252Y1550825D01*
X2049025Y1550512*
X2048911Y1550043*
Y1549731*
X2049025Y1549262*
X2049252Y1548950*
X2049479Y1548793*
X2049820*
X2050047Y1548950*
X2050275Y1549262*
X2050388Y1549731*
Y1550043*
X2050275Y1550512*
X2050047Y1550825*
X2049820Y1550981*
X2049479*
X2051752Y1552075D02*
Y1549418D01*
X2051866Y1548950*
X2052093Y1548793*
X2052320*
X2051411Y1550981D02*
X2052207D01*
X2053911D02*
X2053684Y1550825D01*
X2053457Y1550512*
X2053343Y1550043*
Y1549731*
X2053457Y1549262*
X2053684Y1548950*
X2053911Y1548793*
X2054252*
X2054479Y1548950*
X2054707Y1549262*
X2054820Y1549731*
Y1550043*
X2054707Y1550512*
X2054479Y1550825*
X2054252Y1550981*
X2053911*
X2055843D02*
Y1548793D01*
Y1550043D02*
X2055957Y1550512D01*
X2056184Y1550825*
X2056411Y1550981*
X2056752*
X2057775Y1552700D02*
X2058002Y1552387D01*
X2058229Y1551918*
X2058457Y1551293*
X2058570Y1550512*
Y1549887*
X2058457Y1549106*
X2058229Y1548481*
X2058002Y1548012*
X2057775Y1547700*
X2026929Y1642783D02*
Y1639502D01*
Y1642783D02*
X2027952D01*
X2028293Y1642627*
X2028406Y1642471*
X2028520Y1642158*
Y1641846*
X2028406Y1641533*
X2028293Y1641377*
X2027952Y1641221*
X2026929*
X2027725D02*
X2028520Y1639502D01*
X2029543Y1642783D02*
X2031134Y1639502D01*
Y1642783D02*
X2029543Y1639502D01*
X2032384Y1642783D02*
X2033634D01*
X2032952Y1641533*
X2033293*
X2033520Y1641377*
X2033634Y1641221*
X2033747Y1640752*
Y1640439*
X2033634Y1639971*
X2033406Y1639658*
X2033065Y1639502*
X2033065D02*
X2032725D01*
X2032384Y1639658*
X2032270Y1639814*
X2032156Y1640127*
X2038179Y1642783D02*
Y1639502D01*
X2037384Y1642783D02*
X2038975D01*
X2039997D02*
X2041588Y1639502D01*
Y1642783D02*
X2039997Y1639502D01*
X2042838Y1642783D02*
X2044088D01*
X2043406Y1641533*
X2043747*
X2043975Y1641377*
X2044088Y1641221*
X2044202Y1640752*
Y1640439*
X2044088Y1639971*
X2043861Y1639658*
X2043520Y1639502*
X2043179*
X2042838Y1639658*
X2042725Y1639814*
X2042611Y1640127*
X2059252Y1690933D02*
Y1687652D01*
Y1690933D02*
X2060275D01*
X2060616Y1690777*
X2060729Y1690620*
X2060843Y1690308*
Y1689995*
X2060729Y1689683*
X2060616Y1689527*
X2060275Y1689370*
X2059252*
X2060047D02*
X2060843Y1687652D01*
X2061866Y1690933D02*
X2063457Y1687652D01*
Y1690933D02*
X2061866Y1687652D01*
X2064593Y1690152D02*
Y1690308D01*
X2064707Y1690620*
X2064820Y1690777*
X2065047Y1690933*
X2065502*
X2065729Y1690777*
X2065843Y1690620*
X2065957Y1690308*
Y1689995*
X2065843Y1689683*
X2065616Y1689214*
X2064479Y1687652*
X2066070*
X2059890Y1680342D02*
Y1677061D01*
X2059094Y1680342D02*
X2060685D01*
X2061708D02*
X2063299Y1677061D01*
Y1680342D02*
X2061708Y1677061D01*
X2064435Y1679561D02*
Y1679717D01*
X2064549Y1680030*
X2064663Y1680186*
X2064890Y1680342*
X2065344*
X2065572Y1680186*
X2065685Y1680030*
X2065799Y1679717*
Y1679405*
X2065685Y1679092*
X2065458Y1678624*
X2064322Y1677061*
X2065913*
X1977717Y1710185D02*
Y1706904D01*
Y1710185D02*
X1978739D01*
X1979080Y1710029*
X1979194Y1709872*
X1979307Y1709560*
Y1709247*
X1979194Y1708935*
X1979080Y1708779*
X1978739Y1708622*
X1977717*
X1978512D02*
X1979307Y1706904D01*
X1980330Y1710185D02*
X1981921Y1706904D01*
Y1710185D02*
X1980330Y1706904D01*
X1982944Y1709560D02*
X1983171Y1709716D01*
X1983512Y1710185*
Y1706904*
X1988040Y1710342D02*
Y1707061D01*
X1987244Y1710342D02*
X1988835D01*
X1989858D02*
X1991449Y1707061D01*
Y1710342D02*
X1989858Y1707061D01*
X1992471Y1709717D02*
X1992699Y1709874D01*
X1993040Y1710342*
Y1707061*
X1952598Y1707941D02*
X1953508Y1704659D01*
X1954417Y1707941D02*
X1953508Y1704659D01*
X1955439Y1707941D02*
Y1704659D01*
Y1707941D02*
X1956235D01*
X1956576Y1707784*
X1956803Y1707472*
X1956917Y1707159*
X1957030Y1706691*
Y1705909*
X1956917Y1705441*
X1956803Y1705128*
X1956576Y1704816*
X1956235Y1704659*
X1955439*
X1958053Y1707941D02*
Y1704659D01*
Y1707941D02*
X1958848D01*
X1959189Y1707784*
X1959417Y1707472*
X1959530Y1707159*
X1959644Y1706691*
Y1705909*
X1959530Y1705441*
X1959417Y1705128*
X1959189Y1704816*
X1958848Y1704659*
X1958053*
X1913594Y1708616D02*
X1913481Y1708929D01*
X1913253Y1709241*
X1913026Y1709397*
X1912572*
X1912344Y1709241*
X1912117Y1708929*
X1912003Y1708616*
X1911890Y1708147*
Y1707366*
X1912003Y1706897*
X1912117Y1706585*
X1912344Y1706272*
X1912572Y1706116*
X1913026*
X1913253Y1706272*
X1913481Y1706585*
X1913594Y1706897*
Y1707366*
X1913026D02*
X1913594D01*
X1914617Y1709397D02*
Y1706116D01*
Y1709397D02*
X1916208Y1706116D01*
Y1709397D02*
Y1706116D01*
X1917231Y1709397D02*
Y1706116D01*
Y1709397D02*
X1918026D01*
X1918367Y1709241*
X1918594Y1708929*
X1918708Y1708616*
X1918822Y1708147*
Y1707366*
X1918708Y1706897*
X1918594Y1706585*
X1918367Y1706272*
X1918026Y1706116*
X1917231*
X1878976Y1709594D02*
Y1706313D01*
Y1709594D02*
X1879999D01*
X1880340Y1709438*
X1880454Y1709282*
X1880567Y1708969*
Y1708500*
X1880454Y1708188*
X1880340Y1708032*
X1879999Y1707875*
X1878976*
X1881590Y1709594D02*
Y1706313D01*
Y1709594D02*
X1882613D01*
X1882954Y1709438*
X1883067Y1709282*
X1883181Y1708969*
Y1708657*
X1883067Y1708344*
X1882954Y1708188*
X1882613Y1708032*
X1881590D02*
X1882613D01*
X1882954Y1707875*
X1883067Y1707719*
X1883181Y1707407*
Y1706938*
X1883067Y1706625*
X1882954Y1706469*
X1882613Y1706313*
X1881590*
X1884772Y1709594D02*
X1884431Y1709438D01*
X1884317Y1709125*
Y1708813*
X1884431Y1708500*
X1884658Y1708344*
X1885113Y1708188*
X1885454Y1708032*
X1885681Y1707719*
X1885795Y1707407*
Y1706938*
X1885681Y1706625*
X1885567Y1706469*
X1885226Y1706313*
X1884772*
X1884431Y1706469*
X1884317Y1706625*
X1884204Y1706938*
Y1707407*
X1884317Y1707719*
X1884545Y1708032*
X1884885Y1708188*
X1885340Y1708344*
X1885567Y1708500*
X1885681Y1708813*
Y1709125*
X1885567Y1709438*
X1885226Y1709594*
X1884772*
X1890354Y1709358D02*
Y1706077D01*
Y1709358D02*
X1891377D01*
X1891718Y1709202*
X1891832Y1709046*
X1891945Y1708733*
Y1708264*
X1891832Y1707952*
X1891718Y1707796*
X1891377Y1707639*
X1890354*
X1892968Y1709358D02*
Y1706077D01*
Y1709358D02*
X1893991D01*
X1894332Y1709202*
X1894445Y1709046*
X1894559Y1708733*
Y1708421*
X1894445Y1708108*
X1894332Y1707952*
X1893991Y1707796*
X1892968D02*
X1893991D01*
X1894332Y1707639*
X1894445Y1707483*
X1894559Y1707171*
Y1706702*
X1894445Y1706389*
X1894332Y1706233*
X1893991Y1706077*
X1892968*
X1897173Y1709358D02*
X1896036Y1706077D01*
X1895582Y1709358D02*
X1897173D01*
G54D12*
X1896683Y1523767D02*
X1900483D01*
X1897383Y1522067D02*
X1899783D01*
X1899983Y1522167D02*
X1898783Y1523467D01*
X1897183Y1522067D02*
X1898283Y1523467D01*
X1898583Y1523767D02*
Y1525132D01*
Y1521867D02*
Y1520652D01*
X2063021Y1716089D02*
X2066821D01*
X2063721Y1714389D02*
X2066121D01*
X2066321Y1714489D02*
X2065121Y1715789D01*
X2063521Y1714389D02*
X2064621Y1715789D01*
X2064921Y1716089D02*
Y1716689D01*
Y1714189D02*
Y1713789D01*
X1863871Y1612741D02*
Y1608941D01*
X1862171Y1612041D02*
Y1609641D01*
X1862271Y1609441D02*
X1863571Y1610641D01*
X1862171Y1612241D02*
X1863571Y1611141D01*
X1863871Y1610841D02*
X1864471D01*
X1861971D02*
X1861571D01*
X1863871Y1605536D02*
Y1601736D01*
X1862171Y1604836D02*
Y1602436D01*
X1862271Y1602236D02*
X1863571Y1603436D01*
X1862171Y1605036D02*
X1863571Y1603936D01*
X1863871Y1603636D02*
X1864471D01*
X1861971D02*
X1861571D01*
X1863871Y1598489D02*
Y1594689D01*
X1862171Y1597789D02*
Y1595389D01*
X1862271Y1595189D02*
X1863571Y1596389D01*
X1862171Y1597989D02*
X1863571Y1596889D01*
X1863871Y1596589D02*
X1864471D01*
X1861971D02*
X1861571D01*
X2107451Y1558426D02*
X2103651D01*
X2106751Y1560126D02*
X2104351D01*
X2104151Y1560026D02*
X2105351Y1558726D01*
X2106951Y1560126D02*
X2105851Y1558726D01*
X2105551Y1558426D02*
Y1557061D01*
Y1560326D02*
Y1561541D01*
X1969397Y1520673D02*
Y1524473D01*
X1971097Y1521373D02*
Y1523773D01*
X1970997Y1523973D02*
X1969697Y1522773D01*
X1971097Y1521173D02*
X1969697Y1522273D01*
X1969397Y1522573D02*
X1968031D01*
X1971297D02*
X1972512D01*
X2113386Y1607154D02*
Y1603404D01*
X2113568Y1602654*
X2113931Y1602154*
X2114477Y1601904*
X2114840*
X2115386Y1602154*
X2115749Y1602654*
X2115931Y1603404*
Y1607154*
X2117749Y1605904D02*
Y1606154D01*
X2117931Y1606654*
X2118113Y1606904*
X2118477Y1607154*
X2119204*
X2119568Y1606904*
X2119749Y1606654*
X2119931Y1606154*
Y1605654*
X2119749Y1605154*
X2119386Y1604404*
X2117568Y1601904*
X2120113*
X2084011Y1717816D02*
X2083647Y1717591D01*
X2083283Y1717141*
X2083102Y1716691*
X2082920Y1716016*
Y1714891*
X2083102Y1714216*
X2083283Y1713766*
X2083647Y1713316*
X2084011Y1713091*
X2084738*
X2085102Y1713316*
X2085465Y1713766*
X2085647Y1714216*
X2085829Y1714891*
Y1716016*
X2085647Y1716691*
X2085465Y1717141*
X2085102Y1717591*
X2084738Y1717816*
X2084011*
X2084556Y1713991D02*
X2085647Y1712641D01*
X2087647Y1716691D02*
Y1716916D01*
X2087829Y1717366*
X2088011Y1717591*
X2088374Y1717816*
X2089102*
X2089465Y1717591*
X2089647Y1717366*
X2089829Y1716916*
Y1716466*
X2089647Y1716016*
X2089283Y1715341*
X2087465Y1713091*
X2090011*
X2001470Y1687895D02*
Y1684295D01*
X2001288Y1683620*
X2001107Y1683395*
X2000743Y1683170*
X2000379*
X2000016Y1683395*
X1999834Y1683620*
X1999652Y1684295*
Y1684745*
X2003107Y1686995D02*
X2003470Y1687220D01*
X2004016Y1687895*
Y1683170*
X2065585Y1555611D02*
X2065222Y1555386D01*
X2064858Y1554936*
X2064676Y1554486*
X2064494Y1553811*
Y1552686*
X2064676Y1552011*
X2064858Y1551561*
X2065222Y1551111*
X2065585Y1550886*
X2066313*
X2066676Y1551111*
X2067040Y1551561*
X2067222Y1552011*
X2067404Y1552686*
Y1553811*
X2067222Y1554486*
X2067040Y1554936*
X2066676Y1555386*
X2066313Y1555611*
X2065585*
X2066131Y1551786D02*
X2067222Y1550436D01*
X2069404Y1555611D02*
X2071404D01*
X2070313Y1553811*
X2070858*
X2071222Y1553586*
X2071404Y1553361*
X2071585Y1552686*
Y1552236*
X2071404Y1551561*
X2071040Y1551111*
X2070494Y1550886*
X2069949*
X2069404Y1551111*
X2069222Y1551336*
X2069040Y1551786*
X1928425Y1688492D02*
Y1684742D01*
X1928607Y1683992*
X1928971Y1683492*
X1929516Y1683242*
X1929880*
X1930425Y1683492*
X1930789Y1683992*
X1930971Y1684742*
Y1688492*
X1932607Y1687492D02*
X1932971Y1687742D01*
X1933516Y1688492*
Y1683242*
X2088735Y1542186D02*
X2088371Y1541961D01*
X2088008Y1541511*
X2087826Y1541061*
X2087644Y1540386*
Y1539261*
X2087826Y1538586*
X2088008Y1538136*
X2088371Y1537686*
X2088735Y1537461*
X2089462*
X2089826Y1537686*
X2090190Y1538136*
X2090371Y1538586*
X2090553Y1539261*
Y1540386*
X2090371Y1541061*
X2090190Y1541511*
X2089826Y1541961*
X2089462Y1542186*
X2088735*
X2089280Y1538361D02*
X2090371Y1537011D01*
X2092190Y1541286D02*
X2092553Y1541511D01*
X2093099Y1542186*
Y1537461*
G54D13*
G54D23*
X2077129Y1695163D02*
X2067654D01*
Y1673089*
X2077137*
Y1677172*
X2077127*
Y1691951*
X2077129*
Y1695163*
X2072709Y1718423D02*
X2070209D01*
Y1713423*
X2078709Y1718423D02*
X2081209D01*
Y1713423*
X2075209Y1709423D02*
X2076209D01*
X1969685Y1499659D02*
X2004291D01*
Y1481549*
X1969685*
Y1499659*
X1982441Y1481195D02*
X1996181D01*
Y1474896*
X1982441*
Y1481195*
X1960433Y1711313D02*
X1910433D01*
Y1721313*
X1960433*
Y1711313*
X1898378Y1711271D02*
Y1720746D01*
X1876304*
Y1711263*
X1880387*
Y1711273*
X1895166*
Y1711271*
X1898378*
X1876575Y1492415D02*
X1896417D01*
Y1482415*
X1876575*
Y1492415*
X1905831Y1505199D02*
X1913831D01*
Y1514199*
X1905831*
X1902831Y1505199D02*
X1894831D01*
Y1514199*
X1902831*
X1918630Y1522116D02*
X1921130D01*
Y1527116*
X1912630Y1522116D02*
X1910130D01*
Y1527116*
X1916130Y1531116D02*
X1915130D01*
X2071228Y1561093D02*
X2073728D01*
Y1566093*
X2065228Y1561093D02*
X2062728D01*
Y1566093*
X2068728Y1570093D02*
X2067728D01*
X2038189Y1565526D02*
X2058031D01*
Y1555526*
X2038189*
Y1565526*
X2023591Y1654190D02*
Y1644715D01*
X2045665*
Y1654198*
X2041582*
Y1654188*
X2026803*
Y1654190*
X2023591*
X2087157Y1554014D02*
X2084657D01*
Y1549014*
X2093157Y1554014D02*
X2095657D01*
Y1549014*
X2089657Y1545014D02*
X2090657D01*
X1973709Y1721394D02*
Y1711919D01*
X1995783*
Y1721402*
X1991700*
Y1721392*
X1976921*
Y1721394*
X1973709*
X1974894Y1581323D02*
X1965894D01*
X1975294Y1569553D02*
X1965394D01*
Y1587083*
X1967209Y1588898*
X1973554*
X1975296Y1587155*
Y1569783*
X1975294Y1569823*
Y1569553*
X1941531Y1520004D02*
Y1504994D01*
X1954531*
Y1521464*
X1941531Y1518544D02*
Y1525959D01*
X1944106Y1528534*
X1951764*
X1954531Y1525767*
Y1518544*
X1941531*
X2004878Y1519886D02*
Y1504876D01*
X2017878*
Y1521346*
X2004878Y1518426D02*
Y1525841D01*
X2007453Y1528416*
X2015110*
X2017878Y1525648*
Y1518426*
X2004878*
X2147165Y1543281D02*
G03X2147165I-17716J0D01*
G01X2145787Y1543006D02*
X2141693D01*
X2143701Y1540998D02*
Y1544974D01*
X2117402Y1504856D02*
X2132323D01*
Y1487415*
X2117402*
Y1504856*
X2128276Y1496392D02*
G03X2128276I-3630J0D01*
G01X2081299Y1504856D02*
X2096220D01*
Y1487415*
X2081299*
Y1504856*
X2092173Y1496392D02*
G03X2092173I-3630J0D01*
G01X2044528Y1504541D02*
X2059449D01*
Y1487100*
X2044528*
Y1504541*
X2055402Y1496077D02*
G03X2055402I-3630J0D01*
G01X2070568Y1670672D02*
Y1666172D01*
X2070341Y1665328*
X2070113Y1665047*
X2069659Y1664766*
X2069204*
X2068750Y1665047*
X2068523Y1665328*
X2068295Y1666172*
Y1666734*
X2075568Y1670672D02*
X2073295D01*
X2073068Y1668141*
X2073295Y1668422*
X2073977Y1668703*
X2074659*
X2075341Y1668422*
X2075795Y1667859*
X2075795D02*
X2076023Y1667016D01*
X2075795Y1666453*
X2075568Y1665609*
X2075568D02*
X2075113Y1665047D01*
X2074432Y1664766*
X2073750*
X2073068Y1665047*
X2072841Y1665328*
X2072613Y1665891*
X1964662Y1719333D02*
Y1714833D01*
X1964435Y1713990*
X1964208Y1713708*
X1963753Y1713427*
X1963299*
X1962844Y1713708*
X1962617Y1713990*
X1962390Y1714833*
Y1715396*
X1966935Y1717927D02*
Y1718208D01*
X1967162Y1718771*
X1967390Y1719052*
X1967844Y1719333*
X1968753*
X1969208Y1719052*
X1969435Y1718771*
X1969662Y1718208*
Y1717646*
X1969435Y1717083*
X1968981Y1716240*
X1966708Y1713427*
X1969890*
X1902379Y1718585D02*
Y1714085D01*
X1902152Y1713242*
X1901924Y1712960*
X1901470Y1712679*
X1901015*
X1900561Y1712960*
X1900334Y1713242*
X1900106Y1714085*
Y1714648*
X1907379Y1716617D02*
X1907152Y1715773D01*
X1906697Y1715210*
X1906015Y1714929*
X1905788*
X1905106Y1715210*
X1904652Y1715773*
X1904424Y1716617*
Y1716898*
X1904652Y1717742*
X1905106Y1718304*
X1905788Y1718585*
X1906015*
X1906697Y1718304*
X1907152Y1717742*
X1907379Y1716617*
Y1715210*
X1907152Y1713804*
X1906697Y1712960*
X1906015Y1712679*
X1905561*
X1904879Y1712960*
X1904652Y1713523*
X1869466Y1490278D02*
Y1485778D01*
X1869238Y1484935*
X1869011Y1484653*
X1868557Y1484372*
X1868102*
X1867647Y1484653*
X1867420Y1484935*
X1867193Y1485778*
Y1486341*
X1874693Y1490278D02*
X1872420Y1484372D01*
X1871511Y1490278D02*
X1874693D01*
X1925879Y1527995D02*
X1925425Y1527714D01*
X1924970Y1527151*
X1924743Y1526589*
X1924516Y1525745*
Y1524339*
X1924743Y1523495*
X1924970Y1522932*
X1925425Y1522370*
X1925879Y1522089*
X1926788*
X1927243Y1522370*
X1927698Y1522932*
X1927925Y1523495*
X1928152Y1524339*
Y1525745*
X1927925Y1526589*
X1927698Y1527151*
X1927243Y1527714*
X1926788Y1527995*
X1925879*
X1926561Y1523214D02*
X1927925Y1521526D01*
X1931334Y1527995D02*
X1930652Y1527714D01*
X1930425Y1527151*
Y1526589*
X1930652Y1526026*
X1931107Y1525745*
X1932016Y1525464*
X1932698Y1525182*
X1933152Y1524620*
X1933379Y1524057*
Y1523214*
X1933152Y1522651*
X1932925Y1522370*
X1932243Y1522089*
X1931334*
X1930652Y1522370*
X1930425Y1522651*
X1930198Y1523214*
Y1524057*
X1930425Y1524620*
X1930879Y1525182*
X1931561Y1525464*
X1932470Y1525745*
X1932925Y1526026*
X1933152Y1526589*
Y1527151*
X1932925Y1527714*
X1932243Y1527995*
X1931334*
X2037930Y1553428D02*
Y1548928D01*
X2037703Y1548084*
X2037476Y1547803*
X2037021Y1547522*
X2036567*
X2036112Y1547803*
X2035885Y1548084*
X2035657Y1548928*
Y1549490*
X2042703Y1552584D02*
X2042476Y1553147D01*
X2041794Y1553428*
X2041339*
X2040657Y1553147*
X2040203Y1552303*
X2039976Y1550897*
Y1549490*
X2040203Y1548365*
X2040657Y1547803*
X2041339Y1547522*
X2041567*
X2042248Y1547803*
X2042703Y1548365*
X2042930Y1549209*
Y1549490*
X2042703Y1550334*
X2042248Y1550897*
X2041567Y1551178*
X2041339*
X2040657Y1550897*
X2040203Y1550334*
X2039976Y1549490*
X2016355Y1651853D02*
Y1647353D01*
X2016128Y1646509*
X2015901Y1646228*
X2015446Y1645947*
X2014992*
X2014537Y1646228*
X2014310Y1646509*
X2014083Y1647353*
Y1647916*
X2020674Y1651853D02*
X2018401Y1647916D01*
X2021810*
X2020674Y1651853D02*
Y1645947D01*
X2000135Y1719963D02*
Y1715463D01*
X1999908Y1714620*
X1999680Y1714338*
X1999226Y1714057*
X1998771*
X1998317Y1714338*
X1998089Y1714620*
X1997862Y1715463*
Y1716026*
X2003317Y1719963D02*
X2002635Y1719682D01*
X2002408Y1719120*
Y1718557*
X2002635Y1717995*
X2003089Y1717713*
X2003999Y1717432*
X2004680Y1717151*
X2005135Y1716588*
X2005362Y1716026*
Y1715182*
X2005135Y1714620*
X2004908Y1714338*
X2004226Y1714057*
X2003317*
X2002635Y1714338*
X2002408Y1714620*
X2002180Y1715182*
Y1716026*
X2002408Y1716588*
X2002862Y1717151*
X2003544Y1717432*
X2004453Y1717713*
X2004908Y1717995*
X2005135Y1718557*
Y1719120*
X2004908Y1719682*
X2004226Y1719963*
X2003317*
X1894409Y1612455D02*
X1898409D01*
X1901409D02*
X1901409D01*
X1904409D02*
X1908409D01*
X1911409D02*
X1911409D01*
X1914409D02*
X1918409D01*
X1921409D02*
X1921409D01*
X1924409D02*
X1928409D01*
X1931409D02*
X1931409D01*
X1934409D02*
X1937598D01*
Y1593045D02*
Y1597045D01*
Y1600848D02*
X1937598D01*
Y1604652D02*
Y1608652D01*
Y1612455D02*
X1937598D01*
X1894409Y1593045D02*
X1898409D01*
X1901409D02*
X1901409D01*
X1904409D02*
X1908409D01*
X1911409D02*
X1911409D01*
X1914409D02*
X1918409D01*
X1921409D02*
X1921409D01*
X1924409D02*
X1928409D01*
X1931409D02*
X1931409D01*
X1934409D02*
X1937598D01*
X1894409D02*
Y1597045D01*
Y1600848D02*
X1894409D01*
Y1604652D02*
Y1608652D01*
Y1612455D02*
X1894409D01*
G54D27*
X2054063Y1665492D02*
Y1654085D01*
X2048063D02*
G03X2054063I3000J2788D01*
G01X2048063D02*
Y1665492D01*
X2054063D02*
G03X2048063I-3000J-2857D01*
G01X1887512Y1528276D02*
Y1539683D01*
X1893512D02*
G03X1887512I-3000J-2788D01*
G01X1893512D02*
Y1528276D01*
X1887512D02*
G03X1893512I3000J2857D01*
G01X1989665Y1524793D02*
Y1512793D01*
X1984665*
Y1524793*
X1989665*
X1945624Y1642384D02*
X1957031D01*
Y1636384D02*
G03Y1642384I-2788J3000D01*
G01Y1636384D02*
X1945624D01*
Y1642384D02*
G03Y1636384I2857J-3000D01*
G01X1958577Y1622030D02*
X1958440Y1622361D01*
X1958167Y1622692*
X1957895Y1622858*
X1957349*
X1957077Y1622692*
X1956804Y1622361*
X1956667Y1622030*
X1956531Y1621533*
Y1620705*
X1956667Y1620208*
X1956804Y1619876*
X1957077Y1619545*
X1957349Y1619380*
X1957895*
X1958167Y1619545*
X1958440Y1619876*
X1958577Y1620208*
X1961577Y1622858D02*
X1960213D01*
X1960077Y1621367*
X1960213Y1621533*
X1960622Y1621698*
X1961031*
X1961440Y1621533*
X1961713Y1621201*
X1961849Y1620705*
X1961713Y1620373*
X1961577Y1619876*
X1961304Y1619545*
X1960895Y1619380*
X1960486*
X1960077Y1619545*
X1959940Y1619711*
X1959804Y1620042*
G54D36*
X2086929Y1593496D02*
Y1589620D01*
X2088808Y1593496D02*
Y1589620D01*
X2086929Y1591650D02*
X2088808D01*
X2091761Y1593496D02*
X2090419D01*
X2090285Y1591835*
X2090419Y1592019*
X2090821Y1592204*
X2091224*
X2091627Y1592019*
X2091895Y1591650*
X2092029Y1591096*
X2091895Y1590727*
X2091761Y1590174*
X2091492Y1589805*
X2091090Y1589620*
X2090687*
X2090285Y1589805*
X2090150Y1589989*
X2090016Y1590358*
X2093372Y1592573D02*
Y1592757D01*
X2093506Y1593126*
X2093640Y1593311*
X2093908Y1593496*
X2094445*
X2094714Y1593311*
X2094848Y1593126*
X2094982Y1592757*
Y1592388*
X2094848Y1592019*
X2094579Y1591466*
X2093237Y1589620*
X2095116*
X2097130Y1593496D02*
X2096727Y1593311D01*
X2096458Y1592757*
X2096324Y1591835*
Y1591281*
X2096458Y1590358*
X2096727Y1589805*
X2097130Y1589620*
X2097398*
X2097801Y1589805*
X2098069Y1590358*
X2098203Y1591281*
Y1591835*
X2098069Y1592757*
X2097801Y1593311*
X2097398Y1593496*
X2097130*
X2099411D02*
Y1589620D01*
Y1593496D02*
X2100619D01*
X2101022Y1593311*
X2101156Y1593126*
X2101290Y1592757*
Y1592388*
X2101156Y1592019*
X2101022Y1591835*
X2100619Y1591650*
X2099411D02*
X2100619D01*
X2101022Y1591466*
X2101156Y1591281*
X2101290Y1590912*
Y1590358*
X2101156Y1589989*
X2101022Y1589805*
X2100619Y1589620*
X2099411*
X2105585Y1593496D02*
Y1589620D01*
Y1593496D02*
X2106525D01*
X2106927Y1593311*
X2107196Y1592942*
X2107330Y1592573*
X2107464Y1592019*
Y1591096*
X2107330Y1590543*
X2107196Y1590174*
X2106927Y1589805*
X2106525Y1589620*
X2105585*
X2108672Y1591096D02*
X2110283D01*
Y1591466*
X2110149Y1591835*
X2110014Y1592019*
X2109746Y1592204*
X2109343*
X2109075Y1592019*
X2108806Y1591650*
X2108672Y1591096*
Y1590727*
X2108806Y1590174*
X2109075Y1589805*
X2109343Y1589620*
X2109746*
X2110014Y1589805*
X2110283Y1590174*
X2111491Y1592204D02*
Y1589620D01*
Y1591466D02*
X2111893Y1592019D01*
X2112162Y1592204*
X2112564*
X2112833Y1592019*
X2112967Y1591466*
Y1589620*
Y1591466D02*
X2113370Y1592019D01*
X2113638Y1592204*
X2114041*
X2114309Y1592019*
X2114443Y1591466*
Y1589620*
X2116322Y1592204D02*
X2116054Y1592019D01*
X2115786Y1591650*
X2115651Y1591096*
Y1590727*
X2115786Y1590174*
X2116054Y1589805*
X2116322Y1589620*
X2116725*
X2116994Y1589805*
X2117262Y1590174*
X2117396Y1590727*
Y1591096*
X2117262Y1591650*
X2116994Y1592019*
X2116725Y1592204*
X2116322*
X2118604Y1593496D02*
Y1589620D01*
Y1593496D02*
X2119812D01*
X2120215Y1593311*
X2120349Y1593126*
X2120483Y1592757*
Y1592388*
X2120349Y1592019*
X2120215Y1591835*
X2119812Y1591650*
X2118604D02*
X2119812D01*
X2120215Y1591466*
X2120349Y1591281*
X2120483Y1590912*
Y1590358*
X2120349Y1589989*
X2120215Y1589805*
X2119812Y1589620*
X2118604*
X2122362Y1592204D02*
X2122094Y1592019D01*
X2121825Y1591650*
X2121691Y1591096*
Y1590727*
X2121825Y1590174*
X2122094Y1589805*
X2122362Y1589620*
X2122765*
X2123033Y1589805*
X2123302Y1590174*
X2123436Y1590727*
Y1591096*
X2123302Y1591650*
X2123033Y1592019*
X2122765Y1592204*
X2122362*
X2126254D02*
Y1589620D01*
Y1591650D02*
X2125986Y1592019D01*
X2125718Y1592204*
X2125315*
X2125047Y1592019*
X2124778Y1591650*
X2124644Y1591096*
Y1590727*
X2124778Y1590174*
X2125047Y1589805*
X2125315Y1589620*
X2125718*
X2125986Y1589805*
X2126254Y1590174*
X2127462Y1592204D02*
Y1589620D01*
Y1591096D02*
X2127597Y1591650D01*
X2127865Y1592019*
X2128134Y1592204*
X2128134D02*
X2128536D01*
X2131355Y1593496D02*
Y1589620D01*
Y1591650D02*
X2131086Y1592019D01*
X2130818Y1592204*
X2130415*
X2130147Y1592019*
X2129878Y1591650*
X2129744Y1591096*
Y1590727*
X2129878Y1590174*
X2130147Y1589805*
X2130415Y1589620*
X2130818*
X2131086Y1589805*
X2131355Y1590174*
X2135650Y1593496D02*
X2136723Y1589620D01*
X2137797Y1593496D02*
X2136723Y1589620D01*
X2139005Y1592757D02*
X2139273Y1592942D01*
X2139676Y1593496*
Y1589620*
X2141018Y1589989D02*
X2140884Y1589805D01*
X2141018Y1589620*
X2141152Y1589805*
X2141018Y1589989*
X2143166Y1593496D02*
X2142763Y1593311D01*
X2142495Y1592757*
X2142360Y1591835*
Y1591281*
X2142495Y1590358*
X2142763Y1589805*
X2143166Y1589620*
X2143434*
X2143837Y1589805*
X2144105Y1590358*
X2144239Y1591281*
Y1591835*
X2144105Y1592757*
X2143837Y1593311*
X2143434Y1593496*
X2143166*
X2086512Y1586234D02*
Y1586419D01*
X2086646Y1586788*
X2086781Y1586972*
X2087049Y1587157*
X2087586*
X2087854Y1586972*
X2087989Y1586788*
X2088123Y1586419*
Y1586050*
X2087989Y1585681*
X2087720Y1585127*
X2086378Y1583281*
X2088257*
X2090270Y1587157D02*
X2089868Y1586972D01*
X2089599Y1586419*
X2089465Y1585496*
Y1584942*
X2089599Y1584020*
X2089868Y1583466*
X2090270Y1583281*
X2090539*
X2090941Y1583466*
X2091210Y1584020*
X2091344Y1584942*
Y1585496*
X2091210Y1586419*
X2090941Y1586972*
X2090539Y1587157*
X2090270*
X2092552Y1586419D02*
X2092820Y1586603D01*
X2093223Y1587157*
Y1583281*
X2096176Y1587157D02*
X2094834D01*
X2094699Y1585496*
X2094834Y1585681*
X2095236Y1585865*
X2095639*
X2096042Y1585681*
X2096310Y1585312*
X2096444Y1584758*
X2096310Y1584389*
X2096176Y1583835*
X2095907Y1583466*
X2095505Y1583281*
X2095102*
X2094699Y1583466*
X2094565Y1583651*
X2094431Y1584020*
X2098457Y1587157D02*
X2098055Y1586972D01*
X2097786Y1586419*
X2097652Y1585496*
Y1584942*
X2097786Y1584020*
X2098055Y1583466*
X2098457Y1583281*
X2098726*
X2099128Y1583466*
X2099397Y1584020*
X2099531Y1584942*
Y1585496*
X2099397Y1586419*
X2099128Y1586972*
X2098726Y1587157*
X2098457*
X2102484Y1585865D02*
X2102350Y1585312D01*
X2102081Y1584942*
X2101679Y1584758*
X2101544*
X2101142Y1584942*
X2100873Y1585312*
X2100739Y1585865*
Y1586050*
X2100873Y1586603*
X2101142Y1586972*
X2101544Y1587157*
X2101679*
X2102081Y1586972*
X2102350Y1586603*
X2102484Y1585865*
Y1584942*
X2102350Y1584020*
X2102081Y1583466*
X2101679Y1583281*
X2101410*
X2101008Y1583466*
X2100873Y1583835*
X2104497Y1587157D02*
X2104094Y1586972D01*
X2103826Y1586419*
X2103692Y1585496*
Y1584942*
X2103826Y1584020*
X2104094Y1583466*
X2104497Y1583281*
X2104766*
X2105168Y1583466*
X2105437Y1584020*
X2105571Y1584942*
Y1585496*
X2105437Y1586419*
X2105168Y1586972*
X2104766Y1587157*
X2104497*
X2108524Y1585865D02*
X2108389Y1585312D01*
X2108121Y1584942*
X2107718Y1584758*
X2107584*
X2107181Y1584942*
X2106913Y1585312*
X2106779Y1585865*
Y1586050*
X2106913Y1586603*
X2107181Y1586972*
X2107584Y1587157*
X2107718*
X2108121Y1586972*
X2108389Y1586603*
X2108524Y1585865*
Y1584942*
X2108389Y1584020*
X2108121Y1583466*
X2107718Y1583281*
X2107450*
X2107047Y1583466*
X2106913Y1583835*
G54D38*
X1895827Y1515556D02*
Y1531344D01*
X1896913*
X1901339*
Y1515556*
X1895827*
X2062165Y1709581D02*
Y1719998D01*
X2063165Y1720998*
X2066677*
X2067677Y1719998*
Y1709581*
X2062165*
X1857362Y1613596D02*
X1867780D01*
X1868780Y1612596*
Y1609085*
X1867780Y1608085*
X1857362*
Y1613596*
Y1606392D02*
X1867780D01*
X1868780Y1605392*
Y1601880*
X1867780Y1600880*
X1857362*
Y1606392*
Y1599344D02*
X1867780D01*
X1868780Y1598344*
Y1594833*
X1867780Y1593833*
X1857362*
Y1599344*
X1942953Y1648518D02*
Y1674502D01*
X1916969*
Y1648518*
X1942953*
X1920721Y1671864D02*
G03X1920721I-1115J0D01*
G01X2108307Y1566637D02*
Y1550849D01*
X2107221*
X2102795*
Y1566637*
X2108307*
X1977608Y1519817D02*
X1961820D01*
Y1520903*
Y1525329*
X1977608*
Y1519817*
G54D86*
X1982992Y1488872D02*
G03X1982992I-1772J0D01*
G01X1994803D02*
G03X1994803I-1772J0D01*
G01X1990236Y1601856D02*
X2005236D01*
Y1567179*
X1990236*
Y1601856*
X1995236D02*
G03X1999236I2000J0D01*
G01X1995236D02*
X1999236D01*
X1866949Y1535132D02*
G03X1866949I-1575J0D01*
G01Y1550880D02*
G03X1866949I-1575J0D01*
G54D293*
G01X1849213Y1724226D02*
X2150787D01*
Y1480880*
X1849213*
Y1724226*
G54D321*
X1882539Y1663186D02*
Y1659177D01*
X1883995Y1663186D02*
Y1659158D01*
X1882940Y1663169D02*
X1883610D01*
Y1659177*
X1882940*
Y1663169*
X1884093Y1661090D02*
X1884318D01*
Y1664069*
X1884550*
X1882441Y1661116D02*
X1882159D01*
Y1658163*
X1881978*
X1875005Y1667879D02*
X1891833D01*
Y1653976*
X1875005*
Y1667879*
G74*
X0Y0D02*
M02*
