*
*
G04 PADS 9.5 Build Number: 522968 generated Gerber (RS-274-X) file*
G04 PC Version=2.1*
*
%IN "SCAN_V2.01.pcb"*%
*
%MOIN*%
*
%FSLAX35Y35*%
*
*
*
*
G04 PC Standard Apertures*
*
*
G04 Thermal Relief Aperture macro.*
%AMTER*
1,1,$1,0,0*
1,0,$1-$2,0,0*
21,0,$3,$4,0,0,45*
21,0,$3,$4,0,0,135*
%
*
*
G04 Annular Aperture macro.*
%AMANN*
1,1,$1,0,0*
1,0,$2,0,0*
%
*
*
G04 Odd Aperture macro.*
%AMODD*
1,1,$1,0,0*
1,0,$1-0.005,0,0*
%
*
*
G04 PC Custom Aperture Macros*
*
*
*
*
*
*
G04 PC Aperture Table*
*
%ADD013C,0.001*%
%ADD043R,0.056X0.046*%
%ADD044R,0.07687X0.056*%
%ADD046R,0.046X0.056*%
%ADD051O,0.08X0.03*%
%ADD089C,0.066*%
%ADD090R,0.096X0.081*%
%ADD102R,0.042X0.042*%
%ADD103R,0.042X0.056*%
%ADD107O,0.016X0.07687*%
%ADD108O,0.07687X0.016*%
%ADD109R,0.066X0.066*%
%ADD147R,0.10049X0.10049*%
%ADD156R,0.066X0.056*%
%ADD187R,0.04537X0.04537*%
%ADD196C,0.04931*%
%ADD201C,0.00004*%
%ADD220R,0.039X0.039*%
%ADD229R,0.08X0.03*%
%ADD250R,0.01781X0.06506*%
%ADD251R,0.07687X0.08474*%
%ADD261R,0.026X0.031*%
%ADD262R,0.031X0.026*%
%ADD293C,0.02756*%
%ADD309R,0.04537X0.04931*%
%ADD322R,0.07687X0.04537*%
%ADD323O,0.07687X0.04537*%
%ADD324O,0.04537X0.07687*%
%ADD325R,0.04537X0.07687*%
%ADD326R,0.03356X0.06506*%
%ADD327R,0.04537X0.0375*%
%ADD328R,0.06584X0.05797*%
%ADD329R,0.046X0.026*%
%ADD330R,0.04931X0.04537*%
%ADD331R,0.066X0.02569*%
%ADD332O,0.066X0.02569*%
%ADD333R,0.05718X0.05718*%
%ADD334R,0.07883X0.02175*%
%ADD335R,0.06702X0.09261*%
*
*
*
*
G04 PC Circuitry*
G04 Layer Name SCAN_V2.01.pcb - circuitry*
%LPD*%
*
*
G04 PC Custom Flashes*
G04 Layer Name SCAN_V2.01.pcb - flashes*
%LPD*%
*
*
G04 PC Circuitry*
G04 Layer Name SCAN_V2.01.pcb - circuitry*
%LPD*%
*
G54D13*
G54D43*
G01X2051063Y1653224D03*
Y1661224D03*
X1890512Y1535437D03*
Y1527437D03*
G54D44*
X1970551Y1582280D03*
Y1570280D03*
G54D46*
X1955339Y1636831D03*
X1947339D03*
G54D51*
X1916811Y1549213D03*
Y1554213D03*
Y1559213D03*
X1891181D03*
Y1554213D03*
Y1549213D03*
Y1544213D03*
X1997953Y1629016D03*
Y1634016D03*
Y1639016D03*
X1967953D03*
Y1634016D03*
Y1629016D03*
Y1624016D03*
G54D89*
X2072087Y1676752D03*
X1945433Y1713760D03*
X1935433D03*
X1925433D03*
X1915433D03*
X1882520D03*
X1881732Y1484862D03*
X1891732D03*
X2043346Y1557972D03*
X2053346D03*
X2039449Y1646594D03*
X1989567Y1713799D03*
G54D90*
X1948031Y1519941D03*
Y1508191D03*
X2011378Y1519823D03*
Y1508073D03*
G54D102*
X2071959Y1707970D03*
X2079459D03*
X1919380Y1527463D03*
X1911880D03*
X2071978Y1566439D03*
X2064478D03*
X2086407Y1543561D03*
X2093907D03*
G54D103*
X2075709Y1715970D03*
X1915630Y1519463D03*
X2068228Y1558439D03*
X2090157Y1551561D03*
G54D107*
X1919134Y1641634D03*
X1921102D03*
X1923071D03*
X1925039D03*
X1927008D03*
X1928976D03*
X1930945D03*
X1932913D03*
X1934882D03*
X1936850D03*
X1938819D03*
X1940787D03*
Y1676280D03*
X1938819D03*
X1936850D03*
X1934882D03*
X1932913D03*
X1930945D03*
X1928976D03*
X1927008D03*
X1925039D03*
X1923071D03*
X1921102D03*
X1919134D03*
G54D108*
X1912638Y1669783D03*
Y1667815D03*
Y1665846D03*
Y1663878D03*
Y1661909D03*
Y1659941D03*
Y1657972D03*
Y1656004D03*
Y1654035D03*
Y1652067D03*
Y1650098D03*
Y1648130D03*
X1947283D03*
Y1650098D03*
Y1652067D03*
Y1654035D03*
Y1656004D03*
Y1657972D03*
Y1659941D03*
Y1661909D03*
Y1663878D03*
Y1665846D03*
Y1667815D03*
Y1669783D03*
G54D109*
X2072087Y1686752D03*
X1955433Y1713760D03*
X1892520D03*
X2029449Y1646594D03*
X1979567Y1713799D03*
G54D147*
X1992913Y1529232D03*
X1979134Y1543012D03*
G54D156*
X1908831Y1507146D03*
X1899831D03*
G54D187*
X1878898Y1661909D03*
G54D196*
X2137323Y1540728D03*
X2121575D03*
G54D201*
X1882188Y1664508D02*
Y1664516D01*
X1882187Y1664525*
Y1664533*
X1882186Y1664542*
X1882185Y1664550*
X1882183Y1664559*
X1882182Y1664567*
X1882180Y1664575*
X1882178Y1664584*
X1882176Y1664592*
X1882173Y1664600*
X1882170Y1664608*
X1882167Y1664616*
X1882164Y1664624*
X1882161Y1664632*
X1882157Y1664639*
X1882153Y1664647*
X1882149Y1664654*
X1882145Y1664662*
X1882140Y1664669*
X1882136Y1664676*
X1882131Y1664683*
X1882126Y1664690*
X1882120Y1664697*
X1882115Y1664703*
X1882109Y1664709*
X1882103Y1664716*
X1882097Y1664722*
X1882091Y1664727*
X1882085Y1664733*
X1882078Y1664739*
X1882072Y1664744*
X1882065Y1664749*
X1882058Y1664754*
X1882051Y1664759*
X1882044Y1664763*
X1882036Y1664767*
X1882029Y1664771*
X1882021Y1664775*
X1882014Y1664779*
X1882006Y1664782*
X1881998Y1664786*
X1881990Y1664789*
X1881982Y1664791*
X1881974Y1664794*
X1881966Y1664796*
X1881957Y1664798*
X1881949Y1664800*
X1881941Y1664802*
X1881932Y1664803*
X1881924Y1664804*
X1881915Y1664805*
X1881907*
X1881898Y1664806*
X1881890*
X1875906*
X1875897*
X1875888Y1664805*
X1875888D02*
X1875880D01*
X1875872Y1664804*
X1875863Y1664803*
X1875855Y1664802*
X1875846Y1664800*
X1875838Y1664798*
X1875830Y1664796*
X1875822Y1664794*
X1875813Y1664791*
X1875805Y1664789*
X1875797Y1664786*
X1875789Y1664782*
X1875782Y1664779*
X1875774Y1664775*
X1875766Y1664771*
X1875759Y1664767*
X1875752Y1664763*
X1875744Y1664759*
X1875737Y1664754*
X1875730Y1664749*
X1875724Y1664744*
X1875717Y1664739*
X1875710Y1664733*
X1875704Y1664727*
X1875698Y1664722*
X1875692Y1664716*
X1875686Y1664709*
X1875680Y1664703*
X1875675Y1664697*
X1875669Y1664690*
X1875669D02*
X1875664Y1664683D01*
X1875659Y1664676*
X1875655Y1664669*
X1875650Y1664662*
X1875646Y1664654*
X1875642Y1664647*
X1875638Y1664639*
X1875634Y1664632*
X1875631Y1664624*
X1875628Y1664616*
X1875625Y1664608*
X1875622Y1664600*
X1875620Y1664592*
X1875617Y1664584*
X1875615Y1664575*
X1875613Y1664567*
X1875612Y1664559*
X1875611Y1664550*
X1875609Y1664542*
Y1664533*
X1875608Y1664525*
Y1664516*
X1875607Y1664508*
Y1659311*
X1875608Y1659303*
Y1659294*
X1875609Y1659286*
Y1659277*
X1875611Y1659269*
X1875612Y1659260*
X1875613Y1659252*
X1875615Y1659244*
X1875617Y1659235*
X1875620Y1659227*
X1875622Y1659219*
X1875625Y1659211*
X1875628Y1659203*
X1875631Y1659195*
X1875634Y1659187*
X1875638Y1659180*
X1875642Y1659172*
X1875646Y1659164*
X1875650Y1659157*
X1875655Y1659150*
X1875659Y1659143*
X1875664Y1659136*
X1875669Y1659129*
X1875669D02*
X1875675Y1659122D01*
X1875680Y1659116*
X1875686Y1659110*
X1875686D02*
X1875692Y1659103D01*
X1875698Y1659097*
X1875704Y1659091*
X1875710Y1659086*
X1875717Y1659080*
X1875724Y1659075*
X1875730Y1659070*
X1875737Y1659065*
X1875744Y1659060*
X1875752Y1659056*
X1875759Y1659052*
X1875766Y1659047*
X1875774Y1659044*
X1875782Y1659040*
X1875789Y1659036*
X1875789D02*
X1875797Y1659033D01*
X1875805Y1659030*
X1875813Y1659028*
X1875822Y1659025*
X1875830Y1659023*
X1875838Y1659021*
X1875846Y1659019*
X1875855Y1659017*
X1875863Y1659016*
X1875872Y1659015*
X1875880Y1659014*
X1875888Y1659013*
X1875888D02*
X1875897D01*
X1875906*
X1880748*
X1880756*
X1880765*
X1880773Y1659014*
X1880781Y1659015*
X1880789Y1659016*
X1880797Y1659017*
X1880805Y1659019*
X1880813Y1659020*
X1880821Y1659022*
X1880829Y1659024*
X1880837Y1659027*
X1880845Y1659029*
X1880853Y1659032*
X1880861Y1659035*
X1880868Y1659038*
X1880876Y1659042*
X1880883Y1659045*
X1880890Y1659049*
X1880898Y1659053*
X1880905Y1659057*
X1880912Y1659062*
X1880918Y1659066*
X1880925Y1659071*
X1880932Y1659076*
X1880938Y1659081*
X1882080Y1660026*
X1882086Y1660032*
X1882092Y1660037*
X1882099Y1660043*
X1882105Y1660049*
X1882110Y1660055*
X1882116Y1660062*
X1882121Y1660068*
X1882127Y1660075*
X1882132Y1660082*
X1882136Y1660089*
X1882141Y1660096*
X1882146Y1660103*
X1882150Y1660110*
X1882154Y1660118*
X1882158Y1660125*
X1882161Y1660133*
X1882165Y1660141*
X1882168Y1660148*
X1882171Y1660156*
X1882173Y1660164*
X1882176Y1660172*
X1882178Y1660181*
X1882180Y1660189*
X1882182Y1660197*
X1882183Y1660205*
X1882185Y1660214*
X1882186Y1660222*
X1882187Y1660231*
Y1660239*
X1882188Y1660247*
Y1660256*
Y1664508*
X1875608Y1659290D02*
Y1664529D01*
X1875610Y1659271D02*
Y1664548D01*
X1875612Y1659258D02*
Y1664561D01*
X1875614Y1659248D02*
Y1664571D01*
X1875616Y1659240D02*
Y1664579D01*
X1875618Y1659232D02*
Y1664587D01*
X1875620Y1659225D02*
Y1664594D01*
X1875622Y1659219D02*
Y1664600D01*
X1875624Y1659213D02*
Y1664606D01*
X1875626Y1659208D02*
Y1664611D01*
X1875628Y1659202D02*
Y1664616D01*
X1875630Y1659198D02*
Y1664621D01*
X1875632Y1659193D02*
Y1664626D01*
X1875634Y1659188D02*
Y1664630D01*
X1875636Y1659184D02*
Y1664635D01*
X1875638Y1659180D02*
Y1664639D01*
X1875640Y1659176D02*
Y1664643D01*
X1875642Y1659172D02*
Y1664647D01*
X1875644Y1659169D02*
Y1664650D01*
X1875646Y1659165D02*
Y1664654D01*
X1875648Y1659162D02*
Y1664657D01*
X1875650Y1659158D02*
Y1664661D01*
X1875652Y1659155D02*
Y1664664D01*
X1875654Y1659152D02*
Y1664667D01*
X1875656Y1659149D02*
Y1664670D01*
X1875657Y1659146D02*
Y1664673D01*
X1875659Y1659143D02*
Y1664676D01*
X1875661Y1659140D02*
Y1664679D01*
X1875663Y1659137D02*
Y1664682D01*
X1875665Y1659135D02*
Y1664684D01*
X1875667Y1659132D02*
Y1664687D01*
X1875669Y1659129D02*
Y1664690D01*
X1875671Y1659127D02*
Y1664692D01*
X1875673Y1659124D02*
Y1664695D01*
X1875675Y1659122D02*
Y1664697D01*
X1875677Y1659120D02*
Y1664699D01*
X1875679Y1659117D02*
Y1664702D01*
X1875681Y1659115D02*
Y1664704D01*
X1875683Y1659113D02*
Y1664706D01*
X1875685Y1659111D02*
Y1664708D01*
X1875687Y1659108D02*
Y1664711D01*
X1875689Y1659106D02*
Y1664713D01*
X1875691Y1659104D02*
Y1664715D01*
X1875693Y1659102D02*
Y1664717D01*
X1875695Y1659100D02*
Y1664719D01*
X1875697Y1659098D02*
Y1664721D01*
X1875699Y1659096D02*
Y1664723D01*
X1875701Y1659094D02*
Y1664724D01*
X1875703Y1659093D02*
Y1664726D01*
X1875705Y1659091D02*
Y1664728D01*
X1875707Y1659089D02*
Y1664730D01*
X1875709Y1659087D02*
Y1664732D01*
X1875711Y1659086D02*
Y1664733D01*
X1875713Y1659084D02*
Y1664735D01*
X1875715Y1659082D02*
Y1664737D01*
X1875717Y1659081D02*
Y1664738D01*
X1875719Y1659079D02*
Y1664740D01*
X1875720Y1659077D02*
Y1664741D01*
X1875722Y1659076D02*
Y1664743D01*
X1875724Y1659074D02*
Y1664745D01*
X1875726Y1659073D02*
Y1664746D01*
X1875728Y1659071D02*
Y1664747D01*
X1875730Y1659070D02*
Y1664749D01*
X1875732Y1659069D02*
Y1664750D01*
X1875734Y1659067D02*
Y1664752D01*
X1875736Y1659066D02*
Y1664753D01*
X1875738Y1659064D02*
Y1664754D01*
X1875740Y1659063D02*
Y1664756D01*
X1875742Y1659062D02*
Y1664757D01*
X1875744Y1659060D02*
Y1664758D01*
X1875746Y1659059D02*
Y1664760D01*
X1875748Y1659058D02*
Y1664761D01*
X1875750Y1659057D02*
Y1664762D01*
X1875752Y1659056D02*
Y1664763D01*
X1875754Y1659054D02*
Y1664764D01*
X1875756Y1659053D02*
Y1664766D01*
X1875758Y1659052D02*
Y1664767D01*
X1875760Y1659051D02*
Y1664768D01*
X1875762Y1659050D02*
Y1664769D01*
X1875764Y1659049D02*
Y1664770D01*
X1875766Y1659048D02*
Y1664771D01*
X1875768Y1659047D02*
Y1664772D01*
X1875770Y1659046D02*
Y1664773D01*
X1875772Y1659045D02*
Y1664774D01*
X1875774Y1659044D02*
Y1664775D01*
X1875776Y1659043D02*
Y1664776D01*
X1875778Y1659042D02*
Y1664777D01*
X1875780Y1659041D02*
Y1664778D01*
X1875781Y1659040D02*
Y1664779D01*
X1875783Y1659039D02*
Y1664780D01*
X1875785Y1659038D02*
Y1664781D01*
X1875787Y1659037D02*
Y1664781D01*
X1875789Y1659037D02*
Y1664782D01*
X1875791Y1659036D02*
Y1664783D01*
X1875793Y1659035D02*
Y1664784D01*
X1875795Y1659034D02*
Y1664785D01*
X1875797Y1659033D02*
Y1664786D01*
X1875799Y1659033D02*
Y1664786D01*
X1875801Y1659032D02*
Y1664787D01*
X1875803Y1659031D02*
Y1664788D01*
X1875805Y1659030D02*
Y1664788D01*
X1875807Y1659030D02*
Y1664789D01*
X1875809Y1659029D02*
Y1664790D01*
X1875811Y1659028D02*
Y1664791D01*
X1875813Y1659028D02*
Y1664791D01*
X1875815Y1659027D02*
Y1664792D01*
X1875817Y1659026D02*
Y1664792D01*
X1875819Y1659026D02*
Y1664793D01*
X1875821Y1659025D02*
Y1664794D01*
X1875823Y1659025D02*
Y1664794D01*
X1875825Y1659024D02*
Y1664795D01*
X1875827Y1659024D02*
Y1664795D01*
X1875829Y1659023D02*
Y1664796D01*
X1875831Y1659023D02*
Y1664796D01*
X1875833Y1659022D02*
Y1664797D01*
X1875835Y1659022D02*
Y1664797D01*
X1875837Y1659021D02*
Y1664798D01*
X1875839Y1659021D02*
Y1664798D01*
X1875841Y1659020D02*
Y1664799D01*
X1875843Y1659020D02*
Y1664799D01*
X1875844Y1659019D02*
Y1664800D01*
X1875846Y1659019D02*
Y1664800D01*
X1875848Y1659019D02*
Y1664800D01*
X1875850Y1659018D02*
Y1664801D01*
X1875852Y1659018D02*
Y1664801D01*
X1875854Y1659017D02*
Y1664801D01*
X1875856Y1659017D02*
Y1664802D01*
X1875858Y1659017D02*
Y1664802D01*
X1875860Y1659016D02*
Y1664802D01*
X1875862Y1659016D02*
Y1664803D01*
X1875864Y1659016D02*
Y1664803D01*
X1875866Y1659016D02*
Y1664803D01*
X1875868Y1659015D02*
Y1664804D01*
X1875870Y1659015D02*
Y1664804D01*
X1875872Y1659015D02*
Y1664804D01*
X1875874Y1659015D02*
Y1664804D01*
X1875876Y1659014D02*
Y1664804D01*
X1875878Y1659014D02*
Y1664805D01*
X1875880Y1659014D02*
Y1664805D01*
X1875882Y1659014D02*
Y1664805D01*
X1875884Y1659014D02*
Y1664805D01*
X1875886Y1659014D02*
Y1664805D01*
X1875888Y1659014D02*
Y1664805D01*
X1875890Y1659013D02*
Y1664805D01*
X1875892Y1659013D02*
Y1664806D01*
X1875894Y1659013D02*
Y1664806D01*
X1875896Y1659013D02*
Y1664806D01*
X1875898Y1659013D02*
Y1664806D01*
X1875900Y1659013D02*
Y1664806D01*
X1875902Y1659013D02*
Y1664806D01*
X1875904Y1659013D02*
Y1664806D01*
X1875906Y1659013D02*
Y1664806D01*
X1875907Y1659013D02*
Y1664806D01*
X1875909Y1659013D02*
Y1664806D01*
X1875911Y1659013D02*
Y1664806D01*
X1875913Y1659013D02*
Y1664806D01*
X1875915Y1659013D02*
Y1664806D01*
X1875917Y1659013D02*
Y1664806D01*
X1875919Y1659013D02*
Y1664806D01*
X1875921Y1659013D02*
Y1664806D01*
X1875923Y1659013D02*
Y1664806D01*
X1875925Y1659013D02*
Y1664806D01*
X1875927Y1659013D02*
Y1664806D01*
X1875929Y1659013D02*
Y1664806D01*
X1875931Y1659013D02*
Y1664806D01*
X1875933Y1659013D02*
Y1664806D01*
X1875935Y1659013D02*
Y1664806D01*
X1875937Y1659013D02*
Y1664806D01*
X1875939Y1659013D02*
Y1664806D01*
X1875941Y1659013D02*
Y1664806D01*
X1875943Y1659013D02*
Y1664806D01*
X1875945Y1659013D02*
Y1664806D01*
X1875947Y1659013D02*
Y1664806D01*
X1875949Y1659013D02*
Y1664806D01*
X1875951Y1659013D02*
Y1664806D01*
X1875953Y1659013D02*
Y1664806D01*
X1875955Y1659013D02*
Y1664806D01*
X1875957Y1659013D02*
Y1664806D01*
X1875959Y1659013D02*
Y1664806D01*
X1875961Y1659013D02*
Y1664806D01*
X1875963Y1659013D02*
Y1664806D01*
X1875965Y1659013D02*
Y1664806D01*
X1875967Y1659013D02*
Y1664806D01*
X1875969Y1659013D02*
Y1664806D01*
X1875970Y1659013D02*
Y1664806D01*
X1875972Y1659013D02*
Y1664806D01*
X1875974Y1659013D02*
Y1664806D01*
X1875976Y1659013D02*
Y1664806D01*
X1875978Y1659013D02*
Y1664806D01*
X1875980Y1659013D02*
Y1664806D01*
X1875982Y1659013D02*
Y1664806D01*
X1875984Y1659013D02*
Y1664806D01*
X1875986Y1659013D02*
Y1664806D01*
X1875988Y1659013D02*
Y1664806D01*
X1875990Y1659013D02*
Y1664806D01*
X1875992Y1659013D02*
Y1664806D01*
X1875994Y1659013D02*
Y1664806D01*
X1875996Y1659013D02*
Y1664806D01*
X1875998Y1659013D02*
Y1664806D01*
X1876000Y1659013D02*
Y1664806D01*
X1876002Y1659013D02*
Y1664806D01*
X1876004Y1659013D02*
Y1664806D01*
X1876006Y1659013D02*
Y1664806D01*
X1876008Y1659013D02*
Y1664806D01*
X1876010Y1659013D02*
Y1664806D01*
X1876012Y1659013D02*
Y1664806D01*
X1876014Y1659013D02*
Y1664806D01*
X1876016Y1659013D02*
Y1664806D01*
X1876018Y1659013D02*
Y1664806D01*
X1876020Y1659013D02*
Y1664806D01*
X1876022Y1659013D02*
Y1664806D01*
X1876024Y1659013D02*
Y1664806D01*
X1876026Y1659013D02*
Y1664806D01*
X1876028Y1659013D02*
Y1664806D01*
X1876030Y1659013D02*
Y1664806D01*
X1876031Y1659013D02*
Y1664806D01*
X1876033Y1659013D02*
Y1664806D01*
X1876035Y1659013D02*
Y1664806D01*
X1876037Y1659013D02*
Y1664806D01*
X1876039Y1659013D02*
Y1664806D01*
X1876041Y1659013D02*
Y1664806D01*
X1876043Y1659013D02*
Y1664806D01*
X1876045Y1659013D02*
Y1664806D01*
X1876047Y1659013D02*
Y1664806D01*
X1876049Y1659013D02*
Y1664806D01*
X1876051Y1659013D02*
Y1664806D01*
X1876053Y1659013D02*
Y1664806D01*
X1876055Y1659013D02*
Y1664806D01*
X1876057Y1659013D02*
Y1664806D01*
X1876059Y1659013D02*
Y1664806D01*
X1876061Y1659013D02*
Y1664806D01*
X1876063Y1659013D02*
Y1664806D01*
X1876065Y1659013D02*
Y1664806D01*
X1876067Y1659013D02*
Y1664806D01*
X1876069Y1659013D02*
Y1664806D01*
X1876071Y1659013D02*
Y1664806D01*
X1876073Y1659013D02*
Y1664806D01*
X1876075Y1659013D02*
Y1664806D01*
X1876077Y1659013D02*
Y1664806D01*
X1876079Y1659013D02*
Y1664806D01*
X1876081Y1659013D02*
Y1664806D01*
X1876083Y1659013D02*
Y1664806D01*
X1876085Y1659013D02*
Y1664806D01*
X1876087Y1659013D02*
Y1664806D01*
X1876089Y1659013D02*
Y1664806D01*
X1876091Y1659013D02*
Y1664806D01*
X1876093Y1659013D02*
Y1664806D01*
X1876094Y1659013D02*
Y1664806D01*
X1876096Y1659013D02*
Y1664806D01*
X1876098Y1659013D02*
Y1664806D01*
X1876100Y1659013D02*
Y1664806D01*
X1876102Y1659013D02*
Y1664806D01*
X1876104Y1659013D02*
Y1664806D01*
X1876106Y1659013D02*
Y1664806D01*
X1876108Y1659013D02*
Y1664806D01*
X1876110Y1659013D02*
Y1664806D01*
X1876112Y1659013D02*
Y1664806D01*
X1876114Y1659013D02*
Y1664806D01*
X1876116Y1659013D02*
Y1664806D01*
X1876118Y1659013D02*
Y1664806D01*
X1876120Y1659013D02*
Y1664806D01*
X1876122Y1659013D02*
Y1664806D01*
X1876124Y1659013D02*
Y1664806D01*
X1876126Y1659013D02*
Y1664806D01*
X1876128Y1659013D02*
Y1664806D01*
X1876130Y1659013D02*
Y1664806D01*
X1876132Y1659013D02*
Y1664806D01*
X1876134Y1659013D02*
Y1664806D01*
X1876136Y1659013D02*
Y1664806D01*
X1876138Y1659013D02*
Y1664806D01*
X1876140Y1659013D02*
Y1664806D01*
X1876142Y1659013D02*
Y1664806D01*
X1876144Y1659013D02*
Y1664806D01*
X1876146Y1659013D02*
Y1664806D01*
X1876148Y1659013D02*
Y1664806D01*
X1876150Y1659013D02*
Y1664806D01*
X1876152Y1659013D02*
Y1664806D01*
X1876154Y1659013D02*
Y1664806D01*
X1876156Y1659013D02*
Y1664806D01*
X1876157Y1659013D02*
Y1664806D01*
X1876159Y1659013D02*
Y1664806D01*
X1876161Y1659013D02*
Y1664806D01*
X1876163Y1659013D02*
Y1664806D01*
X1876165Y1659013D02*
Y1664806D01*
X1876167Y1659013D02*
Y1664806D01*
X1876169Y1659013D02*
Y1664806D01*
X1876171Y1659013D02*
Y1664806D01*
X1876173Y1659013D02*
Y1664806D01*
X1876175Y1659013D02*
Y1664806D01*
X1876177Y1659013D02*
Y1664806D01*
X1876179Y1659013D02*
Y1664806D01*
X1876181Y1659013D02*
Y1664806D01*
X1876183Y1659013D02*
Y1664806D01*
X1876185Y1659013D02*
Y1664806D01*
X1876187Y1659013D02*
Y1664806D01*
X1876189Y1659013D02*
Y1664806D01*
X1876191Y1659013D02*
Y1664806D01*
X1876193Y1659013D02*
Y1664806D01*
X1876195Y1659013D02*
Y1664806D01*
X1876197Y1659013D02*
Y1664806D01*
X1876199Y1659013D02*
Y1664806D01*
X1876201Y1659013D02*
Y1664806D01*
X1876203Y1659013D02*
Y1664806D01*
X1876205Y1659013D02*
Y1664806D01*
X1876207Y1659013D02*
Y1664806D01*
X1876209Y1659013D02*
Y1664806D01*
X1876211Y1659013D02*
Y1664806D01*
X1876213Y1659013D02*
Y1664806D01*
X1876215Y1659013D02*
Y1664806D01*
X1876217Y1659013D02*
Y1664806D01*
X1876219Y1659013D02*
Y1664806D01*
X1876220Y1659013D02*
Y1664806D01*
X1876222Y1659013D02*
Y1664806D01*
X1876224Y1659013D02*
Y1664806D01*
X1876226Y1659013D02*
Y1664806D01*
X1876228Y1659013D02*
Y1664806D01*
X1876230Y1659013D02*
Y1664806D01*
X1876232Y1659013D02*
Y1664806D01*
X1876234Y1659013D02*
Y1664806D01*
X1876236Y1659013D02*
Y1664806D01*
X1876238Y1659013D02*
Y1664806D01*
X1876240Y1659013D02*
Y1664806D01*
X1876242Y1659013D02*
Y1664806D01*
X1876244Y1659013D02*
Y1664806D01*
X1876246Y1659013D02*
Y1664806D01*
X1876248Y1659013D02*
Y1664806D01*
X1876250Y1659013D02*
Y1664806D01*
X1876252Y1659013D02*
Y1664806D01*
X1876254Y1659013D02*
Y1664806D01*
X1876256Y1659013D02*
Y1664806D01*
X1876258Y1659013D02*
Y1664806D01*
X1876260Y1659013D02*
Y1664806D01*
X1876262Y1659013D02*
Y1664806D01*
X1876264Y1659013D02*
Y1664806D01*
X1876266Y1659013D02*
Y1664806D01*
X1876268Y1659013D02*
Y1664806D01*
X1876270Y1659013D02*
Y1664806D01*
X1876272Y1659013D02*
Y1664806D01*
X1876274Y1659013D02*
Y1664806D01*
X1876276Y1659013D02*
Y1664806D01*
X1876278Y1659013D02*
Y1664806D01*
X1876280Y1659013D02*
Y1664806D01*
X1876281Y1659013D02*
Y1664806D01*
X1876283Y1659013D02*
Y1664806D01*
X1876285Y1659013D02*
Y1664806D01*
X1876287Y1659013D02*
Y1664806D01*
X1876289Y1659013D02*
Y1664806D01*
X1876291Y1659013D02*
Y1664806D01*
X1876293Y1659013D02*
Y1664806D01*
X1876295Y1659013D02*
Y1664806D01*
X1876297Y1659013D02*
Y1664806D01*
X1876299Y1659013D02*
Y1664806D01*
X1876301Y1659013D02*
Y1664806D01*
X1876303Y1659013D02*
Y1664806D01*
X1876305Y1659013D02*
Y1664806D01*
X1876307Y1659013D02*
Y1664806D01*
X1876309Y1659013D02*
Y1664806D01*
X1876311Y1659013D02*
Y1664806D01*
X1876313Y1659013D02*
Y1664806D01*
X1876315Y1659013D02*
Y1664806D01*
X1876317Y1659013D02*
Y1664806D01*
X1876319Y1659013D02*
Y1664806D01*
X1876321Y1659013D02*
Y1664806D01*
X1876323Y1659013D02*
Y1664806D01*
X1876325Y1659013D02*
Y1664806D01*
X1876327Y1659013D02*
Y1664806D01*
X1876329Y1659013D02*
Y1664806D01*
X1876331Y1659013D02*
Y1664806D01*
X1876333Y1659013D02*
Y1664806D01*
X1876335Y1659013D02*
Y1664806D01*
X1876337Y1659013D02*
Y1664806D01*
X1876339Y1659013D02*
Y1664806D01*
X1876341Y1659013D02*
Y1664806D01*
X1876343Y1659013D02*
Y1664806D01*
X1876344Y1659013D02*
Y1664806D01*
X1876346Y1659013D02*
Y1664806D01*
X1876348Y1659013D02*
Y1664806D01*
X1876350Y1659013D02*
Y1664806D01*
X1876352Y1659013D02*
Y1664806D01*
X1876354Y1659013D02*
Y1664806D01*
X1876356Y1659013D02*
Y1664806D01*
X1876358Y1659013D02*
Y1664806D01*
X1876360Y1659013D02*
Y1664806D01*
X1876362Y1659013D02*
Y1664806D01*
X1876364Y1659013D02*
Y1664806D01*
X1876366Y1659013D02*
Y1664806D01*
X1876368Y1659013D02*
Y1664806D01*
X1876370Y1659013D02*
Y1664806D01*
X1876372Y1659013D02*
Y1664806D01*
X1876374Y1659013D02*
Y1664806D01*
X1876376Y1659013D02*
Y1664806D01*
X1876378Y1659013D02*
Y1664806D01*
X1876380Y1659013D02*
Y1664806D01*
X1876382Y1659013D02*
Y1664806D01*
X1876384Y1659013D02*
Y1664806D01*
X1876386Y1659013D02*
Y1664806D01*
X1876388Y1659013D02*
Y1664806D01*
X1876390Y1659013D02*
Y1664806D01*
X1876392Y1659013D02*
Y1664806D01*
X1876394Y1659013D02*
Y1664806D01*
X1876396Y1659013D02*
Y1664806D01*
X1876398Y1659013D02*
Y1664806D01*
X1876400Y1659013D02*
Y1664806D01*
X1876402Y1659013D02*
Y1664806D01*
X1876404Y1659013D02*
Y1664806D01*
X1876406Y1659013D02*
Y1664806D01*
X1876407Y1659013D02*
Y1664806D01*
X1876409Y1659013D02*
Y1664806D01*
X1876411Y1659013D02*
Y1664806D01*
X1876413Y1659013D02*
Y1664806D01*
X1876415Y1659013D02*
Y1664806D01*
X1876417Y1659013D02*
Y1664806D01*
X1876419Y1659013D02*
Y1664806D01*
X1876421Y1659013D02*
Y1664806D01*
X1876423Y1659013D02*
Y1664806D01*
X1876425Y1659013D02*
Y1664806D01*
X1876427Y1659013D02*
Y1664806D01*
X1876429Y1659013D02*
Y1664806D01*
X1876431Y1659013D02*
Y1664806D01*
X1876433Y1659013D02*
Y1664806D01*
X1876435Y1659013D02*
Y1664806D01*
X1876437Y1659013D02*
Y1664806D01*
X1876439Y1659013D02*
Y1664806D01*
X1876441Y1659013D02*
Y1664806D01*
X1876443Y1659013D02*
Y1664806D01*
X1876445Y1659013D02*
Y1664806D01*
X1876447Y1659013D02*
Y1664806D01*
X1876449Y1659013D02*
Y1664806D01*
X1876451Y1659013D02*
Y1664806D01*
X1876453Y1659013D02*
Y1664806D01*
X1876455Y1659013D02*
Y1664806D01*
X1876457Y1659013D02*
Y1664806D01*
X1876459Y1659013D02*
Y1664806D01*
X1876461Y1659013D02*
Y1664806D01*
X1876463Y1659013D02*
Y1664806D01*
X1876465Y1659013D02*
Y1664806D01*
X1876467Y1659013D02*
Y1664806D01*
X1876469Y1659013D02*
Y1664806D01*
X1876470Y1659013D02*
Y1664806D01*
X1876472Y1659013D02*
Y1664806D01*
X1876474Y1659013D02*
Y1664806D01*
X1876476Y1659013D02*
Y1664806D01*
X1876478Y1659013D02*
Y1664806D01*
X1876480Y1659013D02*
Y1664806D01*
X1876482Y1659013D02*
Y1664806D01*
X1876484Y1659013D02*
Y1664806D01*
X1876486Y1659013D02*
Y1664806D01*
X1876488Y1659013D02*
Y1664806D01*
X1876490Y1659013D02*
Y1664806D01*
X1876492Y1659013D02*
Y1664806D01*
X1876494Y1659013D02*
Y1664806D01*
X1876496Y1659013D02*
Y1664806D01*
X1876498Y1659013D02*
Y1664806D01*
X1876500Y1659013D02*
Y1664806D01*
X1876502Y1659013D02*
Y1664806D01*
X1876504Y1659013D02*
Y1664806D01*
X1876506Y1659013D02*
Y1664806D01*
X1876508Y1659013D02*
Y1664806D01*
X1876510Y1659013D02*
Y1664806D01*
X1876512Y1659013D02*
Y1664806D01*
X1876514Y1659013D02*
Y1664806D01*
X1876516Y1659013D02*
Y1664806D01*
X1876518Y1659013D02*
Y1664806D01*
X1876520Y1659013D02*
Y1664806D01*
X1876522Y1659013D02*
Y1664806D01*
X1876524Y1659013D02*
Y1664806D01*
X1876526Y1659013D02*
Y1664806D01*
X1876528Y1659013D02*
Y1664806D01*
X1876530Y1659013D02*
Y1664806D01*
X1876531Y1659013D02*
Y1664806D01*
X1876533Y1659013D02*
Y1664806D01*
X1876535Y1659013D02*
Y1664806D01*
X1876537Y1659013D02*
Y1664806D01*
X1876539Y1659013D02*
Y1664806D01*
X1876541Y1659013D02*
Y1664806D01*
X1876543Y1659013D02*
Y1664806D01*
X1876545Y1659013D02*
Y1664806D01*
X1876547Y1659013D02*
Y1664806D01*
X1876549Y1659013D02*
Y1664806D01*
X1876551Y1659013D02*
Y1664806D01*
X1876553Y1659013D02*
Y1664806D01*
X1876555Y1659013D02*
Y1664806D01*
X1876557Y1659013D02*
Y1664806D01*
X1876559Y1659013D02*
Y1664806D01*
X1876561Y1659013D02*
Y1664806D01*
X1876563Y1659013D02*
Y1664806D01*
X1876565Y1659013D02*
Y1664806D01*
X1876567Y1659013D02*
Y1664806D01*
X1876569Y1659013D02*
Y1664806D01*
X1876571Y1659013D02*
Y1664806D01*
X1876573Y1659013D02*
Y1664806D01*
X1876575Y1659013D02*
Y1664806D01*
X1876577Y1659013D02*
Y1664806D01*
X1876579Y1659013D02*
Y1664806D01*
X1876581Y1659013D02*
Y1664806D01*
X1876583Y1659013D02*
Y1664806D01*
X1876585Y1659013D02*
Y1664806D01*
X1876587Y1659013D02*
Y1664806D01*
X1876589Y1659013D02*
Y1664806D01*
X1876591Y1659013D02*
Y1664806D01*
X1876593Y1659013D02*
Y1664806D01*
X1876594Y1659013D02*
Y1664806D01*
X1876596Y1659013D02*
Y1664806D01*
X1876598Y1659013D02*
Y1664806D01*
X1876600Y1659013D02*
Y1664806D01*
X1876602Y1659013D02*
Y1664806D01*
X1876604Y1659013D02*
Y1664806D01*
X1876606Y1659013D02*
Y1664806D01*
X1876608Y1659013D02*
Y1664806D01*
X1876610Y1659013D02*
Y1664806D01*
X1876612Y1659013D02*
Y1664806D01*
X1876614Y1659013D02*
Y1664806D01*
X1876616Y1659013D02*
Y1664806D01*
X1876618Y1659013D02*
Y1664806D01*
X1876620Y1659013D02*
Y1664806D01*
X1876622Y1659013D02*
Y1664806D01*
X1876624Y1659013D02*
Y1664806D01*
X1876626Y1659013D02*
Y1664806D01*
X1876628Y1659013D02*
Y1664806D01*
X1876630Y1659013D02*
Y1664806D01*
X1876632Y1659013D02*
Y1664806D01*
X1876634Y1659013D02*
Y1664806D01*
X1876636Y1659013D02*
Y1664806D01*
X1876638Y1659013D02*
Y1664806D01*
X1876640Y1659013D02*
Y1664806D01*
X1876642Y1659013D02*
Y1664806D01*
X1876644Y1659013D02*
Y1664806D01*
X1876646Y1659013D02*
Y1664806D01*
X1876648Y1659013D02*
Y1664806D01*
X1876650Y1659013D02*
Y1664806D01*
X1876652Y1659013D02*
Y1664806D01*
X1876654Y1659013D02*
Y1664806D01*
X1876656Y1659013D02*
Y1664806D01*
X1876657Y1659013D02*
Y1664806D01*
X1876659Y1659013D02*
Y1664806D01*
X1876661Y1659013D02*
Y1664806D01*
X1876663Y1659013D02*
Y1664806D01*
X1876665Y1659013D02*
Y1664806D01*
X1876667Y1659013D02*
Y1664806D01*
X1876669Y1659013D02*
Y1664806D01*
X1876671Y1659013D02*
Y1664806D01*
X1876673Y1659013D02*
Y1664806D01*
X1876675Y1659013D02*
Y1664806D01*
X1876677Y1659013D02*
Y1664806D01*
X1876679Y1659013D02*
Y1664806D01*
X1876681Y1659013D02*
Y1664806D01*
X1876683Y1659013D02*
Y1664806D01*
X1876685Y1659013D02*
Y1664806D01*
X1876687Y1659013D02*
Y1664806D01*
X1876689Y1659013D02*
Y1664806D01*
X1876691Y1659013D02*
Y1664806D01*
X1876693Y1659013D02*
Y1664806D01*
X1876695Y1659013D02*
Y1664806D01*
X1876697Y1659013D02*
Y1664806D01*
X1876699Y1659013D02*
Y1664806D01*
X1876701Y1659013D02*
Y1664806D01*
X1876703Y1659013D02*
Y1664806D01*
X1876705Y1659013D02*
Y1664806D01*
X1876707Y1659013D02*
Y1664806D01*
X1876709Y1659013D02*
Y1664806D01*
X1876711Y1659013D02*
Y1664806D01*
X1876713Y1659013D02*
Y1664806D01*
X1876715Y1659013D02*
Y1664806D01*
X1876717Y1659013D02*
Y1664806D01*
X1876719Y1659013D02*
Y1664806D01*
X1876720Y1659013D02*
Y1664806D01*
X1876722Y1659013D02*
Y1664806D01*
X1876724Y1659013D02*
Y1664806D01*
X1876726Y1659013D02*
Y1664806D01*
X1876728Y1659013D02*
Y1664806D01*
X1876730Y1659013D02*
Y1664806D01*
X1876732Y1659013D02*
Y1664806D01*
X1876734Y1659013D02*
Y1664806D01*
X1876736Y1659013D02*
Y1664806D01*
X1876738Y1659013D02*
Y1664806D01*
X1876740Y1659013D02*
Y1664806D01*
X1876742Y1659013D02*
Y1664806D01*
X1876744Y1659013D02*
Y1664806D01*
X1876746Y1659013D02*
Y1664806D01*
X1876748Y1659013D02*
Y1664806D01*
X1876750Y1659013D02*
Y1664806D01*
X1876752Y1659013D02*
Y1664806D01*
X1876754Y1659013D02*
Y1664806D01*
X1876756Y1659013D02*
Y1664806D01*
X1876758Y1659013D02*
Y1664806D01*
X1876760Y1659013D02*
Y1664806D01*
X1876762Y1659013D02*
Y1664806D01*
X1876764Y1659013D02*
Y1664806D01*
X1876766Y1659013D02*
Y1664806D01*
X1876768Y1659013D02*
Y1664806D01*
X1876770Y1659013D02*
Y1664806D01*
X1876772Y1659013D02*
Y1664806D01*
X1876774Y1659013D02*
Y1664806D01*
X1876776Y1659013D02*
Y1664806D01*
X1876778Y1659013D02*
Y1664806D01*
X1876780Y1659013D02*
Y1664806D01*
X1876781Y1659013D02*
Y1664806D01*
X1876783Y1659013D02*
Y1664806D01*
X1876785Y1659013D02*
Y1664806D01*
X1876787Y1659013D02*
Y1664806D01*
X1876789Y1659013D02*
Y1664806D01*
X1876791Y1659013D02*
Y1664806D01*
X1876793Y1659013D02*
Y1664806D01*
X1876795Y1659013D02*
Y1664806D01*
X1876797Y1659013D02*
Y1664806D01*
X1876799Y1659013D02*
Y1664806D01*
X1876801Y1659013D02*
Y1664806D01*
X1876803Y1659013D02*
Y1664806D01*
X1876805Y1659013D02*
Y1664806D01*
X1876807Y1659013D02*
Y1664806D01*
X1876809Y1659013D02*
Y1664806D01*
X1876811Y1659013D02*
Y1664806D01*
X1876813Y1659013D02*
Y1664806D01*
X1876815Y1659013D02*
Y1664806D01*
X1876817Y1659013D02*
Y1664806D01*
X1876819Y1659013D02*
Y1664806D01*
X1876821Y1659013D02*
Y1664806D01*
X1876823Y1659013D02*
Y1664806D01*
X1876825Y1659013D02*
Y1664806D01*
X1876827Y1659013D02*
Y1664806D01*
X1876829Y1659013D02*
Y1664806D01*
X1876831Y1659013D02*
Y1664806D01*
X1876833Y1659013D02*
Y1664806D01*
X1876835Y1659013D02*
Y1664806D01*
X1876837Y1659013D02*
Y1664806D01*
X1876839Y1659013D02*
Y1664806D01*
X1876841Y1659013D02*
Y1664806D01*
X1876843Y1659013D02*
Y1664806D01*
X1876844Y1659013D02*
Y1664806D01*
X1876846Y1659013D02*
Y1664806D01*
X1876848Y1659013D02*
Y1664806D01*
X1876850Y1659013D02*
Y1664806D01*
X1876852Y1659013D02*
Y1664806D01*
X1876854Y1659013D02*
Y1664806D01*
X1876856Y1659013D02*
Y1664806D01*
X1876858Y1659013D02*
Y1664806D01*
X1876860Y1659013D02*
Y1664806D01*
X1876862Y1659013D02*
Y1664806D01*
X1876864Y1659013D02*
Y1664806D01*
X1876866Y1659013D02*
Y1664806D01*
X1876868Y1659013D02*
Y1664806D01*
X1876870Y1659013D02*
Y1664806D01*
X1876872Y1659013D02*
Y1664806D01*
X1876874Y1659013D02*
Y1664806D01*
X1876876Y1659013D02*
Y1664806D01*
X1876878Y1659013D02*
Y1664806D01*
X1876880Y1659013D02*
Y1664806D01*
X1876882Y1659013D02*
Y1664806D01*
X1876884Y1659013D02*
Y1664806D01*
X1876886Y1659013D02*
Y1664806D01*
X1876888Y1659013D02*
Y1664806D01*
X1876890Y1659013D02*
Y1664806D01*
X1876892Y1659013D02*
Y1664806D01*
X1876894Y1659013D02*
Y1664806D01*
X1876896Y1659013D02*
Y1664806D01*
X1876898Y1659013D02*
Y1664806D01*
X1876900Y1659013D02*
Y1664806D01*
X1876902Y1659013D02*
Y1664806D01*
X1876904Y1659013D02*
Y1664806D01*
X1876906Y1659013D02*
Y1664806D01*
X1876907Y1659013D02*
Y1664806D01*
X1876909Y1659013D02*
Y1664806D01*
X1876911Y1659013D02*
Y1664806D01*
X1876913Y1659013D02*
Y1664806D01*
X1876915Y1659013D02*
Y1664806D01*
X1876917Y1659013D02*
Y1664806D01*
X1876919Y1659013D02*
Y1664806D01*
X1876921Y1659013D02*
Y1664806D01*
X1876923Y1659013D02*
Y1664806D01*
X1876925Y1659013D02*
Y1664806D01*
X1876927Y1659013D02*
Y1664806D01*
X1876929Y1659013D02*
Y1664806D01*
X1876931Y1659013D02*
Y1664806D01*
X1876933Y1659013D02*
Y1664806D01*
X1876935Y1659013D02*
Y1664806D01*
X1876937Y1659013D02*
Y1664806D01*
X1876939Y1659013D02*
Y1664806D01*
X1876941Y1659013D02*
Y1664806D01*
X1876943Y1659013D02*
Y1664806D01*
X1876945Y1659013D02*
Y1664806D01*
X1876947Y1659013D02*
Y1664806D01*
X1876949Y1659013D02*
Y1664806D01*
X1876951Y1659013D02*
Y1664806D01*
X1876953Y1659013D02*
Y1664806D01*
X1876955Y1659013D02*
Y1664806D01*
X1876957Y1659013D02*
Y1664806D01*
X1876959Y1659013D02*
Y1664806D01*
X1876961Y1659013D02*
Y1664806D01*
X1876963Y1659013D02*
Y1664806D01*
X1876965Y1659013D02*
Y1664806D01*
X1876967Y1659013D02*
Y1664806D01*
X1876969Y1659013D02*
Y1664806D01*
X1876970Y1659013D02*
Y1664806D01*
X1876972Y1659013D02*
Y1664806D01*
X1876974Y1659013D02*
Y1664806D01*
X1876976Y1659013D02*
Y1664806D01*
X1876978Y1659013D02*
Y1664806D01*
X1876980Y1659013D02*
Y1664806D01*
X1876982Y1659013D02*
Y1664806D01*
X1876984Y1659013D02*
Y1664806D01*
X1876986Y1659013D02*
Y1664806D01*
X1876988Y1659013D02*
Y1664806D01*
X1876990Y1659013D02*
Y1664806D01*
X1876992Y1659013D02*
Y1664806D01*
X1876994Y1659013D02*
Y1664806D01*
X1876996Y1659013D02*
Y1664806D01*
X1876998Y1659013D02*
Y1664806D01*
X1877000Y1659013D02*
Y1664806D01*
X1877002Y1659013D02*
Y1664806D01*
X1877004Y1659013D02*
Y1664806D01*
X1877006Y1659013D02*
Y1664806D01*
X1877008Y1659013D02*
Y1664806D01*
X1877010Y1659013D02*
Y1664806D01*
X1877012Y1659013D02*
Y1664806D01*
X1877014Y1659013D02*
Y1664806D01*
X1877016Y1659013D02*
Y1664806D01*
X1877018Y1659013D02*
Y1664806D01*
X1877020Y1659013D02*
Y1664806D01*
X1877022Y1659013D02*
Y1664806D01*
X1877024Y1659013D02*
Y1664806D01*
X1877026Y1659013D02*
Y1664806D01*
X1877028Y1659013D02*
Y1664806D01*
X1877030Y1659013D02*
Y1664806D01*
X1877031Y1659013D02*
Y1664806D01*
X1877033Y1659013D02*
Y1664806D01*
X1877035Y1659013D02*
Y1664806D01*
X1877037Y1659013D02*
Y1664806D01*
X1877039Y1659013D02*
Y1664806D01*
X1877041Y1659013D02*
Y1664806D01*
X1877043Y1659013D02*
Y1664806D01*
X1877045Y1659013D02*
Y1664806D01*
X1877047Y1659013D02*
Y1664806D01*
X1877049Y1659013D02*
Y1664806D01*
X1877051Y1659013D02*
Y1664806D01*
X1877053Y1659013D02*
Y1664806D01*
X1877055Y1659013D02*
Y1664806D01*
X1877057Y1659013D02*
Y1664806D01*
X1877059Y1659013D02*
Y1664806D01*
X1877061Y1659013D02*
Y1664806D01*
X1877063Y1659013D02*
Y1664806D01*
X1877065Y1659013D02*
Y1664806D01*
X1877067Y1659013D02*
Y1664806D01*
X1877069Y1659013D02*
Y1664806D01*
X1877071Y1659013D02*
Y1664806D01*
X1877073Y1659013D02*
Y1664806D01*
X1877075Y1659013D02*
Y1664806D01*
X1877077Y1659013D02*
Y1664806D01*
X1877079Y1659013D02*
Y1664806D01*
X1877081Y1659013D02*
Y1664806D01*
X1877083Y1659013D02*
Y1664806D01*
X1877085Y1659013D02*
Y1664806D01*
X1877087Y1659013D02*
Y1664806D01*
X1877089Y1659013D02*
Y1664806D01*
X1877091Y1659013D02*
Y1664806D01*
X1877093Y1659013D02*
Y1664806D01*
X1877094Y1659013D02*
Y1664806D01*
X1877096Y1659013D02*
Y1664806D01*
X1877098Y1659013D02*
Y1664806D01*
X1877100Y1659013D02*
Y1664806D01*
X1877102Y1659013D02*
Y1664806D01*
X1877104Y1659013D02*
Y1664806D01*
X1877106Y1659013D02*
Y1664806D01*
X1877108Y1659013D02*
Y1664806D01*
X1877110Y1659013D02*
Y1664806D01*
X1877112Y1659013D02*
Y1664806D01*
X1877114Y1659013D02*
Y1664806D01*
X1877116Y1659013D02*
Y1664806D01*
X1877118Y1659013D02*
Y1664806D01*
X1877120Y1659013D02*
Y1664806D01*
X1877122Y1659013D02*
Y1664806D01*
X1877124Y1659013D02*
Y1664806D01*
X1877126Y1659013D02*
Y1664806D01*
X1877128Y1659013D02*
Y1664806D01*
X1877130Y1659013D02*
Y1664806D01*
X1877132Y1659013D02*
Y1664806D01*
X1877134Y1659013D02*
Y1664806D01*
X1877136Y1659013D02*
Y1664806D01*
X1877138Y1659013D02*
Y1664806D01*
X1877140Y1659013D02*
Y1664806D01*
X1877142Y1659013D02*
Y1664806D01*
X1877144Y1659013D02*
Y1664806D01*
X1877146Y1659013D02*
Y1664806D01*
X1877148Y1659013D02*
Y1664806D01*
X1877150Y1659013D02*
Y1664806D01*
X1877152Y1659013D02*
Y1664806D01*
X1877154Y1659013D02*
Y1664806D01*
X1877156Y1659013D02*
Y1664806D01*
X1877157Y1659013D02*
Y1664806D01*
X1877159Y1659013D02*
Y1664806D01*
X1877161Y1659013D02*
Y1664806D01*
X1877163Y1659013D02*
Y1664806D01*
X1877165Y1659013D02*
Y1664806D01*
X1877167Y1659013D02*
Y1664806D01*
X1877169Y1659013D02*
Y1664806D01*
X1877171Y1659013D02*
Y1664806D01*
X1877173Y1659013D02*
Y1664806D01*
X1877175Y1659013D02*
Y1664806D01*
X1877177Y1659013D02*
Y1664806D01*
X1877179Y1659013D02*
Y1664806D01*
X1877181Y1659013D02*
Y1664806D01*
X1877183Y1659013D02*
Y1664806D01*
X1877185Y1659013D02*
Y1664806D01*
X1877187Y1659013D02*
Y1664806D01*
X1877189Y1659013D02*
Y1664806D01*
X1877191Y1659013D02*
Y1664806D01*
X1877193Y1659013D02*
Y1664806D01*
X1877195Y1659013D02*
Y1664806D01*
X1877197Y1659013D02*
Y1664806D01*
X1877199Y1659013D02*
Y1664806D01*
X1877201Y1659013D02*
Y1664806D01*
X1877203Y1659013D02*
Y1664806D01*
X1877205Y1659013D02*
Y1664806D01*
X1877207Y1659013D02*
Y1664806D01*
X1877209Y1659013D02*
Y1664806D01*
X1877211Y1659013D02*
Y1664806D01*
X1877213Y1659013D02*
Y1664806D01*
X1877215Y1659013D02*
Y1664806D01*
X1877217Y1659013D02*
Y1664806D01*
X1877219Y1659013D02*
Y1664806D01*
X1877220Y1659013D02*
Y1664806D01*
X1877222Y1659013D02*
Y1664806D01*
X1877224Y1659013D02*
Y1664806D01*
X1877226Y1659013D02*
Y1664806D01*
X1877228Y1659013D02*
Y1664806D01*
X1877230Y1659013D02*
Y1664806D01*
X1877232Y1659013D02*
Y1664806D01*
X1877234Y1659013D02*
Y1664806D01*
X1877236Y1659013D02*
Y1664806D01*
X1877238Y1659013D02*
Y1664806D01*
X1877240Y1659013D02*
Y1664806D01*
X1877242Y1659013D02*
Y1664806D01*
X1877244Y1659013D02*
Y1664806D01*
X1877246Y1659013D02*
Y1664806D01*
X1877248Y1659013D02*
Y1664806D01*
X1877250Y1659013D02*
Y1664806D01*
X1877252Y1659013D02*
Y1664806D01*
X1877254Y1659013D02*
Y1664806D01*
X1877256Y1659013D02*
Y1664806D01*
X1877258Y1659013D02*
Y1664806D01*
X1877260Y1659013D02*
Y1664806D01*
X1877262Y1659013D02*
Y1664806D01*
X1877264Y1659013D02*
Y1664806D01*
X1877266Y1659013D02*
Y1664806D01*
X1877268Y1659013D02*
Y1664806D01*
X1877270Y1659013D02*
Y1664806D01*
X1877272Y1659013D02*
Y1664806D01*
X1877274Y1659013D02*
Y1664806D01*
X1877276Y1659013D02*
Y1664806D01*
X1877278Y1659013D02*
Y1664806D01*
X1877280Y1659013D02*
Y1664806D01*
X1877281Y1659013D02*
Y1664806D01*
X1877283Y1659013D02*
Y1664806D01*
X1877285Y1659013D02*
Y1664806D01*
X1877287Y1659013D02*
Y1664806D01*
X1877289Y1659013D02*
Y1664806D01*
X1877291Y1659013D02*
Y1664806D01*
X1877293Y1659013D02*
Y1664806D01*
X1877295Y1659013D02*
Y1664806D01*
X1877297Y1659013D02*
Y1664806D01*
X1877299Y1659013D02*
Y1664806D01*
X1877301Y1659013D02*
Y1664806D01*
X1877303Y1659013D02*
Y1664806D01*
X1877305Y1659013D02*
Y1664806D01*
X1877307Y1659013D02*
Y1664806D01*
X1877309Y1659013D02*
Y1664806D01*
X1877311Y1659013D02*
Y1664806D01*
X1877313Y1659013D02*
Y1664806D01*
X1877315Y1659013D02*
Y1664806D01*
X1877317Y1659013D02*
Y1664806D01*
X1877319Y1659013D02*
Y1664806D01*
X1877321Y1659013D02*
Y1664806D01*
X1877323Y1659013D02*
Y1664806D01*
X1877325Y1659013D02*
Y1664806D01*
X1877327Y1659013D02*
Y1664806D01*
X1877329Y1659013D02*
Y1664806D01*
X1877331Y1659013D02*
Y1664806D01*
X1877333Y1659013D02*
Y1664806D01*
X1877335Y1659013D02*
Y1664806D01*
X1877337Y1659013D02*
Y1664806D01*
X1877339Y1659013D02*
Y1664806D01*
X1877341Y1659013D02*
Y1664806D01*
X1877343Y1659013D02*
Y1664806D01*
X1877344Y1659013D02*
Y1664806D01*
X1877346Y1659013D02*
Y1664806D01*
X1877348Y1659013D02*
Y1664806D01*
X1877350Y1659013D02*
Y1664806D01*
X1877352Y1659013D02*
Y1664806D01*
X1877354Y1659013D02*
Y1664806D01*
X1877356Y1659013D02*
Y1664806D01*
X1877358Y1659013D02*
Y1664806D01*
X1877360Y1659013D02*
Y1664806D01*
X1877362Y1659013D02*
Y1664806D01*
X1877364Y1659013D02*
Y1664806D01*
X1877366Y1659013D02*
Y1664806D01*
X1877368Y1659013D02*
Y1664806D01*
X1877370Y1659013D02*
Y1664806D01*
X1877372Y1659013D02*
Y1664806D01*
X1877374Y1659013D02*
Y1664806D01*
X1877376Y1659013D02*
Y1664806D01*
X1877378Y1659013D02*
Y1664806D01*
X1877380Y1659013D02*
Y1664806D01*
X1877382Y1659013D02*
Y1664806D01*
X1877384Y1659013D02*
Y1664806D01*
X1877386Y1659013D02*
Y1664806D01*
X1877388Y1659013D02*
Y1664806D01*
X1877390Y1659013D02*
Y1664806D01*
X1877392Y1659013D02*
Y1664806D01*
X1877394Y1659013D02*
Y1664806D01*
X1877396Y1659013D02*
Y1664806D01*
X1877398Y1659013D02*
Y1664806D01*
X1877400Y1659013D02*
Y1664806D01*
X1877402Y1659013D02*
Y1664806D01*
X1877404Y1659013D02*
Y1664806D01*
X1877406Y1659013D02*
Y1664806D01*
X1877407Y1659013D02*
Y1664806D01*
X1877409Y1659013D02*
Y1664806D01*
X1877411Y1659013D02*
Y1664806D01*
X1877413Y1659013D02*
Y1664806D01*
X1877415Y1659013D02*
Y1664806D01*
X1877417Y1659013D02*
Y1664806D01*
X1877419Y1659013D02*
Y1664806D01*
X1877421Y1659013D02*
Y1664806D01*
X1877423Y1659013D02*
Y1664806D01*
X1877425Y1659013D02*
Y1664806D01*
X1877427Y1659013D02*
Y1664806D01*
X1877429Y1659013D02*
Y1664806D01*
X1877431Y1659013D02*
Y1664806D01*
X1877433Y1659013D02*
Y1664806D01*
X1877435Y1659013D02*
Y1664806D01*
X1877437Y1659013D02*
Y1664806D01*
X1877439Y1659013D02*
Y1664806D01*
X1877441Y1659013D02*
Y1664806D01*
X1877443Y1659013D02*
Y1664806D01*
X1877445Y1659013D02*
Y1664806D01*
X1877447Y1659013D02*
Y1664806D01*
X1877449Y1659013D02*
Y1664806D01*
X1877451Y1659013D02*
Y1664806D01*
X1877453Y1659013D02*
Y1664806D01*
X1877455Y1659013D02*
Y1664806D01*
X1877457Y1659013D02*
Y1664806D01*
X1877459Y1659013D02*
Y1664806D01*
X1877461Y1659013D02*
Y1664806D01*
X1877463Y1659013D02*
Y1664806D01*
X1877465Y1659013D02*
Y1664806D01*
X1877467Y1659013D02*
Y1664806D01*
X1877469Y1659013D02*
Y1664806D01*
X1877470Y1659013D02*
Y1664806D01*
X1877472Y1659013D02*
Y1664806D01*
X1877474Y1659013D02*
Y1664806D01*
X1877476Y1659013D02*
Y1664806D01*
X1877478Y1659013D02*
Y1664806D01*
X1877480Y1659013D02*
Y1664806D01*
X1877482Y1659013D02*
Y1664806D01*
X1877484Y1659013D02*
Y1664806D01*
X1877486Y1659013D02*
Y1664806D01*
X1877488Y1659013D02*
Y1664806D01*
X1877490Y1659013D02*
Y1664806D01*
X1877492Y1659013D02*
Y1664806D01*
X1877494Y1659013D02*
Y1664806D01*
X1877496Y1659013D02*
Y1664806D01*
X1877498Y1659013D02*
Y1664806D01*
X1877500Y1659013D02*
Y1664806D01*
X1877502Y1659013D02*
Y1664806D01*
X1877504Y1659013D02*
Y1664806D01*
X1877506Y1659013D02*
Y1664806D01*
X1877508Y1659013D02*
Y1664806D01*
X1877510Y1659013D02*
Y1664806D01*
X1877512Y1659013D02*
Y1664806D01*
X1877514Y1659013D02*
Y1664806D01*
X1877516Y1659013D02*
Y1664806D01*
X1877518Y1659013D02*
Y1664806D01*
X1877520Y1659013D02*
Y1664806D01*
X1877522Y1659013D02*
Y1664806D01*
X1877524Y1659013D02*
Y1664806D01*
X1877526Y1659013D02*
Y1664806D01*
X1877528Y1659013D02*
Y1664806D01*
X1877530Y1659013D02*
Y1664806D01*
X1877531Y1659013D02*
Y1664806D01*
X1877533Y1659013D02*
Y1664806D01*
X1877535Y1659013D02*
Y1664806D01*
X1877537Y1659013D02*
Y1664806D01*
X1877539Y1659013D02*
Y1664806D01*
X1877541Y1659013D02*
Y1664806D01*
X1877543Y1659013D02*
Y1664806D01*
X1877545Y1659013D02*
Y1664806D01*
X1877547Y1659013D02*
Y1664806D01*
X1877549Y1659013D02*
Y1664806D01*
X1877551Y1659013D02*
Y1664806D01*
X1877553Y1659013D02*
Y1664806D01*
X1877555Y1659013D02*
Y1664806D01*
X1877557Y1659013D02*
Y1664806D01*
X1877559Y1659013D02*
Y1664806D01*
X1877561Y1659013D02*
Y1664806D01*
X1877563Y1659013D02*
Y1664806D01*
X1877565Y1659013D02*
Y1664806D01*
X1877567Y1659013D02*
Y1664806D01*
X1877569Y1659013D02*
Y1664806D01*
X1877571Y1659013D02*
Y1664806D01*
X1877573Y1659013D02*
Y1664806D01*
X1877575Y1659013D02*
Y1664806D01*
X1877577Y1659013D02*
Y1664806D01*
X1877579Y1659013D02*
Y1664806D01*
X1877581Y1659013D02*
Y1664806D01*
X1877583Y1659013D02*
Y1664806D01*
X1877585Y1659013D02*
Y1664806D01*
X1877587Y1659013D02*
Y1664806D01*
X1877589Y1659013D02*
Y1664806D01*
X1877591Y1659013D02*
Y1664806D01*
X1877593Y1659013D02*
Y1664806D01*
X1877594Y1659013D02*
Y1664806D01*
X1877596Y1659013D02*
Y1664806D01*
X1877598Y1659013D02*
Y1664806D01*
X1877600Y1659013D02*
Y1664806D01*
X1877602Y1659013D02*
Y1664806D01*
X1877604Y1659013D02*
Y1664806D01*
X1877606Y1659013D02*
Y1664806D01*
X1877608Y1659013D02*
Y1664806D01*
X1877610Y1659013D02*
Y1664806D01*
X1877612Y1659013D02*
Y1664806D01*
X1877614Y1659013D02*
Y1664806D01*
X1877616Y1659013D02*
Y1664806D01*
X1877618Y1659013D02*
Y1664806D01*
X1877620Y1659013D02*
Y1664806D01*
X1877622Y1659013D02*
Y1664806D01*
X1877624Y1659013D02*
Y1664806D01*
X1877626Y1659013D02*
Y1664806D01*
X1877628Y1659013D02*
Y1664806D01*
X1877630Y1659013D02*
Y1664806D01*
X1877632Y1659013D02*
Y1664806D01*
X1877634Y1659013D02*
Y1664806D01*
X1877636Y1659013D02*
Y1664806D01*
X1877638Y1659013D02*
Y1664806D01*
X1877640Y1659013D02*
Y1664806D01*
X1877642Y1659013D02*
Y1664806D01*
X1877644Y1659013D02*
Y1664806D01*
X1877646Y1659013D02*
Y1664806D01*
X1877648Y1659013D02*
Y1664806D01*
X1877650Y1659013D02*
Y1664806D01*
X1877652Y1659013D02*
Y1664806D01*
X1877654Y1659013D02*
Y1664806D01*
X1877656Y1659013D02*
Y1664806D01*
X1877657Y1659013D02*
Y1664806D01*
X1877659Y1659013D02*
Y1664806D01*
X1877661Y1659013D02*
Y1664806D01*
X1877663Y1659013D02*
Y1664806D01*
X1877665Y1659013D02*
Y1664806D01*
X1877667Y1659013D02*
Y1664806D01*
X1877669Y1659013D02*
Y1664806D01*
X1877671Y1659013D02*
Y1664806D01*
X1877673Y1659013D02*
Y1664806D01*
X1877675Y1659013D02*
Y1664806D01*
X1877677Y1659013D02*
Y1664806D01*
X1877679Y1659013D02*
Y1664806D01*
X1877681Y1659013D02*
Y1664806D01*
X1877683Y1659013D02*
Y1664806D01*
X1877685Y1659013D02*
Y1664806D01*
X1877687Y1659013D02*
Y1664806D01*
X1877689Y1659013D02*
Y1664806D01*
X1877691Y1659013D02*
Y1664806D01*
X1877693Y1659013D02*
Y1664806D01*
X1877695Y1659013D02*
Y1664806D01*
X1877697Y1659013D02*
Y1664806D01*
X1877699Y1659013D02*
Y1664806D01*
X1877701Y1659013D02*
Y1664806D01*
X1877703Y1659013D02*
Y1664806D01*
X1877705Y1659013D02*
Y1664806D01*
X1877707Y1659013D02*
Y1664806D01*
X1877709Y1659013D02*
Y1664806D01*
X1877711Y1659013D02*
Y1664806D01*
X1877713Y1659013D02*
Y1664806D01*
X1877715Y1659013D02*
Y1664806D01*
X1877717Y1659013D02*
Y1664806D01*
X1877719Y1659013D02*
Y1664806D01*
X1877720Y1659013D02*
Y1664806D01*
X1877722Y1659013D02*
Y1664806D01*
X1877724Y1659013D02*
Y1664806D01*
X1877726Y1659013D02*
Y1664806D01*
X1877728Y1659013D02*
Y1664806D01*
X1877730Y1659013D02*
Y1664806D01*
X1877732Y1659013D02*
Y1664806D01*
X1877734Y1659013D02*
Y1664806D01*
X1877736Y1659013D02*
Y1664806D01*
X1877738Y1659013D02*
Y1664806D01*
X1877740Y1659013D02*
Y1664806D01*
X1877742Y1659013D02*
Y1664806D01*
X1877744Y1659013D02*
Y1664806D01*
X1877746Y1659013D02*
Y1664806D01*
X1877748Y1659013D02*
Y1664806D01*
X1877750Y1659013D02*
Y1664806D01*
X1877752Y1659013D02*
Y1664806D01*
X1877754Y1659013D02*
Y1664806D01*
X1877756Y1659013D02*
Y1664806D01*
X1877758Y1659013D02*
Y1664806D01*
X1877760Y1659013D02*
Y1664806D01*
X1877762Y1659013D02*
Y1664806D01*
X1877764Y1659013D02*
Y1664806D01*
X1877766Y1659013D02*
Y1664806D01*
X1877768Y1659013D02*
Y1664806D01*
X1877770Y1659013D02*
Y1664806D01*
X1877772Y1659013D02*
Y1664806D01*
X1877774Y1659013D02*
Y1664806D01*
X1877776Y1659013D02*
Y1664806D01*
X1877778Y1659013D02*
Y1664806D01*
X1877780Y1659013D02*
Y1664806D01*
X1877781Y1659013D02*
Y1664806D01*
X1877783Y1659013D02*
Y1664806D01*
X1877785Y1659013D02*
Y1664806D01*
X1877787Y1659013D02*
Y1664806D01*
X1877789Y1659013D02*
Y1664806D01*
X1877791Y1659013D02*
Y1664806D01*
X1877793Y1659013D02*
Y1664806D01*
X1877795Y1659013D02*
Y1664806D01*
X1877797Y1659013D02*
Y1664806D01*
X1877799Y1659013D02*
Y1664806D01*
X1877801Y1659013D02*
Y1664806D01*
X1877803Y1659013D02*
Y1664806D01*
X1877805Y1659013D02*
Y1664806D01*
X1877807Y1659013D02*
Y1664806D01*
X1877809Y1659013D02*
Y1664806D01*
X1877811Y1659013D02*
Y1664806D01*
X1877813Y1659013D02*
Y1664806D01*
X1877815Y1659013D02*
Y1664806D01*
X1877817Y1659013D02*
Y1664806D01*
X1877819Y1659013D02*
Y1664806D01*
X1877821Y1659013D02*
Y1664806D01*
X1877823Y1659013D02*
Y1664806D01*
X1877825Y1659013D02*
Y1664806D01*
X1877827Y1659013D02*
Y1664806D01*
X1877829Y1659013D02*
Y1664806D01*
X1877831Y1659013D02*
Y1664806D01*
X1877833Y1659013D02*
Y1664806D01*
X1877835Y1659013D02*
Y1664806D01*
X1877837Y1659013D02*
Y1664806D01*
X1877839Y1659013D02*
Y1664806D01*
X1877841Y1659013D02*
Y1664806D01*
X1877843Y1659013D02*
Y1664806D01*
X1877844Y1659013D02*
Y1664806D01*
X1877846Y1659013D02*
Y1664806D01*
X1877848Y1659013D02*
Y1664806D01*
X1877850Y1659013D02*
Y1664806D01*
X1877852Y1659013D02*
Y1664806D01*
X1877854Y1659013D02*
Y1664806D01*
X1877856Y1659013D02*
Y1664806D01*
X1877858Y1659013D02*
Y1664806D01*
X1877860Y1659013D02*
Y1664806D01*
X1877862Y1659013D02*
Y1664806D01*
X1877864Y1659013D02*
Y1664806D01*
X1877866Y1659013D02*
Y1664806D01*
X1877868Y1659013D02*
Y1664806D01*
X1877870Y1659013D02*
Y1664806D01*
X1877872Y1659013D02*
Y1664806D01*
X1877874Y1659013D02*
Y1664806D01*
X1877876Y1659013D02*
Y1664806D01*
X1877878Y1659013D02*
Y1664806D01*
X1877880Y1659013D02*
Y1664806D01*
X1877882Y1659013D02*
Y1664806D01*
X1877884Y1659013D02*
Y1664806D01*
X1877886Y1659013D02*
Y1664806D01*
X1877888Y1659013D02*
Y1664806D01*
X1877890Y1659013D02*
Y1664806D01*
X1877892Y1659013D02*
Y1664806D01*
X1877894Y1659013D02*
Y1664806D01*
X1877896Y1659013D02*
Y1664806D01*
X1877898Y1659013D02*
Y1664806D01*
X1877900Y1659013D02*
Y1664806D01*
X1877902Y1659013D02*
Y1664806D01*
X1877904Y1659013D02*
Y1664806D01*
X1877906Y1659013D02*
Y1664806D01*
X1877907Y1659013D02*
Y1664806D01*
X1877909Y1659013D02*
Y1664806D01*
X1877911Y1659013D02*
Y1664806D01*
X1877913Y1659013D02*
Y1664806D01*
X1877915Y1659013D02*
Y1664806D01*
X1877917Y1659013D02*
Y1664806D01*
X1877919Y1659013D02*
Y1664806D01*
X1877921Y1659013D02*
Y1664806D01*
X1877923Y1659013D02*
Y1664806D01*
X1877925Y1659013D02*
Y1664806D01*
X1877927Y1659013D02*
Y1664806D01*
X1877929Y1659013D02*
Y1664806D01*
X1877931Y1659013D02*
Y1664806D01*
X1877933Y1659013D02*
Y1664806D01*
X1877935Y1659013D02*
Y1664806D01*
X1877937Y1659013D02*
Y1664806D01*
X1877939Y1659013D02*
Y1664806D01*
X1877941Y1659013D02*
Y1664806D01*
X1877943Y1659013D02*
Y1664806D01*
X1877945Y1659013D02*
Y1664806D01*
X1877947Y1659013D02*
Y1664806D01*
X1877949Y1659013D02*
Y1664806D01*
X1877951Y1659013D02*
Y1664806D01*
X1877953Y1659013D02*
Y1664806D01*
X1877955Y1659013D02*
Y1664806D01*
X1877957Y1659013D02*
Y1664806D01*
X1877959Y1659013D02*
Y1664806D01*
X1877961Y1659013D02*
Y1664806D01*
X1877963Y1659013D02*
Y1664806D01*
X1877965Y1659013D02*
Y1664806D01*
X1877967Y1659013D02*
Y1664806D01*
X1877969Y1659013D02*
Y1664806D01*
X1877970Y1659013D02*
Y1664806D01*
X1877972Y1659013D02*
Y1664806D01*
X1877974Y1659013D02*
Y1664806D01*
X1877976Y1659013D02*
Y1664806D01*
X1877978Y1659013D02*
Y1664806D01*
X1877980Y1659013D02*
Y1664806D01*
X1877982Y1659013D02*
Y1664806D01*
X1877984Y1659013D02*
Y1664806D01*
X1877986Y1659013D02*
Y1664806D01*
X1877988Y1659013D02*
Y1664806D01*
X1877990Y1659013D02*
Y1664806D01*
X1877992Y1659013D02*
Y1664806D01*
X1877994Y1659013D02*
Y1664806D01*
X1877996Y1659013D02*
Y1664806D01*
X1877998Y1659013D02*
Y1664806D01*
X1878000Y1659013D02*
Y1664806D01*
X1878002Y1659013D02*
Y1664806D01*
X1878004Y1659013D02*
Y1664806D01*
X1878006Y1659013D02*
Y1664806D01*
X1878008Y1659013D02*
Y1664806D01*
X1878010Y1659013D02*
Y1664806D01*
X1878012Y1659013D02*
Y1664806D01*
X1878014Y1659013D02*
Y1664806D01*
X1878016Y1659013D02*
Y1664806D01*
X1878018Y1659013D02*
Y1664806D01*
X1878020Y1659013D02*
Y1664806D01*
X1878022Y1659013D02*
Y1664806D01*
X1878024Y1659013D02*
Y1664806D01*
X1878026Y1659013D02*
Y1664806D01*
X1878028Y1659013D02*
Y1664806D01*
X1878030Y1659013D02*
Y1664806D01*
X1878031Y1659013D02*
Y1664806D01*
X1878033Y1659013D02*
Y1664806D01*
X1878035Y1659013D02*
Y1664806D01*
X1878037Y1659013D02*
Y1664806D01*
X1878039Y1659013D02*
Y1664806D01*
X1878041Y1659013D02*
Y1664806D01*
X1878043Y1659013D02*
Y1664806D01*
X1878045Y1659013D02*
Y1664806D01*
X1878047Y1659013D02*
Y1664806D01*
X1878049Y1659013D02*
Y1664806D01*
X1878051Y1659013D02*
Y1664806D01*
X1878053Y1659013D02*
Y1664806D01*
X1878055Y1659013D02*
Y1664806D01*
X1878057Y1659013D02*
Y1664806D01*
X1878059Y1659013D02*
Y1664806D01*
X1878061Y1659013D02*
Y1664806D01*
X1878063Y1659013D02*
Y1664806D01*
X1878065Y1659013D02*
Y1664806D01*
X1878067Y1659013D02*
Y1664806D01*
X1878069Y1659013D02*
Y1664806D01*
X1878071Y1659013D02*
Y1664806D01*
X1878073Y1659013D02*
Y1664806D01*
X1878075Y1659013D02*
Y1664806D01*
X1878077Y1659013D02*
Y1664806D01*
X1878079Y1659013D02*
Y1664806D01*
X1878081Y1659013D02*
Y1664806D01*
X1878083Y1659013D02*
Y1664806D01*
X1878085Y1659013D02*
Y1664806D01*
X1878087Y1659013D02*
Y1664806D01*
X1878089Y1659013D02*
Y1664806D01*
X1878091Y1659013D02*
Y1664806D01*
X1878093Y1659013D02*
Y1664806D01*
X1878094Y1659013D02*
Y1664806D01*
X1878096Y1659013D02*
Y1664806D01*
X1878098Y1659013D02*
Y1664806D01*
X1878100Y1659013D02*
Y1664806D01*
X1878102Y1659013D02*
Y1664806D01*
X1878104Y1659013D02*
Y1664806D01*
X1878106Y1659013D02*
Y1664806D01*
X1878108Y1659013D02*
Y1664806D01*
X1878110Y1659013D02*
Y1664806D01*
X1878112Y1659013D02*
Y1664806D01*
X1878114Y1659013D02*
Y1664806D01*
X1878116Y1659013D02*
Y1664806D01*
X1878118Y1659013D02*
Y1664806D01*
X1878120Y1659013D02*
Y1664806D01*
X1878122Y1659013D02*
Y1664806D01*
X1878124Y1659013D02*
Y1664806D01*
X1878126Y1659013D02*
Y1664806D01*
X1878128Y1659013D02*
Y1664806D01*
X1878130Y1659013D02*
Y1664806D01*
X1878132Y1659013D02*
Y1664806D01*
X1878134Y1659013D02*
Y1664806D01*
X1878136Y1659013D02*
Y1664806D01*
X1878138Y1659013D02*
Y1664806D01*
X1878140Y1659013D02*
Y1664806D01*
X1878142Y1659013D02*
Y1664806D01*
X1878144Y1659013D02*
Y1664806D01*
X1878146Y1659013D02*
Y1664806D01*
X1878148Y1659013D02*
Y1664806D01*
X1878150Y1659013D02*
Y1664806D01*
X1878152Y1659013D02*
Y1664806D01*
X1878154Y1659013D02*
Y1664806D01*
X1878156Y1659013D02*
Y1664806D01*
X1878157Y1659013D02*
Y1664806D01*
X1878159Y1659013D02*
Y1664806D01*
X1878161Y1659013D02*
Y1664806D01*
X1878163Y1659013D02*
Y1664806D01*
X1878165Y1659013D02*
Y1664806D01*
X1878167Y1659013D02*
Y1664806D01*
X1878169Y1659013D02*
Y1664806D01*
X1878171Y1659013D02*
Y1664806D01*
X1878173Y1659013D02*
Y1664806D01*
X1878175Y1659013D02*
Y1664806D01*
X1878177Y1659013D02*
Y1664806D01*
X1878179Y1659013D02*
Y1664806D01*
X1878181Y1659013D02*
Y1664806D01*
X1878183Y1659013D02*
Y1664806D01*
X1878185Y1659013D02*
Y1664806D01*
X1878187Y1659013D02*
Y1664806D01*
X1878189Y1659013D02*
Y1664806D01*
X1878191Y1659013D02*
Y1664806D01*
X1878193Y1659013D02*
Y1664806D01*
X1878195Y1659013D02*
Y1664806D01*
X1878197Y1659013D02*
Y1664806D01*
X1878199Y1659013D02*
Y1664806D01*
X1878201Y1659013D02*
Y1664806D01*
X1878203Y1659013D02*
Y1664806D01*
X1878205Y1659013D02*
Y1664806D01*
X1878207Y1659013D02*
Y1664806D01*
X1878209Y1659013D02*
Y1664806D01*
X1878211Y1659013D02*
Y1664806D01*
X1878213Y1659013D02*
Y1664806D01*
X1878215Y1659013D02*
Y1664806D01*
X1878217Y1659013D02*
Y1664806D01*
X1878219Y1659013D02*
Y1664806D01*
X1878220Y1659013D02*
Y1664806D01*
X1878222Y1659013D02*
Y1664806D01*
X1878224Y1659013D02*
Y1664806D01*
X1878226Y1659013D02*
Y1664806D01*
X1878228Y1659013D02*
Y1664806D01*
X1878230Y1659013D02*
Y1664806D01*
X1878232Y1659013D02*
Y1664806D01*
X1878234Y1659013D02*
Y1664806D01*
X1878236Y1659013D02*
Y1664806D01*
X1878238Y1659013D02*
Y1664806D01*
X1878240Y1659013D02*
Y1664806D01*
X1878242Y1659013D02*
Y1664806D01*
X1878244Y1659013D02*
Y1664806D01*
X1878246Y1659013D02*
Y1664806D01*
X1878248Y1659013D02*
Y1664806D01*
X1878250Y1659013D02*
Y1664806D01*
X1878252Y1659013D02*
Y1664806D01*
X1878254Y1659013D02*
Y1664806D01*
X1878256Y1659013D02*
Y1664806D01*
X1878258Y1659013D02*
Y1664806D01*
X1878260Y1659013D02*
Y1664806D01*
X1878262Y1659013D02*
Y1664806D01*
X1878264Y1659013D02*
Y1664806D01*
X1878266Y1659013D02*
Y1664806D01*
X1878268Y1659013D02*
Y1664806D01*
X1878270Y1659013D02*
Y1664806D01*
X1878272Y1659013D02*
Y1664806D01*
X1878274Y1659013D02*
Y1664806D01*
X1878276Y1659013D02*
Y1664806D01*
X1878278Y1659013D02*
Y1664806D01*
X1878280Y1659013D02*
Y1664806D01*
X1878281Y1659013D02*
Y1664806D01*
X1878283Y1659013D02*
Y1664806D01*
X1878285Y1659013D02*
Y1664806D01*
X1878287Y1659013D02*
Y1664806D01*
X1878289Y1659013D02*
Y1664806D01*
X1878291Y1659013D02*
Y1664806D01*
X1878293Y1659013D02*
Y1664806D01*
X1878295Y1659013D02*
Y1664806D01*
X1878297Y1659013D02*
Y1664806D01*
X1878299Y1659013D02*
Y1664806D01*
X1878301Y1659013D02*
Y1664806D01*
X1878303Y1659013D02*
Y1664806D01*
X1878305Y1659013D02*
Y1664806D01*
X1878307Y1659013D02*
Y1664806D01*
X1878309Y1659013D02*
Y1664806D01*
X1878311Y1659013D02*
Y1664806D01*
X1878313Y1659013D02*
Y1664806D01*
X1878315Y1659013D02*
Y1664806D01*
X1878317Y1659013D02*
Y1664806D01*
X1878319Y1659013D02*
Y1664806D01*
X1878321Y1659013D02*
Y1664806D01*
X1878323Y1659013D02*
Y1664806D01*
X1878325Y1659013D02*
Y1664806D01*
X1878327Y1659013D02*
Y1664806D01*
X1878329Y1659013D02*
Y1664806D01*
X1878331Y1659013D02*
Y1664806D01*
X1878333Y1659013D02*
Y1664806D01*
X1878335Y1659013D02*
Y1664806D01*
X1878337Y1659013D02*
Y1664806D01*
X1878339Y1659013D02*
Y1664806D01*
X1878341Y1659013D02*
Y1664806D01*
X1878343Y1659013D02*
Y1664806D01*
X1878344Y1659013D02*
Y1664806D01*
X1878346Y1659013D02*
Y1664806D01*
X1878348Y1659013D02*
Y1664806D01*
X1878350Y1659013D02*
Y1664806D01*
X1878352Y1659013D02*
Y1664806D01*
X1878354Y1659013D02*
Y1664806D01*
X1878356Y1659013D02*
Y1664806D01*
X1878358Y1659013D02*
Y1664806D01*
X1878360Y1659013D02*
Y1664806D01*
X1878362Y1659013D02*
Y1664806D01*
X1878364Y1659013D02*
Y1664806D01*
X1878366Y1659013D02*
Y1664806D01*
X1878368Y1659013D02*
Y1664806D01*
X1878370Y1659013D02*
Y1664806D01*
X1878372Y1659013D02*
Y1664806D01*
X1878374Y1659013D02*
Y1664806D01*
X1878376Y1659013D02*
Y1664806D01*
X1878378Y1659013D02*
Y1664806D01*
X1878380Y1659013D02*
Y1664806D01*
X1878382Y1659013D02*
Y1664806D01*
X1878384Y1659013D02*
Y1664806D01*
X1878386Y1659013D02*
Y1664806D01*
X1878388Y1659013D02*
Y1664806D01*
X1878390Y1659013D02*
Y1664806D01*
X1878392Y1659013D02*
Y1664806D01*
X1878394Y1659013D02*
Y1664806D01*
X1878396Y1659013D02*
Y1664806D01*
X1878398Y1659013D02*
Y1664806D01*
X1878400Y1659013D02*
Y1664806D01*
X1878402Y1659013D02*
Y1664806D01*
X1878404Y1659013D02*
Y1664806D01*
X1878406Y1659013D02*
Y1664806D01*
X1878407Y1659013D02*
Y1664806D01*
X1878409Y1659013D02*
Y1664806D01*
X1878411Y1659013D02*
Y1664806D01*
X1878413Y1659013D02*
Y1664806D01*
X1878415Y1659013D02*
Y1664806D01*
X1878417Y1659013D02*
Y1664806D01*
X1878419Y1659013D02*
Y1664806D01*
X1878421Y1659013D02*
Y1664806D01*
X1878423Y1659013D02*
Y1664806D01*
X1878425Y1659013D02*
Y1664806D01*
X1878427Y1659013D02*
Y1664806D01*
X1878429Y1659013D02*
Y1664806D01*
X1878431Y1659013D02*
Y1664806D01*
X1878433Y1659013D02*
Y1664806D01*
X1878435Y1659013D02*
Y1664806D01*
X1878437Y1659013D02*
Y1664806D01*
X1878439Y1659013D02*
Y1664806D01*
X1878441Y1659013D02*
Y1664806D01*
X1878443Y1659013D02*
Y1664806D01*
X1878445Y1659013D02*
Y1664806D01*
X1878447Y1659013D02*
Y1664806D01*
X1878449Y1659013D02*
Y1664806D01*
X1878451Y1659013D02*
Y1664806D01*
X1878453Y1659013D02*
Y1664806D01*
X1878455Y1659013D02*
Y1664806D01*
X1878457Y1659013D02*
Y1664806D01*
X1878459Y1659013D02*
Y1664806D01*
X1878461Y1659013D02*
Y1664806D01*
X1878463Y1659013D02*
Y1664806D01*
X1878465Y1659013D02*
Y1664806D01*
X1878467Y1659013D02*
Y1664806D01*
X1878469Y1659013D02*
Y1664806D01*
X1878470Y1659013D02*
Y1664806D01*
X1878472Y1659013D02*
Y1664806D01*
X1878474Y1659013D02*
Y1664806D01*
X1878476Y1659013D02*
Y1664806D01*
X1878478Y1659013D02*
Y1664806D01*
X1878480Y1659013D02*
Y1664806D01*
X1878482Y1659013D02*
Y1664806D01*
X1878484Y1659013D02*
Y1664806D01*
X1878486Y1659013D02*
Y1664806D01*
X1878488Y1659013D02*
Y1664806D01*
X1878490Y1659013D02*
Y1664806D01*
X1878492Y1659013D02*
Y1664806D01*
X1878494Y1659013D02*
Y1664806D01*
X1878496Y1659013D02*
Y1664806D01*
X1878498Y1659013D02*
Y1664806D01*
X1878500Y1659013D02*
Y1664806D01*
X1878502Y1659013D02*
Y1664806D01*
X1878504Y1659013D02*
Y1664806D01*
X1878506Y1659013D02*
Y1664806D01*
X1878508Y1659013D02*
Y1664806D01*
X1878510Y1659013D02*
Y1664806D01*
X1878512Y1659013D02*
Y1664806D01*
X1878514Y1659013D02*
Y1664806D01*
X1878516Y1659013D02*
Y1664806D01*
X1878518Y1659013D02*
Y1664806D01*
X1878520Y1659013D02*
Y1664806D01*
X1878522Y1659013D02*
Y1664806D01*
X1878524Y1659013D02*
Y1664806D01*
X1878526Y1659013D02*
Y1664806D01*
X1878528Y1659013D02*
Y1664806D01*
X1878530Y1659013D02*
Y1664806D01*
X1878531Y1659013D02*
Y1664806D01*
X1878533Y1659013D02*
Y1664806D01*
X1878535Y1659013D02*
Y1664806D01*
X1878537Y1659013D02*
Y1664806D01*
X1878539Y1659013D02*
Y1664806D01*
X1878541Y1659013D02*
Y1664806D01*
X1878543Y1659013D02*
Y1664806D01*
X1878545Y1659013D02*
Y1664806D01*
X1878547Y1659013D02*
Y1664806D01*
X1878549Y1659013D02*
Y1664806D01*
X1878551Y1659013D02*
Y1664806D01*
X1878553Y1659013D02*
Y1664806D01*
X1878555Y1659013D02*
Y1664806D01*
X1878557Y1659013D02*
Y1664806D01*
X1878559Y1659013D02*
Y1664806D01*
X1878561Y1659013D02*
Y1664806D01*
X1878563Y1659013D02*
Y1664806D01*
X1878565Y1659013D02*
Y1664806D01*
X1878567Y1659013D02*
Y1664806D01*
X1878569Y1659013D02*
Y1664806D01*
X1878571Y1659013D02*
Y1664806D01*
X1878573Y1659013D02*
Y1664806D01*
X1878575Y1659013D02*
Y1664806D01*
X1878577Y1659013D02*
Y1664806D01*
X1878579Y1659013D02*
Y1664806D01*
X1878581Y1659013D02*
Y1664806D01*
X1878583Y1659013D02*
Y1664806D01*
X1878585Y1659013D02*
Y1664806D01*
X1878587Y1659013D02*
Y1664806D01*
X1878589Y1659013D02*
Y1664806D01*
X1878591Y1659013D02*
Y1664806D01*
X1878593Y1659013D02*
Y1664806D01*
X1878594Y1659013D02*
Y1664806D01*
X1878596Y1659013D02*
Y1664806D01*
X1878598Y1659013D02*
Y1664806D01*
X1878600Y1659013D02*
Y1664806D01*
X1878602Y1659013D02*
Y1664806D01*
X1878604Y1659013D02*
Y1664806D01*
X1878606Y1659013D02*
Y1664806D01*
X1878608Y1659013D02*
Y1664806D01*
X1878610Y1659013D02*
Y1664806D01*
X1878612Y1659013D02*
Y1664806D01*
X1878614Y1659013D02*
Y1664806D01*
X1878616Y1659013D02*
Y1664806D01*
X1878618Y1659013D02*
Y1664806D01*
X1878620Y1659013D02*
Y1664806D01*
X1878622Y1659013D02*
Y1664806D01*
X1878624Y1659013D02*
Y1664806D01*
X1878626Y1659013D02*
Y1664806D01*
X1878628Y1659013D02*
Y1664806D01*
X1878630Y1659013D02*
Y1664806D01*
X1878632Y1659013D02*
Y1664806D01*
X1878634Y1659013D02*
Y1664806D01*
X1878636Y1659013D02*
Y1664806D01*
X1878638Y1659013D02*
Y1664806D01*
X1878640Y1659013D02*
Y1664806D01*
X1878642Y1659013D02*
Y1664806D01*
X1878644Y1659013D02*
Y1664806D01*
X1878646Y1659013D02*
Y1664806D01*
X1878648Y1659013D02*
Y1664806D01*
X1878650Y1659013D02*
Y1664806D01*
X1878652Y1659013D02*
Y1664806D01*
X1878654Y1659013D02*
Y1664806D01*
X1878656Y1659013D02*
Y1664806D01*
X1878657Y1659013D02*
Y1664806D01*
X1878659Y1659013D02*
Y1664806D01*
X1878661Y1659013D02*
Y1664806D01*
X1878663Y1659013D02*
Y1664806D01*
X1878665Y1659013D02*
Y1664806D01*
X1878667Y1659013D02*
Y1664806D01*
X1878669Y1659013D02*
Y1664806D01*
X1878671Y1659013D02*
Y1664806D01*
X1878673Y1659013D02*
Y1664806D01*
X1878675Y1659013D02*
Y1664806D01*
X1878677Y1659013D02*
Y1664806D01*
X1878679Y1659013D02*
Y1664806D01*
X1878681Y1659013D02*
Y1664806D01*
X1878683Y1659013D02*
Y1664806D01*
X1878685Y1659013D02*
Y1664806D01*
X1878687Y1659013D02*
Y1664806D01*
X1878689Y1659013D02*
Y1664806D01*
X1878691Y1659013D02*
Y1664806D01*
X1878693Y1659013D02*
Y1664806D01*
X1878695Y1659013D02*
Y1664806D01*
X1878697Y1659013D02*
Y1664806D01*
X1878699Y1659013D02*
Y1664806D01*
X1878701Y1659013D02*
Y1664806D01*
X1878703Y1659013D02*
Y1664806D01*
X1878705Y1659013D02*
Y1664806D01*
X1878707Y1659013D02*
Y1664806D01*
X1878709Y1659013D02*
Y1664806D01*
X1878711Y1659013D02*
Y1664806D01*
X1878713Y1659013D02*
Y1664806D01*
X1878715Y1659013D02*
Y1664806D01*
X1878717Y1659013D02*
Y1664806D01*
X1878719Y1659013D02*
Y1664806D01*
X1878720Y1659013D02*
Y1664806D01*
X1878722Y1659013D02*
Y1664806D01*
X1878724Y1659013D02*
Y1664806D01*
X1878726Y1659013D02*
Y1664806D01*
X1878728Y1659013D02*
Y1664806D01*
X1878730Y1659013D02*
Y1664806D01*
X1878732Y1659013D02*
Y1664806D01*
X1878734Y1659013D02*
Y1664806D01*
X1878736Y1659013D02*
Y1664806D01*
X1878738Y1659013D02*
Y1664806D01*
X1878740Y1659013D02*
Y1664806D01*
X1878742Y1659013D02*
Y1664806D01*
X1878744Y1659013D02*
Y1664806D01*
X1878746Y1659013D02*
Y1664806D01*
X1878748Y1659013D02*
Y1664806D01*
X1878750Y1659013D02*
Y1664806D01*
X1878752Y1659013D02*
Y1664806D01*
X1878754Y1659013D02*
Y1664806D01*
X1878756Y1659013D02*
Y1664806D01*
X1878758Y1659013D02*
Y1664806D01*
X1878760Y1659013D02*
Y1664806D01*
X1878762Y1659013D02*
Y1664806D01*
X1878764Y1659013D02*
Y1664806D01*
X1878766Y1659013D02*
Y1664806D01*
X1878768Y1659013D02*
Y1664806D01*
X1878770Y1659013D02*
Y1664806D01*
X1878772Y1659013D02*
Y1664806D01*
X1878774Y1659013D02*
Y1664806D01*
X1878776Y1659013D02*
Y1664806D01*
X1878778Y1659013D02*
Y1664806D01*
X1878780Y1659013D02*
Y1664806D01*
X1878781Y1659013D02*
Y1664806D01*
X1878783Y1659013D02*
Y1664806D01*
X1878785Y1659013D02*
Y1664806D01*
X1878787Y1659013D02*
Y1664806D01*
X1878789Y1659013D02*
Y1664806D01*
X1878791Y1659013D02*
Y1664806D01*
X1878793Y1659013D02*
Y1664806D01*
X1878795Y1659013D02*
Y1664806D01*
X1878797Y1659013D02*
Y1664806D01*
X1878799Y1659013D02*
Y1664806D01*
X1878801Y1659013D02*
Y1664806D01*
X1878803Y1659013D02*
Y1664806D01*
X1878805Y1659013D02*
Y1664806D01*
X1878807Y1659013D02*
Y1664806D01*
X1878809Y1659013D02*
Y1664806D01*
X1878811Y1659013D02*
Y1664806D01*
X1878813Y1659013D02*
Y1664806D01*
X1878815Y1659013D02*
Y1664806D01*
X1878817Y1659013D02*
Y1664806D01*
X1878819Y1659013D02*
Y1664806D01*
X1878821Y1659013D02*
Y1664806D01*
X1878823Y1659013D02*
Y1664806D01*
X1878825Y1659013D02*
Y1664806D01*
X1878827Y1659013D02*
Y1664806D01*
X1878829Y1659013D02*
Y1664806D01*
X1878831Y1659013D02*
Y1664806D01*
X1878833Y1659013D02*
Y1664806D01*
X1878835Y1659013D02*
Y1664806D01*
X1878837Y1659013D02*
Y1664806D01*
X1878839Y1659013D02*
Y1664806D01*
X1878841Y1659013D02*
Y1664806D01*
X1878843Y1659013D02*
Y1664806D01*
X1878844Y1659013D02*
Y1664806D01*
X1878846Y1659013D02*
Y1664806D01*
X1878848Y1659013D02*
Y1664806D01*
X1878850Y1659013D02*
Y1664806D01*
X1878852Y1659013D02*
Y1664806D01*
X1878854Y1659013D02*
Y1664806D01*
X1878856Y1659013D02*
Y1664806D01*
X1878858Y1659013D02*
Y1664806D01*
X1878860Y1659013D02*
Y1664806D01*
X1878862Y1659013D02*
Y1664806D01*
X1878864Y1659013D02*
Y1664806D01*
X1878866Y1659013D02*
Y1664806D01*
X1878868Y1659013D02*
Y1664806D01*
X1878870Y1659013D02*
Y1664806D01*
X1878872Y1659013D02*
Y1664806D01*
X1878874Y1659013D02*
Y1664806D01*
X1878876Y1659013D02*
Y1664806D01*
X1878878Y1659013D02*
Y1664806D01*
X1878880Y1659013D02*
Y1664806D01*
X1878882Y1659013D02*
Y1664806D01*
X1878884Y1659013D02*
Y1664806D01*
X1878886Y1659013D02*
Y1664806D01*
X1878888Y1659013D02*
Y1664806D01*
X1878890Y1659013D02*
Y1664806D01*
X1878892Y1659013D02*
Y1664806D01*
X1878894Y1659013D02*
Y1664806D01*
X1878896Y1659013D02*
Y1664806D01*
X1878898Y1659013D02*
Y1664806D01*
X1878900Y1659013D02*
Y1664806D01*
X1878902Y1659013D02*
Y1664806D01*
X1878904Y1659013D02*
Y1664806D01*
X1878906Y1659013D02*
Y1664806D01*
X1878907Y1659013D02*
Y1664806D01*
X1878909Y1659013D02*
Y1664806D01*
X1878911Y1659013D02*
Y1664806D01*
X1878913Y1659013D02*
Y1664806D01*
X1878915Y1659013D02*
Y1664806D01*
X1878917Y1659013D02*
Y1664806D01*
X1878919Y1659013D02*
Y1664806D01*
X1878921Y1659013D02*
Y1664806D01*
X1878923Y1659013D02*
Y1664806D01*
X1878925Y1659013D02*
Y1664806D01*
X1878927Y1659013D02*
Y1664806D01*
X1878929Y1659013D02*
Y1664806D01*
X1878931Y1659013D02*
Y1664806D01*
X1878933Y1659013D02*
Y1664806D01*
X1878935Y1659013D02*
Y1664806D01*
X1878937Y1659013D02*
Y1664806D01*
X1878939Y1659013D02*
Y1664806D01*
X1878941Y1659013D02*
Y1664806D01*
X1878943Y1659013D02*
Y1664806D01*
X1878945Y1659013D02*
Y1664806D01*
X1878947Y1659013D02*
Y1664806D01*
X1878949Y1659013D02*
Y1664806D01*
X1878951Y1659013D02*
Y1664806D01*
X1878953Y1659013D02*
Y1664806D01*
X1878955Y1659013D02*
Y1664806D01*
X1878957Y1659013D02*
Y1664806D01*
X1878959Y1659013D02*
Y1664806D01*
X1878961Y1659013D02*
Y1664806D01*
X1878963Y1659013D02*
Y1664806D01*
X1878965Y1659013D02*
Y1664806D01*
X1878967Y1659013D02*
Y1664806D01*
X1878969Y1659013D02*
Y1664806D01*
X1878970Y1659013D02*
Y1664806D01*
X1878972Y1659013D02*
Y1664806D01*
X1878974Y1659013D02*
Y1664806D01*
X1878976Y1659013D02*
Y1664806D01*
X1878978Y1659013D02*
Y1664806D01*
X1878980Y1659013D02*
Y1664806D01*
X1878982Y1659013D02*
Y1664806D01*
X1878984Y1659013D02*
Y1664806D01*
X1878986Y1659013D02*
Y1664806D01*
X1878988Y1659013D02*
Y1664806D01*
X1878990Y1659013D02*
Y1664806D01*
X1878992Y1659013D02*
Y1664806D01*
X1878994Y1659013D02*
Y1664806D01*
X1878996Y1659013D02*
Y1664806D01*
X1878998Y1659013D02*
Y1664806D01*
X1879000Y1659013D02*
Y1664806D01*
X1879002Y1659013D02*
Y1664806D01*
X1879004Y1659013D02*
Y1664806D01*
X1879006Y1659013D02*
Y1664806D01*
X1879008Y1659013D02*
Y1664806D01*
X1879010Y1659013D02*
Y1664806D01*
X1879012Y1659013D02*
Y1664806D01*
X1879014Y1659013D02*
Y1664806D01*
X1879016Y1659013D02*
Y1664806D01*
X1879018Y1659013D02*
Y1664806D01*
X1879020Y1659013D02*
Y1664806D01*
X1879022Y1659013D02*
Y1664806D01*
X1879024Y1659013D02*
Y1664806D01*
X1879026Y1659013D02*
Y1664806D01*
X1879028Y1659013D02*
Y1664806D01*
X1879030Y1659013D02*
Y1664806D01*
X1879031Y1659013D02*
Y1664806D01*
X1879033Y1659013D02*
Y1664806D01*
X1879035Y1659013D02*
Y1664806D01*
X1879037Y1659013D02*
Y1664806D01*
X1879039Y1659013D02*
Y1664806D01*
X1879041Y1659013D02*
Y1664806D01*
X1879043Y1659013D02*
Y1664806D01*
X1879045Y1659013D02*
Y1664806D01*
X1879047Y1659013D02*
Y1664806D01*
X1879049Y1659013D02*
Y1664806D01*
X1879051Y1659013D02*
Y1664806D01*
X1879053Y1659013D02*
Y1664806D01*
X1879055Y1659013D02*
Y1664806D01*
X1879057Y1659013D02*
Y1664806D01*
X1879059Y1659013D02*
Y1664806D01*
X1879061Y1659013D02*
Y1664806D01*
X1879063Y1659013D02*
Y1664806D01*
X1879065Y1659013D02*
Y1664806D01*
X1879067Y1659013D02*
Y1664806D01*
X1879069Y1659013D02*
Y1664806D01*
X1879071Y1659013D02*
Y1664806D01*
X1879073Y1659013D02*
Y1664806D01*
X1879075Y1659013D02*
Y1664806D01*
X1879077Y1659013D02*
Y1664806D01*
X1879079Y1659013D02*
Y1664806D01*
X1879081Y1659013D02*
Y1664806D01*
X1879083Y1659013D02*
Y1664806D01*
X1879085Y1659013D02*
Y1664806D01*
X1879087Y1659013D02*
Y1664806D01*
X1879089Y1659013D02*
Y1664806D01*
X1879091Y1659013D02*
Y1664806D01*
X1879093Y1659013D02*
Y1664806D01*
X1879094Y1659013D02*
Y1664806D01*
X1879096Y1659013D02*
Y1664806D01*
X1879098Y1659013D02*
Y1664806D01*
X1879100Y1659013D02*
Y1664806D01*
X1879102Y1659013D02*
Y1664806D01*
X1879104Y1659013D02*
Y1664806D01*
X1879106Y1659013D02*
Y1664806D01*
X1879108Y1659013D02*
Y1664806D01*
X1879110Y1659013D02*
Y1664806D01*
X1879112Y1659013D02*
Y1664806D01*
X1879114Y1659013D02*
Y1664806D01*
X1879116Y1659013D02*
Y1664806D01*
X1879118Y1659013D02*
Y1664806D01*
X1879120Y1659013D02*
Y1664806D01*
X1879122Y1659013D02*
Y1664806D01*
X1879124Y1659013D02*
Y1664806D01*
X1879126Y1659013D02*
Y1664806D01*
X1879128Y1659013D02*
Y1664806D01*
X1879130Y1659013D02*
Y1664806D01*
X1879132Y1659013D02*
Y1664806D01*
X1879134Y1659013D02*
Y1664806D01*
X1879136Y1659013D02*
Y1664806D01*
X1879138Y1659013D02*
Y1664806D01*
X1879140Y1659013D02*
Y1664806D01*
X1879142Y1659013D02*
Y1664806D01*
X1879144Y1659013D02*
Y1664806D01*
X1879146Y1659013D02*
Y1664806D01*
X1879148Y1659013D02*
Y1664806D01*
X1879150Y1659013D02*
Y1664806D01*
X1879152Y1659013D02*
Y1664806D01*
X1879154Y1659013D02*
Y1664806D01*
X1879156Y1659013D02*
Y1664806D01*
X1879157Y1659013D02*
Y1664806D01*
X1879159Y1659013D02*
Y1664806D01*
X1879161Y1659013D02*
Y1664806D01*
X1879163Y1659013D02*
Y1664806D01*
X1879165Y1659013D02*
Y1664806D01*
X1879167Y1659013D02*
Y1664806D01*
X1879169Y1659013D02*
Y1664806D01*
X1879171Y1659013D02*
Y1664806D01*
X1879173Y1659013D02*
Y1664806D01*
X1879175Y1659013D02*
Y1664806D01*
X1879177Y1659013D02*
Y1664806D01*
X1879179Y1659013D02*
Y1664806D01*
X1879181Y1659013D02*
Y1664806D01*
X1879183Y1659013D02*
Y1664806D01*
X1879185Y1659013D02*
Y1664806D01*
X1879187Y1659013D02*
Y1664806D01*
X1879189Y1659013D02*
Y1664806D01*
X1879191Y1659013D02*
Y1664806D01*
X1879193Y1659013D02*
Y1664806D01*
X1879195Y1659013D02*
Y1664806D01*
X1879197Y1659013D02*
Y1664806D01*
X1879199Y1659013D02*
Y1664806D01*
X1879201Y1659013D02*
Y1664806D01*
X1879203Y1659013D02*
Y1664806D01*
X1879205Y1659013D02*
Y1664806D01*
X1879207Y1659013D02*
Y1664806D01*
X1879209Y1659013D02*
Y1664806D01*
X1879211Y1659013D02*
Y1664806D01*
X1879213Y1659013D02*
Y1664806D01*
X1879215Y1659013D02*
Y1664806D01*
X1879217Y1659013D02*
Y1664806D01*
X1879219Y1659013D02*
Y1664806D01*
X1879220Y1659013D02*
Y1664806D01*
X1879222Y1659013D02*
Y1664806D01*
X1879224Y1659013D02*
Y1664806D01*
X1879226Y1659013D02*
Y1664806D01*
X1879228Y1659013D02*
Y1664806D01*
X1879230Y1659013D02*
Y1664806D01*
X1879232Y1659013D02*
Y1664806D01*
X1879234Y1659013D02*
Y1664806D01*
X1879236Y1659013D02*
Y1664806D01*
X1879238Y1659013D02*
Y1664806D01*
X1879240Y1659013D02*
Y1664806D01*
X1879242Y1659013D02*
Y1664806D01*
X1879244Y1659013D02*
Y1664806D01*
X1879246Y1659013D02*
Y1664806D01*
X1879248Y1659013D02*
Y1664806D01*
X1879250Y1659013D02*
Y1664806D01*
X1879252Y1659013D02*
Y1664806D01*
X1879254Y1659013D02*
Y1664806D01*
X1879256Y1659013D02*
Y1664806D01*
X1879258Y1659013D02*
Y1664806D01*
X1879260Y1659013D02*
Y1664806D01*
X1879262Y1659013D02*
Y1664806D01*
X1879264Y1659013D02*
Y1664806D01*
X1879266Y1659013D02*
Y1664806D01*
X1879268Y1659013D02*
Y1664806D01*
X1879270Y1659013D02*
Y1664806D01*
X1879272Y1659013D02*
Y1664806D01*
X1879274Y1659013D02*
Y1664806D01*
X1879276Y1659013D02*
Y1664806D01*
X1879278Y1659013D02*
Y1664806D01*
X1879280Y1659013D02*
Y1664806D01*
X1879281Y1659013D02*
Y1664806D01*
X1879283Y1659013D02*
Y1664806D01*
X1879285Y1659013D02*
Y1664806D01*
X1879287Y1659013D02*
Y1664806D01*
X1879289Y1659013D02*
Y1664806D01*
X1879291Y1659013D02*
Y1664806D01*
X1879293Y1659013D02*
Y1664806D01*
X1879295Y1659013D02*
Y1664806D01*
X1879297Y1659013D02*
Y1664806D01*
X1879299Y1659013D02*
Y1664806D01*
X1879301Y1659013D02*
Y1664806D01*
X1879303Y1659013D02*
Y1664806D01*
X1879305Y1659013D02*
Y1664806D01*
X1879307Y1659013D02*
Y1664806D01*
X1879309Y1659013D02*
Y1664806D01*
X1879311Y1659013D02*
Y1664806D01*
X1879313Y1659013D02*
Y1664806D01*
X1879315Y1659013D02*
Y1664806D01*
X1879317Y1659013D02*
Y1664806D01*
X1879319Y1659013D02*
Y1664806D01*
X1879321Y1659013D02*
Y1664806D01*
X1879323Y1659013D02*
Y1664806D01*
X1879325Y1659013D02*
Y1664806D01*
X1879327Y1659013D02*
Y1664806D01*
X1879329Y1659013D02*
Y1664806D01*
X1879331Y1659013D02*
Y1664806D01*
X1879333Y1659013D02*
Y1664806D01*
X1879335Y1659013D02*
Y1664806D01*
X1879337Y1659013D02*
Y1664806D01*
X1879339Y1659013D02*
Y1664806D01*
X1879341Y1659013D02*
Y1664806D01*
X1879343Y1659013D02*
Y1664806D01*
X1879344Y1659013D02*
Y1664806D01*
X1879346Y1659013D02*
Y1664806D01*
X1879348Y1659013D02*
Y1664806D01*
X1879350Y1659013D02*
Y1664806D01*
X1879352Y1659013D02*
Y1664806D01*
X1879354Y1659013D02*
Y1664806D01*
X1879356Y1659013D02*
Y1664806D01*
X1879358Y1659013D02*
Y1664806D01*
X1879360Y1659013D02*
Y1664806D01*
X1879362Y1659013D02*
Y1664806D01*
X1879364Y1659013D02*
Y1664806D01*
X1879366Y1659013D02*
Y1664806D01*
X1879368Y1659013D02*
Y1664806D01*
X1879370Y1659013D02*
Y1664806D01*
X1879372Y1659013D02*
Y1664806D01*
X1879374Y1659013D02*
Y1664806D01*
X1879376Y1659013D02*
Y1664806D01*
X1879378Y1659013D02*
Y1664806D01*
X1879380Y1659013D02*
Y1664806D01*
X1879382Y1659013D02*
Y1664806D01*
X1879384Y1659013D02*
Y1664806D01*
X1879386Y1659013D02*
Y1664806D01*
X1879388Y1659013D02*
Y1664806D01*
X1879390Y1659013D02*
Y1664806D01*
X1879392Y1659013D02*
Y1664806D01*
X1879394Y1659013D02*
Y1664806D01*
X1879396Y1659013D02*
Y1664806D01*
X1879398Y1659013D02*
Y1664806D01*
X1879400Y1659013D02*
Y1664806D01*
X1879402Y1659013D02*
Y1664806D01*
X1879404Y1659013D02*
Y1664806D01*
X1879406Y1659013D02*
Y1664806D01*
X1879407Y1659013D02*
Y1664806D01*
X1879409Y1659013D02*
Y1664806D01*
X1879411Y1659013D02*
Y1664806D01*
X1879413Y1659013D02*
Y1664806D01*
X1879415Y1659013D02*
Y1664806D01*
X1879417Y1659013D02*
Y1664806D01*
X1879419Y1659013D02*
Y1664806D01*
X1879421Y1659013D02*
Y1664806D01*
X1879423Y1659013D02*
Y1664806D01*
X1879425Y1659013D02*
Y1664806D01*
X1879427Y1659013D02*
Y1664806D01*
X1879429Y1659013D02*
Y1664806D01*
X1879431Y1659013D02*
Y1664806D01*
X1879433Y1659013D02*
Y1664806D01*
X1879435Y1659013D02*
Y1664806D01*
X1879437Y1659013D02*
Y1664806D01*
X1879439Y1659013D02*
Y1664806D01*
X1879441Y1659013D02*
Y1664806D01*
X1879443Y1659013D02*
Y1664806D01*
X1879445Y1659013D02*
Y1664806D01*
X1879447Y1659013D02*
Y1664806D01*
X1879449Y1659013D02*
Y1664806D01*
X1879451Y1659013D02*
Y1664806D01*
X1879453Y1659013D02*
Y1664806D01*
X1879455Y1659013D02*
Y1664806D01*
X1879457Y1659013D02*
Y1664806D01*
X1879459Y1659013D02*
Y1664806D01*
X1879461Y1659013D02*
Y1664806D01*
X1879463Y1659013D02*
Y1664806D01*
X1879465Y1659013D02*
Y1664806D01*
X1879467Y1659013D02*
Y1664806D01*
X1879469Y1659013D02*
Y1664806D01*
X1879470Y1659013D02*
Y1664806D01*
X1879472Y1659013D02*
Y1664806D01*
X1879474Y1659013D02*
Y1664806D01*
X1879476Y1659013D02*
Y1664806D01*
X1879478Y1659013D02*
Y1664806D01*
X1879480Y1659013D02*
Y1664806D01*
X1879482Y1659013D02*
Y1664806D01*
X1879484Y1659013D02*
Y1664806D01*
X1879486Y1659013D02*
Y1664806D01*
X1879488Y1659013D02*
Y1664806D01*
X1879490Y1659013D02*
Y1664806D01*
X1879492Y1659013D02*
Y1664806D01*
X1879494Y1659013D02*
Y1664806D01*
X1879496Y1659013D02*
Y1664806D01*
X1879498Y1659013D02*
Y1664806D01*
X1879500Y1659013D02*
Y1664806D01*
X1879502Y1659013D02*
Y1664806D01*
X1879504Y1659013D02*
Y1664806D01*
X1879506Y1659013D02*
Y1664806D01*
X1879508Y1659013D02*
Y1664806D01*
X1879510Y1659013D02*
Y1664806D01*
X1879512Y1659013D02*
Y1664806D01*
X1879514Y1659013D02*
Y1664806D01*
X1879516Y1659013D02*
Y1664806D01*
X1879518Y1659013D02*
Y1664806D01*
X1879520Y1659013D02*
Y1664806D01*
X1879522Y1659013D02*
Y1664806D01*
X1879524Y1659013D02*
Y1664806D01*
X1879526Y1659013D02*
Y1664806D01*
X1879528Y1659013D02*
Y1664806D01*
X1879530Y1659013D02*
Y1664806D01*
X1879531Y1659013D02*
Y1664806D01*
X1879533Y1659013D02*
Y1664806D01*
X1879535Y1659013D02*
Y1664806D01*
X1879537Y1659013D02*
Y1664806D01*
X1879539Y1659013D02*
Y1664806D01*
X1879541Y1659013D02*
Y1664806D01*
X1879543Y1659013D02*
Y1664806D01*
X1879545Y1659013D02*
Y1664806D01*
X1879547Y1659013D02*
Y1664806D01*
X1879549Y1659013D02*
Y1664806D01*
X1879551Y1659013D02*
Y1664806D01*
X1879553Y1659013D02*
Y1664806D01*
X1879555Y1659013D02*
Y1664806D01*
X1879557Y1659013D02*
Y1664806D01*
X1879559Y1659013D02*
Y1664806D01*
X1879561Y1659013D02*
Y1664806D01*
X1879563Y1659013D02*
Y1664806D01*
X1879565Y1659013D02*
Y1664806D01*
X1879567Y1659013D02*
Y1664806D01*
X1879569Y1659013D02*
Y1664806D01*
X1879571Y1659013D02*
Y1664806D01*
X1879573Y1659013D02*
Y1664806D01*
X1879575Y1659013D02*
Y1664806D01*
X1879577Y1659013D02*
Y1664806D01*
X1879579Y1659013D02*
Y1664806D01*
X1879581Y1659013D02*
Y1664806D01*
X1879583Y1659013D02*
Y1664806D01*
X1879585Y1659013D02*
Y1664806D01*
X1879587Y1659013D02*
Y1664806D01*
X1879589Y1659013D02*
Y1664806D01*
X1879591Y1659013D02*
Y1664806D01*
X1879593Y1659013D02*
Y1664806D01*
X1879594Y1659013D02*
Y1664806D01*
X1879596Y1659013D02*
Y1664806D01*
X1879598Y1659013D02*
Y1664806D01*
X1879600Y1659013D02*
Y1664806D01*
X1879602Y1659013D02*
Y1664806D01*
X1879604Y1659013D02*
Y1664806D01*
X1879606Y1659013D02*
Y1664806D01*
X1879608Y1659013D02*
Y1664806D01*
X1879610Y1659013D02*
Y1664806D01*
X1879612Y1659013D02*
Y1664806D01*
X1879614Y1659013D02*
Y1664806D01*
X1879616Y1659013D02*
Y1664806D01*
X1879618Y1659013D02*
Y1664806D01*
X1879620Y1659013D02*
Y1664806D01*
X1879622Y1659013D02*
Y1664806D01*
X1879624Y1659013D02*
Y1664806D01*
X1879626Y1659013D02*
Y1664806D01*
X1879628Y1659013D02*
Y1664806D01*
X1879630Y1659013D02*
Y1664806D01*
X1879632Y1659013D02*
Y1664806D01*
X1879634Y1659013D02*
Y1664806D01*
X1879636Y1659013D02*
Y1664806D01*
X1879638Y1659013D02*
Y1664806D01*
X1879640Y1659013D02*
Y1664806D01*
X1879642Y1659013D02*
Y1664806D01*
X1879644Y1659013D02*
Y1664806D01*
X1879646Y1659013D02*
Y1664806D01*
X1879648Y1659013D02*
Y1664806D01*
X1879650Y1659013D02*
Y1664806D01*
X1879652Y1659013D02*
Y1664806D01*
X1879654Y1659013D02*
Y1664806D01*
X1879656Y1659013D02*
Y1664806D01*
X1879657Y1659013D02*
Y1664806D01*
X1879659Y1659013D02*
Y1664806D01*
X1879661Y1659013D02*
Y1664806D01*
X1879663Y1659013D02*
Y1664806D01*
X1879665Y1659013D02*
Y1664806D01*
X1879667Y1659013D02*
Y1664806D01*
X1879669Y1659013D02*
Y1664806D01*
X1879671Y1659013D02*
Y1664806D01*
X1879673Y1659013D02*
Y1664806D01*
X1879675Y1659013D02*
Y1664806D01*
X1879677Y1659013D02*
Y1664806D01*
X1879679Y1659013D02*
Y1664806D01*
X1879681Y1659013D02*
Y1664806D01*
X1879683Y1659013D02*
Y1664806D01*
X1879685Y1659013D02*
Y1664806D01*
X1879687Y1659013D02*
Y1664806D01*
X1879689Y1659013D02*
Y1664806D01*
X1879691Y1659013D02*
Y1664806D01*
X1879693Y1659013D02*
Y1664806D01*
X1879695Y1659013D02*
Y1664806D01*
X1879697Y1659013D02*
Y1664806D01*
X1879699Y1659013D02*
Y1664806D01*
X1879701Y1659013D02*
Y1664806D01*
X1879703Y1659013D02*
Y1664806D01*
X1879705Y1659013D02*
Y1664806D01*
X1879707Y1659013D02*
Y1664806D01*
X1879709Y1659013D02*
Y1664806D01*
X1879711Y1659013D02*
Y1664806D01*
X1879713Y1659013D02*
Y1664806D01*
X1879715Y1659013D02*
Y1664806D01*
X1879717Y1659013D02*
Y1664806D01*
X1879719Y1659013D02*
Y1664806D01*
X1879720Y1659013D02*
Y1664806D01*
X1879722Y1659013D02*
Y1664806D01*
X1879724Y1659013D02*
Y1664806D01*
X1879726Y1659013D02*
Y1664806D01*
X1879728Y1659013D02*
Y1664806D01*
X1879730Y1659013D02*
Y1664806D01*
X1879732Y1659013D02*
Y1664806D01*
X1879734Y1659013D02*
Y1664806D01*
X1879736Y1659013D02*
Y1664806D01*
X1879738Y1659013D02*
Y1664806D01*
X1879740Y1659013D02*
Y1664806D01*
X1879742Y1659013D02*
Y1664806D01*
X1879744Y1659013D02*
Y1664806D01*
X1879746Y1659013D02*
Y1664806D01*
X1879748Y1659013D02*
Y1664806D01*
X1879750Y1659013D02*
Y1664806D01*
X1879752Y1659013D02*
Y1664806D01*
X1879754Y1659013D02*
Y1664806D01*
X1879756Y1659013D02*
Y1664806D01*
X1879758Y1659013D02*
Y1664806D01*
X1879760Y1659013D02*
Y1664806D01*
X1879762Y1659013D02*
Y1664806D01*
X1879764Y1659013D02*
Y1664806D01*
X1879766Y1659013D02*
Y1664806D01*
X1879768Y1659013D02*
Y1664806D01*
X1879770Y1659013D02*
Y1664806D01*
X1879772Y1659013D02*
Y1664806D01*
X1879774Y1659013D02*
Y1664806D01*
X1879776Y1659013D02*
Y1664806D01*
X1879778Y1659013D02*
Y1664806D01*
X1879780Y1659013D02*
Y1664806D01*
X1879781Y1659013D02*
Y1664806D01*
X1879783Y1659013D02*
Y1664806D01*
X1879785Y1659013D02*
Y1664806D01*
X1879787Y1659013D02*
Y1664806D01*
X1879789Y1659013D02*
Y1664806D01*
X1879791Y1659013D02*
Y1664806D01*
X1879793Y1659013D02*
Y1664806D01*
X1879795Y1659013D02*
Y1664806D01*
X1879797Y1659013D02*
Y1664806D01*
X1879799Y1659013D02*
Y1664806D01*
X1879801Y1659013D02*
Y1664806D01*
X1879803Y1659013D02*
Y1664806D01*
X1879805Y1659013D02*
Y1664806D01*
X1879807Y1659013D02*
Y1664806D01*
X1879809Y1659013D02*
Y1664806D01*
X1879811Y1659013D02*
Y1664806D01*
X1879813Y1659013D02*
Y1664806D01*
X1879815Y1659013D02*
Y1664806D01*
X1879817Y1659013D02*
Y1664806D01*
X1879819Y1659013D02*
Y1664806D01*
X1879821Y1659013D02*
Y1664806D01*
X1879823Y1659013D02*
Y1664806D01*
X1879825Y1659013D02*
Y1664806D01*
X1879827Y1659013D02*
Y1664806D01*
X1879829Y1659013D02*
Y1664806D01*
X1879831Y1659013D02*
Y1664806D01*
X1879833Y1659013D02*
Y1664806D01*
X1879835Y1659013D02*
Y1664806D01*
X1879837Y1659013D02*
Y1664806D01*
X1879839Y1659013D02*
Y1664806D01*
X1879841Y1659013D02*
Y1664806D01*
X1879843Y1659013D02*
Y1664806D01*
X1879844Y1659013D02*
Y1664806D01*
X1879846Y1659013D02*
Y1664806D01*
X1879848Y1659013D02*
Y1664806D01*
X1879850Y1659013D02*
Y1664806D01*
X1879852Y1659013D02*
Y1664806D01*
X1879854Y1659013D02*
Y1664806D01*
X1879856Y1659013D02*
Y1664806D01*
X1879858Y1659013D02*
Y1664806D01*
X1879860Y1659013D02*
Y1664806D01*
X1879862Y1659013D02*
Y1664806D01*
X1879864Y1659013D02*
Y1664806D01*
X1879866Y1659013D02*
Y1664806D01*
X1879868Y1659013D02*
Y1664806D01*
X1879870Y1659013D02*
Y1664806D01*
X1879872Y1659013D02*
Y1664806D01*
X1879874Y1659013D02*
Y1664806D01*
X1879876Y1659013D02*
Y1664806D01*
X1879878Y1659013D02*
Y1664806D01*
X1879880Y1659013D02*
Y1664806D01*
X1879882Y1659013D02*
Y1664806D01*
X1879884Y1659013D02*
Y1664806D01*
X1879886Y1659013D02*
Y1664806D01*
X1879888Y1659013D02*
Y1664806D01*
X1879890Y1659013D02*
Y1664806D01*
X1879892Y1659013D02*
Y1664806D01*
X1879894Y1659013D02*
Y1664806D01*
X1879896Y1659013D02*
Y1664806D01*
X1879898Y1659013D02*
Y1664806D01*
X1879900Y1659013D02*
Y1664806D01*
X1879902Y1659013D02*
Y1664806D01*
X1879904Y1659013D02*
Y1664806D01*
X1879906Y1659013D02*
Y1664806D01*
X1879907Y1659013D02*
Y1664806D01*
X1879909Y1659013D02*
Y1664806D01*
X1879911Y1659013D02*
Y1664806D01*
X1879913Y1659013D02*
Y1664806D01*
X1879915Y1659013D02*
Y1664806D01*
X1879917Y1659013D02*
Y1664806D01*
X1879919Y1659013D02*
Y1664806D01*
X1879921Y1659013D02*
Y1664806D01*
X1879923Y1659013D02*
Y1664806D01*
X1879925Y1659013D02*
Y1664806D01*
X1879927Y1659013D02*
Y1664806D01*
X1879929Y1659013D02*
Y1664806D01*
X1879931Y1659013D02*
Y1664806D01*
X1879933Y1659013D02*
Y1664806D01*
X1879935Y1659013D02*
Y1664806D01*
X1879937Y1659013D02*
Y1664806D01*
X1879939Y1659013D02*
Y1664806D01*
X1879941Y1659013D02*
Y1664806D01*
X1879943Y1659013D02*
Y1664806D01*
X1879945Y1659013D02*
Y1664806D01*
X1879947Y1659013D02*
Y1664806D01*
X1879949Y1659013D02*
Y1664806D01*
X1879951Y1659013D02*
Y1664806D01*
X1879953Y1659013D02*
Y1664806D01*
X1879955Y1659013D02*
Y1664806D01*
X1879957Y1659013D02*
Y1664806D01*
X1879959Y1659013D02*
Y1664806D01*
X1879961Y1659013D02*
Y1664806D01*
X1879963Y1659013D02*
Y1664806D01*
X1879965Y1659013D02*
Y1664806D01*
X1879967Y1659013D02*
Y1664806D01*
X1879969Y1659013D02*
Y1664806D01*
X1879970Y1659013D02*
Y1664806D01*
X1879972Y1659013D02*
Y1664806D01*
X1879974Y1659013D02*
Y1664806D01*
X1879976Y1659013D02*
Y1664806D01*
X1879978Y1659013D02*
Y1664806D01*
X1879980Y1659013D02*
Y1664806D01*
X1879982Y1659013D02*
Y1664806D01*
X1879984Y1659013D02*
Y1664806D01*
X1879986Y1659013D02*
Y1664806D01*
X1879988Y1659013D02*
Y1664806D01*
X1879990Y1659013D02*
Y1664806D01*
X1879992Y1659013D02*
Y1664806D01*
X1879994Y1659013D02*
Y1664806D01*
X1879996Y1659013D02*
Y1664806D01*
X1879998Y1659013D02*
Y1664806D01*
X1880000Y1659013D02*
Y1664806D01*
X1880002Y1659013D02*
Y1664806D01*
X1880004Y1659013D02*
Y1664806D01*
X1880006Y1659013D02*
Y1664806D01*
X1880008Y1659013D02*
Y1664806D01*
X1880010Y1659013D02*
Y1664806D01*
X1880012Y1659013D02*
Y1664806D01*
X1880014Y1659013D02*
Y1664806D01*
X1880016Y1659013D02*
Y1664806D01*
X1880018Y1659013D02*
Y1664806D01*
X1880020Y1659013D02*
Y1664806D01*
X1880022Y1659013D02*
Y1664806D01*
X1880024Y1659013D02*
Y1664806D01*
X1880026Y1659013D02*
Y1664806D01*
X1880028Y1659013D02*
Y1664806D01*
X1880030Y1659013D02*
Y1664806D01*
X1880031Y1659013D02*
Y1664806D01*
X1880033Y1659013D02*
Y1664806D01*
X1880035Y1659013D02*
Y1664806D01*
X1880037Y1659013D02*
Y1664806D01*
X1880039Y1659013D02*
Y1664806D01*
X1880041Y1659013D02*
Y1664806D01*
X1880043Y1659013D02*
Y1664806D01*
X1880045Y1659013D02*
Y1664806D01*
X1880047Y1659013D02*
Y1664806D01*
X1880049Y1659013D02*
Y1664806D01*
X1880051Y1659013D02*
Y1664806D01*
X1880053Y1659013D02*
Y1664806D01*
X1880055Y1659013D02*
Y1664806D01*
X1880057Y1659013D02*
Y1664806D01*
X1880059Y1659013D02*
Y1664806D01*
X1880061Y1659013D02*
Y1664806D01*
X1880063Y1659013D02*
Y1664806D01*
X1880065Y1659013D02*
Y1664806D01*
X1880067Y1659013D02*
Y1664806D01*
X1880069Y1659013D02*
Y1664806D01*
X1880071Y1659013D02*
Y1664806D01*
X1880073Y1659013D02*
Y1664806D01*
X1880075Y1659013D02*
Y1664806D01*
X1880077Y1659013D02*
Y1664806D01*
X1880079Y1659013D02*
Y1664806D01*
X1880081Y1659013D02*
Y1664806D01*
X1880083Y1659013D02*
Y1664806D01*
X1880085Y1659013D02*
Y1664806D01*
X1880087Y1659013D02*
Y1664806D01*
X1880089Y1659013D02*
Y1664806D01*
X1880091Y1659013D02*
Y1664806D01*
X1880093Y1659013D02*
Y1664806D01*
X1880094Y1659013D02*
Y1664806D01*
X1880096Y1659013D02*
Y1664806D01*
X1880098Y1659013D02*
Y1664806D01*
X1880100Y1659013D02*
Y1664806D01*
X1880102Y1659013D02*
Y1664806D01*
X1880104Y1659013D02*
Y1664806D01*
X1880106Y1659013D02*
Y1664806D01*
X1880108Y1659013D02*
Y1664806D01*
X1880110Y1659013D02*
Y1664806D01*
X1880112Y1659013D02*
Y1664806D01*
X1880114Y1659013D02*
Y1664806D01*
X1880116Y1659013D02*
Y1664806D01*
X1880118Y1659013D02*
Y1664806D01*
X1880120Y1659013D02*
Y1664806D01*
X1880122Y1659013D02*
Y1664806D01*
X1880124Y1659013D02*
Y1664806D01*
X1880126Y1659013D02*
Y1664806D01*
X1880128Y1659013D02*
Y1664806D01*
X1880130Y1659013D02*
Y1664806D01*
X1880132Y1659013D02*
Y1664806D01*
X1880134Y1659013D02*
Y1664806D01*
X1880136Y1659013D02*
Y1664806D01*
X1880138Y1659013D02*
Y1664806D01*
X1880140Y1659013D02*
Y1664806D01*
X1880142Y1659013D02*
Y1664806D01*
X1880144Y1659013D02*
Y1664806D01*
X1880146Y1659013D02*
Y1664806D01*
X1880148Y1659013D02*
Y1664806D01*
X1880150Y1659013D02*
Y1664806D01*
X1880152Y1659013D02*
Y1664806D01*
X1880154Y1659013D02*
Y1664806D01*
X1880156Y1659013D02*
Y1664806D01*
X1880157Y1659013D02*
Y1664806D01*
X1880159Y1659013D02*
Y1664806D01*
X1880161Y1659013D02*
Y1664806D01*
X1880163Y1659013D02*
Y1664806D01*
X1880165Y1659013D02*
Y1664806D01*
X1880167Y1659013D02*
Y1664806D01*
X1880169Y1659013D02*
Y1664806D01*
X1880171Y1659013D02*
Y1664806D01*
X1880173Y1659013D02*
Y1664806D01*
X1880175Y1659013D02*
Y1664806D01*
X1880177Y1659013D02*
Y1664806D01*
X1880179Y1659013D02*
Y1664806D01*
X1880181Y1659013D02*
Y1664806D01*
X1880183Y1659013D02*
Y1664806D01*
X1880185Y1659013D02*
Y1664806D01*
X1880187Y1659013D02*
Y1664806D01*
X1880189Y1659013D02*
Y1664806D01*
X1880191Y1659013D02*
Y1664806D01*
X1880193Y1659013D02*
Y1664806D01*
X1880195Y1659013D02*
Y1664806D01*
X1880197Y1659013D02*
Y1664806D01*
X1880199Y1659013D02*
Y1664806D01*
X1880201Y1659013D02*
Y1664806D01*
X1880203Y1659013D02*
Y1664806D01*
X1880205Y1659013D02*
Y1664806D01*
X1880207Y1659013D02*
Y1664806D01*
X1880209Y1659013D02*
Y1664806D01*
X1880211Y1659013D02*
Y1664806D01*
X1880213Y1659013D02*
Y1664806D01*
X1880215Y1659013D02*
Y1664806D01*
X1880217Y1659013D02*
Y1664806D01*
X1880219Y1659013D02*
Y1664806D01*
X1880220Y1659013D02*
Y1664806D01*
X1880222Y1659013D02*
Y1664806D01*
X1880224Y1659013D02*
Y1664806D01*
X1880226Y1659013D02*
Y1664806D01*
X1880228Y1659013D02*
Y1664806D01*
X1880230Y1659013D02*
Y1664806D01*
X1880232Y1659013D02*
Y1664806D01*
X1880234Y1659013D02*
Y1664806D01*
X1880236Y1659013D02*
Y1664806D01*
X1880238Y1659013D02*
Y1664806D01*
X1880240Y1659013D02*
Y1664806D01*
X1880242Y1659013D02*
Y1664806D01*
X1880244Y1659013D02*
Y1664806D01*
X1880246Y1659013D02*
Y1664806D01*
X1880248Y1659013D02*
Y1664806D01*
X1880250Y1659013D02*
Y1664806D01*
X1880252Y1659013D02*
Y1664806D01*
X1880254Y1659013D02*
Y1664806D01*
X1880256Y1659013D02*
Y1664806D01*
X1880258Y1659013D02*
Y1664806D01*
X1880260Y1659013D02*
Y1664806D01*
X1880262Y1659013D02*
Y1664806D01*
X1880264Y1659013D02*
Y1664806D01*
X1880266Y1659013D02*
Y1664806D01*
X1880268Y1659013D02*
Y1664806D01*
X1880270Y1659013D02*
Y1664806D01*
X1880272Y1659013D02*
Y1664806D01*
X1880274Y1659013D02*
Y1664806D01*
X1880276Y1659013D02*
Y1664806D01*
X1880278Y1659013D02*
Y1664806D01*
X1880280Y1659013D02*
Y1664806D01*
X1880281Y1659013D02*
Y1664806D01*
X1880283Y1659013D02*
Y1664806D01*
X1880285Y1659013D02*
Y1664806D01*
X1880287Y1659013D02*
Y1664806D01*
X1880289Y1659013D02*
Y1664806D01*
X1880291Y1659013D02*
Y1664806D01*
X1880293Y1659013D02*
Y1664806D01*
X1880295Y1659013D02*
Y1664806D01*
X1880297Y1659013D02*
Y1664806D01*
X1880299Y1659013D02*
Y1664806D01*
X1880301Y1659013D02*
Y1664806D01*
X1880303Y1659013D02*
Y1664806D01*
X1880305Y1659013D02*
Y1664806D01*
X1880307Y1659013D02*
Y1664806D01*
X1880309Y1659013D02*
Y1664806D01*
X1880311Y1659013D02*
Y1664806D01*
X1880313Y1659013D02*
Y1664806D01*
X1880315Y1659013D02*
Y1664806D01*
X1880317Y1659013D02*
Y1664806D01*
X1880319Y1659013D02*
Y1664806D01*
X1880321Y1659013D02*
Y1664806D01*
X1880323Y1659013D02*
Y1664806D01*
X1880325Y1659013D02*
Y1664806D01*
X1880327Y1659013D02*
Y1664806D01*
X1880329Y1659013D02*
Y1664806D01*
X1880331Y1659013D02*
Y1664806D01*
X1880333Y1659013D02*
Y1664806D01*
X1880335Y1659013D02*
Y1664806D01*
X1880337Y1659013D02*
Y1664806D01*
X1880339Y1659013D02*
Y1664806D01*
X1880341Y1659013D02*
Y1664806D01*
X1880343Y1659013D02*
Y1664806D01*
X1880344Y1659013D02*
Y1664806D01*
X1880346Y1659013D02*
Y1664806D01*
X1880348Y1659013D02*
Y1664806D01*
X1880350Y1659013D02*
Y1664806D01*
X1880352Y1659013D02*
Y1664806D01*
X1880354Y1659013D02*
Y1664806D01*
X1880356Y1659013D02*
Y1664806D01*
X1880358Y1659013D02*
Y1664806D01*
X1880360Y1659013D02*
Y1664806D01*
X1880362Y1659013D02*
Y1664806D01*
X1880364Y1659013D02*
Y1664806D01*
X1880366Y1659013D02*
Y1664806D01*
X1880368Y1659013D02*
Y1664806D01*
X1880370Y1659013D02*
Y1664806D01*
X1880372Y1659013D02*
Y1664806D01*
X1880374Y1659013D02*
Y1664806D01*
X1880376Y1659013D02*
Y1664806D01*
X1880378Y1659013D02*
Y1664806D01*
X1880380Y1659013D02*
Y1664806D01*
X1880382Y1659013D02*
Y1664806D01*
X1880384Y1659013D02*
Y1664806D01*
X1880386Y1659013D02*
Y1664806D01*
X1880388Y1659013D02*
Y1664806D01*
X1880390Y1659013D02*
Y1664806D01*
X1880392Y1659013D02*
Y1664806D01*
X1880394Y1659013D02*
Y1664806D01*
X1880396Y1659013D02*
Y1664806D01*
X1880398Y1659013D02*
Y1664806D01*
X1880400Y1659013D02*
Y1664806D01*
X1880402Y1659013D02*
Y1664806D01*
X1880404Y1659013D02*
Y1664806D01*
X1880406Y1659013D02*
Y1664806D01*
X1880407Y1659013D02*
Y1664806D01*
X1880409Y1659013D02*
Y1664806D01*
X1880411Y1659013D02*
Y1664806D01*
X1880413Y1659013D02*
Y1664806D01*
X1880415Y1659013D02*
Y1664806D01*
X1880417Y1659013D02*
Y1664806D01*
X1880419Y1659013D02*
Y1664806D01*
X1880421Y1659013D02*
Y1664806D01*
X1880423Y1659013D02*
Y1664806D01*
X1880425Y1659013D02*
Y1664806D01*
X1880427Y1659013D02*
Y1664806D01*
X1880429Y1659013D02*
Y1664806D01*
X1880431Y1659013D02*
Y1664806D01*
X1880433Y1659013D02*
Y1664806D01*
X1880435Y1659013D02*
Y1664806D01*
X1880437Y1659013D02*
Y1664806D01*
X1880439Y1659013D02*
Y1664806D01*
X1880441Y1659013D02*
Y1664806D01*
X1880443Y1659013D02*
Y1664806D01*
X1880445Y1659013D02*
Y1664806D01*
X1880447Y1659013D02*
Y1664806D01*
X1880449Y1659013D02*
Y1664806D01*
X1880451Y1659013D02*
Y1664806D01*
X1880453Y1659013D02*
Y1664806D01*
X1880455Y1659013D02*
Y1664806D01*
X1880457Y1659013D02*
Y1664806D01*
X1880459Y1659013D02*
Y1664806D01*
X1880461Y1659013D02*
Y1664806D01*
X1880463Y1659013D02*
Y1664806D01*
X1880465Y1659013D02*
Y1664806D01*
X1880467Y1659013D02*
Y1664806D01*
X1880469Y1659013D02*
Y1664806D01*
X1880470Y1659013D02*
Y1664806D01*
X1880472Y1659013D02*
Y1664806D01*
X1880474Y1659013D02*
Y1664806D01*
X1880476Y1659013D02*
Y1664806D01*
X1880478Y1659013D02*
Y1664806D01*
X1880480Y1659013D02*
Y1664806D01*
X1880482Y1659013D02*
Y1664806D01*
X1880484Y1659013D02*
Y1664806D01*
X1880486Y1659013D02*
Y1664806D01*
X1880488Y1659013D02*
Y1664806D01*
X1880490Y1659013D02*
Y1664806D01*
X1880492Y1659013D02*
Y1664806D01*
X1880494Y1659013D02*
Y1664806D01*
X1880496Y1659013D02*
Y1664806D01*
X1880498Y1659013D02*
Y1664806D01*
X1880500Y1659013D02*
Y1664806D01*
X1880502Y1659013D02*
Y1664806D01*
X1880504Y1659013D02*
Y1664806D01*
X1880506Y1659013D02*
Y1664806D01*
X1880508Y1659013D02*
Y1664806D01*
X1880510Y1659013D02*
Y1664806D01*
X1880512Y1659013D02*
Y1664806D01*
X1880514Y1659013D02*
Y1664806D01*
X1880516Y1659013D02*
Y1664806D01*
X1880518Y1659013D02*
Y1664806D01*
X1880520Y1659013D02*
Y1664806D01*
X1880522Y1659013D02*
Y1664806D01*
X1880524Y1659013D02*
Y1664806D01*
X1880526Y1659013D02*
Y1664806D01*
X1880528Y1659013D02*
Y1664806D01*
X1880530Y1659013D02*
Y1664806D01*
X1880531Y1659013D02*
Y1664806D01*
X1880533Y1659013D02*
Y1664806D01*
X1880535Y1659013D02*
Y1664806D01*
X1880537Y1659013D02*
Y1664806D01*
X1880539Y1659013D02*
Y1664806D01*
X1880541Y1659013D02*
Y1664806D01*
X1880543Y1659013D02*
Y1664806D01*
X1880545Y1659013D02*
Y1664806D01*
X1880547Y1659013D02*
Y1664806D01*
X1880549Y1659013D02*
Y1664806D01*
X1880551Y1659013D02*
Y1664806D01*
X1880553Y1659013D02*
Y1664806D01*
X1880555Y1659013D02*
Y1664806D01*
X1880557Y1659013D02*
Y1664806D01*
X1880559Y1659013D02*
Y1664806D01*
X1880561Y1659013D02*
Y1664806D01*
X1880563Y1659013D02*
Y1664806D01*
X1880565Y1659013D02*
Y1664806D01*
X1880567Y1659013D02*
Y1664806D01*
X1880569Y1659013D02*
Y1664806D01*
X1880571Y1659013D02*
Y1664806D01*
X1880573Y1659013D02*
Y1664806D01*
X1880575Y1659013D02*
Y1664806D01*
X1880577Y1659013D02*
Y1664806D01*
X1880579Y1659013D02*
Y1664806D01*
X1880581Y1659013D02*
Y1664806D01*
X1880583Y1659013D02*
Y1664806D01*
X1880585Y1659013D02*
Y1664806D01*
X1880587Y1659013D02*
Y1664806D01*
X1880589Y1659013D02*
Y1664806D01*
X1880591Y1659013D02*
Y1664806D01*
X1880593Y1659013D02*
Y1664806D01*
X1880594Y1659013D02*
Y1664806D01*
X1880596Y1659013D02*
Y1664806D01*
X1880598Y1659013D02*
Y1664806D01*
X1880600Y1659013D02*
Y1664806D01*
X1880602Y1659013D02*
Y1664806D01*
X1880604Y1659013D02*
Y1664806D01*
X1880606Y1659013D02*
Y1664806D01*
X1880608Y1659013D02*
Y1664806D01*
X1880610Y1659013D02*
Y1664806D01*
X1880612Y1659013D02*
Y1664806D01*
X1880614Y1659013D02*
Y1664806D01*
X1880616Y1659013D02*
Y1664806D01*
X1880618Y1659013D02*
Y1664806D01*
X1880620Y1659013D02*
Y1664806D01*
X1880622Y1659013D02*
Y1664806D01*
X1880624Y1659013D02*
Y1664806D01*
X1880626Y1659013D02*
Y1664806D01*
X1880628Y1659013D02*
Y1664806D01*
X1880630Y1659013D02*
Y1664806D01*
X1880632Y1659013D02*
Y1664806D01*
X1880634Y1659013D02*
Y1664806D01*
X1880636Y1659013D02*
Y1664806D01*
X1880638Y1659013D02*
Y1664806D01*
X1880640Y1659013D02*
Y1664806D01*
X1880642Y1659013D02*
Y1664806D01*
X1880644Y1659013D02*
Y1664806D01*
X1880646Y1659013D02*
Y1664806D01*
X1880648Y1659013D02*
Y1664806D01*
X1880650Y1659013D02*
Y1664806D01*
X1880652Y1659013D02*
Y1664806D01*
X1880654Y1659013D02*
Y1664806D01*
X1880656Y1659013D02*
Y1664806D01*
X1880657Y1659013D02*
Y1664806D01*
X1880659Y1659013D02*
Y1664806D01*
X1880661Y1659013D02*
Y1664806D01*
X1880663Y1659013D02*
Y1664806D01*
X1880665Y1659013D02*
Y1664806D01*
X1880667Y1659013D02*
Y1664806D01*
X1880669Y1659013D02*
Y1664806D01*
X1880671Y1659013D02*
Y1664806D01*
X1880673Y1659013D02*
Y1664806D01*
X1880675Y1659013D02*
Y1664806D01*
X1880677Y1659013D02*
Y1664806D01*
X1880679Y1659013D02*
Y1664806D01*
X1880681Y1659013D02*
Y1664806D01*
X1880683Y1659013D02*
Y1664806D01*
X1880685Y1659013D02*
Y1664806D01*
X1880687Y1659013D02*
Y1664806D01*
X1880689Y1659013D02*
Y1664806D01*
X1880691Y1659013D02*
Y1664806D01*
X1880693Y1659013D02*
Y1664806D01*
X1880695Y1659013D02*
Y1664806D01*
X1880697Y1659013D02*
Y1664806D01*
X1880699Y1659013D02*
Y1664806D01*
X1880701Y1659013D02*
Y1664806D01*
X1880703Y1659013D02*
Y1664806D01*
X1880705Y1659013D02*
Y1664806D01*
X1880707Y1659013D02*
Y1664806D01*
X1880709Y1659013D02*
Y1664806D01*
X1880711Y1659013D02*
Y1664806D01*
X1880713Y1659013D02*
Y1664806D01*
X1880715Y1659013D02*
Y1664806D01*
X1880717Y1659013D02*
Y1664806D01*
X1880719Y1659013D02*
Y1664806D01*
X1880720Y1659013D02*
Y1664806D01*
X1880722Y1659013D02*
Y1664806D01*
X1880724Y1659013D02*
Y1664806D01*
X1880726Y1659013D02*
Y1664806D01*
X1880728Y1659013D02*
Y1664806D01*
X1880730Y1659013D02*
Y1664806D01*
X1880732Y1659013D02*
Y1664806D01*
X1880734Y1659013D02*
Y1664806D01*
X1880736Y1659013D02*
Y1664806D01*
X1880738Y1659013D02*
Y1664806D01*
X1880740Y1659013D02*
Y1664806D01*
X1880742Y1659013D02*
Y1664806D01*
X1880744Y1659013D02*
Y1664806D01*
X1880746Y1659013D02*
Y1664806D01*
X1880748Y1659013D02*
Y1664806D01*
X1880750Y1659013D02*
Y1664806D01*
X1880752Y1659013D02*
Y1664806D01*
X1880754Y1659013D02*
Y1664806D01*
X1880756Y1659013D02*
Y1664806D01*
X1880758Y1659013D02*
Y1664806D01*
X1880760Y1659013D02*
Y1664806D01*
X1880762Y1659013D02*
Y1664806D01*
X1880764Y1659013D02*
Y1664806D01*
X1880766Y1659014D02*
Y1664806D01*
X1880768Y1659014D02*
Y1664806D01*
X1880770Y1659014D02*
Y1664806D01*
X1880772Y1659014D02*
Y1664806D01*
X1880774Y1659014D02*
Y1664806D01*
X1880776Y1659014D02*
Y1664806D01*
X1880778Y1659014D02*
Y1664806D01*
X1880780Y1659015D02*
Y1664806D01*
X1880781Y1659015D02*
Y1664806D01*
X1880783Y1659015D02*
Y1664806D01*
X1880785Y1659015D02*
Y1664806D01*
X1880787Y1659016D02*
Y1664806D01*
X1880789Y1659016D02*
Y1664806D01*
X1880791Y1659016D02*
Y1664806D01*
X1880793Y1659016D02*
Y1664806D01*
X1880795Y1659017D02*
Y1664806D01*
X1880797Y1659017D02*
Y1664806D01*
X1880799Y1659017D02*
Y1664806D01*
X1880801Y1659018D02*
Y1664806D01*
X1880803Y1659018D02*
Y1664806D01*
X1880805Y1659019D02*
Y1664806D01*
X1880807Y1659019D02*
Y1664806D01*
X1880809Y1659019D02*
Y1664806D01*
X1880811Y1659020D02*
Y1664806D01*
X1880813Y1659020D02*
Y1664806D01*
X1880815Y1659021D02*
Y1664806D01*
X1880817Y1659021D02*
Y1664806D01*
X1880819Y1659022D02*
Y1664806D01*
X1880821Y1659022D02*
Y1664806D01*
X1880823Y1659023D02*
Y1664806D01*
X1880825Y1659023D02*
Y1664806D01*
X1880827Y1659024D02*
Y1664806D01*
X1880829Y1659024D02*
Y1664806D01*
X1880831Y1659025D02*
Y1664806D01*
X1880833Y1659025D02*
Y1664806D01*
X1880835Y1659026D02*
Y1664806D01*
X1880837Y1659026D02*
Y1664806D01*
X1880839Y1659027D02*
Y1664806D01*
X1880841Y1659028D02*
Y1664806D01*
X1880843Y1659028D02*
Y1664806D01*
X1880844Y1659029D02*
Y1664806D01*
X1880846Y1659030D02*
Y1664806D01*
X1880848Y1659030D02*
Y1664806D01*
X1880850Y1659031D02*
Y1664806D01*
X1880852Y1659032D02*
Y1664806D01*
X1880854Y1659033D02*
Y1664806D01*
X1880856Y1659033D02*
Y1664806D01*
X1880858Y1659034D02*
Y1664806D01*
X1880860Y1659035D02*
Y1664806D01*
X1880862Y1659036D02*
Y1664806D01*
X1880864Y1659037D02*
Y1664806D01*
X1880866Y1659037D02*
Y1664806D01*
X1880868Y1659038D02*
Y1664806D01*
X1880870Y1659039D02*
Y1664806D01*
X1880872Y1659040D02*
Y1664806D01*
X1880874Y1659041D02*
Y1664806D01*
X1880876Y1659042D02*
Y1664806D01*
X1880878Y1659043D02*
Y1664806D01*
X1880880Y1659044D02*
Y1664806D01*
X1880882Y1659045D02*
Y1664806D01*
X1880884Y1659046D02*
Y1664806D01*
X1880886Y1659047D02*
Y1664806D01*
X1880888Y1659048D02*
Y1664806D01*
X1880890Y1659049D02*
Y1664806D01*
X1880892Y1659050D02*
Y1664806D01*
X1880894Y1659051D02*
Y1664806D01*
X1880896Y1659052D02*
Y1664806D01*
X1880898Y1659053D02*
Y1664806D01*
X1880900Y1659054D02*
Y1664806D01*
X1880902Y1659056D02*
Y1664806D01*
X1880904Y1659057D02*
Y1664806D01*
X1880906Y1659058D02*
Y1664806D01*
X1880907Y1659059D02*
Y1664806D01*
X1880909Y1659061D02*
Y1664806D01*
X1880911Y1659062D02*
Y1664806D01*
X1880913Y1659063D02*
Y1664806D01*
X1880915Y1659064D02*
Y1664806D01*
X1880917Y1659066D02*
Y1664806D01*
X1880919Y1659067D02*
Y1664806D01*
X1880921Y1659069D02*
Y1664806D01*
X1880923Y1659070D02*
Y1664806D01*
X1880925Y1659071D02*
Y1664806D01*
X1880927Y1659073D02*
Y1664806D01*
X1880929Y1659074D02*
Y1664806D01*
X1880931Y1659076D02*
Y1664806D01*
X1880933Y1659077D02*
Y1664806D01*
X1880935Y1659079D02*
Y1664806D01*
X1880937Y1659081D02*
Y1664806D01*
X1880939Y1659082D02*
Y1664806D01*
X1880941Y1659084D02*
Y1664806D01*
X1880943Y1659085D02*
Y1664806D01*
X1880945Y1659087D02*
Y1664806D01*
X1880947Y1659089D02*
Y1664806D01*
X1880949Y1659090D02*
Y1664806D01*
X1880951Y1659092D02*
Y1664806D01*
X1880953Y1659094D02*
Y1664806D01*
X1880955Y1659095D02*
Y1664806D01*
X1880957Y1659097D02*
Y1664806D01*
X1880959Y1659098D02*
Y1664806D01*
X1880961Y1659100D02*
Y1664806D01*
X1880963Y1659102D02*
Y1664806D01*
X1880965Y1659103D02*
Y1664806D01*
X1880967Y1659105D02*
Y1664806D01*
X1880969Y1659107D02*
Y1664806D01*
X1880970Y1659108D02*
Y1664806D01*
X1880972Y1659110D02*
Y1664806D01*
X1880974Y1659112D02*
Y1664806D01*
X1880976Y1659113D02*
Y1664806D01*
X1880978Y1659115D02*
Y1664806D01*
X1880980Y1659116D02*
Y1664806D01*
X1880982Y1659118D02*
Y1664806D01*
X1880984Y1659120D02*
Y1664806D01*
X1880986Y1659121D02*
Y1664806D01*
X1880988Y1659123D02*
Y1664806D01*
X1880990Y1659125D02*
Y1664806D01*
X1880992Y1659126D02*
Y1664806D01*
X1880994Y1659128D02*
Y1664806D01*
X1880996Y1659129D02*
Y1664806D01*
X1880998Y1659131D02*
Y1664806D01*
X1881000Y1659133D02*
Y1664806D01*
X1881002Y1659134D02*
Y1664806D01*
X1881004Y1659136D02*
Y1664806D01*
X1881006Y1659138D02*
Y1664806D01*
X1881008Y1659139D02*
Y1664806D01*
X1881010Y1659141D02*
Y1664806D01*
X1881012Y1659142D02*
Y1664806D01*
X1881014Y1659144D02*
Y1664806D01*
X1881016Y1659146D02*
Y1664806D01*
X1881018Y1659147D02*
Y1664806D01*
X1881020Y1659149D02*
Y1664806D01*
X1881022Y1659151D02*
Y1664806D01*
X1881024Y1659152D02*
Y1664806D01*
X1881026Y1659154D02*
Y1664806D01*
X1881028Y1659156D02*
Y1664806D01*
X1881030Y1659157D02*
Y1664806D01*
X1881031Y1659159D02*
Y1664806D01*
X1881033Y1659160D02*
Y1664806D01*
X1881035Y1659162D02*
Y1664806D01*
X1881037Y1659164D02*
Y1664806D01*
X1881039Y1659165D02*
Y1664806D01*
X1881041Y1659167D02*
Y1664806D01*
X1881043Y1659169D02*
Y1664806D01*
X1881045Y1659170D02*
Y1664806D01*
X1881047Y1659172D02*
Y1664806D01*
X1881049Y1659173D02*
Y1664806D01*
X1881051Y1659175D02*
Y1664806D01*
X1881053Y1659177D02*
Y1664806D01*
X1881055Y1659178D02*
Y1664806D01*
X1881057Y1659180D02*
Y1664806D01*
X1881059Y1659182D02*
Y1664806D01*
X1881061Y1659183D02*
Y1664806D01*
X1881063Y1659185D02*
Y1664806D01*
X1881065Y1659186D02*
Y1664806D01*
X1881067Y1659188D02*
Y1664806D01*
X1881069Y1659190D02*
Y1664806D01*
X1881071Y1659191D02*
Y1664806D01*
X1881073Y1659193D02*
Y1664806D01*
X1881075Y1659195D02*
Y1664806D01*
X1881077Y1659196D02*
Y1664806D01*
X1881079Y1659198D02*
Y1664806D01*
X1881081Y1659199D02*
Y1664806D01*
X1881083Y1659201D02*
Y1664806D01*
X1881085Y1659203D02*
Y1664806D01*
X1881087Y1659204D02*
Y1664806D01*
X1881089Y1659206D02*
Y1664806D01*
X1881091Y1659208D02*
Y1664806D01*
X1881093Y1659209D02*
Y1664806D01*
X1881094Y1659211D02*
Y1664806D01*
X1881096Y1659213D02*
Y1664806D01*
X1881098Y1659214D02*
Y1664806D01*
X1881100Y1659216D02*
Y1664806D01*
X1881102Y1659217D02*
Y1664806D01*
X1881104Y1659219D02*
Y1664806D01*
X1881106Y1659221D02*
Y1664806D01*
X1881108Y1659222D02*
Y1664806D01*
X1881110Y1659224D02*
Y1664806D01*
X1881112Y1659226D02*
Y1664806D01*
X1881114Y1659227D02*
Y1664806D01*
X1881116Y1659229D02*
Y1664806D01*
X1881118Y1659230D02*
Y1664806D01*
X1881120Y1659232D02*
Y1664806D01*
X1881122Y1659234D02*
Y1664806D01*
X1881124Y1659235D02*
Y1664806D01*
X1881126Y1659237D02*
Y1664806D01*
X1881128Y1659239D02*
Y1664806D01*
X1881130Y1659240D02*
Y1664806D01*
X1881132Y1659242D02*
Y1664806D01*
X1881134Y1659243D02*
Y1664806D01*
X1881136Y1659245D02*
Y1664806D01*
X1881138Y1659247D02*
Y1664806D01*
X1881140Y1659248D02*
Y1664806D01*
X1881142Y1659250D02*
Y1664806D01*
X1881144Y1659252D02*
Y1664806D01*
X1881146Y1659253D02*
Y1664806D01*
X1881148Y1659255D02*
Y1664806D01*
X1881150Y1659257D02*
Y1664806D01*
X1881152Y1659258D02*
Y1664806D01*
X1881154Y1659260D02*
Y1664806D01*
X1881156Y1659261D02*
Y1664806D01*
X1881157Y1659263D02*
Y1664806D01*
X1881159Y1659265D02*
Y1664806D01*
X1881161Y1659266D02*
Y1664806D01*
X1881163Y1659268D02*
Y1664806D01*
X1881165Y1659270D02*
Y1664806D01*
X1881167Y1659271D02*
Y1664806D01*
X1881169Y1659273D02*
Y1664806D01*
X1881171Y1659274D02*
Y1664806D01*
X1881173Y1659276D02*
Y1664806D01*
X1881175Y1659278D02*
Y1664806D01*
X1881177Y1659279D02*
Y1664806D01*
X1881179Y1659281D02*
Y1664806D01*
X1881181Y1659283D02*
Y1664806D01*
X1881183Y1659284D02*
Y1664806D01*
X1881185Y1659286D02*
Y1664806D01*
X1881187Y1659287D02*
Y1664806D01*
X1881189Y1659289D02*
Y1664806D01*
X1881191Y1659291D02*
Y1664806D01*
X1881193Y1659292D02*
Y1664806D01*
X1881195Y1659294D02*
Y1664806D01*
X1881197Y1659296D02*
Y1664806D01*
X1881199Y1659297D02*
Y1664806D01*
X1881201Y1659299D02*
Y1664806D01*
X1881203Y1659300D02*
Y1664806D01*
X1881205Y1659302D02*
Y1664806D01*
X1881207Y1659304D02*
Y1664806D01*
X1881209Y1659305D02*
Y1664806D01*
X1881211Y1659307D02*
Y1664806D01*
X1881213Y1659309D02*
Y1664806D01*
X1881215Y1659310D02*
Y1664806D01*
X1881217Y1659312D02*
Y1664806D01*
X1881219Y1659314D02*
Y1664806D01*
X1881220Y1659315D02*
Y1664806D01*
X1881222Y1659317D02*
Y1664806D01*
X1881224Y1659318D02*
Y1664806D01*
X1881226Y1659320D02*
Y1664806D01*
X1881228Y1659322D02*
Y1664806D01*
X1881230Y1659323D02*
Y1664806D01*
X1881232Y1659325D02*
Y1664806D01*
X1881234Y1659327D02*
Y1664806D01*
X1881236Y1659328D02*
Y1664806D01*
X1881238Y1659330D02*
Y1664806D01*
X1881240Y1659331D02*
Y1664806D01*
X1881242Y1659333D02*
Y1664806D01*
X1881244Y1659335D02*
Y1664806D01*
X1881246Y1659336D02*
Y1664806D01*
X1881248Y1659338D02*
Y1664806D01*
X1881250Y1659340D02*
Y1664806D01*
X1881252Y1659341D02*
Y1664806D01*
X1881254Y1659343D02*
Y1664806D01*
X1881256Y1659344D02*
Y1664806D01*
X1881258Y1659346D02*
Y1664806D01*
X1881260Y1659348D02*
Y1664806D01*
X1881262Y1659349D02*
Y1664806D01*
X1881264Y1659351D02*
Y1664806D01*
X1881266Y1659353D02*
Y1664806D01*
X1881268Y1659354D02*
Y1664806D01*
X1881270Y1659356D02*
Y1664806D01*
X1881272Y1659358D02*
Y1664806D01*
X1881274Y1659359D02*
Y1664806D01*
X1881276Y1659361D02*
Y1664806D01*
X1881278Y1659362D02*
Y1664806D01*
X1881280Y1659364D02*
Y1664806D01*
X1881281Y1659366D02*
Y1664806D01*
X1881283Y1659367D02*
Y1664806D01*
X1881285Y1659369D02*
Y1664806D01*
X1881287Y1659371D02*
Y1664806D01*
X1881289Y1659372D02*
Y1664806D01*
X1881291Y1659374D02*
Y1664806D01*
X1881293Y1659375D02*
Y1664806D01*
X1881295Y1659377D02*
Y1664806D01*
X1881297Y1659379D02*
Y1664806D01*
X1881299Y1659380D02*
Y1664806D01*
X1881301Y1659382D02*
Y1664806D01*
X1881303Y1659384D02*
Y1664806D01*
X1881305Y1659385D02*
Y1664806D01*
X1881307Y1659387D02*
Y1664806D01*
X1881309Y1659388D02*
Y1664806D01*
X1881311Y1659390D02*
Y1664806D01*
X1881313Y1659392D02*
Y1664806D01*
X1881315Y1659393D02*
Y1664806D01*
X1881317Y1659395D02*
Y1664806D01*
X1881319Y1659397D02*
Y1664806D01*
X1881321Y1659398D02*
Y1664806D01*
X1881323Y1659400D02*
Y1664806D01*
X1881325Y1659401D02*
Y1664806D01*
X1881327Y1659403D02*
Y1664806D01*
X1881329Y1659405D02*
Y1664806D01*
X1881331Y1659406D02*
Y1664806D01*
X1881333Y1659408D02*
Y1664806D01*
X1881335Y1659410D02*
Y1664806D01*
X1881337Y1659411D02*
Y1664806D01*
X1881339Y1659413D02*
Y1664806D01*
X1881341Y1659415D02*
Y1664806D01*
X1881343Y1659416D02*
Y1664806D01*
X1881344Y1659418D02*
Y1664806D01*
X1881346Y1659419D02*
Y1664806D01*
X1881348Y1659421D02*
Y1664806D01*
X1881350Y1659423D02*
Y1664806D01*
X1881352Y1659424D02*
Y1664806D01*
X1881354Y1659426D02*
Y1664806D01*
X1881356Y1659428D02*
Y1664806D01*
X1881358Y1659429D02*
Y1664806D01*
X1881360Y1659431D02*
Y1664806D01*
X1881362Y1659432D02*
Y1664806D01*
X1881364Y1659434D02*
Y1664806D01*
X1881366Y1659436D02*
Y1664806D01*
X1881368Y1659437D02*
Y1664806D01*
X1881370Y1659439D02*
Y1664806D01*
X1881372Y1659441D02*
Y1664806D01*
X1881374Y1659442D02*
Y1664806D01*
X1881376Y1659444D02*
Y1664806D01*
X1881378Y1659445D02*
Y1664806D01*
X1881380Y1659447D02*
Y1664806D01*
X1881382Y1659449D02*
Y1664806D01*
X1881384Y1659450D02*
Y1664806D01*
X1881386Y1659452D02*
Y1664806D01*
X1881388Y1659454D02*
Y1664806D01*
X1881390Y1659455D02*
Y1664806D01*
X1881392Y1659457D02*
Y1664806D01*
X1881394Y1659459D02*
Y1664806D01*
X1881396Y1659460D02*
Y1664806D01*
X1881398Y1659462D02*
Y1664806D01*
X1881400Y1659463D02*
Y1664806D01*
X1881402Y1659465D02*
Y1664806D01*
X1881404Y1659467D02*
Y1664806D01*
X1881406Y1659468D02*
Y1664806D01*
X1881407Y1659470D02*
Y1664806D01*
X1881409Y1659472D02*
Y1664806D01*
X1881411Y1659473D02*
Y1664806D01*
X1881413Y1659475D02*
Y1664806D01*
X1881415Y1659476D02*
Y1664806D01*
X1881417Y1659478D02*
Y1664806D01*
X1881419Y1659480D02*
Y1664806D01*
X1881421Y1659481D02*
Y1664806D01*
X1881423Y1659483D02*
Y1664806D01*
X1881425Y1659485D02*
Y1664806D01*
X1881427Y1659486D02*
Y1664806D01*
X1881429Y1659488D02*
Y1664806D01*
X1881431Y1659489D02*
Y1664806D01*
X1881433Y1659491D02*
Y1664806D01*
X1881435Y1659493D02*
Y1664806D01*
X1881437Y1659494D02*
Y1664806D01*
X1881439Y1659496D02*
Y1664806D01*
X1881441Y1659498D02*
Y1664806D01*
X1881443Y1659499D02*
Y1664806D01*
X1881445Y1659501D02*
Y1664806D01*
X1881447Y1659503D02*
Y1664806D01*
X1881449Y1659504D02*
Y1664806D01*
X1881451Y1659506D02*
Y1664806D01*
X1881453Y1659507D02*
Y1664806D01*
X1881455Y1659509D02*
Y1664806D01*
X1881457Y1659511D02*
Y1664806D01*
X1881459Y1659512D02*
Y1664806D01*
X1881461Y1659514D02*
Y1664806D01*
X1881463Y1659516D02*
Y1664806D01*
X1881465Y1659517D02*
Y1664806D01*
X1881467Y1659519D02*
Y1664806D01*
X1881469Y1659520D02*
Y1664806D01*
X1881470Y1659522D02*
Y1664806D01*
X1881472Y1659524D02*
Y1664806D01*
X1881474Y1659525D02*
Y1664806D01*
X1881476Y1659527D02*
Y1664806D01*
X1881478Y1659529D02*
Y1664806D01*
X1881480Y1659530D02*
Y1664806D01*
X1881482Y1659532D02*
Y1664806D01*
X1881484Y1659533D02*
Y1664806D01*
X1881486Y1659535D02*
Y1664806D01*
X1881488Y1659537D02*
Y1664806D01*
X1881490Y1659538D02*
Y1664806D01*
X1881492Y1659540D02*
Y1664806D01*
X1881494Y1659542D02*
Y1664806D01*
X1881496Y1659543D02*
Y1664806D01*
X1881498Y1659545D02*
Y1664806D01*
X1881500Y1659546D02*
Y1664806D01*
X1881502Y1659548D02*
Y1664806D01*
X1881504Y1659550D02*
Y1664806D01*
X1881506Y1659551D02*
Y1664806D01*
X1881508Y1659553D02*
Y1664806D01*
X1881510Y1659555D02*
Y1664806D01*
X1881512Y1659556D02*
Y1664806D01*
X1881514Y1659558D02*
Y1664806D01*
X1881516Y1659560D02*
Y1664806D01*
X1881518Y1659561D02*
Y1664806D01*
X1881520Y1659563D02*
Y1664806D01*
X1881522Y1659564D02*
Y1664806D01*
X1881524Y1659566D02*
Y1664806D01*
X1881526Y1659568D02*
Y1664806D01*
X1881528Y1659569D02*
Y1664806D01*
X1881530Y1659571D02*
Y1664806D01*
X1881531Y1659573D02*
Y1664806D01*
X1881533Y1659574D02*
Y1664806D01*
X1881535Y1659576D02*
Y1664806D01*
X1881537Y1659577D02*
Y1664806D01*
X1881539Y1659579D02*
Y1664806D01*
X1881541Y1659581D02*
Y1664806D01*
X1881543Y1659582D02*
Y1664806D01*
X1881545Y1659584D02*
Y1664806D01*
X1881547Y1659586D02*
Y1664806D01*
X1881549Y1659587D02*
Y1664806D01*
X1881551Y1659589D02*
Y1664806D01*
X1881553Y1659590D02*
Y1664806D01*
X1881555Y1659592D02*
Y1664806D01*
X1881557Y1659594D02*
Y1664806D01*
X1881559Y1659595D02*
Y1664806D01*
X1881561Y1659597D02*
Y1664806D01*
X1881563Y1659599D02*
Y1664806D01*
X1881565Y1659600D02*
Y1664806D01*
X1881567Y1659602D02*
Y1664806D01*
X1881569Y1659604D02*
Y1664806D01*
X1881571Y1659605D02*
Y1664806D01*
X1881573Y1659607D02*
Y1664806D01*
X1881575Y1659608D02*
Y1664806D01*
X1881577Y1659610D02*
Y1664806D01*
X1881579Y1659612D02*
Y1664806D01*
X1881581Y1659613D02*
Y1664806D01*
X1881583Y1659615D02*
Y1664806D01*
X1881585Y1659617D02*
Y1664806D01*
X1881587Y1659618D02*
Y1664806D01*
X1881589Y1659620D02*
Y1664806D01*
X1881591Y1659621D02*
Y1664806D01*
X1881593Y1659623D02*
Y1664806D01*
X1881594Y1659625D02*
Y1664806D01*
X1881596Y1659626D02*
Y1664806D01*
X1881598Y1659628D02*
Y1664806D01*
X1881600Y1659630D02*
Y1664806D01*
X1881602Y1659631D02*
Y1664806D01*
X1881604Y1659633D02*
Y1664806D01*
X1881606Y1659634D02*
Y1664806D01*
X1881608Y1659636D02*
Y1664806D01*
X1881610Y1659638D02*
Y1664806D01*
X1881612Y1659639D02*
Y1664806D01*
X1881614Y1659641D02*
Y1664806D01*
X1881616Y1659643D02*
Y1664806D01*
X1881618Y1659644D02*
Y1664806D01*
X1881620Y1659646D02*
Y1664806D01*
X1881622Y1659647D02*
Y1664806D01*
X1881624Y1659649D02*
Y1664806D01*
X1881626Y1659651D02*
Y1664806D01*
X1881628Y1659652D02*
Y1664806D01*
X1881630Y1659654D02*
Y1664806D01*
X1881632Y1659656D02*
Y1664806D01*
X1881634Y1659657D02*
Y1664806D01*
X1881636Y1659659D02*
Y1664806D01*
X1881638Y1659661D02*
Y1664806D01*
X1881640Y1659662D02*
Y1664806D01*
X1881642Y1659664D02*
Y1664806D01*
X1881644Y1659665D02*
Y1664806D01*
X1881646Y1659667D02*
Y1664806D01*
X1881648Y1659669D02*
Y1664806D01*
X1881650Y1659670D02*
Y1664806D01*
X1881652Y1659672D02*
Y1664806D01*
X1881654Y1659674D02*
Y1664806D01*
X1881656Y1659675D02*
Y1664806D01*
X1881657Y1659677D02*
Y1664806D01*
X1881659Y1659678D02*
Y1664806D01*
X1881661Y1659680D02*
Y1664806D01*
X1881663Y1659682D02*
Y1664806D01*
X1881665Y1659683D02*
Y1664806D01*
X1881667Y1659685D02*
Y1664806D01*
X1881669Y1659687D02*
Y1664806D01*
X1881671Y1659688D02*
Y1664806D01*
X1881673Y1659690D02*
Y1664806D01*
X1881675Y1659691D02*
Y1664806D01*
X1881677Y1659693D02*
Y1664806D01*
X1881679Y1659695D02*
Y1664806D01*
X1881681Y1659696D02*
Y1664806D01*
X1881683Y1659698D02*
Y1664806D01*
X1881685Y1659700D02*
Y1664806D01*
X1881687Y1659701D02*
Y1664806D01*
X1881689Y1659703D02*
Y1664806D01*
X1881691Y1659705D02*
Y1664806D01*
X1881693Y1659706D02*
Y1664806D01*
X1881695Y1659708D02*
Y1664806D01*
X1881697Y1659709D02*
Y1664806D01*
X1881699Y1659711D02*
Y1664806D01*
X1881701Y1659713D02*
Y1664806D01*
X1881703Y1659714D02*
Y1664806D01*
X1881705Y1659716D02*
Y1664806D01*
X1881707Y1659718D02*
Y1664806D01*
X1881709Y1659719D02*
Y1664806D01*
X1881711Y1659721D02*
Y1664806D01*
X1881713Y1659722D02*
Y1664806D01*
X1881715Y1659724D02*
Y1664806D01*
X1881717Y1659726D02*
Y1664806D01*
X1881719Y1659727D02*
Y1664806D01*
X1881720Y1659729D02*
Y1664806D01*
X1881722Y1659731D02*
Y1664806D01*
X1881724Y1659732D02*
Y1664806D01*
X1881726Y1659734D02*
Y1664806D01*
X1881728Y1659735D02*
Y1664806D01*
X1881730Y1659737D02*
Y1664806D01*
X1881732Y1659739D02*
Y1664806D01*
X1881734Y1659740D02*
Y1664806D01*
X1881736Y1659742D02*
Y1664806D01*
X1881738Y1659744D02*
Y1664806D01*
X1881740Y1659745D02*
Y1664806D01*
X1881742Y1659747D02*
Y1664806D01*
X1881744Y1659748D02*
Y1664806D01*
X1881746Y1659750D02*
Y1664806D01*
X1881748Y1659752D02*
Y1664806D01*
X1881750Y1659753D02*
Y1664806D01*
X1881752Y1659755D02*
Y1664806D01*
X1881754Y1659757D02*
Y1664806D01*
X1881756Y1659758D02*
Y1664806D01*
X1881758Y1659760D02*
Y1664806D01*
X1881760Y1659762D02*
Y1664806D01*
X1881762Y1659763D02*
Y1664806D01*
X1881764Y1659765D02*
Y1664806D01*
X1881766Y1659766D02*
Y1664806D01*
X1881768Y1659768D02*
Y1664806D01*
X1881770Y1659770D02*
Y1664806D01*
X1881772Y1659771D02*
Y1664806D01*
X1881774Y1659773D02*
Y1664806D01*
X1881776Y1659775D02*
Y1664806D01*
X1881778Y1659776D02*
Y1664806D01*
X1881780Y1659778D02*
Y1664806D01*
X1881781Y1659779D02*
Y1664806D01*
X1881783Y1659781D02*
Y1664806D01*
X1881785Y1659783D02*
Y1664806D01*
X1881787Y1659784D02*
Y1664806D01*
X1881789Y1659786D02*
Y1664806D01*
X1881791Y1659788D02*
Y1664806D01*
X1881793Y1659789D02*
Y1664806D01*
X1881795Y1659791D02*
Y1664806D01*
X1881797Y1659792D02*
Y1664806D01*
X1881799Y1659794D02*
Y1664806D01*
X1881801Y1659796D02*
Y1664806D01*
X1881803Y1659797D02*
Y1664806D01*
X1881805Y1659799D02*
Y1664806D01*
X1881807Y1659801D02*
Y1664806D01*
X1881809Y1659802D02*
Y1664806D01*
X1881811Y1659804D02*
Y1664806D01*
X1881813Y1659806D02*
Y1664806D01*
X1881815Y1659807D02*
Y1664806D01*
X1881817Y1659809D02*
Y1664806D01*
X1881819Y1659810D02*
Y1664806D01*
X1881821Y1659812D02*
Y1664806D01*
X1881823Y1659814D02*
Y1664806D01*
X1881825Y1659815D02*
Y1664806D01*
X1881827Y1659817D02*
Y1664806D01*
X1881829Y1659819D02*
Y1664806D01*
X1881831Y1659820D02*
Y1664806D01*
X1881833Y1659822D02*
Y1664806D01*
X1881835Y1659823D02*
Y1664806D01*
X1881837Y1659825D02*
Y1664806D01*
X1881839Y1659827D02*
Y1664806D01*
X1881841Y1659828D02*
Y1664806D01*
X1881843Y1659830D02*
Y1664806D01*
X1881844Y1659832D02*
Y1664806D01*
X1881846Y1659833D02*
Y1664806D01*
X1881848Y1659835D02*
Y1664806D01*
X1881850Y1659836D02*
Y1664806D01*
X1881852Y1659838D02*
Y1664806D01*
X1881854Y1659840D02*
Y1664806D01*
X1881856Y1659841D02*
Y1664806D01*
X1881858Y1659843D02*
Y1664806D01*
X1881860Y1659845D02*
Y1664806D01*
X1881862Y1659846D02*
Y1664806D01*
X1881864Y1659848D02*
Y1664806D01*
X1881866Y1659850D02*
Y1664806D01*
X1881868Y1659851D02*
Y1664806D01*
X1881870Y1659853D02*
Y1664806D01*
X1881872Y1659854D02*
Y1664806D01*
X1881874Y1659856D02*
Y1664806D01*
X1881876Y1659858D02*
Y1664806D01*
X1881878Y1659859D02*
Y1664806D01*
X1881880Y1659861D02*
Y1664806D01*
X1881882Y1659863D02*
Y1664806D01*
X1881884Y1659864D02*
Y1664806D01*
X1881886Y1659866D02*
Y1664806D01*
X1881888Y1659867D02*
Y1664806D01*
X1881890Y1659869D02*
Y1664806D01*
X1881892Y1659871D02*
Y1664806D01*
X1881894Y1659872D02*
Y1664806D01*
X1881896Y1659874D02*
Y1664806D01*
X1881898Y1659876D02*
Y1664806D01*
X1881900Y1659877D02*
Y1664806D01*
X1881902Y1659879D02*
Y1664806D01*
X1881904Y1659880D02*
Y1664806D01*
X1881906Y1659882D02*
Y1664805D01*
X1881907Y1659884D02*
Y1664805D01*
X1881909Y1659885D02*
Y1664805D01*
X1881911Y1659887D02*
Y1664805D01*
X1881913Y1659889D02*
Y1664805D01*
X1881915Y1659890D02*
Y1664805D01*
X1881917Y1659892D02*
Y1664805D01*
X1881919Y1659893D02*
Y1664804D01*
X1881921Y1659895D02*
Y1664804D01*
X1881923Y1659897D02*
Y1664804D01*
X1881925Y1659898D02*
Y1664804D01*
X1881927Y1659900D02*
Y1664804D01*
X1881929Y1659902D02*
Y1664803D01*
X1881931Y1659903D02*
Y1664803D01*
X1881933Y1659905D02*
Y1664803D01*
X1881935Y1659907D02*
Y1664802D01*
X1881937Y1659908D02*
Y1664802D01*
X1881939Y1659910D02*
Y1664802D01*
X1881941Y1659911D02*
Y1664801D01*
X1881943Y1659913D02*
Y1664801D01*
X1881945Y1659915D02*
Y1664801D01*
X1881947Y1659916D02*
Y1664800D01*
X1881949Y1659918D02*
Y1664800D01*
X1881951Y1659920D02*
Y1664800D01*
X1881953Y1659921D02*
Y1664799D01*
X1881955Y1659923D02*
Y1664799D01*
X1881957Y1659924D02*
Y1664798D01*
X1881959Y1659926D02*
Y1664798D01*
X1881961Y1659928D02*
Y1664797D01*
X1881963Y1659929D02*
Y1664797D01*
X1881965Y1659931D02*
Y1664796D01*
X1881967Y1659933D02*
Y1664796D01*
X1881969Y1659934D02*
Y1664795D01*
X1881970Y1659936D02*
Y1664795D01*
X1881972Y1659937D02*
Y1664794D01*
X1881974Y1659939D02*
Y1664794D01*
X1881976Y1659941D02*
Y1664793D01*
X1881978Y1659942D02*
Y1664792D01*
X1881980Y1659944D02*
Y1664792D01*
X1881982Y1659946D02*
Y1664791D01*
X1881984Y1659947D02*
Y1664791D01*
X1881986Y1659949D02*
Y1664790D01*
X1881988Y1659951D02*
Y1664789D01*
X1881990Y1659952D02*
Y1664788D01*
X1881992Y1659954D02*
Y1664788D01*
X1881994Y1659955D02*
Y1664787D01*
X1881996Y1659957D02*
Y1664786D01*
X1881998Y1659959D02*
Y1664786D01*
X1882000Y1659960D02*
Y1664785D01*
X1882002Y1659962D02*
Y1664784D01*
X1882004Y1659964D02*
Y1664783D01*
X1882006Y1659965D02*
Y1664782D01*
X1882008Y1659967D02*
Y1664781D01*
X1882010Y1659968D02*
Y1664781D01*
X1882012Y1659970D02*
Y1664780D01*
X1882014Y1659972D02*
Y1664779D01*
X1882016Y1659973D02*
Y1664778D01*
X1882018Y1659975D02*
Y1664777D01*
X1882020Y1659977D02*
Y1664776D01*
X1882022Y1659978D02*
Y1664775D01*
X1882024Y1659980D02*
Y1664774D01*
X1882026Y1659981D02*
Y1664773D01*
X1882028Y1659983D02*
Y1664772D01*
X1882030Y1659985D02*
Y1664771D01*
X1882031Y1659986D02*
Y1664770D01*
X1882033Y1659988D02*
Y1664769D01*
X1882035Y1659990D02*
Y1664768D01*
X1882037Y1659991D02*
Y1664767D01*
X1882039Y1659993D02*
Y1664766D01*
X1882041Y1659994D02*
Y1664764D01*
X1882043Y1659996D02*
Y1664763D01*
X1882045Y1659998D02*
Y1664762D01*
X1882047Y1659999D02*
Y1664761D01*
X1882049Y1660001D02*
Y1664760D01*
X1882051Y1660003D02*
Y1664758D01*
X1882053Y1660004D02*
Y1664757D01*
X1882055Y1660006D02*
Y1664756D01*
X1882057Y1660008D02*
Y1664754D01*
X1882059Y1660009D02*
Y1664753D01*
X1882061Y1660011D02*
Y1664752D01*
X1882063Y1660012D02*
Y1664750D01*
X1882065Y1660014D02*
Y1664749D01*
X1882067Y1660016D02*
Y1664747D01*
X1882069Y1660017D02*
Y1664746D01*
X1882071Y1660019D02*
Y1664745D01*
X1882073Y1660021D02*
Y1664743D01*
X1882075Y1660022D02*
Y1664741D01*
X1882077Y1660024D02*
Y1664740D01*
X1882079Y1660025D02*
Y1664738D01*
X1882081Y1660027D02*
Y1664737D01*
X1882083Y1660029D02*
Y1664735D01*
X1882085Y1660030D02*
Y1664733D01*
X1882087Y1660032D02*
Y1664732D01*
X1882089Y1660034D02*
Y1664730D01*
X1882091Y1660036D02*
Y1664728D01*
X1882093Y1660037D02*
Y1664726D01*
X1882094Y1660039D02*
Y1664724D01*
X1882096Y1660041D02*
Y1664723D01*
X1882098Y1660043D02*
Y1664721D01*
X1882100Y1660045D02*
Y1664719D01*
X1882102Y1660047D02*
Y1664717D01*
X1882104Y1660049D02*
Y1664715D01*
X1882106Y1660051D02*
Y1664713D01*
X1882108Y1660053D02*
Y1664711D01*
X1882110Y1660055D02*
Y1664708D01*
X1882112Y1660058D02*
Y1664706D01*
X1882114Y1660060D02*
Y1664704D01*
X1882116Y1660062D02*
Y1664702D01*
X1882118Y1660064D02*
Y1664699D01*
X1882120Y1660067D02*
Y1664697D01*
X1882122Y1660069D02*
Y1664695D01*
X1882124Y1660072D02*
Y1664692D01*
X1882126Y1660074D02*
Y1664690D01*
X1882128Y1660077D02*
Y1664687D01*
X1882130Y1660079D02*
Y1664684D01*
X1882132Y1660082D02*
Y1664682D01*
X1882134Y1660085D02*
Y1664679D01*
X1882136Y1660088D02*
Y1664676D01*
X1882138Y1660091D02*
Y1664673D01*
X1882140Y1660094D02*
Y1664670D01*
X1882142Y1660097D02*
Y1664667D01*
X1882144Y1660100D02*
Y1664664D01*
X1882146Y1660103D02*
Y1664661D01*
X1882148Y1660107D02*
Y1664657D01*
X1882150Y1660110D02*
Y1664654D01*
X1882152Y1660114D02*
Y1664650D01*
X1882154Y1660117D02*
Y1664647D01*
X1882156Y1660121D02*
Y1664643D01*
X1882157Y1660125D02*
Y1664639D01*
X1882159Y1660129D02*
Y1664635D01*
X1882161Y1660133D02*
Y1664630D01*
X1882163Y1660138D02*
Y1664626D01*
X1882165Y1660143D02*
Y1664621D01*
X1882167Y1660147D02*
Y1664616D01*
X1882169Y1660153D02*
Y1664611D01*
X1882171Y1660158D02*
Y1664606D01*
X1882173Y1660164D02*
Y1664600D01*
X1882175Y1660170D02*
Y1664594D01*
X1882177Y1660177D02*
Y1664587D01*
X1882179Y1660185D02*
Y1664579D01*
X1882181Y1660193D02*
Y1664571D01*
X1882183Y1660203D02*
Y1664561D01*
X1882185Y1660216D02*
Y1664548D01*
X1882187Y1660235D02*
Y1664529D01*
G54D220*
X2064921Y1709586D03*
Y1715886D03*
X1859921Y1608287D03*
X1866221D03*
X1859921Y1601083D03*
X1866221D03*
X1859921Y1594035D03*
X1866221D03*
G54D229*
X1916811Y1544213D03*
X1997953Y1624016D03*
G54D250*
X2041496Y1675728D03*
X2039528D03*
X2037559D03*
X2035591D03*
X2033622D03*
X2031654D03*
X2029685D03*
X2027717D03*
X2025748D03*
X2023780D03*
X2021811D03*
X2019843D03*
G54D251*
X2049173Y1682618D03*
X2012165D03*
G54D261*
X2069173Y1631083D03*
X2065236D03*
Y1636594D03*
X2069173D03*
X2071929Y1702303D03*
X2075866D03*
X1935236Y1558366D03*
X1931299D03*
X1929252Y1536358D03*
X1925315D03*
X1877087Y1608287D03*
X1873150D03*
X1975630Y1609232D03*
X1971693D03*
Y1615059D03*
X1975630D03*
X1901378Y1581909D03*
X1905315D03*
Y1587224D03*
X1901378D03*
X1920512Y1536358D03*
X1916575D03*
X2009173Y1546280D03*
X2013110D03*
X2018583D03*
X2022520D03*
X1883622Y1668996D03*
X1887559D03*
X1903386Y1533760D03*
X1907323D03*
X1931220Y1553248D03*
X1935157D03*
X1877087Y1601083D03*
X1873150D03*
X1882835Y1648130D03*
X1878898D03*
X1876929Y1594035D03*
X1872992D03*
X2066063Y1579035D03*
X2070000D03*
X2066063Y1573484D03*
X2070000D03*
X1969882Y1671555D03*
X1965945D03*
X1878701Y1636909D03*
X1882638D03*
X1878740Y1642067D03*
X1882677D03*
X2076142Y1543524D03*
X2080079D03*
X1965433Y1513209D03*
X1969370D03*
X1991378Y1506043D03*
X1987441D03*
X2091339Y1561240D03*
X2095276D03*
G54D262*
X2064291Y1620650D03*
Y1624587D03*
X2064921Y1699075D03*
Y1703012D03*
X1884449Y1535335D03*
Y1531398D03*
X1928543Y1620886D03*
Y1624823D03*
X2044567Y1657382D03*
Y1661319D03*
X2037008Y1656831D03*
Y1660768D03*
X2032126Y1656713D03*
Y1660650D03*
X2121811Y1512028D03*
Y1515965D03*
X1928504Y1600689D03*
Y1596752D03*
X1901378Y1600453D03*
Y1596516D03*
X1931102Y1548130D03*
Y1544193D03*
X1872402Y1579783D03*
Y1575846D03*
X1894646Y1660098D03*
Y1656161D03*
X1881260Y1550571D03*
Y1554508D03*
X1893110Y1636516D03*
Y1640453D03*
X1927913Y1695492D03*
Y1699429D03*
X1939449Y1619350D03*
Y1623287D03*
X1919685Y1699429D03*
Y1695492D03*
X1948031Y1623287D03*
Y1619350D03*
X2085906Y1512028D03*
Y1515965D03*
X2049409Y1512028D03*
Y1515965D03*
X1969331Y1508169D03*
Y1504232D03*
X1961063Y1578327D03*
Y1582264D03*
X2020197Y1567618D03*
Y1571555D03*
X1971220Y1593327D03*
Y1597264D03*
X2000709Y1520020D03*
Y1516083D03*
X1957953Y1519941D03*
Y1516004D03*
X1958543Y1624980D03*
Y1628917D03*
G54D293*
X1849213Y1721673D02*
X2150787D01*
Y1478327*
X1849213*
Y1721673*
G54D309*
X1898583Y1515689D03*
Y1525138D03*
X2105551Y1561398D03*
Y1551949D03*
G54D322*
X2091102Y1689862D03*
Y1683957D03*
Y1678051D03*
X2091220Y1672146D03*
X2091102Y1666240D03*
Y1660335D03*
Y1654429D03*
Y1648524D03*
Y1642618D03*
Y1636713D03*
Y1630807D03*
Y1624902D03*
X2143071D03*
Y1630807D03*
Y1636713D03*
Y1642618D03*
Y1648524D03*
Y1654429D03*
Y1660335D03*
Y1666240D03*
Y1672146D03*
Y1678051D03*
Y1683957D03*
Y1689862D03*
G54D323*
X2091102Y1618996D03*
X2143071D03*
G54D324*
X2096417Y1612106D03*
X2137756D03*
G54D325*
X2102323D03*
X2108228D03*
X2114134D03*
X2120039D03*
X2125945D03*
X2131850D03*
G54D326*
X1978268Y1493209D03*
X1990079D03*
X1995984D03*
G54D327*
X1972756Y1490256D03*
X2001496Y1489311D03*
X1972756Y1481201D03*
X2001496D03*
G54D328*
X1878898Y1655217D03*
X1887559Y1661909D03*
Y1655217D03*
G54D329*
X1981547Y1519980D03*
Y1516240D03*
Y1512500D03*
X1992783D03*
Y1516240D03*
Y1519980D03*
G54D330*
X1974921Y1520020D03*
X1965472D03*
G54D331*
X1985236Y1597303D03*
G54D332*
Y1592303D03*
Y1587303D03*
Y1582303D03*
Y1577303D03*
Y1572303D03*
Y1567303D03*
X2009646D03*
Y1572303D03*
Y1577303D03*
Y1582303D03*
Y1587303D03*
Y1592303D03*
Y1597303D03*
G54D333*
X2113937Y1487657D03*
X2135787Y1499469D03*
X2135591Y1487657D03*
X2113937Y1499469D03*
X2077835Y1487657D03*
X2099685Y1499469D03*
X2099488Y1487657D03*
X2077835Y1499469D03*
X2041063Y1487343D03*
X2062913Y1499154D03*
X2062717Y1487343D03*
X2041063Y1499154D03*
G54D334*
X1868189Y1535335D03*
Y1537894D03*
Y1540453D03*
Y1543012D03*
Y1545571D03*
G54D335*
X1856319Y1524311D03*
Y1556594D03*
X0Y0D02*
M02*
